G75*
%MOIN*%
%OFA0B0*%
%FSLAX25Y25*%
%IPPOS*%
%LPD*%
%AMOC8*
5,1,8,0,0,1.08239X$1,22.5*
%
%ADD10C,0.00787*%
%ADD11C,0.00800*%
%ADD12C,0.01000*%
%ADD13C,0.01100*%
D10*
X0057156Y0011556D02*
X0057156Y0090306D01*
X0285281Y0090306D01*
X0285281Y0011556D01*
X0057156Y0011556D01*
D11*
X0131034Y0041956D02*
X0133136Y0041956D01*
X0133837Y0042657D01*
X0133837Y0044058D01*
X0133136Y0044758D01*
X0131034Y0044758D01*
X0131034Y0046160D02*
X0131034Y0041956D01*
X0135505Y0041956D02*
X0136906Y0041956D01*
X0136206Y0041956D02*
X0136206Y0046160D01*
X0136906Y0046160D01*
X0138708Y0044058D02*
X0139408Y0044758D01*
X0140809Y0044758D01*
X0141510Y0044058D01*
X0141510Y0042657D01*
X0140809Y0041956D01*
X0139408Y0041956D01*
X0138708Y0043357D02*
X0141510Y0043357D01*
X0143178Y0041956D02*
X0144579Y0041956D01*
X0143879Y0041956D02*
X0143879Y0044758D01*
X0144579Y0044758D01*
X0143879Y0046160D02*
X0143879Y0046860D01*
X0146247Y0046160D02*
X0146948Y0045459D01*
X0146948Y0041956D01*
X0149317Y0041956D02*
X0150017Y0042657D01*
X0150017Y0045459D01*
X0149317Y0044758D02*
X0150718Y0044758D01*
X0152519Y0044758D02*
X0154621Y0044758D01*
X0155322Y0044058D01*
X0154621Y0043357D01*
X0153220Y0043357D01*
X0152519Y0042657D01*
X0153220Y0041956D01*
X0155322Y0041956D01*
X0157123Y0043357D02*
X0159926Y0043357D01*
X0159926Y0042657D02*
X0159926Y0044058D01*
X0159225Y0044758D01*
X0157824Y0044758D01*
X0157123Y0044058D01*
X0157123Y0043357D01*
X0157824Y0041956D02*
X0159225Y0041956D01*
X0159926Y0042657D01*
X0161727Y0041956D02*
X0161727Y0046160D01*
X0164530Y0046160D02*
X0164530Y0041956D01*
X0163128Y0043357D01*
X0161727Y0041956D01*
X0170935Y0041956D02*
X0170935Y0044058D01*
X0171636Y0044758D01*
X0172336Y0044058D01*
X0172336Y0041956D01*
X0173737Y0041956D02*
X0173737Y0044758D01*
X0173037Y0044758D01*
X0172336Y0044058D01*
X0175539Y0044058D02*
X0175539Y0041956D01*
X0177641Y0041956D01*
X0178341Y0042657D01*
X0177641Y0043357D01*
X0175539Y0043357D01*
X0175539Y0044058D02*
X0176240Y0044758D01*
X0177641Y0044758D01*
X0180710Y0044758D02*
X0180710Y0041956D01*
X0180010Y0041956D02*
X0181411Y0041956D01*
X0183079Y0041956D02*
X0184480Y0041956D01*
X0183779Y0041956D02*
X0183779Y0046160D01*
X0184480Y0046160D01*
X0186849Y0046160D02*
X0186849Y0041956D01*
X0187549Y0041956D02*
X0186148Y0041956D01*
X0189217Y0041956D02*
X0190619Y0041956D01*
X0189918Y0041956D02*
X0189918Y0044758D01*
X0190619Y0044758D01*
X0189918Y0046160D02*
X0189918Y0046860D01*
X0187549Y0046160D02*
X0186849Y0046160D01*
X0192420Y0046160D02*
X0192420Y0041956D01*
X0193821Y0043357D01*
X0195222Y0041956D01*
X0195222Y0046160D01*
X0201628Y0044758D02*
X0201628Y0041256D01*
X0202329Y0040555D01*
X0203029Y0040555D01*
X0203730Y0041956D02*
X0201628Y0041956D01*
X0203730Y0041956D02*
X0204430Y0042657D01*
X0204430Y0044758D01*
X0206232Y0044058D02*
X0206932Y0044758D01*
X0209034Y0044758D01*
X0209034Y0046160D02*
X0209034Y0041956D01*
X0206932Y0041956D01*
X0206232Y0042657D01*
X0206232Y0044058D01*
X0215440Y0044058D02*
X0217541Y0044058D01*
X0218242Y0044758D01*
X0218242Y0045459D01*
X0217541Y0046160D01*
X0216140Y0046160D01*
X0215440Y0045459D01*
X0215440Y0042657D01*
X0216140Y0041956D01*
X0217541Y0041956D01*
X0218242Y0042657D01*
X0220044Y0041956D02*
X0222846Y0041956D01*
X0221445Y0041956D02*
X0221445Y0046160D01*
X0222846Y0044758D01*
X0224648Y0045459D02*
X0227450Y0042657D01*
X0226749Y0041956D01*
X0225348Y0041956D01*
X0224648Y0042657D01*
X0224648Y0045459D01*
X0225348Y0046160D01*
X0226749Y0046160D01*
X0227450Y0045459D01*
X0227450Y0042657D01*
X0229251Y0041956D02*
X0232054Y0041956D01*
X0229251Y0044758D01*
X0229251Y0045459D01*
X0229952Y0046160D01*
X0231353Y0046160D01*
X0232054Y0045459D01*
X0238326Y0044758D02*
X0239727Y0044758D01*
X0239026Y0045459D02*
X0239026Y0042657D01*
X0238326Y0041956D01*
X0241529Y0041956D02*
X0241529Y0044058D01*
X0242229Y0044758D01*
X0243630Y0044758D01*
X0244331Y0044058D01*
X0246133Y0044758D02*
X0248234Y0044758D01*
X0248935Y0044058D01*
X0248935Y0042657D01*
X0248234Y0041956D01*
X0246133Y0041956D01*
X0246133Y0041256D02*
X0246133Y0044758D01*
X0244331Y0046160D02*
X0244331Y0041956D01*
X0246133Y0041256D02*
X0246833Y0040555D01*
X0247534Y0040555D01*
X0250603Y0041956D02*
X0252004Y0041956D01*
X0251304Y0041956D02*
X0251304Y0044758D01*
X0252004Y0044758D01*
X0251304Y0046160D02*
X0251304Y0046860D01*
X0253739Y0044758D02*
X0254440Y0044758D01*
X0255841Y0043357D01*
X0255841Y0041956D02*
X0255841Y0044758D01*
X0257642Y0044758D02*
X0257642Y0041256D01*
X0258343Y0040555D01*
X0259044Y0040555D01*
X0259744Y0041956D02*
X0257642Y0041956D01*
X0259744Y0041956D02*
X0260445Y0042657D01*
X0260445Y0044758D01*
X0262246Y0044058D02*
X0262246Y0042657D01*
X0262947Y0041956D01*
X0265049Y0041956D01*
X0265049Y0040555D02*
X0265049Y0044758D01*
X0262947Y0044758D01*
X0262246Y0044058D01*
X0266850Y0044058D02*
X0266850Y0042657D01*
X0267551Y0041956D01*
X0268952Y0041956D01*
X0269653Y0042657D01*
X0269653Y0044058D01*
X0268952Y0044758D01*
X0267551Y0044758D01*
X0266850Y0044058D01*
X0271454Y0045459D02*
X0272155Y0046160D01*
X0273556Y0046160D01*
X0274256Y0045459D01*
X0274256Y0042657D01*
X0273556Y0041956D01*
X0272155Y0041956D01*
X0271454Y0042657D01*
X0181411Y0044758D02*
X0180710Y0044758D01*
X0180710Y0046160D02*
X0180710Y0046860D01*
X0174116Y0053520D02*
X0174116Y0062092D01*
X0155196Y0062092D01*
X0155196Y0053520D01*
X0174116Y0053520D01*
X0147649Y0044058D02*
X0146247Y0044058D01*
X0138708Y0044058D02*
X0138708Y0043357D01*
D12*
X0195294Y0060440D02*
X0195294Y0063976D01*
X0196178Y0064860D01*
X0197946Y0064860D01*
X0198830Y0063976D01*
X0198830Y0063092D01*
X0197946Y0062208D01*
X0195294Y0062208D01*
X0195294Y0060440D02*
X0196178Y0059556D01*
X0197946Y0059556D01*
X0198830Y0060440D01*
X0201094Y0060440D02*
X0201978Y0059556D01*
X0203746Y0059556D01*
X0204630Y0060440D01*
X0201094Y0063976D01*
X0201094Y0060440D01*
X0204630Y0060440D02*
X0204630Y0063976D01*
X0203746Y0064860D01*
X0201978Y0064860D01*
X0201094Y0063976D01*
X0206894Y0063976D02*
X0206894Y0063092D01*
X0207778Y0062208D01*
X0209546Y0062208D01*
X0210430Y0063092D01*
X0210430Y0063976D01*
X0209546Y0064860D01*
X0207778Y0064860D01*
X0206894Y0063976D01*
X0207778Y0062208D02*
X0206894Y0061324D01*
X0206894Y0060440D01*
X0207778Y0059556D01*
X0209546Y0059556D01*
X0210430Y0060440D01*
X0210430Y0061324D01*
X0209546Y0062208D01*
X0212694Y0062208D02*
X0216230Y0062208D01*
X0213578Y0064860D01*
X0213578Y0059556D01*
X0218495Y0059556D02*
X0218495Y0062208D01*
X0219379Y0063092D01*
X0221146Y0063092D01*
X0224295Y0063092D02*
X0226947Y0063092D01*
X0227831Y0062208D01*
X0227831Y0060440D01*
X0226947Y0059556D01*
X0224295Y0059556D01*
X0224295Y0058672D02*
X0224295Y0063092D01*
X0222030Y0060440D02*
X0221146Y0061324D01*
X0218495Y0061324D01*
X0218495Y0059556D02*
X0221146Y0059556D01*
X0222030Y0060440D01*
X0224295Y0058672D02*
X0225179Y0057788D01*
X0226063Y0057788D01*
X0230979Y0059556D02*
X0232747Y0059556D01*
X0233631Y0060440D01*
X0233631Y0062208D01*
X0232747Y0063092D01*
X0230979Y0063092D01*
X0230095Y0062208D01*
X0230095Y0061324D01*
X0233631Y0061324D01*
X0235895Y0062208D02*
X0235895Y0059556D01*
X0237663Y0059556D02*
X0237663Y0062208D01*
X0236779Y0063092D01*
X0235895Y0062208D01*
X0237663Y0062208D02*
X0238547Y0063092D01*
X0239431Y0063092D01*
X0239431Y0059556D01*
X0243463Y0059556D02*
X0243463Y0064860D01*
X0245231Y0064860D02*
X0241695Y0064860D01*
X0247496Y0063092D02*
X0247496Y0059556D01*
X0251031Y0059556D02*
X0251031Y0063092D01*
X0249264Y0064860D01*
X0247496Y0063092D01*
X0247496Y0062208D02*
X0251031Y0062208D01*
D13*
X0183200Y0037261D02*
X0183200Y0033591D01*
X0181365Y0031756D01*
X0179530Y0033591D01*
X0179530Y0037261D01*
X0177123Y0034508D02*
X0176206Y0035426D01*
X0174371Y0035426D01*
X0173453Y0034508D01*
X0173453Y0033591D01*
X0177123Y0033591D01*
X0177123Y0032674D02*
X0177123Y0034508D01*
X0177123Y0032674D02*
X0176206Y0031756D01*
X0174371Y0031756D01*
X0171046Y0031756D02*
X0171046Y0035426D01*
X0171046Y0033591D02*
X0169211Y0035426D01*
X0168293Y0035426D01*
X0164595Y0036277D02*
X0163611Y0037261D01*
X0161643Y0037261D01*
X0160659Y0036277D01*
X0164595Y0032340D01*
X0163611Y0031356D01*
X0161643Y0031356D01*
X0160659Y0032340D01*
X0160659Y0036277D01*
X0164595Y0036277D02*
X0164595Y0032340D01*
X0158150Y0032340D02*
X0158150Y0031356D01*
X0157166Y0031356D01*
X0157166Y0032340D01*
X0158150Y0032340D01*
X0154927Y0031356D02*
X0150990Y0031356D01*
X0152959Y0031356D02*
X0152959Y0037261D01*
X0154927Y0035293D01*
M02*
