G75*
%MOIN*%
%OFA0B0*%
%FSLAX25Y25*%
%IPPOS*%
%LPD*%
%AMOC8*
5,1,8,0,0,1.08239X$1,22.5*
%
%ADD10R,0.04400X0.06300*%
%ADD11R,0.06300X0.04400*%
%ADD12R,0.08200X0.05800*%
%ADD13C,0.09068*%
%ADD14C,0.06737*%
%ADD15R,0.06737X0.06737*%
%ADD16R,0.05524X0.05524*%
%ADD17C,0.05550*%
%ADD18C,0.05156*%
%ADD19C,0.04762*%
%ADD20C,0.05800*%
D10*
X0092560Y0051250D03*
X0099253Y0051250D03*
X0120510Y0055000D03*
X0128803Y0055000D03*
X0100053Y0063750D03*
X0091760Y0063750D03*
X0120510Y0067500D03*
X0128803Y0067500D03*
X0158010Y0078125D03*
X0166303Y0078125D03*
X0186310Y0075000D03*
X0193003Y0075000D03*
X0224435Y0049375D03*
X0231128Y0049375D03*
X0240510Y0047500D03*
X0248803Y0047500D03*
D11*
X0254656Y0065854D03*
X0254656Y0074146D03*
X0224656Y0074146D03*
X0224656Y0065854D03*
X0093406Y0075404D03*
X0093406Y0082096D03*
D12*
X0233656Y0081000D03*
X0245656Y0081000D03*
X0245656Y0059000D03*
X0233656Y0059000D03*
D13*
X0079656Y0037067D02*
X0079656Y0032933D01*
X0089656Y0032933D02*
X0089656Y0037067D01*
X0099656Y0037067D02*
X0099656Y0032933D01*
X0109656Y0032933D02*
X0109656Y0037067D01*
X0119656Y0037067D02*
X0119656Y0032933D01*
X0129656Y0032933D02*
X0129656Y0037067D01*
X0139656Y0037067D02*
X0139656Y0032933D01*
X0149656Y0032933D02*
X0149656Y0037067D01*
X0159656Y0037067D02*
X0159656Y0032933D01*
X0169656Y0032933D02*
X0169656Y0037067D01*
X0179656Y0037067D02*
X0179656Y0032933D01*
X0189656Y0032933D02*
X0189656Y0037067D01*
X0199656Y0037067D02*
X0199656Y0032933D01*
X0209656Y0032933D02*
X0209656Y0037067D01*
X0219656Y0037067D02*
X0219656Y0032933D01*
X0229656Y0032933D02*
X0229656Y0037067D01*
X0239656Y0037067D02*
X0239656Y0032933D01*
X0249656Y0032933D02*
X0249656Y0037067D01*
X0259656Y0037067D02*
X0259656Y0032933D01*
X0269656Y0032933D02*
X0269656Y0037067D01*
X0269656Y0092933D02*
X0269656Y0097067D01*
X0259656Y0097067D02*
X0259656Y0092933D01*
X0249656Y0092933D02*
X0249656Y0097067D01*
X0239656Y0097067D02*
X0239656Y0092933D01*
X0229656Y0092933D02*
X0229656Y0097067D01*
X0219656Y0097067D02*
X0219656Y0092933D01*
X0209656Y0092933D02*
X0209656Y0097067D01*
X0199656Y0097067D02*
X0199656Y0092933D01*
X0189656Y0092933D02*
X0189656Y0097067D01*
X0179656Y0097067D02*
X0179656Y0092933D01*
X0169656Y0092933D02*
X0169656Y0097067D01*
X0159656Y0097067D02*
X0159656Y0092933D01*
X0149656Y0092933D02*
X0149656Y0097067D01*
X0139656Y0097067D02*
X0139656Y0092933D01*
X0129656Y0092933D02*
X0129656Y0097067D01*
X0119656Y0097067D02*
X0119656Y0092933D01*
X0109656Y0092933D02*
X0109656Y0097067D01*
X0099656Y0097067D02*
X0099656Y0092933D01*
X0089656Y0092933D02*
X0089656Y0097067D01*
X0079656Y0097067D02*
X0079656Y0092933D01*
D14*
X0064031Y0085000D03*
X0064031Y0075000D03*
X0064031Y0065000D03*
X0064031Y0055000D03*
X0064031Y0045000D03*
X0279656Y0050000D03*
X0279656Y0060000D03*
X0279656Y0070000D03*
D15*
X0064031Y0035000D03*
D16*
X0060523Y0097500D03*
X0068790Y0097500D03*
D17*
X0129656Y0082500D03*
X0205906Y0082500D03*
X0268406Y0081250D03*
X0205906Y0050000D03*
X0190906Y0050000D03*
X0157156Y0050000D03*
D18*
X0079656Y0046250D03*
D19*
X0103406Y0071250D03*
X0145906Y0058750D03*
D20*
X0178406Y0065000D03*
M02*
