G75*
%MOIN*%
%OFA0B0*%
%FSLAX25Y25*%
%IPPOS*%
%LPD*%
%AMOC8*
5,1,8,0,0,1.08239X$1,22.5*
%
%ADD10OC8,0.05200*%
%ADD11C,0.04362*%
%ADD12C,0.08268*%
%ADD13C,0.05937*%
%ADD14R,0.05937X0.05937*%
%ADD15C,0.05150*%
%ADD16R,0.03600X0.05500*%
%ADD17R,0.10000X0.05000*%
%ADD18C,0.03937*%
%ADD19C,0.03150*%
%ADD20C,0.02362*%
%ADD21R,0.05000X0.05000*%
%ADD22C,0.05000*%
%ADD23C,0.01575*%
%ADD24C,0.01969*%
D10*
X0090906Y0036556D03*
X0104656Y0037181D03*
X0117156Y0037181D03*
X0127156Y0037181D03*
X0127156Y0048431D03*
X0117156Y0048431D03*
X0117156Y0061556D03*
X0127156Y0061556D03*
X0104656Y0067181D03*
X0090906Y0066556D03*
X0159656Y0067181D03*
X0169656Y0067181D03*
X0189656Y0065931D03*
X0222781Y0053431D03*
X0232781Y0053431D03*
X0245281Y0053431D03*
X0255281Y0053431D03*
X0249656Y0033431D03*
X0239656Y0033431D03*
X0189656Y0035931D03*
D11*
X0255906Y0062181D03*
X0255906Y0068431D03*
D12*
X0259656Y0078864D02*
X0259656Y0082998D01*
X0249656Y0082998D02*
X0249656Y0078864D01*
X0239656Y0078864D02*
X0239656Y0082998D01*
X0229656Y0082998D02*
X0229656Y0078864D01*
X0219656Y0078864D02*
X0219656Y0082998D01*
X0209656Y0082998D02*
X0209656Y0078864D01*
X0199656Y0078864D02*
X0199656Y0082998D01*
X0189656Y0082998D02*
X0189656Y0078864D01*
X0179656Y0078864D02*
X0179656Y0082998D01*
X0169656Y0082998D02*
X0169656Y0078864D01*
X0159656Y0078864D02*
X0159656Y0082998D01*
X0149656Y0082998D02*
X0149656Y0078864D01*
X0139656Y0078864D02*
X0139656Y0082998D01*
X0129656Y0082998D02*
X0129656Y0078864D01*
X0119656Y0078864D02*
X0119656Y0082998D01*
X0109656Y0082998D02*
X0109656Y0078864D01*
X0099656Y0078864D02*
X0099656Y0082998D01*
X0089656Y0082998D02*
X0089656Y0078864D01*
X0079656Y0078864D02*
X0079656Y0082998D01*
X0079656Y0022998D02*
X0079656Y0018864D01*
X0089656Y0018864D02*
X0089656Y0022998D01*
X0099656Y0022998D02*
X0099656Y0018864D01*
X0109656Y0018864D02*
X0109656Y0022998D01*
X0119656Y0022998D02*
X0119656Y0018864D01*
X0129656Y0018864D02*
X0129656Y0022998D01*
X0139656Y0022998D02*
X0139656Y0018864D01*
X0149656Y0018864D02*
X0149656Y0022998D01*
X0159656Y0022998D02*
X0159656Y0018864D01*
X0169656Y0018864D02*
X0169656Y0022998D01*
X0179656Y0022998D02*
X0179656Y0018864D01*
X0189656Y0018864D02*
X0189656Y0022998D01*
X0199656Y0022998D02*
X0199656Y0018864D01*
X0209656Y0018864D02*
X0209656Y0022998D01*
X0219656Y0022998D02*
X0219656Y0018864D01*
X0229656Y0018864D02*
X0229656Y0022998D01*
X0239656Y0022998D02*
X0239656Y0018864D01*
X0249656Y0018864D02*
X0249656Y0022998D01*
X0259656Y0022998D02*
X0259656Y0018864D01*
X0269656Y0018864D02*
X0269656Y0022998D01*
X0269656Y0078864D02*
X0269656Y0082998D01*
D13*
X0279656Y0055931D03*
X0279656Y0045931D03*
X0064031Y0050306D03*
X0064031Y0060306D03*
X0064031Y0070306D03*
X0064031Y0080306D03*
X0064031Y0040306D03*
D14*
X0064031Y0030306D03*
D15*
X0279656Y0035931D03*
D16*
X0228628Y0034681D03*
X0221935Y0034681D03*
D17*
X0066531Y0018431D03*
D18*
X0094657Y0046556D02*
X0095549Y0046895D01*
X0096449Y0047212D01*
X0097356Y0047506D01*
X0098271Y0047779D01*
X0099192Y0048029D01*
X0100118Y0048257D01*
X0101050Y0048463D01*
X0101987Y0048645D01*
X0102927Y0048805D01*
X0103872Y0048942D01*
X0104819Y0049056D01*
X0105769Y0049146D01*
X0106721Y0049214D01*
X0107674Y0049259D01*
X0108628Y0049280D01*
X0109582Y0049278D01*
X0110536Y0049253D01*
X0111489Y0049205D01*
X0112441Y0049133D01*
X0113390Y0049039D01*
X0114337Y0048921D01*
X0115281Y0048781D01*
X0116221Y0048618D01*
X0117157Y0048431D01*
X0117156Y0048431D02*
X0117156Y0037181D01*
X0127156Y0037181D02*
X0127378Y0037733D01*
X0127378Y0048115D01*
X0127156Y0048431D01*
X0127156Y0036556D02*
X0129656Y0036556D01*
X0129656Y0020931D01*
X0119657Y0020931D02*
X0119290Y0022146D01*
X0118951Y0023370D01*
X0118641Y0024601D01*
X0118360Y0025839D01*
X0118108Y0027084D01*
X0117886Y0028334D01*
X0117693Y0029588D01*
X0117529Y0030847D01*
X0117395Y0032110D01*
X0117291Y0033375D01*
X0117217Y0034643D01*
X0117172Y0035911D01*
X0117157Y0037181D01*
X0067156Y0039681D02*
X0064031Y0040306D01*
X0159656Y0067181D02*
X0159656Y0080306D01*
X0169656Y0080931D02*
X0169656Y0067181D01*
X0228628Y0034681D02*
X0238406Y0034681D01*
X0239656Y0033431D01*
X0239502Y0032889D02*
X0239502Y0021122D01*
X0249656Y0020931D02*
X0249884Y0021122D01*
X0249884Y0032889D01*
X0249656Y0033431D01*
X0249058Y0033581D01*
X0249656Y0033431D02*
X0251960Y0032889D01*
X0263437Y0032889D01*
X0279645Y0045972D01*
X0279656Y0045931D01*
X0094656Y0046556D02*
X0093451Y0045916D01*
X0092230Y0045306D01*
X0090996Y0044725D01*
X0089747Y0044175D01*
X0088485Y0043655D01*
X0087211Y0043166D01*
X0085926Y0042708D01*
X0084630Y0042282D01*
X0083323Y0041887D01*
X0082008Y0041524D01*
X0080684Y0041193D01*
X0079353Y0040894D01*
X0078014Y0040628D01*
X0076670Y0040394D01*
X0075320Y0040194D01*
X0073966Y0040025D01*
X0072608Y0039890D01*
X0071248Y0039788D01*
X0069885Y0039719D01*
X0068521Y0039684D01*
X0067156Y0039681D01*
D19*
X0189656Y0035931D02*
X0190906Y0036556D01*
X0221531Y0036556D01*
X0221935Y0035528D01*
X0221935Y0034681D01*
X0274031Y0044056D02*
X0279031Y0041556D01*
X0279656Y0045931D01*
X0274031Y0044056D01*
D20*
X0060331Y0025276D02*
X0060331Y0023417D01*
X0060983Y0023687D01*
X0067931Y0023687D01*
X0070082Y0028607D01*
X0070082Y0028607D01*
X0073369Y0032954D01*
X0073369Y0032954D01*
X0073369Y0032954D01*
X0076553Y0035573D01*
X0070997Y0034917D01*
X0070997Y0034917D01*
X0068416Y0034944D01*
X0068745Y0034614D01*
X0069032Y0034116D01*
X0069181Y0033562D01*
X0069181Y0030306D01*
X0064032Y0030306D01*
X0064032Y0030306D01*
X0069181Y0030306D01*
X0069181Y0027050D01*
X0069032Y0026496D01*
X0068745Y0025998D01*
X0068339Y0025592D01*
X0067842Y0025305D01*
X0067287Y0025156D01*
X0064032Y0025156D01*
X0064032Y0030306D01*
X0064031Y0030306D01*
X0064031Y0025156D01*
X0060776Y0025156D01*
X0060331Y0025276D01*
X0060331Y0024378D02*
X0068233Y0024378D01*
X0069097Y0026738D02*
X0069265Y0026738D01*
X0069181Y0029099D02*
X0070454Y0029099D01*
X0069181Y0031460D02*
X0072239Y0031460D01*
X0074423Y0033821D02*
X0069112Y0033821D01*
X0064032Y0029099D02*
X0064031Y0029099D01*
X0064031Y0026738D02*
X0064032Y0026738D01*
X0068010Y0044423D02*
X0067274Y0045159D01*
X0066919Y0045306D01*
X0067274Y0045453D01*
X0068884Y0047063D01*
X0069756Y0049167D01*
X0069756Y0051445D01*
X0068884Y0053549D01*
X0067274Y0055159D01*
X0066919Y0055306D01*
X0067274Y0055453D01*
X0068584Y0056763D01*
X0089794Y0056763D01*
X0094952Y0057868D01*
X0094952Y0057868D01*
X0096715Y0058660D01*
X0096715Y0058660D01*
X0097358Y0058949D01*
X0097369Y0058954D01*
X0098001Y0059238D01*
X0098700Y0059552D01*
X0098700Y0059552D01*
X0100759Y0061654D01*
X0100759Y0061654D01*
X0101310Y0062953D01*
X0102438Y0061825D01*
X0106875Y0061825D01*
X0109615Y0064566D01*
X0109829Y0064619D01*
X0109829Y0064619D01*
X0112894Y0066583D01*
X0112894Y0066583D01*
X0112894Y0066583D01*
X0115171Y0069423D01*
X0115171Y0069423D01*
X0116391Y0072759D01*
X0118286Y0071974D01*
X0121027Y0071974D01*
X0123559Y0073023D01*
X0124656Y0074121D01*
X0125754Y0073023D01*
X0128286Y0071974D01*
X0131027Y0071974D01*
X0133559Y0073023D01*
X0134656Y0074121D01*
X0135754Y0073023D01*
X0138286Y0071974D01*
X0141027Y0071974D01*
X0143559Y0073023D01*
X0144656Y0074121D01*
X0145754Y0073023D01*
X0148286Y0071974D01*
X0151027Y0071974D01*
X0153559Y0073023D01*
X0155063Y0074527D01*
X0155543Y0074047D01*
X0156347Y0073463D01*
X0157232Y0073012D01*
X0158178Y0072705D01*
X0159159Y0072549D01*
X0159460Y0072549D01*
X0159460Y0080734D01*
X0159853Y0080734D01*
X0159853Y0072549D01*
X0160026Y0072549D01*
X0160026Y0071962D01*
X0159657Y0071962D01*
X0159657Y0067181D01*
X0159657Y0062400D01*
X0161165Y0062400D01*
X0161220Y0062345D01*
X0162233Y0061925D01*
X0167080Y0061925D01*
X0167262Y0062001D01*
X0167438Y0061825D01*
X0171875Y0061825D01*
X0175012Y0064963D01*
X0175012Y0065446D01*
X0175920Y0061392D01*
X0178439Y0055974D01*
X0182055Y0051218D01*
X0186601Y0047341D01*
X0188733Y0046200D01*
X0188826Y0046102D01*
X0189351Y0045870D01*
X0189857Y0045599D01*
X0189991Y0045586D01*
X0192717Y0044378D01*
X0199607Y0042655D01*
X0199607Y0042655D01*
X0203115Y0042400D01*
X0213031Y0041485D01*
X0232995Y0040592D01*
X0252979Y0040644D01*
X0262926Y0041141D01*
X0265435Y0041221D01*
X0270353Y0042500D01*
X0274637Y0044714D01*
X0274884Y0043954D01*
X0275252Y0043232D01*
X0275729Y0042576D01*
X0276302Y0042003D01*
X0276958Y0041527D01*
X0277680Y0041159D01*
X0278054Y0041037D01*
X0276637Y0040450D01*
X0275137Y0038951D01*
X0274326Y0036991D01*
X0274326Y0034871D01*
X0275137Y0032911D01*
X0276637Y0031412D01*
X0278596Y0030600D01*
X0280717Y0030600D01*
X0282107Y0031176D01*
X0282107Y0014731D01*
X0275267Y0014731D01*
X0275497Y0014961D01*
X0276546Y0017494D01*
X0276546Y0024368D01*
X0275497Y0026901D01*
X0273559Y0028839D01*
X0271027Y0029888D01*
X0268286Y0029888D01*
X0265754Y0028839D01*
X0264656Y0027742D01*
X0263559Y0028839D01*
X0261027Y0029888D01*
X0258286Y0029888D01*
X0255754Y0028839D01*
X0254250Y0027335D01*
X0253770Y0027815D01*
X0252966Y0028399D01*
X0252081Y0028850D01*
X0251897Y0028910D01*
X0254438Y0031451D01*
X0254438Y0033431D01*
X0249657Y0033431D01*
X0249657Y0033431D01*
X0254438Y0033431D01*
X0254438Y0035411D01*
X0251637Y0038212D01*
X0249657Y0038212D01*
X0249657Y0033431D01*
X0249657Y0028650D01*
X0249853Y0028650D01*
X0249853Y0021128D01*
X0249460Y0021128D01*
X0249460Y0028650D01*
X0249656Y0028650D01*
X0249656Y0033431D01*
X0249657Y0033431D01*
X0249656Y0033431D01*
X0249656Y0038212D01*
X0248148Y0038212D01*
X0248093Y0038267D01*
X0247080Y0038687D01*
X0242233Y0038687D01*
X0242051Y0038611D01*
X0241875Y0038787D01*
X0240839Y0038787D01*
X0239346Y0039405D01*
X0232351Y0039405D01*
X0231989Y0039767D01*
X0230976Y0040187D01*
X0226280Y0040187D01*
X0225281Y0039773D01*
X0224283Y0040187D01*
X0224039Y0040187D01*
X0224015Y0040198D01*
X0223985Y0040227D01*
X0223227Y0040541D01*
X0222474Y0040870D01*
X0222432Y0040871D01*
X0222393Y0040887D01*
X0221572Y0040887D01*
X0220752Y0040902D01*
X0220712Y0040887D01*
X0192275Y0040887D01*
X0191875Y0041287D01*
X0187438Y0041287D01*
X0184301Y0038150D01*
X0184301Y0033713D01*
X0187438Y0030575D01*
X0191875Y0030575D01*
X0193525Y0032225D01*
X0217379Y0032225D01*
X0217379Y0031383D01*
X0217799Y0030370D01*
X0218282Y0029886D01*
X0215754Y0028839D01*
X0214656Y0027742D01*
X0213559Y0028839D01*
X0211027Y0029888D01*
X0208286Y0029888D01*
X0205754Y0028839D01*
X0204656Y0027742D01*
X0203559Y0028839D01*
X0201027Y0029888D01*
X0198286Y0029888D01*
X0195754Y0028839D01*
X0194656Y0027742D01*
X0193559Y0028839D01*
X0191027Y0029888D01*
X0188286Y0029888D01*
X0185754Y0028839D01*
X0184656Y0027742D01*
X0183559Y0028839D01*
X0181027Y0029888D01*
X0178286Y0029888D01*
X0175754Y0028839D01*
X0174656Y0027742D01*
X0173559Y0028839D01*
X0171027Y0029888D01*
X0168286Y0029888D01*
X0165754Y0028839D01*
X0164656Y0027742D01*
X0163559Y0028839D01*
X0161027Y0029888D01*
X0158286Y0029888D01*
X0155754Y0028839D01*
X0154656Y0027742D01*
X0153559Y0028839D01*
X0151027Y0029888D01*
X0148286Y0029888D01*
X0145754Y0028839D01*
X0144656Y0027742D01*
X0143559Y0028839D01*
X0141027Y0029888D01*
X0138286Y0029888D01*
X0135754Y0028839D01*
X0134250Y0027335D01*
X0133770Y0027815D01*
X0132966Y0028399D01*
X0132081Y0028850D01*
X0131135Y0029157D01*
X0130153Y0029313D01*
X0129853Y0029313D01*
X0129853Y0021128D01*
X0129460Y0021128D01*
X0129460Y0029313D01*
X0129159Y0029313D01*
X0128178Y0029157D01*
X0127232Y0028850D01*
X0126347Y0028399D01*
X0125543Y0027815D01*
X0125063Y0027335D01*
X0123559Y0028839D01*
X0122673Y0029206D01*
X0122254Y0031925D01*
X0124580Y0031925D01*
X0125593Y0032345D01*
X0125648Y0032400D01*
X0127156Y0032400D01*
X0127156Y0037181D01*
X0127157Y0037181D01*
X0127157Y0037181D01*
X0131938Y0037181D01*
X0131938Y0035201D01*
X0129137Y0032400D01*
X0127157Y0032400D01*
X0127157Y0037181D01*
X0131938Y0037181D01*
X0131938Y0039161D01*
X0129137Y0041962D01*
X0127157Y0041962D01*
X0127157Y0037181D01*
X0127156Y0037181D01*
X0127156Y0041962D01*
X0126787Y0041962D01*
X0126787Y0043650D01*
X0127156Y0043650D01*
X0127156Y0048431D01*
X0127157Y0048431D01*
X0127157Y0048431D01*
X0131938Y0048431D01*
X0131938Y0046451D01*
X0129137Y0043650D01*
X0127157Y0043650D01*
X0127157Y0048431D01*
X0131938Y0048431D01*
X0131938Y0050411D01*
X0129137Y0053212D01*
X0127157Y0053212D01*
X0127157Y0048431D01*
X0127156Y0048431D01*
X0127156Y0053212D01*
X0125648Y0053212D01*
X0125593Y0053267D01*
X0124580Y0053687D01*
X0119733Y0053687D01*
X0119551Y0053611D01*
X0119375Y0053787D01*
X0114938Y0053787D01*
X0114877Y0053726D01*
X0108578Y0054121D01*
X0102175Y0053587D01*
X0102175Y0053587D01*
X0095917Y0052129D01*
X0095917Y0052129D01*
X0093518Y0051185D01*
X0093215Y0051152D01*
X0092651Y0050844D01*
X0092052Y0050608D01*
X0091883Y0050445D01*
X0089464Y0049221D01*
X0083357Y0046835D01*
X0076996Y0045244D01*
X0070484Y0044476D01*
X0068010Y0044423D01*
X0067445Y0045624D02*
X0078515Y0045624D01*
X0086300Y0047985D02*
X0069266Y0047985D01*
X0069756Y0050346D02*
X0091686Y0050346D01*
X0098394Y0052706D02*
X0069233Y0052706D01*
X0067366Y0055067D02*
X0179128Y0055067D01*
X0178439Y0055974D02*
X0178439Y0055974D01*
X0177763Y0057428D02*
X0130602Y0057428D01*
X0129375Y0056200D02*
X0132512Y0059338D01*
X0132512Y0063775D01*
X0129375Y0066912D01*
X0124938Y0066912D01*
X0124762Y0066736D01*
X0124580Y0066812D01*
X0119733Y0066812D01*
X0119551Y0066736D01*
X0119375Y0066912D01*
X0114938Y0066912D01*
X0111801Y0063775D01*
X0111801Y0059338D01*
X0114938Y0056200D01*
X0119375Y0056200D01*
X0119551Y0056376D01*
X0119733Y0056300D01*
X0124580Y0056300D01*
X0124762Y0056376D01*
X0124938Y0056200D01*
X0129375Y0056200D01*
X0129643Y0052706D02*
X0180923Y0052706D01*
X0182055Y0051218D02*
X0182055Y0051218D01*
X0182055Y0051218D01*
X0183077Y0050346D02*
X0131938Y0050346D01*
X0131938Y0047985D02*
X0185846Y0047985D01*
X0186601Y0047341D02*
X0186601Y0047341D01*
X0189810Y0045624D02*
X0131111Y0045624D01*
X0127157Y0045624D02*
X0127156Y0045624D01*
X0126787Y0043263D02*
X0197175Y0043263D01*
X0192717Y0044378D02*
X0192717Y0044378D01*
X0192259Y0040903D02*
X0226058Y0040903D01*
X0228914Y0047985D02*
X0256426Y0047985D01*
X0257500Y0048075D02*
X0260637Y0051213D01*
X0260637Y0055650D01*
X0258412Y0057875D01*
X0258703Y0057996D01*
X0260092Y0059385D01*
X0260843Y0061199D01*
X0260843Y0063163D01*
X0260092Y0064978D01*
X0259763Y0065306D01*
X0260092Y0065635D01*
X0260843Y0067449D01*
X0260843Y0069413D01*
X0260092Y0071228D01*
X0259345Y0071974D01*
X0261027Y0071974D01*
X0263559Y0073023D01*
X0264656Y0074121D01*
X0265754Y0073023D01*
X0268286Y0071974D01*
X0271027Y0071974D01*
X0273559Y0073023D01*
X0275497Y0074961D01*
X0276546Y0077494D01*
X0276546Y0084368D01*
X0275497Y0086901D01*
X0275267Y0087131D01*
X0282107Y0087131D01*
X0282107Y0061112D01*
X0280795Y0061655D01*
X0278518Y0061655D01*
X0276414Y0060784D01*
X0274804Y0059174D01*
X0273932Y0057070D01*
X0273932Y0054792D01*
X0274244Y0054039D01*
X0273520Y0053085D01*
X0270859Y0050847D01*
X0267769Y0049251D01*
X0264403Y0048375D01*
X0262682Y0048224D01*
X0262637Y0048222D01*
X0261963Y0048200D01*
X0261953Y0048195D01*
X0252790Y0047846D01*
X0233146Y0047796D01*
X0213523Y0048673D01*
X0204380Y0049407D01*
X0204367Y0049414D01*
X0203698Y0049463D01*
X0203637Y0049468D01*
X0200753Y0049804D01*
X0195071Y0051224D01*
X0192472Y0052244D01*
X0190685Y0053328D01*
X0187321Y0056196D01*
X0184645Y0059716D01*
X0182782Y0063725D01*
X0181816Y0068039D01*
X0181792Y0072291D01*
X0183559Y0073023D01*
X0184656Y0074121D01*
X0185754Y0073023D01*
X0188286Y0071974D01*
X0191027Y0071974D01*
X0193559Y0073023D01*
X0194656Y0074121D01*
X0195754Y0073023D01*
X0198286Y0071974D01*
X0201027Y0071974D01*
X0203559Y0073023D01*
X0204656Y0074121D01*
X0205754Y0073023D01*
X0208286Y0071974D01*
X0211027Y0071974D01*
X0213559Y0073023D01*
X0214656Y0074121D01*
X0215754Y0073023D01*
X0218286Y0071974D01*
X0221027Y0071974D01*
X0223559Y0073023D01*
X0224656Y0074121D01*
X0225754Y0073023D01*
X0228286Y0071974D01*
X0231027Y0071974D01*
X0233559Y0073023D01*
X0234656Y0074121D01*
X0235754Y0073023D01*
X0238286Y0071974D01*
X0241027Y0071974D01*
X0243559Y0073023D01*
X0244656Y0074121D01*
X0245754Y0073023D01*
X0248286Y0071974D01*
X0251027Y0071974D01*
X0253559Y0073023D01*
X0254656Y0074121D01*
X0255409Y0073368D01*
X0254924Y0073368D01*
X0253110Y0072616D01*
X0251721Y0071228D01*
X0250969Y0069413D01*
X0250969Y0067449D01*
X0251721Y0065635D01*
X0252050Y0065306D01*
X0251721Y0064978D01*
X0250969Y0063163D01*
X0250969Y0061199D01*
X0251721Y0059385D01*
X0252419Y0058687D01*
X0247858Y0058687D01*
X0246845Y0058267D01*
X0246790Y0058212D01*
X0245282Y0058212D01*
X0245282Y0053431D01*
X0245282Y0048650D01*
X0246790Y0048650D01*
X0246845Y0048595D01*
X0247858Y0048175D01*
X0252705Y0048175D01*
X0252887Y0048251D01*
X0253063Y0048075D01*
X0257500Y0048075D01*
X0259770Y0050346D02*
X0269888Y0050346D01*
X0273070Y0052706D02*
X0260637Y0052706D01*
X0260637Y0055067D02*
X0273932Y0055067D01*
X0274080Y0057428D02*
X0258859Y0057428D01*
X0260259Y0059788D02*
X0275418Y0059788D01*
X0282107Y0062149D02*
X0260843Y0062149D01*
X0260286Y0064510D02*
X0282107Y0064510D01*
X0282107Y0066871D02*
X0260604Y0066871D01*
X0260843Y0069231D02*
X0282107Y0069231D01*
X0282107Y0071592D02*
X0259728Y0071592D01*
X0264489Y0073953D02*
X0264824Y0073953D01*
X0274489Y0073953D02*
X0282107Y0073953D01*
X0282107Y0076313D02*
X0276057Y0076313D01*
X0276546Y0078674D02*
X0282107Y0078674D01*
X0282107Y0081035D02*
X0276546Y0081035D01*
X0276546Y0083396D02*
X0282107Y0083396D01*
X0282107Y0085756D02*
X0275971Y0085756D01*
X0254824Y0073953D02*
X0254489Y0073953D01*
X0252085Y0071592D02*
X0181796Y0071592D01*
X0184301Y0068150D02*
X0187438Y0071287D01*
X0191875Y0071287D01*
X0195012Y0068150D01*
X0195012Y0063713D01*
X0191875Y0060575D01*
X0187438Y0060575D01*
X0184301Y0063713D01*
X0184301Y0068150D01*
X0184301Y0066871D02*
X0182077Y0066871D01*
X0181809Y0069231D02*
X0185382Y0069231D01*
X0193931Y0069231D02*
X0250969Y0069231D01*
X0251209Y0066871D02*
X0195012Y0066871D01*
X0195012Y0064510D02*
X0251527Y0064510D01*
X0250969Y0062149D02*
X0193449Y0062149D01*
X0185864Y0062149D02*
X0183514Y0062149D01*
X0184301Y0064510D02*
X0182606Y0064510D01*
X0175751Y0062149D02*
X0172199Y0062149D01*
X0174560Y0064510D02*
X0175222Y0064510D01*
X0175920Y0061392D02*
X0175920Y0061392D01*
X0176666Y0059788D02*
X0132512Y0059788D01*
X0132512Y0062149D02*
X0161693Y0062149D01*
X0159656Y0062400D02*
X0159656Y0067181D01*
X0154875Y0067181D01*
X0154875Y0065201D01*
X0157676Y0062400D01*
X0159656Y0062400D01*
X0159656Y0064510D02*
X0159657Y0064510D01*
X0155566Y0064510D02*
X0131777Y0064510D01*
X0129416Y0066871D02*
X0154875Y0066871D01*
X0154875Y0067181D02*
X0159656Y0067181D01*
X0159656Y0067181D01*
X0159657Y0067181D01*
X0159656Y0067181D01*
X0159656Y0071962D01*
X0157676Y0071962D01*
X0154875Y0069161D01*
X0154875Y0067181D01*
X0154945Y0069231D02*
X0115017Y0069231D01*
X0114897Y0066871D02*
X0113124Y0066871D01*
X0119416Y0066871D02*
X0124897Y0066871D01*
X0115964Y0071592D02*
X0157306Y0071592D01*
X0159656Y0071592D02*
X0159657Y0071592D01*
X0159656Y0069231D02*
X0159657Y0069231D01*
X0159656Y0066871D02*
X0159657Y0066871D01*
X0159460Y0073953D02*
X0159853Y0073953D01*
X0155673Y0073953D02*
X0154489Y0073953D01*
X0159460Y0076313D02*
X0159853Y0076313D01*
X0159853Y0078674D02*
X0159460Y0078674D01*
X0144824Y0073953D02*
X0144489Y0073953D01*
X0134824Y0073953D02*
X0134489Y0073953D01*
X0124824Y0073953D02*
X0124489Y0073953D01*
X0112536Y0064510D02*
X0109560Y0064510D01*
X0111801Y0062149D02*
X0107199Y0062149D01*
X0102114Y0062149D02*
X0100969Y0062149D01*
X0098932Y0059788D02*
X0111801Y0059788D01*
X0113711Y0057428D02*
X0092897Y0057428D01*
X0098001Y0059238D02*
X0098001Y0059238D01*
X0108578Y0054121D02*
X0108578Y0054121D01*
X0127156Y0052706D02*
X0127157Y0052706D01*
X0127156Y0050346D02*
X0127157Y0050346D01*
X0127156Y0047985D02*
X0127157Y0047985D01*
X0127156Y0040903D02*
X0127157Y0040903D01*
X0130196Y0040903D02*
X0187054Y0040903D01*
X0184693Y0038542D02*
X0131938Y0038542D01*
X0131938Y0036181D02*
X0184301Y0036181D01*
X0184301Y0033821D02*
X0130557Y0033821D01*
X0127157Y0033821D02*
X0127156Y0033821D01*
X0122326Y0031460D02*
X0186553Y0031460D01*
X0186382Y0029099D02*
X0182931Y0029099D01*
X0176382Y0029099D02*
X0172931Y0029099D01*
X0166382Y0029099D02*
X0162931Y0029099D01*
X0156382Y0029099D02*
X0152931Y0029099D01*
X0146382Y0029099D02*
X0142931Y0029099D01*
X0136382Y0029099D02*
X0131315Y0029099D01*
X0129853Y0029099D02*
X0129460Y0029099D01*
X0127998Y0029099D02*
X0122931Y0029099D01*
X0129460Y0026738D02*
X0129853Y0026738D01*
X0129853Y0024378D02*
X0129460Y0024378D01*
X0129460Y0022017D02*
X0129853Y0022017D01*
X0127156Y0036181D02*
X0127157Y0036181D01*
X0127156Y0038542D02*
X0127157Y0038542D01*
X0184612Y0059788D02*
X0251554Y0059788D01*
X0245281Y0058212D02*
X0243301Y0058212D01*
X0240500Y0055411D01*
X0240500Y0053431D01*
X0240500Y0051451D01*
X0243301Y0048650D01*
X0245281Y0048650D01*
X0245281Y0053431D01*
X0240500Y0053431D01*
X0245281Y0053431D01*
X0245281Y0053431D01*
X0245282Y0053431D01*
X0245281Y0053431D01*
X0245281Y0058212D01*
X0245281Y0057428D02*
X0245282Y0057428D01*
X0242517Y0057428D02*
X0236359Y0057428D01*
X0235000Y0058787D02*
X0231323Y0058787D01*
X0231218Y0058892D01*
X0230205Y0059312D01*
X0225358Y0059312D01*
X0224345Y0058892D01*
X0223665Y0058212D01*
X0222782Y0058212D01*
X0222782Y0053431D01*
X0222782Y0048650D01*
X0224762Y0048650D01*
X0225043Y0048931D01*
X0225358Y0048800D01*
X0229838Y0048800D01*
X0230563Y0048075D01*
X0235000Y0048075D01*
X0238137Y0051213D01*
X0238137Y0055650D01*
X0235000Y0058787D01*
X0238137Y0055067D02*
X0240500Y0055067D01*
X0245281Y0055067D02*
X0245282Y0055067D01*
X0245281Y0052706D02*
X0245282Y0052706D01*
X0240500Y0052706D02*
X0238137Y0052706D01*
X0237270Y0050346D02*
X0241606Y0050346D01*
X0245281Y0050346D02*
X0245282Y0050346D01*
X0222782Y0050346D02*
X0222781Y0050346D01*
X0222781Y0048650D02*
X0220801Y0048650D01*
X0218000Y0051451D01*
X0218000Y0053431D01*
X0222781Y0053431D01*
X0222781Y0053431D01*
X0218000Y0053431D01*
X0218000Y0055411D01*
X0220801Y0058212D01*
X0222781Y0058212D01*
X0222781Y0053431D01*
X0222782Y0053431D01*
X0222781Y0053431D01*
X0222781Y0048650D01*
X0219106Y0050346D02*
X0198585Y0050346D01*
X0191710Y0052706D02*
X0218000Y0052706D01*
X0218000Y0055067D02*
X0188645Y0055067D01*
X0186385Y0057428D02*
X0220017Y0057428D01*
X0222781Y0057428D02*
X0222782Y0057428D01*
X0222781Y0055067D02*
X0222782Y0055067D01*
X0222781Y0052706D02*
X0222782Y0052706D01*
X0213523Y0048673D02*
X0213523Y0048673D01*
X0247430Y0038542D02*
X0274968Y0038542D01*
X0274326Y0036181D02*
X0253668Y0036181D01*
X0249657Y0036181D02*
X0249656Y0036181D01*
X0249656Y0033821D02*
X0249657Y0033821D01*
X0254438Y0033821D02*
X0274761Y0033821D01*
X0276589Y0031460D02*
X0254438Y0031460D01*
X0249657Y0031460D02*
X0249656Y0031460D01*
X0249656Y0029099D02*
X0249657Y0029099D01*
X0252086Y0029099D02*
X0256382Y0029099D01*
X0262931Y0029099D02*
X0266382Y0029099D01*
X0272931Y0029099D02*
X0282107Y0029099D01*
X0282107Y0026738D02*
X0275565Y0026738D01*
X0276542Y0024378D02*
X0282107Y0024378D01*
X0282107Y0022017D02*
X0276546Y0022017D01*
X0276546Y0019656D02*
X0282107Y0019656D01*
X0282107Y0017295D02*
X0276464Y0017295D01*
X0275471Y0014935D02*
X0282107Y0014935D01*
X0252767Y0020734D02*
X0249853Y0020734D01*
X0249853Y0021128D01*
X0252767Y0021128D01*
X0252767Y0020734D01*
X0249853Y0022017D02*
X0249460Y0022017D01*
X0249460Y0024378D02*
X0249853Y0024378D01*
X0249853Y0026738D02*
X0249460Y0026738D01*
X0217379Y0031460D02*
X0192760Y0031460D01*
X0192931Y0029099D02*
X0196382Y0029099D01*
X0202931Y0029099D02*
X0206382Y0029099D01*
X0212931Y0029099D02*
X0216382Y0029099D01*
X0258158Y0040903D02*
X0277729Y0040903D01*
X0275236Y0043263D02*
X0271830Y0043263D01*
X0270353Y0042500D02*
X0270353Y0042500D01*
X0265435Y0041221D02*
X0265435Y0041221D01*
X0244824Y0073953D02*
X0244489Y0073953D01*
X0234824Y0073953D02*
X0234489Y0073953D01*
X0224824Y0073953D02*
X0224489Y0073953D01*
X0214824Y0073953D02*
X0214489Y0073953D01*
X0204824Y0073953D02*
X0204489Y0073953D01*
X0194824Y0073953D02*
X0194489Y0073953D01*
X0184824Y0073953D02*
X0184489Y0073953D01*
D21*
X0204656Y0054056D03*
X0143406Y0054056D03*
X0079031Y0053431D03*
X0269031Y0032806D03*
X0269656Y0067806D03*
D22*
X0204656Y0069056D03*
X0179656Y0050931D03*
X0144031Y0033431D03*
X0214656Y0030306D03*
X0140281Y0069056D03*
D23*
X0179656Y0080931D02*
X0180281Y0080306D01*
X0180282Y0080306D02*
X0180047Y0079769D01*
X0179825Y0079227D01*
X0179617Y0078679D01*
X0179422Y0078126D01*
X0179241Y0077569D01*
X0179073Y0077008D01*
X0178918Y0076442D01*
X0178778Y0075873D01*
X0178651Y0075301D01*
X0178538Y0074726D01*
X0178439Y0074149D01*
X0178355Y0073569D01*
X0178284Y0072987D01*
X0178227Y0072404D01*
X0178185Y0071819D01*
X0178157Y0071234D01*
X0178143Y0070648D01*
X0178143Y0070062D01*
X0178157Y0069476D01*
X0178186Y0068891D01*
X0178229Y0068306D01*
X0178286Y0067723D01*
X0178357Y0067141D01*
X0178442Y0066562D01*
X0178541Y0065984D01*
X0178654Y0065409D01*
X0178781Y0064837D01*
X0178922Y0064268D01*
X0179077Y0063703D01*
X0179245Y0063142D01*
X0179427Y0062585D01*
X0179623Y0062032D01*
X0179831Y0061484D01*
X0180053Y0060942D01*
X0180288Y0060405D01*
X0180536Y0059874D01*
X0180797Y0059349D01*
X0181070Y0058831D01*
X0181356Y0058320D01*
X0181654Y0057815D01*
X0181965Y0057318D01*
X0182287Y0056829D01*
X0182621Y0056347D01*
X0182967Y0055874D01*
X0183324Y0055409D01*
X0183692Y0054953D01*
X0184071Y0054506D01*
X0184461Y0054069D01*
X0184862Y0053641D01*
X0185272Y0053223D01*
X0185693Y0052815D01*
X0186123Y0052417D01*
X0186563Y0052030D01*
X0187012Y0051654D01*
X0187471Y0051288D01*
X0187938Y0050934D01*
X0188413Y0050592D01*
X0188896Y0050261D01*
X0189388Y0049941D01*
X0189887Y0049634D01*
X0190393Y0049339D01*
X0190907Y0049056D01*
X0098407Y0065931D02*
X0098523Y0068941D01*
X0098706Y0071947D01*
X0098956Y0074949D01*
X0099273Y0077944D01*
X0099657Y0080931D01*
X0095906Y0062181D02*
X0095447Y0061981D01*
X0094983Y0061792D01*
X0094515Y0061614D01*
X0094043Y0061447D01*
X0093567Y0061291D01*
X0093087Y0061146D01*
X0092604Y0061013D01*
X0092119Y0060891D01*
X0091630Y0060780D01*
X0091139Y0060681D01*
X0090646Y0060593D01*
X0090151Y0060517D01*
X0089655Y0060453D01*
X0089156Y0060400D01*
X0088657Y0060359D01*
X0088157Y0060329D01*
X0087657Y0060312D01*
X0087156Y0060306D01*
X0064031Y0060306D01*
X0095907Y0062181D02*
X0096023Y0062236D01*
X0096138Y0062293D01*
X0096250Y0062355D01*
X0096361Y0062419D01*
X0096470Y0062488D01*
X0096577Y0062559D01*
X0096682Y0062633D01*
X0096784Y0062711D01*
X0096884Y0062792D01*
X0096981Y0062875D01*
X0097076Y0062962D01*
X0097168Y0063052D01*
X0097257Y0063144D01*
X0097344Y0063239D01*
X0097428Y0063336D01*
X0097508Y0063436D01*
X0097586Y0063538D01*
X0097660Y0063643D01*
X0097731Y0063750D01*
X0097799Y0063859D01*
X0097864Y0063970D01*
X0097925Y0064083D01*
X0097983Y0064197D01*
X0098037Y0064314D01*
X0098088Y0064432D01*
X0098135Y0064551D01*
X0098179Y0064672D01*
X0098219Y0064794D01*
X0098255Y0064917D01*
X0098287Y0065042D01*
X0098316Y0065167D01*
X0098340Y0065293D01*
X0098361Y0065420D01*
X0098378Y0065547D01*
X0098392Y0065675D01*
X0098401Y0065803D01*
X0098406Y0065931D01*
X0090906Y0066556D02*
X0090693Y0066504D01*
X0090479Y0066458D01*
X0090264Y0066417D01*
X0090048Y0066382D01*
X0089831Y0066351D01*
X0089614Y0066326D01*
X0089395Y0066306D01*
X0089177Y0066291D01*
X0088958Y0066282D01*
X0088739Y0066278D01*
X0088520Y0066279D01*
X0088301Y0066286D01*
X0088083Y0066298D01*
X0087864Y0066315D01*
X0087646Y0066338D01*
X0087429Y0066366D01*
X0087213Y0066399D01*
X0086997Y0066437D01*
X0086782Y0066481D01*
X0086569Y0066529D01*
X0086357Y0066583D01*
X0086146Y0066642D01*
X0085936Y0066706D01*
X0085728Y0066776D01*
X0085522Y0066850D01*
X0085318Y0066929D01*
X0085116Y0067013D01*
X0084916Y0067102D01*
X0084718Y0067196D01*
X0084522Y0067294D01*
X0084329Y0067398D01*
X0084139Y0067506D01*
X0083951Y0067618D01*
X0083766Y0067735D01*
X0083583Y0067857D01*
X0083404Y0067983D01*
X0083228Y0068113D01*
X0083055Y0068247D01*
X0082886Y0068386D01*
X0082720Y0068529D01*
X0082557Y0068675D01*
X0082398Y0068826D01*
X0082243Y0068980D01*
X0082091Y0069139D01*
X0081943Y0069300D01*
X0081800Y0069466D01*
X0081660Y0069634D01*
X0081524Y0069806D01*
X0081393Y0069982D01*
X0081266Y0070160D01*
X0081144Y0070342D01*
X0081025Y0070526D01*
X0080912Y0070713D01*
X0080802Y0070903D01*
X0080698Y0071095D01*
X0080598Y0071290D01*
X0080503Y0071488D01*
X0080413Y0071687D01*
X0080328Y0071889D01*
X0080247Y0072093D01*
X0080172Y0072298D01*
X0080101Y0072506D01*
X0080036Y0072715D01*
X0079976Y0072925D01*
X0079920Y0073137D01*
X0079870Y0073350D01*
X0079825Y0073565D01*
X0079786Y0073780D01*
X0079751Y0073997D01*
X0079722Y0074214D01*
X0079698Y0074431D01*
X0079680Y0074650D01*
X0079667Y0074868D01*
X0079659Y0075087D01*
X0079656Y0075306D01*
X0079656Y0080931D01*
X0085906Y0035931D02*
X0090906Y0036556D01*
X0070906Y0020306D02*
X0070908Y0020207D01*
X0070906Y0020107D01*
X0070901Y0020008D01*
X0070892Y0019910D01*
X0070878Y0019811D01*
X0070861Y0019714D01*
X0070841Y0019617D01*
X0070816Y0019520D01*
X0070788Y0019425D01*
X0070756Y0019332D01*
X0070720Y0019239D01*
X0070681Y0019148D01*
X0070639Y0019058D01*
X0070592Y0018970D01*
X0070543Y0018885D01*
X0070490Y0018801D01*
X0070434Y0018719D01*
X0070375Y0018639D01*
X0070312Y0018562D01*
X0070247Y0018487D01*
X0070179Y0018415D01*
X0070108Y0018346D01*
X0070035Y0018279D01*
X0069959Y0018215D01*
X0069880Y0018155D01*
X0069800Y0018097D01*
X0069717Y0018043D01*
X0069632Y0017992D01*
X0069545Y0017944D01*
X0069456Y0017900D01*
X0069366Y0017859D01*
X0069274Y0017821D01*
X0069180Y0017788D01*
X0069086Y0017758D01*
X0068990Y0017731D01*
X0068894Y0017709D01*
X0068796Y0017690D01*
X0068698Y0017675D01*
X0068600Y0017664D01*
X0068501Y0017657D01*
X0068402Y0017653D01*
X0068302Y0017654D01*
X0068203Y0017658D01*
X0068104Y0017666D01*
X0068006Y0017678D01*
X0067908Y0017694D01*
X0067811Y0017714D01*
X0067714Y0017737D01*
X0067619Y0017764D01*
X0067525Y0017795D01*
X0067432Y0017830D01*
X0067340Y0017868D01*
X0067250Y0017909D01*
X0067162Y0017954D01*
X0067075Y0018003D01*
X0066991Y0018055D01*
X0066908Y0018110D01*
X0066828Y0018168D01*
X0066750Y0018229D01*
X0066675Y0018294D01*
X0066602Y0018361D01*
X0066531Y0018431D01*
X0070906Y0020307D02*
X0070996Y0020776D01*
X0071097Y0021244D01*
X0071210Y0021709D01*
X0071335Y0022171D01*
X0071470Y0022629D01*
X0071617Y0023085D01*
X0071775Y0023536D01*
X0071943Y0023984D01*
X0072123Y0024427D01*
X0072314Y0024866D01*
X0072515Y0025300D01*
X0072727Y0025728D01*
X0072949Y0026152D01*
X0073182Y0026570D01*
X0073424Y0026982D01*
X0073677Y0027388D01*
X0073940Y0027788D01*
X0074212Y0028181D01*
X0074494Y0028568D01*
X0074785Y0028947D01*
X0075086Y0029319D01*
X0075395Y0029684D01*
X0075714Y0030041D01*
X0076041Y0030390D01*
X0076376Y0030731D01*
X0076720Y0031064D01*
X0077072Y0031388D01*
X0077431Y0031703D01*
X0077798Y0032010D01*
X0078173Y0032307D01*
X0078555Y0032595D01*
X0078943Y0032874D01*
X0079339Y0033143D01*
X0079741Y0033402D01*
X0080149Y0033652D01*
X0080563Y0033891D01*
X0080983Y0034120D01*
X0081408Y0034339D01*
X0081839Y0034547D01*
X0082275Y0034745D01*
X0082715Y0034932D01*
X0083160Y0035108D01*
X0083608Y0035273D01*
X0084061Y0035427D01*
X0084518Y0035570D01*
X0084978Y0035702D01*
X0085440Y0035823D01*
X0085906Y0035932D01*
X0190907Y0049056D02*
X0191700Y0048716D01*
X0192501Y0048393D01*
X0193309Y0048089D01*
X0194124Y0047804D01*
X0194945Y0047538D01*
X0195772Y0047290D01*
X0196604Y0047061D01*
X0197441Y0046852D01*
X0198283Y0046662D01*
X0199130Y0046491D01*
X0199979Y0046340D01*
X0200833Y0046208D01*
X0201689Y0046096D01*
X0202547Y0046004D01*
X0203407Y0045931D01*
X0262782Y0044681D02*
X0263246Y0044701D01*
X0263709Y0044733D01*
X0264171Y0044776D01*
X0264633Y0044830D01*
X0265092Y0044895D01*
X0265551Y0044972D01*
X0266007Y0045059D01*
X0266461Y0045157D01*
X0266912Y0045267D01*
X0267361Y0045387D01*
X0267806Y0045518D01*
X0268249Y0045659D01*
X0268687Y0045812D01*
X0269122Y0045975D01*
X0269553Y0046148D01*
X0269980Y0046332D01*
X0270402Y0046526D01*
X0270819Y0046730D01*
X0271231Y0046944D01*
X0271638Y0047168D01*
X0272039Y0047402D01*
X0272435Y0047645D01*
X0272824Y0047898D01*
X0273207Y0048161D01*
X0273584Y0048432D01*
X0273954Y0048713D01*
X0274318Y0049002D01*
X0274674Y0049300D01*
X0275023Y0049607D01*
X0275364Y0049921D01*
X0275698Y0050245D01*
X0276024Y0050576D01*
X0276341Y0050914D01*
X0276651Y0051261D01*
X0276952Y0051615D01*
X0277244Y0051975D01*
X0277527Y0052343D01*
X0277802Y0052718D01*
X0278067Y0053099D01*
X0278323Y0053487D01*
X0278570Y0053880D01*
X0278807Y0054280D01*
X0279034Y0054685D01*
X0279252Y0055095D01*
X0279459Y0055510D01*
X0279657Y0055931D01*
X0261531Y0070306D02*
X0259031Y0072806D01*
X0250906Y0072806D01*
X0262782Y0044681D02*
X0252883Y0044304D01*
X0242978Y0044161D01*
X0233072Y0044253D01*
X0223171Y0044578D01*
X0213281Y0045138D01*
X0203407Y0045931D01*
D24*
X0239656Y0033431D02*
X0239502Y0032889D01*
X0239502Y0021122D02*
X0239656Y0020931D01*
X0107156Y0067806D02*
X0104656Y0067181D01*
X0107156Y0067807D02*
X0107330Y0067853D01*
X0107503Y0067903D01*
X0107675Y0067957D01*
X0107845Y0068015D01*
X0108014Y0068078D01*
X0108181Y0068145D01*
X0108347Y0068215D01*
X0108511Y0068290D01*
X0108672Y0068369D01*
X0108832Y0068452D01*
X0108990Y0068538D01*
X0109146Y0068629D01*
X0109299Y0068723D01*
X0109450Y0068821D01*
X0109599Y0068923D01*
X0109745Y0069028D01*
X0109889Y0069137D01*
X0110029Y0069249D01*
X0110167Y0069365D01*
X0110303Y0069484D01*
X0110435Y0069606D01*
X0110564Y0069731D01*
X0110690Y0069860D01*
X0110813Y0069991D01*
X0110932Y0070126D01*
X0111049Y0070264D01*
X0111161Y0070404D01*
X0111271Y0070547D01*
X0111377Y0070692D01*
X0111479Y0070841D01*
X0111578Y0070991D01*
X0111673Y0071144D01*
X0111764Y0071300D01*
X0111851Y0071457D01*
X0111934Y0071617D01*
X0112014Y0071778D01*
X0112089Y0071942D01*
X0112161Y0072107D01*
X0112228Y0072274D01*
X0112292Y0072442D01*
X0112351Y0072612D01*
X0112406Y0072784D01*
X0112457Y0072957D01*
X0112503Y0073131D01*
X0112546Y0073306D01*
X0112584Y0073482D01*
X0112617Y0073658D01*
X0112647Y0073836D01*
X0112672Y0074014D01*
X0112692Y0074193D01*
X0112709Y0074373D01*
X0112720Y0074552D01*
X0112728Y0074732D01*
X0112731Y0074912D01*
X0112730Y0075092D01*
X0112724Y0075272D01*
X0112714Y0075452D01*
X0112699Y0075631D01*
X0112680Y0075810D01*
X0112657Y0075989D01*
X0112629Y0076167D01*
X0112597Y0076344D01*
X0112561Y0076520D01*
X0112520Y0076696D01*
X0112475Y0076870D01*
X0112426Y0077043D01*
X0112373Y0077215D01*
X0112315Y0077386D01*
X0112253Y0077555D01*
X0112188Y0077723D01*
X0112118Y0077889D01*
X0112044Y0078053D01*
X0111966Y0078215D01*
X0111884Y0078375D01*
X0111798Y0078534D01*
X0111708Y0078690D01*
X0111615Y0078844D01*
X0111518Y0078995D01*
X0111417Y0079144D01*
X0111312Y0079291D01*
X0111204Y0079435D01*
X0111093Y0079576D01*
X0110978Y0079715D01*
X0110859Y0079851D01*
X0110738Y0079984D01*
X0110613Y0080113D01*
X0110485Y0080240D01*
X0110354Y0080364D01*
X0110220Y0080484D01*
X0110083Y0080601D01*
X0109943Y0080714D01*
X0109801Y0080824D01*
X0109656Y0080931D01*
M02*
