G75*
%MOIN*%
%OFA0B0*%
%FSLAX25Y25*%
%IPPOS*%
%LPD*%
%AMOC8*
5,1,8,0,0,1.08239X$1,22.5*
%
%ADD10R,0.03600X0.05500*%
%ADD11R,0.05500X0.03600*%
%ADD12R,0.07400X0.05000*%
%ADD13C,0.08268*%
%ADD14C,0.05937*%
%ADD15R,0.05937X0.05937*%
%ADD16R,0.04724X0.04724*%
%ADD17C,0.02362*%
%ADD18C,0.03937*%
%ADD19C,0.04750*%
%ADD20C,0.03150*%
%ADD21C,0.05906*%
%ADD22C,0.03569*%
%ADD23R,0.03569X0.03569*%
%ADD24C,0.04356*%
%ADD25C,0.01575*%
%ADD26C,0.03962*%
%ADD27C,0.05000*%
D10*
X0092560Y0051250D03*
X0099253Y0051250D03*
X0120510Y0055000D03*
X0128803Y0055000D03*
X0100053Y0063750D03*
X0091760Y0063750D03*
X0120510Y0067500D03*
X0128803Y0067500D03*
X0158010Y0078125D03*
X0166303Y0078125D03*
X0186310Y0075000D03*
X0193003Y0075000D03*
X0224435Y0049375D03*
X0231128Y0049375D03*
X0240510Y0047500D03*
X0248803Y0047500D03*
D11*
X0254656Y0065854D03*
X0254656Y0074146D03*
X0224656Y0074146D03*
X0224656Y0065854D03*
X0093406Y0075404D03*
X0093406Y0082096D03*
D12*
X0233656Y0081000D03*
X0245656Y0081000D03*
X0245656Y0059000D03*
X0233656Y0059000D03*
D13*
X0229656Y0037067D02*
X0229656Y0032933D01*
X0239656Y0032933D02*
X0239656Y0037067D01*
X0249656Y0037067D02*
X0249656Y0032933D01*
X0259656Y0032933D02*
X0259656Y0037067D01*
X0269656Y0037067D02*
X0269656Y0032933D01*
X0219656Y0032933D02*
X0219656Y0037067D01*
X0209656Y0037067D02*
X0209656Y0032933D01*
X0199656Y0032933D02*
X0199656Y0037067D01*
X0189656Y0037067D02*
X0189656Y0032933D01*
X0179656Y0032933D02*
X0179656Y0037067D01*
X0169656Y0037067D02*
X0169656Y0032933D01*
X0159656Y0032933D02*
X0159656Y0037067D01*
X0149656Y0037067D02*
X0149656Y0032933D01*
X0139656Y0032933D02*
X0139656Y0037067D01*
X0129656Y0037067D02*
X0129656Y0032933D01*
X0119656Y0032933D02*
X0119656Y0037067D01*
X0109656Y0037067D02*
X0109656Y0032933D01*
X0099656Y0032933D02*
X0099656Y0037067D01*
X0089656Y0037067D02*
X0089656Y0032933D01*
X0079656Y0032933D02*
X0079656Y0037067D01*
X0079656Y0092933D02*
X0079656Y0097067D01*
X0089656Y0097067D02*
X0089656Y0092933D01*
X0099656Y0092933D02*
X0099656Y0097067D01*
X0109656Y0097067D02*
X0109656Y0092933D01*
X0119656Y0092933D02*
X0119656Y0097067D01*
X0129656Y0097067D02*
X0129656Y0092933D01*
X0139656Y0092933D02*
X0139656Y0097067D01*
X0149656Y0097067D02*
X0149656Y0092933D01*
X0159656Y0092933D02*
X0159656Y0097067D01*
X0169656Y0097067D02*
X0169656Y0092933D01*
X0179656Y0092933D02*
X0179656Y0097067D01*
X0189656Y0097067D02*
X0189656Y0092933D01*
X0199656Y0092933D02*
X0199656Y0097067D01*
X0209656Y0097067D02*
X0209656Y0092933D01*
X0219656Y0092933D02*
X0219656Y0097067D01*
X0229656Y0097067D02*
X0229656Y0092933D01*
X0239656Y0092933D02*
X0239656Y0097067D01*
X0249656Y0097067D02*
X0249656Y0092933D01*
X0259656Y0092933D02*
X0259656Y0097067D01*
X0269656Y0097067D02*
X0269656Y0092933D01*
D14*
X0279656Y0070000D03*
X0279656Y0060000D03*
X0279656Y0050000D03*
X0064031Y0045000D03*
X0064031Y0055000D03*
X0064031Y0065000D03*
X0064031Y0075000D03*
X0064031Y0085000D03*
D15*
X0064031Y0035000D03*
D16*
X0060523Y0097500D03*
X0068790Y0097500D03*
D17*
X0056188Y0090994D02*
X0056188Y0027781D01*
X0075065Y0027781D01*
X0073816Y0029030D01*
X0072767Y0031563D01*
X0072767Y0038437D01*
X0073816Y0040970D01*
X0075754Y0042908D01*
X0078286Y0043957D01*
X0081027Y0043957D01*
X0083559Y0042908D01*
X0084656Y0041811D01*
X0085754Y0042908D01*
X0088286Y0043957D01*
X0091027Y0043957D01*
X0093559Y0042908D01*
X0094656Y0041811D01*
X0095754Y0042908D01*
X0098286Y0043957D01*
X0101027Y0043957D01*
X0103559Y0042908D01*
X0104656Y0041811D01*
X0105754Y0042908D01*
X0108286Y0043957D01*
X0111027Y0043957D01*
X0113559Y0042908D01*
X0114656Y0041811D01*
X0114932Y0042086D01*
X0114932Y0055086D01*
X0115651Y0056823D01*
X0115954Y0057125D01*
X0115954Y0058298D01*
X0116374Y0059311D01*
X0116573Y0059510D01*
X0116573Y0062990D01*
X0116374Y0063189D01*
X0115954Y0064202D01*
X0115954Y0070798D01*
X0116374Y0071811D01*
X0117149Y0072586D01*
X0118162Y0073006D01*
X0120640Y0073006D01*
X0121220Y0073586D01*
X0122233Y0074006D01*
X0126455Y0074006D01*
X0127468Y0073586D01*
X0128243Y0072811D01*
X0128400Y0072431D01*
X0128803Y0072431D01*
X0128803Y0067500D01*
X0132784Y0067500D01*
X0132784Y0070537D01*
X0132635Y0071092D01*
X0132348Y0071589D01*
X0131942Y0071995D01*
X0131445Y0072282D01*
X0130890Y0072431D01*
X0128803Y0072431D01*
X0128803Y0067500D01*
X0128803Y0067500D01*
X0132784Y0067500D01*
X0132784Y0064463D01*
X0132635Y0063908D01*
X0132348Y0063411D01*
X0131942Y0063005D01*
X0131445Y0062718D01*
X0130890Y0062569D01*
X0128803Y0062569D01*
X0128803Y0067500D01*
X0128803Y0067500D01*
X0128803Y0067500D01*
X0128803Y0062569D01*
X0128662Y0062569D01*
X0128662Y0059931D01*
X0128803Y0059931D01*
X0128803Y0055000D01*
X0132784Y0055000D01*
X0132784Y0058037D01*
X0132635Y0058592D01*
X0132348Y0059089D01*
X0131942Y0059495D01*
X0131445Y0059782D01*
X0130890Y0059931D01*
X0128803Y0059931D01*
X0128803Y0055000D01*
X0128803Y0055000D01*
X0132784Y0055000D01*
X0132784Y0051963D01*
X0132635Y0051408D01*
X0132348Y0050911D01*
X0131942Y0050505D01*
X0131445Y0050218D01*
X0130890Y0050069D01*
X0128803Y0050069D01*
X0128803Y0055000D01*
X0128803Y0055000D01*
X0128803Y0055000D01*
X0128803Y0050069D01*
X0127998Y0050069D01*
X0127468Y0049539D01*
X0126455Y0049119D01*
X0124381Y0049119D01*
X0124381Y0042086D01*
X0125063Y0041404D01*
X0125543Y0041884D01*
X0126347Y0042468D01*
X0127232Y0042919D01*
X0128178Y0043226D01*
X0129159Y0043382D01*
X0129460Y0043382D01*
X0129460Y0035197D01*
X0129853Y0035197D01*
X0129853Y0043382D01*
X0130153Y0043382D01*
X0131135Y0043226D01*
X0132081Y0042919D01*
X0132966Y0042468D01*
X0133770Y0041884D01*
X0134250Y0041404D01*
X0135754Y0042908D01*
X0138286Y0043957D01*
X0141027Y0043957D01*
X0143559Y0042908D01*
X0144656Y0041811D01*
X0145754Y0042908D01*
X0148286Y0043957D01*
X0151027Y0043957D01*
X0153559Y0042908D01*
X0154656Y0041811D01*
X0155754Y0042908D01*
X0158286Y0043957D01*
X0161027Y0043957D01*
X0163559Y0042908D01*
X0164656Y0041811D01*
X0165754Y0042908D01*
X0168286Y0043957D01*
X0171027Y0043957D01*
X0173559Y0042908D01*
X0174656Y0041811D01*
X0175754Y0042908D01*
X0178286Y0043957D01*
X0181027Y0043957D01*
X0183559Y0042908D01*
X0184656Y0041811D01*
X0185754Y0042908D01*
X0188286Y0043957D01*
X0191027Y0043957D01*
X0193559Y0042908D01*
X0194656Y0041811D01*
X0195754Y0042908D01*
X0198286Y0043957D01*
X0201027Y0043957D01*
X0203559Y0042908D01*
X0204656Y0041811D01*
X0205754Y0042908D01*
X0208286Y0043957D01*
X0211027Y0043957D01*
X0213559Y0042908D01*
X0214656Y0041811D01*
X0215754Y0042908D01*
X0218286Y0043957D01*
X0219401Y0043957D01*
X0219401Y0045548D01*
X0219451Y0045669D01*
X0208832Y0045669D01*
X0208813Y0045650D01*
X0206927Y0044869D01*
X0204886Y0044869D01*
X0203000Y0045650D01*
X0201557Y0047094D01*
X0200776Y0048979D01*
X0200776Y0051021D01*
X0201557Y0052906D01*
X0203000Y0054350D01*
X0204886Y0055131D01*
X0206927Y0055131D01*
X0208813Y0054350D01*
X0208832Y0054331D01*
X0219401Y0054331D01*
X0219401Y0058858D01*
X0217320Y0060939D01*
X0216901Y0061952D01*
X0216901Y0074847D01*
X0216857Y0075240D01*
X0216901Y0075391D01*
X0216901Y0075548D01*
X0217052Y0075914D01*
X0217162Y0076294D01*
X0217260Y0076416D01*
X0217320Y0076561D01*
X0217600Y0076841D01*
X0225789Y0087078D01*
X0225754Y0087092D01*
X0224656Y0088189D01*
X0223559Y0087092D01*
X0221027Y0086043D01*
X0218286Y0086043D01*
X0215754Y0087092D01*
X0214656Y0088189D01*
X0213559Y0087092D01*
X0211027Y0086043D01*
X0208286Y0086043D01*
X0205754Y0087092D01*
X0204656Y0088189D01*
X0203559Y0087092D01*
X0201027Y0086043D01*
X0198286Y0086043D01*
X0195754Y0087092D01*
X0194656Y0088189D01*
X0194317Y0087850D01*
X0196007Y0086161D01*
X0196546Y0084858D01*
X0196546Y0079904D01*
X0197139Y0079311D01*
X0197559Y0078298D01*
X0197559Y0071702D01*
X0197139Y0070689D01*
X0196950Y0070499D01*
X0196950Y0068045D01*
X0196410Y0066743D01*
X0195414Y0065746D01*
X0191664Y0061996D01*
X0190361Y0061457D01*
X0182296Y0061457D01*
X0181384Y0060544D01*
X0179452Y0059744D01*
X0177361Y0059744D01*
X0175429Y0060544D01*
X0174979Y0060994D01*
X0169733Y0060994D01*
X0169656Y0061026D01*
X0169580Y0060994D01*
X0163483Y0060994D01*
X0162470Y0061414D01*
X0162020Y0061864D01*
X0161487Y0061331D01*
X0161487Y0052925D01*
X0161506Y0052906D01*
X0162287Y0051021D01*
X0162287Y0048979D01*
X0161506Y0047094D01*
X0160063Y0045650D01*
X0158177Y0044869D01*
X0156136Y0044869D01*
X0154250Y0045650D01*
X0152807Y0047094D01*
X0152026Y0048979D01*
X0152026Y0051021D01*
X0152807Y0052906D01*
X0152826Y0052925D01*
X0152826Y0063986D01*
X0153485Y0065578D01*
X0154703Y0066796D01*
X0160776Y0072869D01*
X0160358Y0072869D01*
X0159574Y0073194D01*
X0158010Y0073194D01*
X0158010Y0078125D01*
X0158010Y0078125D01*
X0154029Y0078125D01*
X0154029Y0081162D01*
X0154178Y0081717D01*
X0154465Y0082214D01*
X0154871Y0082620D01*
X0155368Y0082907D01*
X0155923Y0083056D01*
X0158010Y0083056D01*
X0158010Y0078125D01*
X0154029Y0078125D01*
X0154029Y0075088D01*
X0154178Y0074533D01*
X0154465Y0074036D01*
X0154871Y0073630D01*
X0155368Y0073343D01*
X0155923Y0073194D01*
X0158010Y0073194D01*
X0158010Y0078125D01*
X0158010Y0078125D01*
X0158010Y0078125D01*
X0158010Y0083056D01*
X0159574Y0083056D01*
X0160358Y0083381D01*
X0163351Y0083381D01*
X0163706Y0083528D01*
X0163850Y0083671D01*
X0165326Y0084283D01*
X0165326Y0087520D01*
X0164250Y0088596D01*
X0163770Y0088116D01*
X0162966Y0087532D01*
X0162081Y0087081D01*
X0161135Y0086774D01*
X0160153Y0086618D01*
X0159853Y0086618D01*
X0159853Y0094803D01*
X0159460Y0094803D01*
X0159460Y0086618D01*
X0159159Y0086618D01*
X0158178Y0086774D01*
X0157232Y0087081D01*
X0156347Y0087532D01*
X0155543Y0088116D01*
X0155063Y0088596D01*
X0153559Y0087092D01*
X0151027Y0086043D01*
X0148286Y0086043D01*
X0145754Y0087092D01*
X0144656Y0088189D01*
X0143559Y0087092D01*
X0141027Y0086043D01*
X0138286Y0086043D01*
X0135754Y0087092D01*
X0134656Y0088189D01*
X0133559Y0087092D01*
X0131027Y0086043D01*
X0128286Y0086043D01*
X0125754Y0087092D01*
X0124656Y0088189D01*
X0123559Y0087092D01*
X0121027Y0086043D01*
X0118286Y0086043D01*
X0115754Y0087092D01*
X0114656Y0088189D01*
X0113559Y0087092D01*
X0112575Y0086684D01*
X0112575Y0067420D01*
X0112035Y0066118D01*
X0111039Y0065121D01*
X0110075Y0064157D01*
X0110075Y0056170D01*
X0109535Y0054868D01*
X0108539Y0053871D01*
X0103809Y0049141D01*
X0103809Y0047952D01*
X0103389Y0046939D01*
X0102614Y0046164D01*
X0101601Y0045744D01*
X0096905Y0045744D01*
X0095906Y0046158D01*
X0094908Y0045744D01*
X0090212Y0045744D01*
X0089199Y0046164D01*
X0088424Y0046939D01*
X0088004Y0047952D01*
X0088004Y0050391D01*
X0086939Y0051457D01*
X0068584Y0051457D01*
X0067274Y0050147D01*
X0066919Y0050000D01*
X0067274Y0049853D01*
X0068884Y0048243D01*
X0069756Y0046139D01*
X0069756Y0043861D01*
X0068884Y0041757D01*
X0067277Y0040150D01*
X0067287Y0040150D01*
X0067842Y0040001D01*
X0068339Y0039714D01*
X0068745Y0039308D01*
X0069032Y0038810D01*
X0069181Y0038256D01*
X0069181Y0035000D01*
X0064032Y0035000D01*
X0064032Y0035000D01*
X0069181Y0035000D01*
X0069181Y0031744D01*
X0069032Y0031190D01*
X0068745Y0030692D01*
X0068339Y0030286D01*
X0067842Y0029999D01*
X0067287Y0029850D01*
X0064032Y0029850D01*
X0064032Y0035000D01*
X0064031Y0035000D01*
X0058882Y0035000D01*
X0064031Y0035000D01*
X0064031Y0035000D01*
X0064031Y0029850D01*
X0060776Y0029850D01*
X0060221Y0029999D01*
X0059724Y0030286D01*
X0059318Y0030692D01*
X0059031Y0031190D01*
X0058882Y0031744D01*
X0058882Y0035000D01*
X0058882Y0038256D01*
X0059031Y0038810D01*
X0059318Y0039308D01*
X0059724Y0039714D01*
X0060221Y0040001D01*
X0060776Y0040150D01*
X0060786Y0040150D01*
X0059179Y0041757D01*
X0058307Y0043861D01*
X0058307Y0046139D01*
X0059179Y0048243D01*
X0060789Y0049853D01*
X0061144Y0050000D01*
X0060789Y0050147D01*
X0059179Y0051757D01*
X0058307Y0053861D01*
X0058307Y0056139D01*
X0059179Y0058243D01*
X0060789Y0059853D01*
X0061144Y0060000D01*
X0060789Y0060147D01*
X0059179Y0061757D01*
X0058307Y0063861D01*
X0058307Y0066139D01*
X0059179Y0068243D01*
X0060789Y0069853D01*
X0061144Y0070000D01*
X0060789Y0070147D01*
X0059179Y0071757D01*
X0058307Y0073861D01*
X0058307Y0076139D01*
X0059179Y0078243D01*
X0060789Y0079853D01*
X0061144Y0080000D01*
X0060789Y0080147D01*
X0059179Y0081757D01*
X0058307Y0083861D01*
X0058307Y0086139D01*
X0059179Y0088243D01*
X0060789Y0089853D01*
X0062893Y0090724D01*
X0065170Y0090724D01*
X0067274Y0089853D01*
X0067363Y0089764D01*
X0067363Y0092382D01*
X0065880Y0092382D01*
X0064867Y0092801D01*
X0064250Y0093418D01*
X0064224Y0093392D01*
X0063727Y0093105D01*
X0063172Y0092957D01*
X0060523Y0092957D01*
X0060523Y0097500D01*
X0060523Y0097500D01*
X0060523Y0092957D01*
X0059811Y0092957D01*
X0059493Y0092189D01*
X0058718Y0091414D01*
X0057705Y0090994D01*
X0056188Y0090994D01*
X0056188Y0090382D02*
X0062067Y0090382D01*
X0065996Y0090382D02*
X0067363Y0090382D01*
X0065008Y0092743D02*
X0059722Y0092743D01*
X0060523Y0095104D02*
X0060523Y0095104D01*
X0060523Y0097464D02*
X0060523Y0097464D01*
X0059087Y0088022D02*
X0056188Y0088022D01*
X0056188Y0085661D02*
X0058307Y0085661D01*
X0058540Y0083300D02*
X0056188Y0083300D01*
X0056188Y0080939D02*
X0059997Y0080939D01*
X0059515Y0078579D02*
X0056188Y0078579D01*
X0056188Y0076218D02*
X0058340Y0076218D01*
X0058309Y0073857D02*
X0056188Y0073857D01*
X0056188Y0071497D02*
X0059439Y0071497D01*
X0060072Y0069136D02*
X0056188Y0069136D01*
X0056188Y0066775D02*
X0058571Y0066775D01*
X0058307Y0064414D02*
X0056188Y0064414D01*
X0056188Y0062054D02*
X0059056Y0062054D01*
X0060629Y0059693D02*
X0056188Y0059693D01*
X0056188Y0057332D02*
X0058802Y0057332D01*
X0058307Y0054972D02*
X0056188Y0054972D01*
X0056188Y0052611D02*
X0058825Y0052611D01*
X0060686Y0050250D02*
X0056188Y0050250D01*
X0056188Y0047889D02*
X0059032Y0047889D01*
X0058307Y0045529D02*
X0056188Y0045529D01*
X0056188Y0043168D02*
X0058594Y0043168D01*
X0060129Y0040807D02*
X0056188Y0040807D01*
X0056188Y0038447D02*
X0058933Y0038447D01*
X0058882Y0036086D02*
X0056188Y0036086D01*
X0056188Y0033725D02*
X0058882Y0033725D01*
X0064031Y0033725D02*
X0064032Y0033725D01*
X0069181Y0033725D02*
X0072767Y0033725D01*
X0072767Y0036086D02*
X0069181Y0036086D01*
X0069130Y0038447D02*
X0072771Y0038447D01*
X0073748Y0040807D02*
X0067934Y0040807D01*
X0069469Y0043168D02*
X0076382Y0043168D01*
X0082931Y0043168D02*
X0086382Y0043168D01*
X0092931Y0043168D02*
X0096382Y0043168D01*
X0102931Y0043168D02*
X0106382Y0043168D01*
X0112931Y0043168D02*
X0114932Y0043168D01*
X0114932Y0045529D02*
X0069756Y0045529D01*
X0069031Y0047889D02*
X0088030Y0047889D01*
X0088004Y0050250D02*
X0067377Y0050250D01*
X0103783Y0047889D02*
X0114932Y0047889D01*
X0114932Y0050250D02*
X0104918Y0050250D01*
X0107278Y0052611D02*
X0114932Y0052611D01*
X0114932Y0054972D02*
X0109578Y0054972D01*
X0110075Y0057332D02*
X0115954Y0057332D01*
X0116573Y0059693D02*
X0110075Y0059693D01*
X0110075Y0062054D02*
X0116573Y0062054D01*
X0115954Y0064414D02*
X0110332Y0064414D01*
X0112308Y0066775D02*
X0115954Y0066775D01*
X0115954Y0069136D02*
X0112575Y0069136D01*
X0112575Y0071497D02*
X0116243Y0071497D01*
X0112575Y0073857D02*
X0121875Y0073857D01*
X0126813Y0073857D02*
X0154643Y0073857D01*
X0158010Y0073857D02*
X0158010Y0073857D01*
X0158010Y0076218D02*
X0158010Y0076218D01*
X0154029Y0076218D02*
X0112575Y0076218D01*
X0112575Y0078579D02*
X0154029Y0078579D01*
X0158010Y0078579D02*
X0158010Y0078579D01*
X0158010Y0080939D02*
X0158010Y0080939D01*
X0154029Y0080939D02*
X0112575Y0080939D01*
X0112575Y0083300D02*
X0160163Y0083300D01*
X0165326Y0085661D02*
X0112575Y0085661D01*
X0114489Y0088022D02*
X0114824Y0088022D01*
X0124489Y0088022D02*
X0124824Y0088022D01*
X0134489Y0088022D02*
X0134824Y0088022D01*
X0144489Y0088022D02*
X0144824Y0088022D01*
X0154489Y0088022D02*
X0155673Y0088022D01*
X0159460Y0088022D02*
X0159853Y0088022D01*
X0163640Y0088022D02*
X0164824Y0088022D01*
X0159853Y0090382D02*
X0159460Y0090382D01*
X0159460Y0092743D02*
X0159853Y0092743D01*
X0159853Y0095197D02*
X0159460Y0095197D01*
X0159460Y0102219D01*
X0159853Y0102219D01*
X0159853Y0095197D01*
X0159853Y0097464D02*
X0159460Y0097464D01*
X0159460Y0099825D02*
X0159853Y0099825D01*
X0159853Y0102186D02*
X0159460Y0102186D01*
X0194489Y0088022D02*
X0194824Y0088022D01*
X0196214Y0085661D02*
X0224656Y0085661D01*
X0224489Y0088022D02*
X0224824Y0088022D01*
X0222767Y0083300D02*
X0196546Y0083300D01*
X0196546Y0080939D02*
X0220879Y0080939D01*
X0218990Y0078579D02*
X0197443Y0078579D01*
X0197559Y0076218D02*
X0217140Y0076218D01*
X0216901Y0073857D02*
X0197559Y0073857D01*
X0197474Y0071497D02*
X0216901Y0071497D01*
X0216901Y0069136D02*
X0196950Y0069136D01*
X0196424Y0066775D02*
X0216901Y0066775D01*
X0216901Y0064414D02*
X0194082Y0064414D01*
X0191721Y0062054D02*
X0216901Y0062054D01*
X0218566Y0059693D02*
X0161487Y0059693D01*
X0161487Y0057332D02*
X0219401Y0057332D01*
X0219401Y0054972D02*
X0207311Y0054972D01*
X0204502Y0054972D02*
X0192311Y0054972D01*
X0191927Y0055131D02*
X0189886Y0055131D01*
X0188000Y0054350D01*
X0186557Y0052906D01*
X0185776Y0051021D01*
X0185776Y0048979D01*
X0186557Y0047094D01*
X0188000Y0045650D01*
X0189886Y0044869D01*
X0191927Y0044869D01*
X0193813Y0045650D01*
X0195256Y0047094D01*
X0196037Y0048979D01*
X0196037Y0051021D01*
X0195256Y0052906D01*
X0193813Y0054350D01*
X0191927Y0055131D01*
X0189502Y0054972D02*
X0161487Y0054972D01*
X0161628Y0052611D02*
X0186435Y0052611D01*
X0185776Y0050250D02*
X0162287Y0050250D01*
X0161836Y0047889D02*
X0186227Y0047889D01*
X0188294Y0045529D02*
X0159769Y0045529D01*
X0154544Y0045529D02*
X0124381Y0045529D01*
X0124381Y0047889D02*
X0152477Y0047889D01*
X0152026Y0050250D02*
X0131501Y0050250D01*
X0128803Y0050250D02*
X0128803Y0050250D01*
X0128803Y0052611D02*
X0128803Y0052611D01*
X0132784Y0052611D02*
X0152685Y0052611D01*
X0152826Y0054972D02*
X0132784Y0054972D01*
X0128803Y0054972D02*
X0128803Y0054972D01*
X0128803Y0057332D02*
X0128803Y0057332D01*
X0132784Y0057332D02*
X0152826Y0057332D01*
X0152826Y0059693D02*
X0131600Y0059693D01*
X0128803Y0059693D02*
X0128803Y0059693D01*
X0128662Y0062054D02*
X0152826Y0062054D01*
X0153003Y0064414D02*
X0132771Y0064414D01*
X0128803Y0064414D02*
X0128803Y0064414D01*
X0128803Y0066775D02*
X0128803Y0066775D01*
X0132784Y0066775D02*
X0154682Y0066775D01*
X0157043Y0069136D02*
X0132784Y0069136D01*
X0128803Y0069136D02*
X0128803Y0069136D01*
X0128803Y0071497D02*
X0128803Y0071497D01*
X0132402Y0071497D02*
X0159404Y0071497D01*
X0120510Y0067500D02*
X0120510Y0055000D01*
X0124381Y0043168D02*
X0127998Y0043168D01*
X0129460Y0043168D02*
X0129853Y0043168D01*
X0131315Y0043168D02*
X0136382Y0043168D01*
X0129853Y0040807D02*
X0129460Y0040807D01*
X0129460Y0038447D02*
X0129853Y0038447D01*
X0129853Y0036086D02*
X0129460Y0036086D01*
X0129460Y0034803D02*
X0129853Y0034803D01*
X0129853Y0027781D01*
X0129460Y0027781D01*
X0129460Y0034803D01*
X0129460Y0033725D02*
X0129853Y0033725D01*
X0129853Y0031364D02*
X0129460Y0031364D01*
X0129460Y0029004D02*
X0129853Y0029004D01*
X0142931Y0043168D02*
X0146382Y0043168D01*
X0152931Y0043168D02*
X0156382Y0043168D01*
X0162931Y0043168D02*
X0166382Y0043168D01*
X0172931Y0043168D02*
X0176382Y0043168D01*
X0182931Y0043168D02*
X0186382Y0043168D01*
X0192931Y0043168D02*
X0196382Y0043168D01*
X0193519Y0045529D02*
X0203294Y0045529D01*
X0202931Y0043168D02*
X0206382Y0043168D01*
X0208519Y0045529D02*
X0219401Y0045529D01*
X0216382Y0043168D02*
X0212931Y0043168D01*
X0201227Y0047889D02*
X0195586Y0047889D01*
X0196037Y0050250D02*
X0200776Y0050250D01*
X0201435Y0052611D02*
X0195378Y0052611D01*
X0224657Y0065853D02*
X0224657Y0065854D01*
X0229588Y0065854D01*
X0229588Y0065994D01*
X0249725Y0065994D01*
X0249725Y0065854D01*
X0254656Y0065854D01*
X0254656Y0065853D01*
X0249725Y0065853D01*
X0249725Y0064256D01*
X0241408Y0064256D01*
X0240805Y0064006D01*
X0238508Y0064006D01*
X0237905Y0064256D01*
X0229588Y0064256D01*
X0229588Y0065853D01*
X0224657Y0065853D01*
X0229588Y0064414D02*
X0249725Y0064414D01*
X0258247Y0059693D02*
X0274507Y0059693D01*
X0274507Y0059595D02*
X0274634Y0058794D01*
X0274884Y0058023D01*
X0275252Y0057301D01*
X0275729Y0056645D01*
X0275937Y0056437D01*
X0275123Y0056437D01*
X0273676Y0055838D01*
X0272569Y0054730D01*
X0271969Y0053283D01*
X0271969Y0046092D01*
X0272569Y0044645D01*
X0273676Y0043537D01*
X0275123Y0042938D01*
X0281875Y0042938D01*
X0281875Y0027781D01*
X0274248Y0027781D01*
X0275497Y0029030D01*
X0276546Y0031563D01*
X0276546Y0038437D01*
X0275497Y0040970D01*
X0273559Y0042908D01*
X0271027Y0043957D01*
X0268286Y0043957D01*
X0265754Y0042908D01*
X0264656Y0041811D01*
X0263559Y0042908D01*
X0261027Y0043957D01*
X0258286Y0043957D01*
X0255754Y0042908D01*
X0254250Y0041404D01*
X0253770Y0041884D01*
X0252966Y0042468D01*
X0252081Y0042919D01*
X0251897Y0042979D01*
X0251942Y0043005D01*
X0252348Y0043411D01*
X0252635Y0043908D01*
X0252784Y0044463D01*
X0252784Y0047500D01*
X0252784Y0050537D01*
X0252635Y0051092D01*
X0252348Y0051589D01*
X0251942Y0051995D01*
X0251445Y0052282D01*
X0250890Y0052431D01*
X0249912Y0052431D01*
X0249912Y0053747D01*
X0250918Y0054164D01*
X0251530Y0054776D01*
X0251608Y0054744D01*
X0252705Y0054744D01*
X0253718Y0055164D01*
X0261993Y0063439D01*
X0262412Y0064452D01*
X0262412Y0078048D01*
X0261993Y0079061D01*
X0261218Y0079836D01*
X0254912Y0086142D01*
X0254912Y0087934D01*
X0255754Y0087092D01*
X0258286Y0086043D01*
X0261027Y0086043D01*
X0263559Y0087092D01*
X0264656Y0088189D01*
X0265754Y0087092D01*
X0268286Y0086043D01*
X0271027Y0086043D01*
X0273559Y0087092D01*
X0275497Y0089030D01*
X0276546Y0091563D01*
X0276546Y0098437D01*
X0275497Y0100970D01*
X0274248Y0102219D01*
X0281875Y0102219D01*
X0281875Y0077062D01*
X0275123Y0077062D01*
X0273676Y0076463D01*
X0272569Y0075355D01*
X0271969Y0073908D01*
X0271969Y0066717D01*
X0272569Y0065270D01*
X0273676Y0064162D01*
X0275123Y0063563D01*
X0275937Y0063563D01*
X0275729Y0063355D01*
X0275252Y0062699D01*
X0274884Y0061977D01*
X0274634Y0061206D01*
X0274507Y0060405D01*
X0274507Y0060000D01*
X0279656Y0060000D01*
X0274507Y0060000D01*
X0274507Y0059595D01*
X0275236Y0057332D02*
X0255886Y0057332D01*
X0253254Y0054972D02*
X0272810Y0054972D01*
X0271969Y0052611D02*
X0249912Y0052611D01*
X0252784Y0050250D02*
X0271969Y0050250D01*
X0275906Y0050250D02*
X0281875Y0050250D01*
X0281875Y0052500D02*
X0276837Y0052500D01*
X0275906Y0052086D01*
X0275906Y0046875D01*
X0281875Y0046875D01*
X0281875Y0052500D01*
X0281875Y0047889D02*
X0275906Y0047889D01*
X0271969Y0047889D02*
X0252784Y0047889D01*
X0252784Y0047500D02*
X0248803Y0047500D01*
X0248803Y0047500D01*
X0252784Y0047500D01*
X0252784Y0045529D02*
X0272203Y0045529D01*
X0272931Y0043168D02*
X0274568Y0043168D01*
X0275565Y0040807D02*
X0281875Y0040807D01*
X0281875Y0038447D02*
X0276542Y0038447D01*
X0276546Y0036086D02*
X0281875Y0036086D01*
X0281875Y0033725D02*
X0276546Y0033725D01*
X0276464Y0031364D02*
X0281875Y0031364D01*
X0281875Y0029004D02*
X0275471Y0029004D01*
X0249853Y0029004D02*
X0249460Y0029004D01*
X0249460Y0027781D02*
X0249460Y0034803D01*
X0249853Y0034803D01*
X0249853Y0027781D01*
X0249460Y0027781D01*
X0249460Y0031364D02*
X0249853Y0031364D01*
X0249853Y0033725D02*
X0249460Y0033725D01*
X0249460Y0035197D02*
X0249460Y0042569D01*
X0249853Y0042569D01*
X0249853Y0035197D01*
X0249460Y0035197D01*
X0249460Y0036086D02*
X0249853Y0036086D01*
X0249853Y0038447D02*
X0249460Y0038447D01*
X0249460Y0040807D02*
X0249853Y0040807D01*
X0252105Y0043168D02*
X0256382Y0043168D01*
X0262931Y0043168D02*
X0266382Y0043168D01*
X0279656Y0060000D02*
X0279656Y0060000D01*
X0274923Y0062054D02*
X0260608Y0062054D01*
X0262397Y0064414D02*
X0273424Y0064414D01*
X0271969Y0066775D02*
X0262412Y0066775D01*
X0262412Y0069136D02*
X0271969Y0069136D01*
X0275906Y0069136D02*
X0281875Y0069136D01*
X0281875Y0067500D02*
X0275906Y0067500D01*
X0275906Y0073125D01*
X0281875Y0073125D01*
X0281875Y0067500D01*
X0281875Y0071497D02*
X0275906Y0071497D01*
X0271969Y0071497D02*
X0262412Y0071497D01*
X0262412Y0073857D02*
X0271969Y0073857D01*
X0273432Y0076218D02*
X0262412Y0076218D01*
X0262193Y0078579D02*
X0281875Y0078579D01*
X0281875Y0080939D02*
X0260114Y0080939D01*
X0257754Y0083300D02*
X0281875Y0083300D01*
X0281875Y0085661D02*
X0255393Y0085661D01*
X0264489Y0088022D02*
X0264824Y0088022D01*
X0274489Y0088022D02*
X0281875Y0088022D01*
X0281875Y0090382D02*
X0276057Y0090382D01*
X0276546Y0092743D02*
X0281875Y0092743D01*
X0281875Y0095104D02*
X0276546Y0095104D01*
X0276546Y0097464D02*
X0281875Y0097464D01*
X0281875Y0099825D02*
X0275971Y0099825D01*
X0274281Y0102186D02*
X0281875Y0102186D01*
X0214824Y0088022D02*
X0214489Y0088022D01*
X0204824Y0088022D02*
X0204489Y0088022D01*
X0224656Y0074146D02*
X0226803Y0074146D01*
X0073842Y0029004D02*
X0056188Y0029004D01*
X0056188Y0031364D02*
X0058984Y0031364D01*
X0064031Y0031364D02*
X0064032Y0031364D01*
X0069079Y0031364D02*
X0072849Y0031364D01*
D18*
X0119656Y0035000D02*
X0119656Y0054146D01*
X0120510Y0055000D01*
X0129656Y0046250D02*
X0129656Y0035000D01*
X0248803Y0047500D02*
X0249656Y0046646D01*
X0249656Y0035000D01*
X0248803Y0047500D02*
X0251303Y0050000D01*
X0257156Y0050000D01*
X0257156Y0063354D01*
X0254656Y0065854D01*
X0159656Y0087500D02*
X0159656Y0095000D01*
D19*
X0129656Y0082500D03*
X0205906Y0082500D03*
X0268406Y0081250D03*
X0205906Y0050000D03*
X0190906Y0050000D03*
X0157156Y0050000D03*
D20*
X0157156Y0063125D01*
X0166303Y0072271D01*
X0166303Y0078125D01*
X0166303Y0080000D01*
X0169656Y0080000D01*
X0169656Y0095000D01*
X0159656Y0087500D02*
X0155510Y0083354D01*
X0169656Y0080000D02*
X0179656Y0080000D01*
X0186310Y0075000D01*
X0205906Y0050000D02*
X0223810Y0050000D01*
X0224435Y0049375D01*
X0231128Y0049375D02*
X0238635Y0049375D01*
X0240510Y0047500D01*
X0240510Y0035000D01*
X0239656Y0035000D01*
D21*
X0257156Y0050000D02*
X0279656Y0060000D01*
X0272781Y0062500D01*
D22*
X0214656Y0043750D03*
X0174656Y0043750D03*
X0137156Y0060000D03*
X0113406Y0062500D03*
X0112156Y0046250D03*
X0115906Y0083750D03*
X0144656Y0083750D03*
X0057156Y0090000D03*
X0279656Y0100000D03*
X0279656Y0030000D03*
D23*
X0218406Y0057500D03*
X0208406Y0063750D03*
X0197156Y0057500D03*
X0217156Y0082500D03*
D24*
X0079656Y0046250D03*
D25*
X0088406Y0055000D02*
X0092156Y0051250D01*
X0092560Y0051250D01*
X0099253Y0051250D02*
X0100906Y0051250D01*
X0106531Y0056875D01*
X0106531Y0065625D01*
X0109031Y0068125D01*
X0109031Y0094375D01*
X0109656Y0095000D01*
X0085060Y0082096D02*
X0079656Y0087500D01*
X0079656Y0095000D01*
X0070906Y0094134D02*
X0068790Y0097500D01*
X0070906Y0094134D02*
X0070906Y0085000D01*
X0080503Y0075404D01*
X0093406Y0075404D01*
X0100053Y0067896D02*
X0103406Y0071250D01*
X0100053Y0067896D02*
X0100053Y0063750D01*
X0091760Y0063750D02*
X0083406Y0063750D01*
X0072156Y0075000D01*
X0064031Y0075000D01*
X0085060Y0082096D02*
X0093406Y0082096D01*
X0088406Y0055000D02*
X0064031Y0055000D01*
X0178406Y0065000D02*
X0189656Y0065000D01*
X0193406Y0068750D01*
X0193406Y0074596D01*
X0193003Y0075000D01*
X0193003Y0084154D01*
X0189656Y0087500D01*
X0189656Y0095000D01*
X0226803Y0074146D02*
X0233656Y0081000D01*
X0239656Y0087000D01*
X0239656Y0095000D01*
X0249656Y0095000D02*
X0249656Y0085000D01*
X0245656Y0081000D01*
X0252510Y0074146D01*
X0254656Y0074146D01*
X0254656Y0065854D02*
X0224656Y0065854D01*
D26*
X0145906Y0058750D03*
X0103406Y0071250D03*
D27*
X0178406Y0065000D03*
M02*
