%
M48
M72
T01C0.0197
T02C0.0236
T03C0.0315
T04C0.0320
T05C0.0394
T06C0.0551
%
T01
X14403Y3343
X17966Y5093
X20466Y6906
X14028Y6906
X21466Y3031
T02
X26903Y3281
X20466Y5406
X25591Y6218
X26966Y6781
X25591Y6843
X14341Y5406
X7903Y5343
T03
X27966Y3593
T04
X24966Y3343
X23966Y3343
X18966Y3593
X22278Y5343
X23278Y5343
X24528Y5343
X25528Y5343
X18966Y6593
X16966Y6718
X15966Y6718
X12716Y6156
X11716Y6156
X10466Y6718
X9091Y6656
X11716Y4843
X12716Y4843
X12716Y3718
X11716Y3718
X10466Y3718
X9091Y3656
T05
X6403Y4031
X6403Y3031
X6403Y5031
X6403Y6031
X6403Y7031
X6403Y8031
X27966Y5593
X27966Y4593
T06
X7966Y2093
X8966Y2093
X9966Y2093
X10966Y2093
X11966Y2093
X12966Y2093
X13966Y2093
X14966Y2093
X15966Y2093
X16966Y2093
X17966Y2093
X18966Y2093
X19966Y2093
X20966Y2093
X21966Y2093
X22966Y2093
X23966Y2093
X24966Y2093
X25966Y2093
X26966Y2093
X26966Y8093
X25966Y8093
X24966Y8093
X23966Y8093
X22966Y8093
X21966Y8093
X20966Y8093
X19966Y8093
X18966Y8093
X17966Y8093
X16966Y8093
X15966Y8093
X14966Y8093
X13966Y8093
X12966Y8093
X11966Y8093
X10966Y8093
X9966Y8093
X8966Y8093
X7966Y8093
M30
