%
M48
M72
T01C0.0197
T02C0.0236
T03C0.0276
T04C0.0315
T05C0.0394
T06C0.0551
%
T01
X11216Y4625
X13716Y6000
X11341Y6250
X11591Y8375
X14466Y8375
X20841Y6375
X21841Y5750
X19716Y5750
X21466Y4375
X17466Y4375
X21716Y8250
X27966Y10000
X27966Y3000
X5716Y9000
T02
X10341Y7125
X14591Y5875
T03
X7966Y4625
T04
X15716Y5000
X19091Y5000
X20591Y5000
X17841Y6500
X20591Y8250
X26841Y8125
X12966Y8250
T05
X6403Y3500
X6403Y4500
X6403Y5500
X6403Y6500
X6403Y7500
X6403Y8500
X27966Y7000
X27966Y6000
X27966Y5000
T06
X26966Y3500
X25966Y3500
X24966Y3500
X23966Y3500
X22966Y3500
X21966Y3500
X20966Y3500
X19966Y3500
X18966Y3500
X17966Y3500
X16966Y3500
X15966Y3500
X14966Y3500
X13966Y3500
X12966Y3500
X11966Y3500
X10966Y3500
X9966Y3500
X8966Y3500
X7966Y3500
X7966Y9500
X8966Y9500
X9966Y9500
X10966Y9500
X11966Y9500
X12966Y9500
X13966Y9500
X14966Y9500
X15966Y9500
X16966Y9500
X17966Y9500
X18966Y9500
X19966Y9500
X20966Y9500
X21966Y9500
X22966Y9500
X23966Y9500
X24966Y9500
X25966Y9500
X26966Y9500
M30
