G75*
%MOIN*%
%OFA0B0*%
%FSLAX25Y25*%
%IPPOS*%
%LPD*%
%AMOC8*
5,1,8,0,0,1.08239X$1,22.5*
%
%ADD10R,0.06250X0.05625*%
%ADD11C,0.06540*%
%ADD12R,0.06312X0.12611*%
%ADD13R,0.06300X0.04400*%
%ADD14R,0.04400X0.06300*%
%ADD15C,0.01892*%
%ADD16R,0.04934X0.02965*%
%ADD17C,0.06400*%
%ADD18OC8,0.16548*%
%ADD19C,0.08477*%
%ADD20R,0.06737X0.06737*%
%ADD21C,0.06737*%
%ADD22R,0.05524X0.05524*%
%ADD23C,0.05162*%
%ADD24OC8,0.06902*%
%ADD25R,0.04737X0.06312*%
%ADD26C,0.07800*%
%ADD27R,0.07800X0.07800*%
%ADD28C,0.01648*%
%ADD29C,0.05950*%
%ADD30C,0.00154*%
%ADD31OC8,0.06800*%
%ADD32C,0.06800*%
%ADD33C,0.05000*%
%ADD34C,0.06706*%
%ADD35R,0.06706X0.07099*%
%ADD36C,0.04762*%
%ADD37C,0.07296*%
%ADD38C,0.17398*%
%ADD39C,0.05800*%
%ADD40C,0.05550*%
D10*
X0114875Y0166125D03*
D11*
X0221125Y0027847D02*
X0221125Y0024403D01*
X0231125Y0024403D02*
X0231125Y0027847D01*
X0241125Y0027847D02*
X0241125Y0024403D01*
X0251125Y0024403D02*
X0251125Y0027847D01*
X0261125Y0027847D02*
X0261125Y0024403D01*
X0271125Y0024403D02*
X0271125Y0027847D01*
D12*
X0141125Y0050114D03*
X0141125Y0069011D03*
X0111125Y0055574D03*
X0111125Y0036676D03*
D13*
X0121751Y0067291D03*
X0121751Y0075584D03*
X0162063Y0072459D03*
X0162063Y0064166D03*
X0188625Y0061979D03*
X0188625Y0070271D03*
X0223625Y0134479D03*
X0233625Y0134479D03*
X0233625Y0142771D03*
X0223625Y0142771D03*
X0095500Y0186354D03*
X0095500Y0194646D03*
D14*
X0093854Y0165500D03*
X0102146Y0165500D03*
X0042596Y0168625D03*
X0035904Y0168625D03*
X0050279Y0214250D03*
X0056971Y0214250D03*
X0196041Y0136125D03*
X0204334Y0136125D03*
X0204334Y0128312D03*
X0196041Y0128312D03*
X0228541Y0090500D03*
X0236834Y0090500D03*
X0272154Y0088625D03*
X0278846Y0088625D03*
X0278846Y0095812D03*
X0272154Y0095812D03*
D15*
X0093000Y0056153D02*
X0084250Y0056153D01*
X0084250Y0063721D01*
X0093000Y0063721D01*
X0093000Y0056153D01*
X0093000Y0058044D02*
X0084250Y0058044D01*
X0084250Y0059935D02*
X0093000Y0059935D01*
X0093000Y0061826D02*
X0084250Y0061826D01*
X0084250Y0063717D02*
X0093000Y0063717D01*
X0093000Y0040404D02*
X0084250Y0040404D01*
X0084250Y0047972D01*
X0093000Y0047972D01*
X0093000Y0040404D01*
X0093000Y0042295D02*
X0084250Y0042295D01*
X0084250Y0044186D02*
X0093000Y0044186D01*
X0093000Y0046077D02*
X0084250Y0046077D01*
X0084250Y0047968D02*
X0093000Y0047968D01*
D16*
X0094988Y0156750D03*
X0106012Y0156750D03*
D17*
X0104625Y0214445D02*
X0104625Y0217805D01*
X0094625Y0217805D02*
X0094625Y0214445D01*
X0114625Y0214445D02*
X0114625Y0217805D01*
X0124625Y0217805D02*
X0124625Y0214445D01*
X0134625Y0214445D02*
X0134625Y0217805D01*
X0144625Y0217805D02*
X0144625Y0214445D01*
X0154625Y0214445D02*
X0154625Y0217805D01*
X0164625Y0217805D02*
X0164625Y0214445D01*
X0174625Y0214445D02*
X0174625Y0217805D01*
X0184625Y0217805D02*
X0184625Y0214445D01*
X0201125Y0214445D02*
X0201125Y0217805D01*
X0211125Y0217805D02*
X0211125Y0214445D01*
X0221125Y0214445D02*
X0221125Y0217805D01*
X0231125Y0217805D02*
X0231125Y0214445D01*
X0241125Y0214445D02*
X0241125Y0217805D01*
X0251125Y0217805D02*
X0251125Y0214445D01*
X0261125Y0214445D02*
X0261125Y0217805D01*
X0271125Y0217805D02*
X0271125Y0214445D01*
X0201125Y0027860D02*
X0201125Y0024500D01*
X0191125Y0024500D02*
X0191125Y0027860D01*
X0181125Y0027860D02*
X0181125Y0024500D01*
X0171125Y0024500D02*
X0171125Y0027860D01*
X0161125Y0027860D02*
X0161125Y0024500D01*
X0151125Y0024500D02*
X0151125Y0027860D01*
X0141125Y0027860D02*
X0141125Y0024500D01*
X0131125Y0024500D02*
X0131125Y0027860D01*
D18*
X0071125Y0050825D03*
X0047525Y0050825D03*
X0059325Y0031125D03*
D19*
X0056325Y0031125D03*
X0062325Y0031125D03*
X0071125Y0047825D03*
X0071125Y0053825D03*
X0047525Y0053825D03*
X0047525Y0047825D03*
D20*
X0081125Y0196125D03*
D21*
X0081125Y0186125D03*
X0081125Y0176125D03*
X0081125Y0166125D03*
X0081125Y0156125D03*
X0081125Y0146125D03*
X0281125Y0026125D03*
D22*
X0074634Y0214250D03*
X0066366Y0214250D03*
X0044009Y0180500D03*
X0035741Y0180500D03*
D23*
X0109875Y0181248D03*
X0109875Y0189496D03*
X0111125Y0166125D03*
X0118625Y0166125D03*
X0180500Y0119875D03*
X0180500Y0113312D03*
X0217062Y0113312D03*
X0217062Y0119875D03*
X0178000Y0057376D03*
D24*
X0271625Y0116125D03*
X0281625Y0116125D03*
X0281625Y0126125D03*
X0271625Y0126125D03*
X0271625Y0136125D03*
X0281625Y0136125D03*
D25*
X0282783Y0078723D03*
X0268217Y0078723D03*
X0268217Y0053527D03*
X0282783Y0053527D03*
D26*
X0146184Y0085052D03*
X0108782Y0085052D03*
X0092198Y0081907D03*
X0092198Y0119309D03*
X0146184Y0147060D03*
X0030190Y0119309D03*
D27*
X0030190Y0081907D03*
X0108782Y0147060D03*
D28*
X0183045Y0106746D02*
X0185543Y0106746D01*
X0183045Y0106746D02*
X0183045Y0107158D01*
X0185543Y0107158D01*
X0185543Y0106746D01*
X0185543Y0104777D02*
X0183045Y0104777D01*
X0183045Y0105189D01*
X0185543Y0105189D01*
X0185543Y0104777D01*
X0185543Y0102809D02*
X0183045Y0102809D01*
X0183045Y0103221D01*
X0185543Y0103221D01*
X0185543Y0102809D01*
X0185543Y0100840D02*
X0183045Y0100840D01*
X0183045Y0101252D01*
X0185543Y0101252D01*
X0185543Y0100840D01*
X0185543Y0098872D02*
X0183045Y0098872D01*
X0183045Y0099284D01*
X0185543Y0099284D01*
X0185543Y0098872D01*
X0185543Y0096903D02*
X0183045Y0096903D01*
X0183045Y0097315D01*
X0185543Y0097315D01*
X0185543Y0096903D01*
X0185543Y0094935D02*
X0183045Y0094935D01*
X0183045Y0095347D01*
X0185543Y0095347D01*
X0185543Y0094935D01*
X0185543Y0092966D02*
X0183045Y0092966D01*
X0183045Y0093378D01*
X0185543Y0093378D01*
X0185543Y0092966D01*
X0185543Y0090998D02*
X0183045Y0090998D01*
X0183045Y0091410D01*
X0185543Y0091410D01*
X0185543Y0090998D01*
X0185543Y0089029D02*
X0183045Y0089029D01*
X0183045Y0089441D01*
X0185543Y0089441D01*
X0185543Y0089029D01*
X0185543Y0087061D02*
X0183045Y0087061D01*
X0183045Y0087473D01*
X0185543Y0087473D01*
X0185543Y0087061D01*
X0185543Y0085092D02*
X0183045Y0085092D01*
X0183045Y0085504D01*
X0185543Y0085504D01*
X0185543Y0085092D01*
X0190504Y0080543D02*
X0190504Y0078045D01*
X0190092Y0078045D01*
X0190092Y0080543D01*
X0190504Y0080543D01*
X0190504Y0079692D02*
X0190092Y0079692D01*
X0192473Y0080543D02*
X0192473Y0078045D01*
X0192061Y0078045D01*
X0192061Y0080543D01*
X0192473Y0080543D01*
X0192473Y0079692D02*
X0192061Y0079692D01*
X0194441Y0080543D02*
X0194441Y0078045D01*
X0194029Y0078045D01*
X0194029Y0080543D01*
X0194441Y0080543D01*
X0194441Y0079692D02*
X0194029Y0079692D01*
X0196410Y0080543D02*
X0196410Y0078045D01*
X0195998Y0078045D01*
X0195998Y0080543D01*
X0196410Y0080543D01*
X0196410Y0079692D02*
X0195998Y0079692D01*
X0198378Y0080543D02*
X0198378Y0078045D01*
X0197966Y0078045D01*
X0197966Y0080543D01*
X0198378Y0080543D01*
X0198378Y0079692D02*
X0197966Y0079692D01*
X0200347Y0080543D02*
X0200347Y0078045D01*
X0199935Y0078045D01*
X0199935Y0080543D01*
X0200347Y0080543D01*
X0200347Y0079692D02*
X0199935Y0079692D01*
X0202315Y0080543D02*
X0202315Y0078045D01*
X0201903Y0078045D01*
X0201903Y0080543D01*
X0202315Y0080543D01*
X0202315Y0079692D02*
X0201903Y0079692D01*
X0204284Y0080543D02*
X0204284Y0078045D01*
X0203872Y0078045D01*
X0203872Y0080543D01*
X0204284Y0080543D01*
X0204284Y0079692D02*
X0203872Y0079692D01*
X0206252Y0080543D02*
X0206252Y0078045D01*
X0205840Y0078045D01*
X0205840Y0080543D01*
X0206252Y0080543D01*
X0206252Y0079692D02*
X0205840Y0079692D01*
X0208221Y0080543D02*
X0208221Y0078045D01*
X0207809Y0078045D01*
X0207809Y0080543D01*
X0208221Y0080543D01*
X0208221Y0079692D02*
X0207809Y0079692D01*
X0210189Y0080543D02*
X0210189Y0078045D01*
X0209777Y0078045D01*
X0209777Y0080543D01*
X0210189Y0080543D01*
X0210189Y0079692D02*
X0209777Y0079692D01*
X0212158Y0080543D02*
X0212158Y0078045D01*
X0211746Y0078045D01*
X0211746Y0080543D01*
X0212158Y0080543D01*
X0212158Y0079692D02*
X0211746Y0079692D01*
X0216707Y0085092D02*
X0219205Y0085092D01*
X0216707Y0085092D02*
X0216707Y0085504D01*
X0219205Y0085504D01*
X0219205Y0085092D01*
X0219205Y0087061D02*
X0216707Y0087061D01*
X0216707Y0087473D01*
X0219205Y0087473D01*
X0219205Y0087061D01*
X0219205Y0089029D02*
X0216707Y0089029D01*
X0216707Y0089441D01*
X0219205Y0089441D01*
X0219205Y0089029D01*
X0219205Y0090998D02*
X0216707Y0090998D01*
X0216707Y0091410D01*
X0219205Y0091410D01*
X0219205Y0090998D01*
X0219205Y0092966D02*
X0216707Y0092966D01*
X0216707Y0093378D01*
X0219205Y0093378D01*
X0219205Y0092966D01*
X0219205Y0094935D02*
X0216707Y0094935D01*
X0216707Y0095347D01*
X0219205Y0095347D01*
X0219205Y0094935D01*
X0219205Y0096903D02*
X0216707Y0096903D01*
X0216707Y0097315D01*
X0219205Y0097315D01*
X0219205Y0096903D01*
X0219205Y0098872D02*
X0216707Y0098872D01*
X0216707Y0099284D01*
X0219205Y0099284D01*
X0219205Y0098872D01*
X0219205Y0100840D02*
X0216707Y0100840D01*
X0216707Y0101252D01*
X0219205Y0101252D01*
X0219205Y0100840D01*
X0219205Y0102809D02*
X0216707Y0102809D01*
X0216707Y0103221D01*
X0219205Y0103221D01*
X0219205Y0102809D01*
X0219205Y0104777D02*
X0216707Y0104777D01*
X0216707Y0105189D01*
X0219205Y0105189D01*
X0219205Y0104777D01*
X0219205Y0106746D02*
X0216707Y0106746D01*
X0216707Y0107158D01*
X0219205Y0107158D01*
X0219205Y0106746D01*
X0212158Y0111707D02*
X0212158Y0114205D01*
X0212158Y0111707D02*
X0211746Y0111707D01*
X0211746Y0114205D01*
X0212158Y0114205D01*
X0212158Y0113354D02*
X0211746Y0113354D01*
X0210189Y0114205D02*
X0210189Y0111707D01*
X0209777Y0111707D01*
X0209777Y0114205D01*
X0210189Y0114205D01*
X0210189Y0113354D02*
X0209777Y0113354D01*
X0208221Y0114205D02*
X0208221Y0111707D01*
X0207809Y0111707D01*
X0207809Y0114205D01*
X0208221Y0114205D01*
X0208221Y0113354D02*
X0207809Y0113354D01*
X0206252Y0114205D02*
X0206252Y0111707D01*
X0205840Y0111707D01*
X0205840Y0114205D01*
X0206252Y0114205D01*
X0206252Y0113354D02*
X0205840Y0113354D01*
X0204284Y0114205D02*
X0204284Y0111707D01*
X0203872Y0111707D01*
X0203872Y0114205D01*
X0204284Y0114205D01*
X0204284Y0113354D02*
X0203872Y0113354D01*
X0202315Y0114205D02*
X0202315Y0111707D01*
X0201903Y0111707D01*
X0201903Y0114205D01*
X0202315Y0114205D01*
X0202315Y0113354D02*
X0201903Y0113354D01*
X0200347Y0114205D02*
X0200347Y0111707D01*
X0199935Y0111707D01*
X0199935Y0114205D01*
X0200347Y0114205D01*
X0200347Y0113354D02*
X0199935Y0113354D01*
X0198378Y0114205D02*
X0198378Y0111707D01*
X0197966Y0111707D01*
X0197966Y0114205D01*
X0198378Y0114205D01*
X0198378Y0113354D02*
X0197966Y0113354D01*
X0196410Y0114205D02*
X0196410Y0111707D01*
X0195998Y0111707D01*
X0195998Y0114205D01*
X0196410Y0114205D01*
X0196410Y0113354D02*
X0195998Y0113354D01*
X0194441Y0114205D02*
X0194441Y0111707D01*
X0194029Y0111707D01*
X0194029Y0114205D01*
X0194441Y0114205D01*
X0194441Y0113354D02*
X0194029Y0113354D01*
X0192473Y0114205D02*
X0192473Y0111707D01*
X0192061Y0111707D01*
X0192061Y0114205D01*
X0192473Y0114205D01*
X0192473Y0113354D02*
X0192061Y0113354D01*
X0190504Y0114205D02*
X0190504Y0111707D01*
X0190092Y0111707D01*
X0190092Y0114205D01*
X0190504Y0114205D01*
X0190504Y0113354D02*
X0190092Y0113354D01*
D29*
X0089875Y0146125D03*
D30*
X0221216Y0125188D02*
X0226192Y0125188D01*
X0226192Y0117062D01*
X0221216Y0117062D01*
X0221216Y0125188D01*
X0221216Y0117215D02*
X0226192Y0117215D01*
X0226192Y0117368D02*
X0221216Y0117368D01*
X0221216Y0117521D02*
X0226192Y0117521D01*
X0226192Y0117674D02*
X0221216Y0117674D01*
X0221216Y0117827D02*
X0226192Y0117827D01*
X0226192Y0117980D02*
X0221216Y0117980D01*
X0221216Y0118133D02*
X0226192Y0118133D01*
X0226192Y0118286D02*
X0221216Y0118286D01*
X0221216Y0118439D02*
X0226192Y0118439D01*
X0226192Y0118592D02*
X0221216Y0118592D01*
X0221216Y0118745D02*
X0226192Y0118745D01*
X0226192Y0118898D02*
X0221216Y0118898D01*
X0221216Y0119051D02*
X0226192Y0119051D01*
X0226192Y0119204D02*
X0221216Y0119204D01*
X0221216Y0119357D02*
X0226192Y0119357D01*
X0226192Y0119510D02*
X0221216Y0119510D01*
X0221216Y0119663D02*
X0226192Y0119663D01*
X0226192Y0119816D02*
X0221216Y0119816D01*
X0221216Y0119969D02*
X0226192Y0119969D01*
X0226192Y0120122D02*
X0221216Y0120122D01*
X0221216Y0120275D02*
X0226192Y0120275D01*
X0226192Y0120428D02*
X0221216Y0120428D01*
X0221216Y0120581D02*
X0226192Y0120581D01*
X0226192Y0120734D02*
X0221216Y0120734D01*
X0221216Y0120887D02*
X0226192Y0120887D01*
X0226192Y0121040D02*
X0221216Y0121040D01*
X0221216Y0121193D02*
X0226192Y0121193D01*
X0226192Y0121346D02*
X0221216Y0121346D01*
X0221216Y0121499D02*
X0226192Y0121499D01*
X0226192Y0121652D02*
X0221216Y0121652D01*
X0221216Y0121805D02*
X0226192Y0121805D01*
X0226192Y0121958D02*
X0221216Y0121958D01*
X0221216Y0122111D02*
X0226192Y0122111D01*
X0226192Y0122264D02*
X0221216Y0122264D01*
X0221216Y0122417D02*
X0226192Y0122417D01*
X0226192Y0122570D02*
X0221216Y0122570D01*
X0221216Y0122723D02*
X0226192Y0122723D01*
X0226192Y0122876D02*
X0221216Y0122876D01*
X0221216Y0123029D02*
X0226192Y0123029D01*
X0226192Y0123182D02*
X0221216Y0123182D01*
X0221216Y0123335D02*
X0226192Y0123335D01*
X0226192Y0123488D02*
X0221216Y0123488D01*
X0221216Y0123641D02*
X0226192Y0123641D01*
X0226192Y0123794D02*
X0221216Y0123794D01*
X0221216Y0123947D02*
X0226192Y0123947D01*
X0226192Y0124100D02*
X0221216Y0124100D01*
X0221216Y0124253D02*
X0226192Y0124253D01*
X0226192Y0124406D02*
X0221216Y0124406D01*
X0221216Y0124559D02*
X0226192Y0124559D01*
X0226192Y0124712D02*
X0221216Y0124712D01*
X0221216Y0124865D02*
X0226192Y0124865D01*
X0226192Y0125018D02*
X0221216Y0125018D01*
X0221216Y0125171D02*
X0226192Y0125171D01*
X0231058Y0125188D02*
X0236034Y0125188D01*
X0236034Y0117062D01*
X0231058Y0117062D01*
X0231058Y0125188D01*
X0231058Y0117215D02*
X0236034Y0117215D01*
X0236034Y0117368D02*
X0231058Y0117368D01*
X0231058Y0117521D02*
X0236034Y0117521D01*
X0236034Y0117674D02*
X0231058Y0117674D01*
X0231058Y0117827D02*
X0236034Y0117827D01*
X0236034Y0117980D02*
X0231058Y0117980D01*
X0231058Y0118133D02*
X0236034Y0118133D01*
X0236034Y0118286D02*
X0231058Y0118286D01*
X0231058Y0118439D02*
X0236034Y0118439D01*
X0236034Y0118592D02*
X0231058Y0118592D01*
X0231058Y0118745D02*
X0236034Y0118745D01*
X0236034Y0118898D02*
X0231058Y0118898D01*
X0231058Y0119051D02*
X0236034Y0119051D01*
X0236034Y0119204D02*
X0231058Y0119204D01*
X0231058Y0119357D02*
X0236034Y0119357D01*
X0236034Y0119510D02*
X0231058Y0119510D01*
X0231058Y0119663D02*
X0236034Y0119663D01*
X0236034Y0119816D02*
X0231058Y0119816D01*
X0231058Y0119969D02*
X0236034Y0119969D01*
X0236034Y0120122D02*
X0231058Y0120122D01*
X0231058Y0120275D02*
X0236034Y0120275D01*
X0236034Y0120428D02*
X0231058Y0120428D01*
X0231058Y0120581D02*
X0236034Y0120581D01*
X0236034Y0120734D02*
X0231058Y0120734D01*
X0231058Y0120887D02*
X0236034Y0120887D01*
X0236034Y0121040D02*
X0231058Y0121040D01*
X0231058Y0121193D02*
X0236034Y0121193D01*
X0236034Y0121346D02*
X0231058Y0121346D01*
X0231058Y0121499D02*
X0236034Y0121499D01*
X0236034Y0121652D02*
X0231058Y0121652D01*
X0231058Y0121805D02*
X0236034Y0121805D01*
X0236034Y0121958D02*
X0231058Y0121958D01*
X0231058Y0122111D02*
X0236034Y0122111D01*
X0236034Y0122264D02*
X0231058Y0122264D01*
X0231058Y0122417D02*
X0236034Y0122417D01*
X0236034Y0122570D02*
X0231058Y0122570D01*
X0231058Y0122723D02*
X0236034Y0122723D01*
X0236034Y0122876D02*
X0231058Y0122876D01*
X0231058Y0123029D02*
X0236034Y0123029D01*
X0236034Y0123182D02*
X0231058Y0123182D01*
X0231058Y0123335D02*
X0236034Y0123335D01*
X0236034Y0123488D02*
X0231058Y0123488D01*
X0231058Y0123641D02*
X0236034Y0123641D01*
X0236034Y0123794D02*
X0231058Y0123794D01*
X0231058Y0123947D02*
X0236034Y0123947D01*
X0236034Y0124100D02*
X0231058Y0124100D01*
X0231058Y0124253D02*
X0236034Y0124253D01*
X0236034Y0124406D02*
X0231058Y0124406D01*
X0231058Y0124559D02*
X0236034Y0124559D01*
X0236034Y0124712D02*
X0231058Y0124712D01*
X0231058Y0124865D02*
X0236034Y0124865D01*
X0236034Y0125018D02*
X0231058Y0125018D01*
X0231058Y0125171D02*
X0236034Y0125171D01*
D31*
X0271625Y0106125D03*
D32*
X0061125Y0129325D02*
X0061125Y0132925D01*
X0051125Y0133925D02*
X0051125Y0130325D01*
X0041125Y0129325D02*
X0041125Y0132925D01*
D33*
X0052560Y0191750D02*
X0052562Y0191869D01*
X0052568Y0191988D01*
X0052578Y0192107D01*
X0052592Y0192225D01*
X0052610Y0192343D01*
X0052631Y0192460D01*
X0052657Y0192576D01*
X0052687Y0192692D01*
X0052720Y0192806D01*
X0052757Y0192919D01*
X0052798Y0193031D01*
X0052843Y0193142D01*
X0052891Y0193251D01*
X0052943Y0193358D01*
X0052999Y0193463D01*
X0053058Y0193567D01*
X0053120Y0193668D01*
X0053186Y0193768D01*
X0053255Y0193865D01*
X0053327Y0193959D01*
X0053403Y0194052D01*
X0053481Y0194141D01*
X0053562Y0194228D01*
X0053647Y0194313D01*
X0053734Y0194394D01*
X0053823Y0194472D01*
X0053916Y0194548D01*
X0054010Y0194620D01*
X0054107Y0194689D01*
X0054207Y0194755D01*
X0054308Y0194817D01*
X0054412Y0194876D01*
X0054517Y0194932D01*
X0054624Y0194984D01*
X0054733Y0195032D01*
X0054844Y0195077D01*
X0054956Y0195118D01*
X0055069Y0195155D01*
X0055183Y0195188D01*
X0055299Y0195218D01*
X0055415Y0195244D01*
X0055532Y0195265D01*
X0055650Y0195283D01*
X0055768Y0195297D01*
X0055887Y0195307D01*
X0056006Y0195313D01*
X0056125Y0195315D01*
X0056244Y0195313D01*
X0056363Y0195307D01*
X0056482Y0195297D01*
X0056600Y0195283D01*
X0056718Y0195265D01*
X0056835Y0195244D01*
X0056951Y0195218D01*
X0057067Y0195188D01*
X0057181Y0195155D01*
X0057294Y0195118D01*
X0057406Y0195077D01*
X0057517Y0195032D01*
X0057626Y0194984D01*
X0057733Y0194932D01*
X0057838Y0194876D01*
X0057942Y0194817D01*
X0058043Y0194755D01*
X0058143Y0194689D01*
X0058240Y0194620D01*
X0058334Y0194548D01*
X0058427Y0194472D01*
X0058516Y0194394D01*
X0058603Y0194313D01*
X0058688Y0194228D01*
X0058769Y0194141D01*
X0058847Y0194052D01*
X0058923Y0193959D01*
X0058995Y0193865D01*
X0059064Y0193768D01*
X0059130Y0193668D01*
X0059192Y0193567D01*
X0059251Y0193463D01*
X0059307Y0193358D01*
X0059359Y0193251D01*
X0059407Y0193142D01*
X0059452Y0193031D01*
X0059493Y0192919D01*
X0059530Y0192806D01*
X0059563Y0192692D01*
X0059593Y0192576D01*
X0059619Y0192460D01*
X0059640Y0192343D01*
X0059658Y0192225D01*
X0059672Y0192107D01*
X0059682Y0191988D01*
X0059688Y0191869D01*
X0059690Y0191750D01*
X0059688Y0191631D01*
X0059682Y0191512D01*
X0059672Y0191393D01*
X0059658Y0191275D01*
X0059640Y0191157D01*
X0059619Y0191040D01*
X0059593Y0190924D01*
X0059563Y0190808D01*
X0059530Y0190694D01*
X0059493Y0190581D01*
X0059452Y0190469D01*
X0059407Y0190358D01*
X0059359Y0190249D01*
X0059307Y0190142D01*
X0059251Y0190037D01*
X0059192Y0189933D01*
X0059130Y0189832D01*
X0059064Y0189732D01*
X0058995Y0189635D01*
X0058923Y0189541D01*
X0058847Y0189448D01*
X0058769Y0189359D01*
X0058688Y0189272D01*
X0058603Y0189187D01*
X0058516Y0189106D01*
X0058427Y0189028D01*
X0058334Y0188952D01*
X0058240Y0188880D01*
X0058143Y0188811D01*
X0058043Y0188745D01*
X0057942Y0188683D01*
X0057838Y0188624D01*
X0057733Y0188568D01*
X0057626Y0188516D01*
X0057517Y0188468D01*
X0057406Y0188423D01*
X0057294Y0188382D01*
X0057181Y0188345D01*
X0057067Y0188312D01*
X0056951Y0188282D01*
X0056835Y0188256D01*
X0056718Y0188235D01*
X0056600Y0188217D01*
X0056482Y0188203D01*
X0056363Y0188193D01*
X0056244Y0188187D01*
X0056125Y0188185D01*
X0056006Y0188187D01*
X0055887Y0188193D01*
X0055768Y0188203D01*
X0055650Y0188217D01*
X0055532Y0188235D01*
X0055415Y0188256D01*
X0055299Y0188282D01*
X0055183Y0188312D01*
X0055069Y0188345D01*
X0054956Y0188382D01*
X0054844Y0188423D01*
X0054733Y0188468D01*
X0054624Y0188516D01*
X0054517Y0188568D01*
X0054412Y0188624D01*
X0054308Y0188683D01*
X0054207Y0188745D01*
X0054107Y0188811D01*
X0054010Y0188880D01*
X0053916Y0188952D01*
X0053823Y0189028D01*
X0053734Y0189106D01*
X0053647Y0189187D01*
X0053562Y0189272D01*
X0053481Y0189359D01*
X0053403Y0189448D01*
X0053327Y0189541D01*
X0053255Y0189635D01*
X0053186Y0189732D01*
X0053120Y0189832D01*
X0053058Y0189933D01*
X0052999Y0190037D01*
X0052943Y0190142D01*
X0052891Y0190249D01*
X0052843Y0190358D01*
X0052798Y0190469D01*
X0052757Y0190581D01*
X0052720Y0190694D01*
X0052687Y0190808D01*
X0052657Y0190924D01*
X0052631Y0191040D01*
X0052610Y0191157D01*
X0052592Y0191275D01*
X0052578Y0191393D01*
X0052568Y0191512D01*
X0052562Y0191631D01*
X0052560Y0191750D01*
X0046310Y0067375D02*
X0046312Y0067494D01*
X0046318Y0067613D01*
X0046328Y0067732D01*
X0046342Y0067850D01*
X0046360Y0067968D01*
X0046381Y0068085D01*
X0046407Y0068201D01*
X0046437Y0068317D01*
X0046470Y0068431D01*
X0046507Y0068544D01*
X0046548Y0068656D01*
X0046593Y0068767D01*
X0046641Y0068876D01*
X0046693Y0068983D01*
X0046749Y0069088D01*
X0046808Y0069192D01*
X0046870Y0069293D01*
X0046936Y0069393D01*
X0047005Y0069490D01*
X0047077Y0069584D01*
X0047153Y0069677D01*
X0047231Y0069766D01*
X0047312Y0069853D01*
X0047397Y0069938D01*
X0047484Y0070019D01*
X0047573Y0070097D01*
X0047666Y0070173D01*
X0047760Y0070245D01*
X0047857Y0070314D01*
X0047957Y0070380D01*
X0048058Y0070442D01*
X0048162Y0070501D01*
X0048267Y0070557D01*
X0048374Y0070609D01*
X0048483Y0070657D01*
X0048594Y0070702D01*
X0048706Y0070743D01*
X0048819Y0070780D01*
X0048933Y0070813D01*
X0049049Y0070843D01*
X0049165Y0070869D01*
X0049282Y0070890D01*
X0049400Y0070908D01*
X0049518Y0070922D01*
X0049637Y0070932D01*
X0049756Y0070938D01*
X0049875Y0070940D01*
X0049994Y0070938D01*
X0050113Y0070932D01*
X0050232Y0070922D01*
X0050350Y0070908D01*
X0050468Y0070890D01*
X0050585Y0070869D01*
X0050701Y0070843D01*
X0050817Y0070813D01*
X0050931Y0070780D01*
X0051044Y0070743D01*
X0051156Y0070702D01*
X0051267Y0070657D01*
X0051376Y0070609D01*
X0051483Y0070557D01*
X0051588Y0070501D01*
X0051692Y0070442D01*
X0051793Y0070380D01*
X0051893Y0070314D01*
X0051990Y0070245D01*
X0052084Y0070173D01*
X0052177Y0070097D01*
X0052266Y0070019D01*
X0052353Y0069938D01*
X0052438Y0069853D01*
X0052519Y0069766D01*
X0052597Y0069677D01*
X0052673Y0069584D01*
X0052745Y0069490D01*
X0052814Y0069393D01*
X0052880Y0069293D01*
X0052942Y0069192D01*
X0053001Y0069088D01*
X0053057Y0068983D01*
X0053109Y0068876D01*
X0053157Y0068767D01*
X0053202Y0068656D01*
X0053243Y0068544D01*
X0053280Y0068431D01*
X0053313Y0068317D01*
X0053343Y0068201D01*
X0053369Y0068085D01*
X0053390Y0067968D01*
X0053408Y0067850D01*
X0053422Y0067732D01*
X0053432Y0067613D01*
X0053438Y0067494D01*
X0053440Y0067375D01*
X0053438Y0067256D01*
X0053432Y0067137D01*
X0053422Y0067018D01*
X0053408Y0066900D01*
X0053390Y0066782D01*
X0053369Y0066665D01*
X0053343Y0066549D01*
X0053313Y0066433D01*
X0053280Y0066319D01*
X0053243Y0066206D01*
X0053202Y0066094D01*
X0053157Y0065983D01*
X0053109Y0065874D01*
X0053057Y0065767D01*
X0053001Y0065662D01*
X0052942Y0065558D01*
X0052880Y0065457D01*
X0052814Y0065357D01*
X0052745Y0065260D01*
X0052673Y0065166D01*
X0052597Y0065073D01*
X0052519Y0064984D01*
X0052438Y0064897D01*
X0052353Y0064812D01*
X0052266Y0064731D01*
X0052177Y0064653D01*
X0052084Y0064577D01*
X0051990Y0064505D01*
X0051893Y0064436D01*
X0051793Y0064370D01*
X0051692Y0064308D01*
X0051588Y0064249D01*
X0051483Y0064193D01*
X0051376Y0064141D01*
X0051267Y0064093D01*
X0051156Y0064048D01*
X0051044Y0064007D01*
X0050931Y0063970D01*
X0050817Y0063937D01*
X0050701Y0063907D01*
X0050585Y0063881D01*
X0050468Y0063860D01*
X0050350Y0063842D01*
X0050232Y0063828D01*
X0050113Y0063818D01*
X0049994Y0063812D01*
X0049875Y0063810D01*
X0049756Y0063812D01*
X0049637Y0063818D01*
X0049518Y0063828D01*
X0049400Y0063842D01*
X0049282Y0063860D01*
X0049165Y0063881D01*
X0049049Y0063907D01*
X0048933Y0063937D01*
X0048819Y0063970D01*
X0048706Y0064007D01*
X0048594Y0064048D01*
X0048483Y0064093D01*
X0048374Y0064141D01*
X0048267Y0064193D01*
X0048162Y0064249D01*
X0048058Y0064308D01*
X0047957Y0064370D01*
X0047857Y0064436D01*
X0047760Y0064505D01*
X0047666Y0064577D01*
X0047573Y0064653D01*
X0047484Y0064731D01*
X0047397Y0064812D01*
X0047312Y0064897D01*
X0047231Y0064984D01*
X0047153Y0065073D01*
X0047077Y0065166D01*
X0047005Y0065260D01*
X0046936Y0065357D01*
X0046870Y0065457D01*
X0046808Y0065558D01*
X0046749Y0065662D01*
X0046693Y0065767D01*
X0046641Y0065874D01*
X0046593Y0065983D01*
X0046548Y0066094D01*
X0046507Y0066206D01*
X0046470Y0066319D01*
X0046437Y0066433D01*
X0046407Y0066549D01*
X0046381Y0066665D01*
X0046360Y0066782D01*
X0046342Y0066900D01*
X0046328Y0067018D01*
X0046318Y0067137D01*
X0046312Y0067256D01*
X0046310Y0067375D01*
X0278810Y0171114D02*
X0278812Y0171233D01*
X0278818Y0171352D01*
X0278828Y0171471D01*
X0278842Y0171589D01*
X0278860Y0171707D01*
X0278881Y0171824D01*
X0278907Y0171940D01*
X0278937Y0172056D01*
X0278970Y0172170D01*
X0279007Y0172283D01*
X0279048Y0172395D01*
X0279093Y0172506D01*
X0279141Y0172615D01*
X0279193Y0172722D01*
X0279249Y0172827D01*
X0279308Y0172931D01*
X0279370Y0173032D01*
X0279436Y0173132D01*
X0279505Y0173229D01*
X0279577Y0173323D01*
X0279653Y0173416D01*
X0279731Y0173505D01*
X0279812Y0173592D01*
X0279897Y0173677D01*
X0279984Y0173758D01*
X0280073Y0173836D01*
X0280166Y0173912D01*
X0280260Y0173984D01*
X0280357Y0174053D01*
X0280457Y0174119D01*
X0280558Y0174181D01*
X0280662Y0174240D01*
X0280767Y0174296D01*
X0280874Y0174348D01*
X0280983Y0174396D01*
X0281094Y0174441D01*
X0281206Y0174482D01*
X0281319Y0174519D01*
X0281433Y0174552D01*
X0281549Y0174582D01*
X0281665Y0174608D01*
X0281782Y0174629D01*
X0281900Y0174647D01*
X0282018Y0174661D01*
X0282137Y0174671D01*
X0282256Y0174677D01*
X0282375Y0174679D01*
X0282494Y0174677D01*
X0282613Y0174671D01*
X0282732Y0174661D01*
X0282850Y0174647D01*
X0282968Y0174629D01*
X0283085Y0174608D01*
X0283201Y0174582D01*
X0283317Y0174552D01*
X0283431Y0174519D01*
X0283544Y0174482D01*
X0283656Y0174441D01*
X0283767Y0174396D01*
X0283876Y0174348D01*
X0283983Y0174296D01*
X0284088Y0174240D01*
X0284192Y0174181D01*
X0284293Y0174119D01*
X0284393Y0174053D01*
X0284490Y0173984D01*
X0284584Y0173912D01*
X0284677Y0173836D01*
X0284766Y0173758D01*
X0284853Y0173677D01*
X0284938Y0173592D01*
X0285019Y0173505D01*
X0285097Y0173416D01*
X0285173Y0173323D01*
X0285245Y0173229D01*
X0285314Y0173132D01*
X0285380Y0173032D01*
X0285442Y0172931D01*
X0285501Y0172827D01*
X0285557Y0172722D01*
X0285609Y0172615D01*
X0285657Y0172506D01*
X0285702Y0172395D01*
X0285743Y0172283D01*
X0285780Y0172170D01*
X0285813Y0172056D01*
X0285843Y0171940D01*
X0285869Y0171824D01*
X0285890Y0171707D01*
X0285908Y0171589D01*
X0285922Y0171471D01*
X0285932Y0171352D01*
X0285938Y0171233D01*
X0285940Y0171114D01*
X0285938Y0170995D01*
X0285932Y0170876D01*
X0285922Y0170757D01*
X0285908Y0170639D01*
X0285890Y0170521D01*
X0285869Y0170404D01*
X0285843Y0170288D01*
X0285813Y0170172D01*
X0285780Y0170058D01*
X0285743Y0169945D01*
X0285702Y0169833D01*
X0285657Y0169722D01*
X0285609Y0169613D01*
X0285557Y0169506D01*
X0285501Y0169401D01*
X0285442Y0169297D01*
X0285380Y0169196D01*
X0285314Y0169096D01*
X0285245Y0168999D01*
X0285173Y0168905D01*
X0285097Y0168812D01*
X0285019Y0168723D01*
X0284938Y0168636D01*
X0284853Y0168551D01*
X0284766Y0168470D01*
X0284677Y0168392D01*
X0284584Y0168316D01*
X0284490Y0168244D01*
X0284393Y0168175D01*
X0284293Y0168109D01*
X0284192Y0168047D01*
X0284088Y0167988D01*
X0283983Y0167932D01*
X0283876Y0167880D01*
X0283767Y0167832D01*
X0283656Y0167787D01*
X0283544Y0167746D01*
X0283431Y0167709D01*
X0283317Y0167676D01*
X0283201Y0167646D01*
X0283085Y0167620D01*
X0282968Y0167599D01*
X0282850Y0167581D01*
X0282732Y0167567D01*
X0282613Y0167557D01*
X0282494Y0167551D01*
X0282375Y0167549D01*
X0282256Y0167551D01*
X0282137Y0167557D01*
X0282018Y0167567D01*
X0281900Y0167581D01*
X0281782Y0167599D01*
X0281665Y0167620D01*
X0281549Y0167646D01*
X0281433Y0167676D01*
X0281319Y0167709D01*
X0281206Y0167746D01*
X0281094Y0167787D01*
X0280983Y0167832D01*
X0280874Y0167880D01*
X0280767Y0167932D01*
X0280662Y0167988D01*
X0280558Y0168047D01*
X0280457Y0168109D01*
X0280357Y0168175D01*
X0280260Y0168244D01*
X0280166Y0168316D01*
X0280073Y0168392D01*
X0279984Y0168470D01*
X0279897Y0168551D01*
X0279812Y0168636D01*
X0279731Y0168723D01*
X0279653Y0168812D01*
X0279577Y0168905D01*
X0279505Y0168999D01*
X0279436Y0169096D01*
X0279370Y0169196D01*
X0279308Y0169297D01*
X0279249Y0169401D01*
X0279193Y0169506D01*
X0279141Y0169613D01*
X0279093Y0169722D01*
X0279048Y0169833D01*
X0279007Y0169945D01*
X0278970Y0170058D01*
X0278937Y0170172D01*
X0278907Y0170288D01*
X0278881Y0170404D01*
X0278860Y0170521D01*
X0278842Y0170639D01*
X0278828Y0170757D01*
X0278818Y0170876D01*
X0278812Y0170995D01*
X0278810Y0171114D01*
D34*
X0282375Y0171114D03*
X0056125Y0191750D03*
X0049875Y0067375D03*
D35*
X0267314Y0061821D03*
X0283849Y0061821D03*
X0283849Y0077963D03*
X0267314Y0077963D03*
D36*
X0286750Y0068938D03*
X0286750Y0033000D03*
X0276750Y0033000D03*
X0266125Y0033000D03*
X0256125Y0033000D03*
X0245525Y0033400D03*
X0236125Y0033000D03*
X0226125Y0033000D03*
X0214250Y0033000D03*
X0218000Y0079250D03*
X0238000Y0078000D03*
X0243937Y0097062D03*
X0286750Y0144563D03*
X0132375Y0147375D03*
X0119875Y0147375D03*
X0071438Y0171125D03*
X0070813Y0150500D03*
X0058312Y0148000D03*
X0036125Y0096125D03*
X0028625Y0091125D03*
X0030500Y0072375D03*
X0037375Y0072375D03*
X0083313Y0083000D03*
X0090812Y0092375D03*
X0102062Y0079250D03*
X0112375Y0022375D03*
D37*
X0028625Y0145500D03*
X0028625Y0196750D03*
D38*
X0034254Y0214939D03*
X0084270Y0028316D03*
X0280583Y0200559D03*
D39*
X0162063Y0056750D03*
D40*
X0173674Y0047698D03*
X0110841Y0067079D03*
X0139875Y0158938D03*
M02*
