G75*
%MOIN*%
%OFA0B0*%
%FSLAX25Y25*%
%IPPOS*%
%LPD*%
%AMOC8*
5,1,8,0,0,1.08239X$1,22.5*
%
%ADD10C,0.00787*%
D10*
X0022375Y0026280D02*
X0022375Y0216595D01*
X0022378Y0216833D01*
X0022386Y0217071D01*
X0022401Y0217308D01*
X0022421Y0217545D01*
X0022447Y0217781D01*
X0022478Y0218017D01*
X0022515Y0218252D01*
X0022558Y0218486D01*
X0022607Y0218719D01*
X0022661Y0218951D01*
X0022721Y0219181D01*
X0022786Y0219410D01*
X0022857Y0219637D01*
X0022933Y0219862D01*
X0023015Y0220085D01*
X0023102Y0220307D01*
X0023194Y0220526D01*
X0023292Y0220743D01*
X0023394Y0220957D01*
X0023502Y0221169D01*
X0023616Y0221379D01*
X0023734Y0221585D01*
X0023857Y0221789D01*
X0023985Y0221989D01*
X0024117Y0222186D01*
X0024255Y0222381D01*
X0024397Y0222571D01*
X0024544Y0222759D01*
X0024695Y0222942D01*
X0024850Y0223122D01*
X0025010Y0223298D01*
X0025174Y0223470D01*
X0025343Y0223639D01*
X0025515Y0223803D01*
X0025691Y0223963D01*
X0025871Y0224118D01*
X0026054Y0224269D01*
X0026242Y0224416D01*
X0026432Y0224558D01*
X0026627Y0224696D01*
X0026824Y0224828D01*
X0027024Y0224956D01*
X0027228Y0225079D01*
X0027434Y0225197D01*
X0027644Y0225311D01*
X0027856Y0225419D01*
X0028070Y0225521D01*
X0028287Y0225619D01*
X0028506Y0225711D01*
X0028728Y0225798D01*
X0028951Y0225880D01*
X0029176Y0225956D01*
X0029403Y0226027D01*
X0029632Y0226092D01*
X0029862Y0226152D01*
X0030094Y0226206D01*
X0030327Y0226255D01*
X0030561Y0226298D01*
X0030796Y0226335D01*
X0031032Y0226366D01*
X0031268Y0226392D01*
X0031505Y0226412D01*
X0031742Y0226427D01*
X0031980Y0226435D01*
X0032218Y0226438D01*
X0032218Y0226437D02*
X0282532Y0226437D01*
X0282532Y0226438D02*
X0282770Y0226435D01*
X0283008Y0226427D01*
X0283245Y0226412D01*
X0283482Y0226392D01*
X0283718Y0226366D01*
X0283954Y0226335D01*
X0284189Y0226298D01*
X0284423Y0226255D01*
X0284656Y0226206D01*
X0284888Y0226152D01*
X0285118Y0226092D01*
X0285347Y0226027D01*
X0285574Y0225956D01*
X0285799Y0225880D01*
X0286022Y0225798D01*
X0286244Y0225711D01*
X0286463Y0225619D01*
X0286680Y0225521D01*
X0286894Y0225419D01*
X0287106Y0225311D01*
X0287316Y0225197D01*
X0287522Y0225079D01*
X0287726Y0224956D01*
X0287926Y0224828D01*
X0288123Y0224696D01*
X0288318Y0224558D01*
X0288508Y0224416D01*
X0288696Y0224269D01*
X0288879Y0224118D01*
X0289059Y0223963D01*
X0289235Y0223803D01*
X0289407Y0223639D01*
X0289576Y0223470D01*
X0289740Y0223298D01*
X0289900Y0223122D01*
X0290055Y0222942D01*
X0290206Y0222759D01*
X0290353Y0222571D01*
X0290495Y0222381D01*
X0290633Y0222186D01*
X0290765Y0221989D01*
X0290893Y0221789D01*
X0291016Y0221585D01*
X0291134Y0221379D01*
X0291248Y0221169D01*
X0291356Y0220957D01*
X0291458Y0220743D01*
X0291556Y0220526D01*
X0291648Y0220307D01*
X0291735Y0220085D01*
X0291817Y0219862D01*
X0291893Y0219637D01*
X0291964Y0219410D01*
X0292029Y0219181D01*
X0292089Y0218951D01*
X0292143Y0218719D01*
X0292192Y0218486D01*
X0292235Y0218252D01*
X0292272Y0218017D01*
X0292303Y0217781D01*
X0292329Y0217545D01*
X0292349Y0217308D01*
X0292364Y0217071D01*
X0292372Y0216833D01*
X0292375Y0216595D01*
X0292375Y0026280D01*
X0292372Y0026042D01*
X0292364Y0025804D01*
X0292349Y0025567D01*
X0292329Y0025330D01*
X0292303Y0025094D01*
X0292272Y0024858D01*
X0292235Y0024623D01*
X0292192Y0024389D01*
X0292143Y0024156D01*
X0292089Y0023924D01*
X0292029Y0023694D01*
X0291964Y0023465D01*
X0291893Y0023238D01*
X0291817Y0023013D01*
X0291735Y0022790D01*
X0291648Y0022568D01*
X0291556Y0022349D01*
X0291458Y0022132D01*
X0291356Y0021918D01*
X0291248Y0021706D01*
X0291134Y0021496D01*
X0291016Y0021290D01*
X0290893Y0021086D01*
X0290765Y0020886D01*
X0290633Y0020689D01*
X0290495Y0020494D01*
X0290353Y0020304D01*
X0290206Y0020116D01*
X0290055Y0019933D01*
X0289900Y0019753D01*
X0289740Y0019577D01*
X0289576Y0019405D01*
X0289407Y0019236D01*
X0289235Y0019072D01*
X0289059Y0018912D01*
X0288879Y0018757D01*
X0288696Y0018606D01*
X0288508Y0018459D01*
X0288318Y0018317D01*
X0288123Y0018179D01*
X0287926Y0018047D01*
X0287726Y0017919D01*
X0287522Y0017796D01*
X0287316Y0017678D01*
X0287106Y0017564D01*
X0286894Y0017456D01*
X0286680Y0017354D01*
X0286463Y0017256D01*
X0286244Y0017164D01*
X0286022Y0017077D01*
X0285799Y0016995D01*
X0285574Y0016919D01*
X0285347Y0016848D01*
X0285118Y0016783D01*
X0284888Y0016723D01*
X0284656Y0016669D01*
X0284423Y0016620D01*
X0284189Y0016577D01*
X0283954Y0016540D01*
X0283718Y0016509D01*
X0283482Y0016483D01*
X0283245Y0016463D01*
X0283008Y0016448D01*
X0282770Y0016440D01*
X0282532Y0016437D01*
X0282532Y0016438D02*
X0032218Y0016438D01*
X0032218Y0016437D02*
X0031980Y0016440D01*
X0031742Y0016448D01*
X0031505Y0016463D01*
X0031268Y0016483D01*
X0031032Y0016509D01*
X0030796Y0016540D01*
X0030561Y0016577D01*
X0030327Y0016620D01*
X0030094Y0016669D01*
X0029862Y0016723D01*
X0029632Y0016783D01*
X0029403Y0016848D01*
X0029176Y0016919D01*
X0028951Y0016995D01*
X0028728Y0017077D01*
X0028506Y0017164D01*
X0028287Y0017256D01*
X0028070Y0017354D01*
X0027856Y0017456D01*
X0027644Y0017564D01*
X0027434Y0017678D01*
X0027228Y0017796D01*
X0027024Y0017919D01*
X0026824Y0018047D01*
X0026627Y0018179D01*
X0026432Y0018317D01*
X0026242Y0018459D01*
X0026054Y0018606D01*
X0025871Y0018757D01*
X0025691Y0018912D01*
X0025515Y0019072D01*
X0025343Y0019236D01*
X0025174Y0019405D01*
X0025010Y0019577D01*
X0024850Y0019753D01*
X0024695Y0019933D01*
X0024544Y0020116D01*
X0024397Y0020304D01*
X0024255Y0020494D01*
X0024117Y0020689D01*
X0023985Y0020886D01*
X0023857Y0021086D01*
X0023734Y0021290D01*
X0023616Y0021496D01*
X0023502Y0021706D01*
X0023394Y0021918D01*
X0023292Y0022132D01*
X0023194Y0022349D01*
X0023102Y0022568D01*
X0023015Y0022790D01*
X0022933Y0023013D01*
X0022857Y0023238D01*
X0022786Y0023465D01*
X0022721Y0023694D01*
X0022661Y0023924D01*
X0022607Y0024156D01*
X0022558Y0024389D01*
X0022515Y0024623D01*
X0022478Y0024858D01*
X0022447Y0025094D01*
X0022421Y0025330D01*
X0022401Y0025567D01*
X0022386Y0025804D01*
X0022378Y0026042D01*
X0022375Y0026280D01*
M02*
