G75*
%MOIN*%
%OFA0B0*%
%FSLAX25Y25*%
%IPPOS*%
%LPD*%
%AMOC8*
5,1,8,0,0,1.08239X$1,22.5*
%
%ADD10C,0.00787*%
%ADD11C,0.00800*%
%ADD12C,0.00900*%
%ADD13C,0.00600*%
%ADD14R,0.06200X0.02400*%
%ADD15R,0.02400X0.06200*%
%ADD16C,0.01100*%
%ADD17R,0.00787X0.00787*%
%ADD18C,0.01575*%
%ADD19C,0.07874*%
%ADD20C,0.01900*%
D10*
X0022375Y0026280D02*
X0022375Y0216595D01*
X0022378Y0216833D01*
X0022386Y0217071D01*
X0022401Y0217308D01*
X0022421Y0217545D01*
X0022447Y0217781D01*
X0022478Y0218017D01*
X0022515Y0218252D01*
X0022558Y0218486D01*
X0022607Y0218719D01*
X0022661Y0218951D01*
X0022721Y0219181D01*
X0022786Y0219410D01*
X0022857Y0219637D01*
X0022933Y0219862D01*
X0023015Y0220085D01*
X0023102Y0220307D01*
X0023194Y0220526D01*
X0023292Y0220743D01*
X0023394Y0220957D01*
X0023502Y0221169D01*
X0023616Y0221379D01*
X0023734Y0221585D01*
X0023857Y0221789D01*
X0023985Y0221989D01*
X0024117Y0222186D01*
X0024255Y0222381D01*
X0024397Y0222571D01*
X0024544Y0222759D01*
X0024695Y0222942D01*
X0024850Y0223122D01*
X0025010Y0223298D01*
X0025174Y0223470D01*
X0025343Y0223639D01*
X0025515Y0223803D01*
X0025691Y0223963D01*
X0025871Y0224118D01*
X0026054Y0224269D01*
X0026242Y0224416D01*
X0026432Y0224558D01*
X0026627Y0224696D01*
X0026824Y0224828D01*
X0027024Y0224956D01*
X0027228Y0225079D01*
X0027434Y0225197D01*
X0027644Y0225311D01*
X0027856Y0225419D01*
X0028070Y0225521D01*
X0028287Y0225619D01*
X0028506Y0225711D01*
X0028728Y0225798D01*
X0028951Y0225880D01*
X0029176Y0225956D01*
X0029403Y0226027D01*
X0029632Y0226092D01*
X0029862Y0226152D01*
X0030094Y0226206D01*
X0030327Y0226255D01*
X0030561Y0226298D01*
X0030796Y0226335D01*
X0031032Y0226366D01*
X0031268Y0226392D01*
X0031505Y0226412D01*
X0031742Y0226427D01*
X0031980Y0226435D01*
X0032218Y0226438D01*
X0032218Y0226437D02*
X0282532Y0226437D01*
X0282532Y0226438D02*
X0282770Y0226435D01*
X0283008Y0226427D01*
X0283245Y0226412D01*
X0283482Y0226392D01*
X0283718Y0226366D01*
X0283954Y0226335D01*
X0284189Y0226298D01*
X0284423Y0226255D01*
X0284656Y0226206D01*
X0284888Y0226152D01*
X0285118Y0226092D01*
X0285347Y0226027D01*
X0285574Y0225956D01*
X0285799Y0225880D01*
X0286022Y0225798D01*
X0286244Y0225711D01*
X0286463Y0225619D01*
X0286680Y0225521D01*
X0286894Y0225419D01*
X0287106Y0225311D01*
X0287316Y0225197D01*
X0287522Y0225079D01*
X0287726Y0224956D01*
X0287926Y0224828D01*
X0288123Y0224696D01*
X0288318Y0224558D01*
X0288508Y0224416D01*
X0288696Y0224269D01*
X0288879Y0224118D01*
X0289059Y0223963D01*
X0289235Y0223803D01*
X0289407Y0223639D01*
X0289576Y0223470D01*
X0289740Y0223298D01*
X0289900Y0223122D01*
X0290055Y0222942D01*
X0290206Y0222759D01*
X0290353Y0222571D01*
X0290495Y0222381D01*
X0290633Y0222186D01*
X0290765Y0221989D01*
X0290893Y0221789D01*
X0291016Y0221585D01*
X0291134Y0221379D01*
X0291248Y0221169D01*
X0291356Y0220957D01*
X0291458Y0220743D01*
X0291556Y0220526D01*
X0291648Y0220307D01*
X0291735Y0220085D01*
X0291817Y0219862D01*
X0291893Y0219637D01*
X0291964Y0219410D01*
X0292029Y0219181D01*
X0292089Y0218951D01*
X0292143Y0218719D01*
X0292192Y0218486D01*
X0292235Y0218252D01*
X0292272Y0218017D01*
X0292303Y0217781D01*
X0292329Y0217545D01*
X0292349Y0217308D01*
X0292364Y0217071D01*
X0292372Y0216833D01*
X0292375Y0216595D01*
X0292375Y0026280D01*
X0292372Y0026042D01*
X0292364Y0025804D01*
X0292349Y0025567D01*
X0292329Y0025330D01*
X0292303Y0025094D01*
X0292272Y0024858D01*
X0292235Y0024623D01*
X0292192Y0024389D01*
X0292143Y0024156D01*
X0292089Y0023924D01*
X0292029Y0023694D01*
X0291964Y0023465D01*
X0291893Y0023238D01*
X0291817Y0023013D01*
X0291735Y0022790D01*
X0291648Y0022568D01*
X0291556Y0022349D01*
X0291458Y0022132D01*
X0291356Y0021918D01*
X0291248Y0021706D01*
X0291134Y0021496D01*
X0291016Y0021290D01*
X0290893Y0021086D01*
X0290765Y0020886D01*
X0290633Y0020689D01*
X0290495Y0020494D01*
X0290353Y0020304D01*
X0290206Y0020116D01*
X0290055Y0019933D01*
X0289900Y0019753D01*
X0289740Y0019577D01*
X0289576Y0019405D01*
X0289407Y0019236D01*
X0289235Y0019072D01*
X0289059Y0018912D01*
X0288879Y0018757D01*
X0288696Y0018606D01*
X0288508Y0018459D01*
X0288318Y0018317D01*
X0288123Y0018179D01*
X0287926Y0018047D01*
X0287726Y0017919D01*
X0287522Y0017796D01*
X0287316Y0017678D01*
X0287106Y0017564D01*
X0286894Y0017456D01*
X0286680Y0017354D01*
X0286463Y0017256D01*
X0286244Y0017164D01*
X0286022Y0017077D01*
X0285799Y0016995D01*
X0285574Y0016919D01*
X0285347Y0016848D01*
X0285118Y0016783D01*
X0284888Y0016723D01*
X0284656Y0016669D01*
X0284423Y0016620D01*
X0284189Y0016577D01*
X0283954Y0016540D01*
X0283718Y0016509D01*
X0283482Y0016483D01*
X0283245Y0016463D01*
X0283008Y0016448D01*
X0282770Y0016440D01*
X0282532Y0016437D01*
X0282532Y0016438D02*
X0032218Y0016438D01*
X0032218Y0016437D02*
X0031980Y0016440D01*
X0031742Y0016448D01*
X0031505Y0016463D01*
X0031268Y0016483D01*
X0031032Y0016509D01*
X0030796Y0016540D01*
X0030561Y0016577D01*
X0030327Y0016620D01*
X0030094Y0016669D01*
X0029862Y0016723D01*
X0029632Y0016783D01*
X0029403Y0016848D01*
X0029176Y0016919D01*
X0028951Y0016995D01*
X0028728Y0017077D01*
X0028506Y0017164D01*
X0028287Y0017256D01*
X0028070Y0017354D01*
X0027856Y0017456D01*
X0027644Y0017564D01*
X0027434Y0017678D01*
X0027228Y0017796D01*
X0027024Y0017919D01*
X0026824Y0018047D01*
X0026627Y0018179D01*
X0026432Y0018317D01*
X0026242Y0018459D01*
X0026054Y0018606D01*
X0025871Y0018757D01*
X0025691Y0018912D01*
X0025515Y0019072D01*
X0025343Y0019236D01*
X0025174Y0019405D01*
X0025010Y0019577D01*
X0024850Y0019753D01*
X0024695Y0019933D01*
X0024544Y0020116D01*
X0024397Y0020304D01*
X0024255Y0020494D01*
X0024117Y0020689D01*
X0023985Y0020886D01*
X0023857Y0021086D01*
X0023734Y0021290D01*
X0023616Y0021496D01*
X0023502Y0021706D01*
X0023394Y0021918D01*
X0023292Y0022132D01*
X0023194Y0022349D01*
X0023102Y0022568D01*
X0023015Y0022790D01*
X0022933Y0023013D01*
X0022857Y0023238D01*
X0022786Y0023465D01*
X0022721Y0023694D01*
X0022661Y0023924D01*
X0022607Y0024156D01*
X0022558Y0024389D01*
X0022515Y0024623D01*
X0022478Y0024858D01*
X0022447Y0025094D01*
X0022421Y0025330D01*
X0022401Y0025567D01*
X0022386Y0025804D01*
X0022378Y0026042D01*
X0022375Y0026280D01*
D11*
X0018025Y0031125D02*
X0048625Y0031125D01*
X0031725Y0031225D02*
X0031725Y0066525D01*
X0018025Y0066525D01*
X0018025Y0031125D01*
X0031725Y0066525D02*
X0071125Y0066525D01*
X0071125Y0061125D01*
X0081145Y0061315D02*
X0081145Y0042810D01*
X0085638Y0049594D02*
X0091612Y0049594D01*
X0088625Y0054156D01*
X0085638Y0049594D01*
X0096105Y0042810D02*
X0096105Y0061315D01*
X0105023Y0058920D02*
X0107385Y0058920D01*
X0107385Y0057739D02*
X0107385Y0034511D01*
X0107385Y0033330D02*
X0098330Y0033330D01*
X0098330Y0052227D01*
X0105023Y0058920D01*
X0114865Y0058920D02*
X0117227Y0058920D01*
X0123920Y0052227D01*
X0123920Y0033330D01*
X0114865Y0033330D01*
X0114865Y0034511D02*
X0114865Y0057739D01*
X0118259Y0065091D02*
X0118259Y0078441D01*
X0125210Y0078443D01*
X0125210Y0065094D01*
X0118259Y0065091D01*
X0121751Y0069750D02*
X0121751Y0070950D01*
X0120351Y0071050D02*
X0123251Y0071050D01*
X0123251Y0072350D02*
X0120351Y0072350D01*
X0121751Y0072450D02*
X0121751Y0073750D01*
X0128330Y0065665D02*
X0135023Y0072358D01*
X0137385Y0072358D01*
X0137385Y0071177D02*
X0137385Y0047948D01*
X0137385Y0046767D02*
X0128330Y0046767D01*
X0128330Y0065665D01*
X0144865Y0071177D02*
X0144865Y0047948D01*
X0144865Y0046767D02*
X0153920Y0046767D01*
X0153920Y0065665D01*
X0147227Y0072358D01*
X0144865Y0072358D01*
X0150121Y0081115D02*
X0104845Y0081115D01*
X0104845Y0150997D01*
X0150121Y0150997D01*
X0150121Y0081115D01*
X0158604Y0074968D02*
X0165554Y0074971D01*
X0165554Y0061622D01*
X0158604Y0061619D01*
X0158604Y0074968D01*
X0162063Y0070313D02*
X0162063Y0069113D01*
X0163463Y0069013D02*
X0160563Y0069013D01*
X0160563Y0067713D02*
X0163463Y0067713D01*
X0162063Y0067613D02*
X0162063Y0066313D01*
X0174006Y0067452D02*
X0174707Y0066752D01*
X0177509Y0066752D01*
X0178210Y0067452D01*
X0178210Y0068854D01*
X0177509Y0069554D01*
X0177509Y0071356D02*
X0178210Y0072056D01*
X0178210Y0073458D01*
X0177509Y0074158D01*
X0176809Y0074158D01*
X0176108Y0073458D01*
X0176108Y0072757D01*
X0176108Y0073458D02*
X0175407Y0074158D01*
X0174707Y0074158D01*
X0174006Y0073458D01*
X0174006Y0072056D01*
X0174707Y0071356D01*
X0174707Y0069554D02*
X0174006Y0068854D01*
X0174006Y0067452D01*
X0174707Y0064950D02*
X0176108Y0064950D01*
X0176809Y0064250D01*
X0176809Y0062148D01*
X0178210Y0062148D02*
X0174006Y0062148D01*
X0174006Y0064250D01*
X0174707Y0064950D01*
X0185133Y0059466D02*
X0185133Y0072816D01*
X0192084Y0072818D01*
X0192084Y0059469D01*
X0185133Y0059466D01*
X0188625Y0064125D02*
X0188625Y0065325D01*
X0187225Y0065425D02*
X0190125Y0065425D01*
X0190125Y0066725D02*
X0187225Y0066725D01*
X0188625Y0066825D02*
X0188625Y0068125D01*
X0189314Y0082345D02*
X0187345Y0084314D01*
X0187345Y0107936D01*
X0189314Y0109905D01*
X0212936Y0109905D01*
X0214905Y0107936D01*
X0214905Y0084314D01*
X0212936Y0082345D01*
X0189314Y0082345D01*
X0189185Y0106952D02*
X0189187Y0107019D01*
X0189193Y0107085D01*
X0189203Y0107151D01*
X0189217Y0107216D01*
X0189234Y0107280D01*
X0189256Y0107343D01*
X0189281Y0107405D01*
X0189310Y0107465D01*
X0189343Y0107523D01*
X0189378Y0107579D01*
X0189418Y0107633D01*
X0189460Y0107684D01*
X0189505Y0107733D01*
X0189553Y0107779D01*
X0189604Y0107822D01*
X0189657Y0107862D01*
X0189713Y0107899D01*
X0189771Y0107932D01*
X0189830Y0107962D01*
X0189891Y0107988D01*
X0189954Y0108011D01*
X0190018Y0108029D01*
X0190083Y0108044D01*
X0190149Y0108055D01*
X0190215Y0108062D01*
X0190281Y0108065D01*
X0190348Y0108064D01*
X0190414Y0108059D01*
X0190480Y0108050D01*
X0190546Y0108037D01*
X0190610Y0108020D01*
X0190673Y0108000D01*
X0190735Y0107975D01*
X0190796Y0107947D01*
X0190855Y0107916D01*
X0190911Y0107881D01*
X0190966Y0107843D01*
X0191018Y0107801D01*
X0191067Y0107756D01*
X0191114Y0107709D01*
X0191158Y0107659D01*
X0191198Y0107606D01*
X0191236Y0107551D01*
X0191270Y0107494D01*
X0191301Y0107435D01*
X0191328Y0107374D01*
X0191351Y0107312D01*
X0191371Y0107248D01*
X0191387Y0107183D01*
X0191399Y0107118D01*
X0191407Y0107052D01*
X0191411Y0106985D01*
X0191411Y0106919D01*
X0191407Y0106852D01*
X0191399Y0106786D01*
X0191387Y0106721D01*
X0191371Y0106656D01*
X0191351Y0106592D01*
X0191328Y0106530D01*
X0191301Y0106469D01*
X0191270Y0106410D01*
X0191236Y0106353D01*
X0191198Y0106298D01*
X0191158Y0106245D01*
X0191114Y0106195D01*
X0191067Y0106148D01*
X0191018Y0106103D01*
X0190966Y0106061D01*
X0190911Y0106023D01*
X0190854Y0105988D01*
X0190796Y0105957D01*
X0190735Y0105929D01*
X0190673Y0105904D01*
X0190610Y0105884D01*
X0190546Y0105867D01*
X0190480Y0105854D01*
X0190414Y0105845D01*
X0190348Y0105840D01*
X0190281Y0105839D01*
X0190215Y0105842D01*
X0190149Y0105849D01*
X0190083Y0105860D01*
X0190018Y0105875D01*
X0189954Y0105893D01*
X0189891Y0105916D01*
X0189830Y0105942D01*
X0189771Y0105972D01*
X0189713Y0106005D01*
X0189657Y0106042D01*
X0189604Y0106082D01*
X0189553Y0106125D01*
X0189505Y0106171D01*
X0189460Y0106220D01*
X0189418Y0106271D01*
X0189378Y0106325D01*
X0189343Y0106381D01*
X0189310Y0106439D01*
X0189281Y0106499D01*
X0189256Y0106561D01*
X0189234Y0106624D01*
X0189217Y0106688D01*
X0189203Y0106753D01*
X0189193Y0106819D01*
X0189187Y0106885D01*
X0189185Y0106952D01*
X0175400Y0110678D02*
X0174700Y0109978D01*
X0173299Y0109978D01*
X0172598Y0110678D01*
X0172598Y0112079D02*
X0173999Y0112780D01*
X0174700Y0112780D01*
X0175400Y0112079D01*
X0175400Y0110678D01*
X0172598Y0112079D02*
X0172598Y0114181D01*
X0175400Y0114181D01*
X0170796Y0112780D02*
X0170796Y0109978D01*
X0170796Y0112079D02*
X0167994Y0112079D01*
X0167994Y0112780D02*
X0167994Y0109978D01*
X0166192Y0112079D02*
X0166192Y0113481D01*
X0165492Y0114181D01*
X0163390Y0114181D01*
X0163390Y0109978D01*
X0163390Y0111379D02*
X0165492Y0111379D01*
X0166192Y0112079D01*
X0167994Y0112780D02*
X0169395Y0114181D01*
X0170796Y0112780D01*
X0170796Y0118103D02*
X0170796Y0120905D01*
X0169395Y0122306D01*
X0167994Y0120905D01*
X0167994Y0118103D01*
X0167994Y0120204D02*
X0170796Y0120204D01*
X0172598Y0120204D02*
X0175400Y0120204D01*
X0174700Y0118103D02*
X0174700Y0122306D01*
X0172598Y0120204D01*
X0166192Y0120204D02*
X0165492Y0119504D01*
X0163390Y0119504D01*
X0163390Y0118103D02*
X0163390Y0122306D01*
X0165492Y0122306D01*
X0166192Y0121606D01*
X0166192Y0120204D01*
X0141256Y0135498D02*
X0141256Y0136899D01*
X0141256Y0136198D02*
X0137053Y0136198D01*
X0137053Y0135498D02*
X0137053Y0136899D01*
X0137053Y0138567D02*
X0141256Y0141370D01*
X0137053Y0141370D01*
X0139155Y0143171D02*
X0139155Y0145973D01*
X0141256Y0138567D02*
X0137053Y0138567D01*
X0128149Y0130348D02*
X0128850Y0129648D01*
X0128850Y0128247D01*
X0128149Y0127546D01*
X0127449Y0125744D02*
X0124646Y0125744D01*
X0125347Y0127546D02*
X0124646Y0128247D01*
X0124646Y0129648D01*
X0125347Y0130348D01*
X0126048Y0130348D01*
X0126748Y0129648D01*
X0127449Y0130348D01*
X0128149Y0130348D01*
X0126748Y0129648D02*
X0126748Y0128947D01*
X0127449Y0125744D02*
X0128850Y0124343D01*
X0127449Y0122942D01*
X0124646Y0122942D01*
X0125347Y0121141D02*
X0126048Y0121141D01*
X0126748Y0120440D01*
X0127449Y0121141D01*
X0128149Y0121141D01*
X0128850Y0120440D01*
X0128850Y0119039D01*
X0128149Y0118338D01*
X0126748Y0119739D02*
X0126748Y0120440D01*
X0125347Y0121141D02*
X0124646Y0120440D01*
X0124646Y0119039D01*
X0125347Y0118338D01*
X0126748Y0116537D02*
X0126748Y0113734D01*
X0126748Y0111933D02*
X0126748Y0110531D01*
X0126748Y0111933D02*
X0128149Y0111933D01*
X0128850Y0111232D01*
X0128850Y0109831D01*
X0128149Y0109130D01*
X0125347Y0109130D01*
X0124646Y0109831D01*
X0124646Y0111232D01*
X0125347Y0111933D01*
X0124646Y0107329D02*
X0124646Y0104526D01*
X0128850Y0104526D01*
X0128850Y0107329D01*
X0126748Y0105928D02*
X0126748Y0104526D01*
X0126748Y0102725D02*
X0127449Y0102024D01*
X0127449Y0099922D01*
X0128850Y0099922D02*
X0124646Y0099922D01*
X0124646Y0102024D01*
X0125347Y0102725D01*
X0126748Y0102725D01*
X0127449Y0101324D02*
X0128850Y0102725D01*
X0127449Y0098121D02*
X0124646Y0098121D01*
X0124646Y0095319D02*
X0127449Y0095319D01*
X0128850Y0096720D01*
X0127449Y0098121D01*
X0135985Y0098388D02*
X0135985Y0095586D01*
X0135985Y0096987D02*
X0140189Y0096987D01*
X0139488Y0093785D02*
X0135985Y0093785D01*
X0135985Y0090982D02*
X0139488Y0090982D01*
X0140189Y0091683D01*
X0140189Y0093084D01*
X0139488Y0093785D01*
X0139488Y0089181D02*
X0136686Y0089181D01*
X0135985Y0088480D01*
X0135985Y0087079D01*
X0136686Y0086378D01*
X0139488Y0086378D01*
X0140189Y0087079D01*
X0140189Y0088480D01*
X0139488Y0089181D01*
X0138087Y0100190D02*
X0138087Y0102992D01*
X0117869Y0101684D02*
X0115067Y0101684D01*
X0116468Y0100283D02*
X0116468Y0103085D01*
X0112636Y0106509D02*
X0108251Y0111844D01*
X0111283Y0111844D01*
X0111283Y0131844D01*
X0114314Y0131844D01*
X0114314Y0111844D01*
X0117345Y0111844D01*
X0112636Y0106509D01*
X0112105Y0107155D02*
X0113206Y0107155D01*
X0113911Y0107954D02*
X0111449Y0107954D01*
X0110792Y0108752D02*
X0114616Y0108752D01*
X0115321Y0109551D02*
X0110136Y0109551D01*
X0109479Y0110349D02*
X0116026Y0110349D01*
X0116731Y0111148D02*
X0108823Y0111148D01*
X0111283Y0111946D02*
X0114314Y0111946D01*
X0114314Y0112745D02*
X0111283Y0112745D01*
X0111283Y0113543D02*
X0114314Y0113543D01*
X0114314Y0114342D02*
X0111283Y0114342D01*
X0111283Y0115140D02*
X0114314Y0115140D01*
X0114314Y0115939D02*
X0111283Y0115939D01*
X0111283Y0116737D02*
X0114314Y0116737D01*
X0114314Y0117536D02*
X0111283Y0117536D01*
X0111283Y0118334D02*
X0114314Y0118334D01*
X0114314Y0119133D02*
X0111283Y0119133D01*
X0111283Y0119931D02*
X0114314Y0119931D01*
X0114314Y0120730D02*
X0111283Y0120730D01*
X0111283Y0121528D02*
X0114314Y0121528D01*
X0114314Y0122327D02*
X0111283Y0122327D01*
X0111283Y0123126D02*
X0114314Y0123126D01*
X0114314Y0123924D02*
X0111283Y0123924D01*
X0111283Y0124723D02*
X0114314Y0124723D01*
X0114314Y0125521D02*
X0111283Y0125521D01*
X0111283Y0126320D02*
X0114314Y0126320D01*
X0114314Y0127118D02*
X0111283Y0127118D01*
X0111283Y0127917D02*
X0114314Y0127917D01*
X0114314Y0128715D02*
X0111283Y0128715D01*
X0111283Y0129514D02*
X0114314Y0129514D01*
X0114314Y0130312D02*
X0111283Y0130312D01*
X0111283Y0131111D02*
X0114314Y0131111D01*
X0114021Y0135498D02*
X0114021Y0136899D01*
X0114021Y0136198D02*
X0118225Y0136198D01*
X0118225Y0135498D02*
X0118225Y0136899D01*
X0118225Y0138567D02*
X0114021Y0138567D01*
X0118225Y0141370D01*
X0114021Y0141370D01*
X0116123Y0143171D02*
X0116123Y0145973D01*
X0114722Y0144572D02*
X0117524Y0144572D01*
X0103418Y0153994D02*
X0096332Y0153994D01*
X0096332Y0155569D01*
X0096332Y0157931D02*
X0096332Y0159506D01*
X0103418Y0159506D01*
X0103418Y0157931D01*
X0102535Y0159133D02*
X0102535Y0154408D01*
X0098598Y0156770D01*
X0102535Y0159133D01*
X0104659Y0162008D02*
X0091309Y0162008D01*
X0091307Y0168959D01*
X0104656Y0168959D01*
X0104659Y0162008D01*
X0100000Y0165500D02*
X0098800Y0165500D01*
X0098700Y0164100D02*
X0098700Y0167000D01*
X0097400Y0167000D02*
X0097400Y0164100D01*
X0097300Y0165500D02*
X0096000Y0165500D01*
X0103418Y0155569D02*
X0103418Y0153994D01*
X0111981Y0156970D02*
X0111981Y0161173D01*
X0114083Y0161173D01*
X0114784Y0160473D01*
X0114784Y0159071D01*
X0114083Y0158371D01*
X0111981Y0158371D01*
X0113383Y0158371D02*
X0114784Y0156970D01*
X0116585Y0157670D02*
X0117286Y0156970D01*
X0118687Y0156970D01*
X0119388Y0157670D01*
X0119388Y0158371D01*
X0118687Y0159071D01*
X0117286Y0159071D01*
X0116585Y0159772D01*
X0116585Y0160473D01*
X0117286Y0161173D01*
X0118687Y0161173D01*
X0119388Y0160473D01*
X0121189Y0161173D02*
X0123992Y0161173D01*
X0122590Y0161173D02*
X0122590Y0156970D01*
X0125793Y0157670D02*
X0126494Y0156970D01*
X0127194Y0156970D01*
X0127895Y0157670D01*
X0127895Y0161173D01*
X0127194Y0161173D02*
X0128596Y0161173D01*
X0125595Y0179445D02*
X0126296Y0180146D01*
X0126296Y0180847D01*
X0125595Y0181547D01*
X0123493Y0181547D01*
X0123493Y0180146D01*
X0124194Y0179445D01*
X0125595Y0179445D01*
X0123493Y0181547D02*
X0124895Y0182948D01*
X0126296Y0183649D01*
X0121692Y0182248D02*
X0121692Y0179445D01*
X0121692Y0181547D02*
X0118890Y0181547D01*
X0118890Y0182248D02*
X0118890Y0179445D01*
X0117088Y0181547D02*
X0116387Y0180847D01*
X0114286Y0180847D01*
X0114286Y0179445D02*
X0114286Y0183649D01*
X0116387Y0183649D01*
X0117088Y0182948D01*
X0117088Y0181547D01*
X0118890Y0182248D02*
X0120291Y0183649D01*
X0121692Y0182248D01*
X0121692Y0187694D02*
X0121692Y0190496D01*
X0120291Y0191897D01*
X0118890Y0190496D01*
X0118890Y0187694D01*
X0118890Y0189795D02*
X0121692Y0189795D01*
X0123493Y0188394D02*
X0123493Y0187694D01*
X0123493Y0188394D02*
X0126296Y0191196D01*
X0126296Y0191897D01*
X0123493Y0191897D01*
X0117088Y0191196D02*
X0117088Y0189795D01*
X0116387Y0189095D01*
X0114286Y0189095D01*
X0114286Y0187694D02*
X0114286Y0191897D01*
X0116387Y0191897D01*
X0117088Y0191196D01*
X0116742Y0197140D02*
X0116742Y0199242D01*
X0116042Y0199942D01*
X0114641Y0199942D01*
X0113940Y0199242D01*
X0113940Y0197140D01*
X0118144Y0197140D01*
X0118144Y0201744D02*
X0113940Y0201744D01*
X0113940Y0203846D01*
X0114641Y0204546D01*
X0115341Y0204546D01*
X0116042Y0203846D01*
X0116042Y0201744D01*
X0118144Y0201744D02*
X0118144Y0203846D01*
X0117443Y0204546D01*
X0116742Y0204546D01*
X0116042Y0203846D01*
X0117443Y0206348D02*
X0118144Y0207049D01*
X0118144Y0208450D01*
X0117443Y0209150D01*
X0116742Y0209150D01*
X0116042Y0208450D01*
X0116042Y0207749D01*
X0116042Y0208450D02*
X0115341Y0209150D01*
X0114641Y0209150D01*
X0113940Y0208450D01*
X0113940Y0207049D01*
X0114641Y0206348D01*
X0117125Y0211125D02*
X0112125Y0211125D01*
X0109625Y0213625D01*
X0109625Y0218625D01*
X0112125Y0221125D01*
X0117125Y0221125D01*
X0119625Y0218625D01*
X0122125Y0221125D01*
X0127125Y0221125D01*
X0129625Y0218625D01*
X0132125Y0221125D01*
X0137125Y0221125D01*
X0139625Y0218625D01*
X0142125Y0221125D01*
X0147125Y0221125D01*
X0149625Y0218625D01*
X0152125Y0221125D01*
X0157125Y0221125D01*
X0159625Y0218625D01*
X0162125Y0221125D01*
X0167125Y0221125D01*
X0169625Y0218625D01*
X0172125Y0221125D01*
X0177125Y0221125D01*
X0179625Y0218625D01*
X0182125Y0221125D01*
X0187125Y0221125D01*
X0189625Y0218625D01*
X0189625Y0213625D01*
X0187125Y0211125D01*
X0182125Y0211125D01*
X0179625Y0213625D01*
X0177125Y0211125D01*
X0172125Y0211125D01*
X0169625Y0213625D01*
X0169625Y0218625D01*
X0169625Y0213625D02*
X0167125Y0211125D01*
X0162125Y0211125D01*
X0159625Y0213625D01*
X0157125Y0211125D01*
X0152125Y0211125D01*
X0149625Y0213625D01*
X0147125Y0211125D01*
X0142125Y0211125D01*
X0139625Y0213625D01*
X0139625Y0218625D01*
X0139625Y0213625D02*
X0137125Y0211125D01*
X0132125Y0211125D01*
X0129625Y0213625D01*
X0127125Y0211125D01*
X0122125Y0211125D01*
X0119625Y0213625D01*
X0117125Y0211125D01*
X0119625Y0213625D02*
X0119625Y0218625D01*
X0129625Y0218625D02*
X0129625Y0213625D01*
X0109625Y0213625D02*
X0107125Y0211125D01*
X0102125Y0211125D01*
X0099625Y0213625D01*
X0097125Y0211125D01*
X0092125Y0211125D01*
X0089625Y0213625D01*
X0089625Y0218625D01*
X0092125Y0221125D01*
X0097125Y0221125D01*
X0099625Y0218625D01*
X0102125Y0221125D01*
X0107125Y0221125D01*
X0109625Y0218625D01*
X0099625Y0218625D02*
X0099625Y0213625D01*
X0096269Y0209775D02*
X0096269Y0206973D01*
X0092065Y0206973D01*
X0092766Y0205171D02*
X0092065Y0204471D01*
X0092065Y0203070D01*
X0092766Y0202369D01*
X0095568Y0202369D01*
X0096269Y0203070D01*
X0096269Y0204471D01*
X0095568Y0205171D01*
X0095568Y0200567D02*
X0096269Y0199867D01*
X0096269Y0198466D01*
X0095568Y0197765D01*
X0094167Y0198466D02*
X0094167Y0199867D01*
X0094867Y0200567D01*
X0095568Y0200567D01*
X0094167Y0198466D02*
X0093466Y0197765D01*
X0092766Y0197765D01*
X0092065Y0198466D01*
X0092065Y0199867D01*
X0092766Y0200567D01*
X0092041Y0197156D02*
X0098992Y0197159D01*
X0098992Y0183809D01*
X0092041Y0183807D01*
X0092041Y0197156D01*
X0095500Y0192500D02*
X0095500Y0191300D01*
X0096900Y0191200D02*
X0094000Y0191200D01*
X0094000Y0189900D02*
X0096900Y0189900D01*
X0095500Y0189800D02*
X0095500Y0188500D01*
X0103097Y0197524D02*
X0103797Y0197524D01*
X0104498Y0198225D01*
X0104498Y0199626D01*
X0105199Y0200327D01*
X0105899Y0200327D01*
X0106600Y0199626D01*
X0106600Y0198225D01*
X0105899Y0197524D01*
X0103097Y0197524D02*
X0102396Y0198225D01*
X0102396Y0199626D01*
X0103097Y0200327D01*
X0102396Y0202128D02*
X0102396Y0204230D01*
X0103097Y0204930D01*
X0105899Y0204930D01*
X0106600Y0204230D01*
X0106600Y0202128D01*
X0102396Y0202128D01*
X0103797Y0206732D02*
X0102396Y0208133D01*
X0103797Y0209534D01*
X0106600Y0209534D01*
X0104498Y0209534D02*
X0104498Y0206732D01*
X0103797Y0206732D02*
X0106600Y0206732D01*
X0085810Y0202621D02*
X0085810Y0139629D01*
X0022818Y0139629D01*
X0022818Y0157345D01*
X0018881Y0157345D01*
X0018881Y0184905D01*
X0022818Y0184905D01*
X0022818Y0157345D01*
X0033315Y0165090D02*
X0045185Y0165090D01*
X0045157Y0172132D01*
X0033287Y0172132D01*
X0033315Y0165090D01*
X0038235Y0167219D02*
X0038078Y0167844D01*
X0038250Y0167225D02*
X0039250Y0170125D01*
X0040250Y0167225D01*
X0040265Y0167297D02*
X0040422Y0167844D01*
X0039905Y0157072D02*
X0039905Y0153569D01*
X0040606Y0152869D01*
X0042007Y0152869D01*
X0042708Y0153569D01*
X0042708Y0157072D01*
X0044509Y0156371D02*
X0044509Y0155671D01*
X0045210Y0154970D01*
X0046611Y0154970D01*
X0047312Y0154270D01*
X0047312Y0153569D01*
X0046611Y0152869D01*
X0045210Y0152869D01*
X0044509Y0153569D01*
X0044509Y0156371D02*
X0045210Y0157072D01*
X0046611Y0157072D01*
X0047312Y0156371D01*
X0049113Y0157072D02*
X0051215Y0157072D01*
X0051916Y0156371D01*
X0051916Y0155671D01*
X0051215Y0154970D01*
X0049113Y0154970D01*
X0049113Y0152869D02*
X0049113Y0157072D01*
X0051215Y0154970D02*
X0051916Y0154270D01*
X0051916Y0153569D01*
X0051215Y0152869D01*
X0049113Y0152869D01*
X0053717Y0152869D02*
X0053717Y0157072D01*
X0055118Y0155671D01*
X0056519Y0157072D01*
X0056519Y0152869D01*
X0058321Y0153569D02*
X0059022Y0152869D01*
X0060423Y0152869D01*
X0061123Y0153569D01*
X0061123Y0156371D01*
X0060423Y0157072D01*
X0059022Y0157072D01*
X0058321Y0156371D01*
X0058321Y0153569D01*
X0062925Y0152869D02*
X0065027Y0152869D01*
X0065727Y0153569D01*
X0065727Y0156371D01*
X0065027Y0157072D01*
X0062925Y0157072D01*
X0062925Y0152869D01*
X0065025Y0136625D02*
X0066125Y0135525D01*
X0066125Y0131625D01*
X0066125Y0127725D01*
X0065025Y0126625D01*
X0065125Y0131625D02*
X0066125Y0131625D01*
X0069338Y0130864D02*
X0071439Y0130864D01*
X0072140Y0131564D01*
X0072140Y0132965D01*
X0071439Y0133666D01*
X0069338Y0133666D01*
X0069338Y0129462D01*
X0073941Y0130163D02*
X0074642Y0129462D01*
X0076043Y0129462D01*
X0076744Y0130163D01*
X0076744Y0130864D01*
X0076043Y0131564D01*
X0074642Y0131564D01*
X0073941Y0132265D01*
X0073941Y0132965D01*
X0074642Y0133666D01*
X0076043Y0133666D01*
X0076744Y0132965D01*
X0078545Y0131564D02*
X0079246Y0132265D01*
X0080647Y0132265D01*
X0081348Y0131564D01*
X0081348Y0130864D01*
X0078545Y0130864D01*
X0078545Y0131564D02*
X0078545Y0130163D01*
X0079246Y0129462D01*
X0080647Y0129462D01*
X0083149Y0129462D02*
X0084550Y0129462D01*
X0083850Y0129462D02*
X0083850Y0133666D01*
X0083149Y0133666D01*
X0096135Y0123246D02*
X0096135Y0077970D01*
X0026253Y0077970D01*
X0026253Y0123246D01*
X0096135Y0123246D01*
X0087371Y0118090D02*
X0084569Y0118090D01*
X0082767Y0120192D02*
X0079965Y0120192D01*
X0081366Y0120192D02*
X0081366Y0115989D01*
X0078163Y0116689D02*
X0078163Y0120192D01*
X0075361Y0120192D02*
X0075361Y0116689D01*
X0076061Y0115989D01*
X0077463Y0115989D01*
X0078163Y0116689D01*
X0073559Y0116689D02*
X0073559Y0119492D01*
X0072859Y0120192D01*
X0071457Y0120192D01*
X0070757Y0119492D01*
X0070757Y0116689D01*
X0071457Y0115989D01*
X0072859Y0115989D01*
X0073559Y0116689D01*
X0057125Y0131625D02*
X0055125Y0131625D01*
X0047125Y0131625D02*
X0045125Y0131625D01*
X0037225Y0126625D02*
X0036125Y0127725D01*
X0036125Y0131625D01*
X0036125Y0135525D01*
X0037225Y0136625D01*
X0034167Y0137245D02*
X0034167Y0135143D01*
X0029963Y0135143D01*
X0029963Y0137245D01*
X0030664Y0137945D01*
X0031364Y0137945D01*
X0032065Y0137245D01*
X0032065Y0135143D01*
X0032766Y0133341D02*
X0033466Y0133341D01*
X0034167Y0132641D01*
X0034167Y0131240D01*
X0033466Y0130539D01*
X0032065Y0131240D02*
X0032065Y0132641D01*
X0032766Y0133341D01*
X0030664Y0133341D02*
X0029963Y0132641D01*
X0029963Y0131240D01*
X0030664Y0130539D01*
X0031364Y0130539D01*
X0032065Y0131240D01*
X0033466Y0128737D02*
X0029963Y0128737D01*
X0029963Y0125935D02*
X0033466Y0125935D01*
X0034167Y0126636D01*
X0034167Y0128037D01*
X0033466Y0128737D01*
X0036125Y0131625D02*
X0037125Y0131625D01*
X0034167Y0137245D02*
X0033466Y0137945D01*
X0032766Y0137945D01*
X0032065Y0137245D01*
X0037775Y0119385D02*
X0039176Y0119385D01*
X0038476Y0119385D02*
X0038476Y0115181D01*
X0039176Y0115181D02*
X0037775Y0115181D01*
X0040844Y0115181D02*
X0040844Y0119385D01*
X0043647Y0115181D01*
X0043647Y0119385D01*
X0045448Y0117283D02*
X0048251Y0117283D01*
X0048004Y0098854D02*
X0050106Y0098854D01*
X0050806Y0098153D01*
X0050806Y0096752D01*
X0050106Y0096051D01*
X0048004Y0096051D01*
X0048004Y0094650D02*
X0048004Y0098854D01*
X0046202Y0098854D02*
X0046202Y0096051D01*
X0044801Y0094650D01*
X0043400Y0096051D01*
X0043400Y0098854D01*
X0049405Y0096051D02*
X0050806Y0094650D01*
X0052608Y0094650D02*
X0055410Y0094650D01*
X0057212Y0095351D02*
X0057912Y0094650D01*
X0059314Y0094650D01*
X0060014Y0095351D01*
X0060014Y0096752D01*
X0058613Y0096752D01*
X0060014Y0098153D02*
X0059314Y0098854D01*
X0057912Y0098854D01*
X0057212Y0098153D01*
X0057212Y0095351D01*
X0054009Y0096752D02*
X0052608Y0096752D01*
X0052608Y0098854D02*
X0052608Y0094650D01*
X0052608Y0098854D02*
X0055410Y0098854D01*
X0061816Y0096752D02*
X0064618Y0096752D01*
X0066420Y0096752D02*
X0067821Y0097452D01*
X0068521Y0097452D01*
X0069222Y0096752D01*
X0069222Y0095351D01*
X0068521Y0094650D01*
X0067120Y0094650D01*
X0066420Y0095351D01*
X0066420Y0096752D02*
X0066420Y0098854D01*
X0069222Y0098854D01*
X0071024Y0098854D02*
X0071024Y0096051D01*
X0072425Y0094650D01*
X0073826Y0096051D01*
X0073826Y0098854D01*
X0074726Y0090729D02*
X0074025Y0090028D01*
X0074025Y0087226D01*
X0074726Y0086525D01*
X0076127Y0086525D01*
X0076827Y0087226D01*
X0076827Y0090028D01*
X0076127Y0090729D01*
X0074726Y0090729D01*
X0078629Y0090729D02*
X0078629Y0087226D01*
X0079330Y0086525D01*
X0080731Y0086525D01*
X0081431Y0087226D01*
X0081431Y0090729D01*
X0083233Y0090729D02*
X0086035Y0090729D01*
X0084634Y0090729D02*
X0084634Y0086525D01*
X0087837Y0088627D02*
X0090639Y0088627D01*
X0089238Y0090028D02*
X0089238Y0087226D01*
X0070741Y0085761D02*
X0065406Y0081376D01*
X0065406Y0084408D01*
X0045406Y0084408D01*
X0045406Y0087439D01*
X0065406Y0087439D01*
X0065406Y0090470D01*
X0070741Y0085761D01*
X0070539Y0085595D02*
X0045406Y0085595D01*
X0045406Y0084797D02*
X0069568Y0084797D01*
X0068597Y0083998D02*
X0065406Y0083998D01*
X0065406Y0083200D02*
X0067625Y0083200D01*
X0066654Y0082401D02*
X0065406Y0082401D01*
X0065406Y0081603D02*
X0065683Y0081603D01*
X0070023Y0086394D02*
X0045406Y0086394D01*
X0045406Y0087193D02*
X0069119Y0087193D01*
X0068215Y0087991D02*
X0065406Y0087991D01*
X0065406Y0088790D02*
X0067310Y0088790D01*
X0066406Y0089588D02*
X0065406Y0089588D01*
X0065406Y0090387D02*
X0065502Y0090387D01*
X0044501Y0088627D02*
X0041698Y0088627D01*
X0043099Y0090028D02*
X0043099Y0087226D01*
X0039897Y0086525D02*
X0039897Y0090729D01*
X0037094Y0090729D02*
X0039897Y0086525D01*
X0037094Y0086525D02*
X0037094Y0090729D01*
X0035426Y0090729D02*
X0034025Y0090729D01*
X0034726Y0090729D02*
X0034726Y0086525D01*
X0035426Y0086525D02*
X0034025Y0086525D01*
X0071125Y0039875D02*
X0071125Y0031125D01*
X0069875Y0031125D01*
X0126125Y0028680D02*
X0126125Y0023680D01*
X0128625Y0021180D01*
X0133625Y0021180D01*
X0136125Y0023680D01*
X0138625Y0021180D01*
X0143625Y0021180D01*
X0146125Y0023680D01*
X0146125Y0028680D01*
X0143625Y0031180D01*
X0138625Y0031180D01*
X0136125Y0028680D01*
X0136125Y0023680D01*
X0136125Y0028680D02*
X0133625Y0031180D01*
X0128625Y0031180D01*
X0126125Y0028680D01*
X0146125Y0028680D02*
X0148625Y0031180D01*
X0153625Y0031180D01*
X0156125Y0028680D01*
X0158625Y0031180D01*
X0163625Y0031180D01*
X0166125Y0028680D01*
X0168625Y0031180D01*
X0173625Y0031180D01*
X0176125Y0028680D01*
X0176125Y0023680D01*
X0173625Y0021180D01*
X0168625Y0021180D01*
X0166125Y0023680D01*
X0163625Y0021180D01*
X0158625Y0021180D01*
X0156125Y0023680D01*
X0153625Y0021180D01*
X0148625Y0021180D01*
X0146125Y0023680D01*
X0156125Y0023680D02*
X0156125Y0028680D01*
X0153267Y0032780D02*
X0149064Y0032780D01*
X0149064Y0034882D01*
X0149764Y0035583D01*
X0151166Y0035583D01*
X0151866Y0034882D01*
X0151866Y0032780D01*
X0151866Y0034181D02*
X0153267Y0035583D01*
X0152567Y0037384D02*
X0153267Y0038085D01*
X0153267Y0039486D01*
X0152567Y0040187D01*
X0151866Y0040187D01*
X0151166Y0039486D01*
X0151166Y0038085D01*
X0150465Y0037384D01*
X0149764Y0037384D01*
X0149064Y0038085D01*
X0149064Y0039486D01*
X0149764Y0040187D01*
X0149064Y0041988D02*
X0149064Y0044790D01*
X0149064Y0043389D02*
X0153267Y0043389D01*
X0159380Y0042689D02*
X0160080Y0041988D01*
X0159380Y0042689D02*
X0159380Y0044090D01*
X0160080Y0044790D01*
X0160781Y0044790D01*
X0161481Y0044090D01*
X0162182Y0044790D01*
X0162883Y0044790D01*
X0163583Y0044090D01*
X0163583Y0042689D01*
X0162883Y0041988D01*
X0161481Y0043389D02*
X0161481Y0044090D01*
X0160781Y0040187D02*
X0163583Y0038785D01*
X0160781Y0037384D01*
X0160781Y0035583D02*
X0161481Y0034882D01*
X0162182Y0035583D01*
X0162883Y0035583D01*
X0163583Y0034882D01*
X0163583Y0033481D01*
X0162883Y0032780D01*
X0161481Y0034181D02*
X0161481Y0034882D01*
X0160781Y0035583D02*
X0160080Y0035583D01*
X0159380Y0034882D01*
X0159380Y0033481D01*
X0160080Y0032780D01*
X0166125Y0028680D02*
X0166125Y0023680D01*
X0176125Y0023680D02*
X0178625Y0021180D01*
X0183625Y0021180D01*
X0186125Y0023680D01*
X0188625Y0021180D01*
X0193625Y0021180D01*
X0196125Y0023680D01*
X0198625Y0021180D01*
X0203625Y0021180D01*
X0206125Y0023680D01*
X0206125Y0028680D01*
X0203625Y0031180D01*
X0198625Y0031180D01*
X0196125Y0028680D01*
X0196125Y0023680D01*
X0196125Y0028680D02*
X0193625Y0031180D01*
X0188625Y0031180D01*
X0186125Y0028680D01*
X0186125Y0023680D01*
X0186125Y0028680D02*
X0183625Y0031180D01*
X0178625Y0031180D01*
X0176125Y0028680D01*
X0171323Y0034181D02*
X0168520Y0034181D01*
X0169922Y0032780D02*
X0169922Y0035583D01*
X0169922Y0037384D02*
X0169221Y0038785D01*
X0169221Y0039486D01*
X0169922Y0040187D01*
X0171323Y0040187D01*
X0172023Y0039486D01*
X0172023Y0038085D01*
X0171323Y0037384D01*
X0169922Y0037384D02*
X0167820Y0037384D01*
X0167820Y0040187D01*
X0175922Y0039719D02*
X0175922Y0043923D01*
X0178024Y0043923D01*
X0178724Y0043222D01*
X0178724Y0041821D01*
X0178024Y0041120D01*
X0175922Y0041120D01*
X0180526Y0040420D02*
X0181226Y0039719D01*
X0182628Y0039719D01*
X0183328Y0040420D01*
X0183328Y0043222D01*
X0182628Y0043923D01*
X0181226Y0043923D01*
X0180526Y0043222D01*
X0180526Y0040420D01*
X0185130Y0039719D02*
X0186531Y0041120D01*
X0187932Y0039719D01*
X0187932Y0043923D01*
X0189734Y0043923D02*
X0189734Y0039719D01*
X0192536Y0039719D01*
X0194338Y0039719D02*
X0194338Y0043923D01*
X0196439Y0043923D01*
X0197140Y0043222D01*
X0197140Y0041821D01*
X0196439Y0041120D01*
X0194338Y0041120D01*
X0195739Y0041120D02*
X0197140Y0039719D01*
X0200255Y0038397D02*
X0200955Y0038397D01*
X0202357Y0038397D02*
X0205159Y0038397D01*
X0205159Y0037697D02*
X0205159Y0039098D01*
X0205159Y0040766D02*
X0202357Y0040766D01*
X0202357Y0042868D01*
X0203057Y0043568D01*
X0205159Y0043568D01*
X0202357Y0038397D02*
X0202357Y0037697D01*
X0203758Y0035895D02*
X0200955Y0035895D01*
X0200955Y0033093D02*
X0203758Y0033093D01*
X0205159Y0034494D01*
X0203758Y0035895D01*
X0192536Y0043923D02*
X0189734Y0043923D01*
X0189734Y0041821D02*
X0191135Y0041821D01*
X0185130Y0043923D02*
X0185130Y0039719D01*
X0216125Y0028625D02*
X0216125Y0023625D01*
X0218625Y0021125D01*
X0223625Y0021125D01*
X0226125Y0023625D01*
X0228625Y0021125D01*
X0233625Y0021125D01*
X0236125Y0023625D01*
X0236125Y0028625D01*
X0233625Y0031125D01*
X0228625Y0031125D01*
X0226125Y0028625D01*
X0226125Y0023625D01*
X0226125Y0028625D02*
X0223625Y0031125D01*
X0218625Y0031125D01*
X0216125Y0028625D01*
X0236125Y0028625D02*
X0238625Y0031125D01*
X0243625Y0031125D01*
X0246125Y0028625D01*
X0248625Y0031125D01*
X0253625Y0031125D01*
X0256125Y0028625D01*
X0258625Y0031125D01*
X0263625Y0031125D01*
X0266125Y0028625D01*
X0268625Y0031125D01*
X0273625Y0031125D01*
X0276125Y0028625D01*
X0276125Y0023625D01*
X0273625Y0021125D01*
X0268625Y0021125D01*
X0266125Y0023625D01*
X0263625Y0021125D01*
X0258625Y0021125D01*
X0256125Y0023625D01*
X0253625Y0021125D01*
X0248625Y0021125D01*
X0246125Y0023625D01*
X0243625Y0021125D01*
X0238625Y0021125D01*
X0236125Y0023625D01*
X0246125Y0023625D02*
X0246125Y0028625D01*
X0256125Y0028625D02*
X0256125Y0023625D01*
X0266125Y0023625D02*
X0266125Y0028625D01*
X0280088Y0032770D02*
X0281489Y0031369D01*
X0284291Y0031369D01*
X0282190Y0031369D02*
X0282190Y0034171D01*
X0281489Y0034171D02*
X0284291Y0034171D01*
X0284291Y0035973D02*
X0280088Y0035973D01*
X0280088Y0038075D01*
X0280788Y0038775D01*
X0282190Y0038775D01*
X0282890Y0038075D01*
X0282890Y0035973D01*
X0282890Y0037374D02*
X0284291Y0038775D01*
X0284291Y0040577D02*
X0280088Y0040577D01*
X0280088Y0043379D01*
X0280088Y0045181D02*
X0280088Y0047983D01*
X0282190Y0046582D02*
X0282190Y0045181D01*
X0284291Y0045181D02*
X0280088Y0045181D01*
X0284291Y0043379D02*
X0284291Y0040577D01*
X0282190Y0040577D02*
X0282190Y0041978D01*
X0281489Y0034171D02*
X0280088Y0032770D01*
X0261966Y0062089D02*
X0257762Y0062089D01*
X0257762Y0064191D01*
X0258463Y0064891D01*
X0259864Y0064891D01*
X0260565Y0064191D01*
X0260565Y0062089D01*
X0260565Y0063490D02*
X0261966Y0064891D01*
X0261265Y0066693D02*
X0261966Y0067393D01*
X0261966Y0068795D01*
X0261265Y0069495D01*
X0260565Y0069495D01*
X0259864Y0068795D01*
X0259864Y0067393D01*
X0259164Y0066693D01*
X0258463Y0066693D01*
X0257762Y0067393D01*
X0257762Y0068795D01*
X0258463Y0069495D01*
X0257762Y0071297D02*
X0257762Y0074099D01*
X0257762Y0072698D02*
X0261966Y0072698D01*
X0269593Y0085118D02*
X0269565Y0092160D01*
X0281435Y0092160D01*
X0281463Y0085118D01*
X0269593Y0085118D01*
X0275500Y0087125D02*
X0274500Y0090025D01*
X0274485Y0089953D02*
X0274328Y0089406D01*
X0276500Y0090025D02*
X0275500Y0087125D01*
X0276672Y0089406D02*
X0276515Y0090031D01*
X0275500Y0094312D02*
X0274500Y0097212D01*
X0274485Y0097140D02*
X0274328Y0096594D01*
X0276500Y0097212D02*
X0275500Y0094312D01*
X0276672Y0096594D02*
X0276515Y0097218D01*
X0281435Y0099347D02*
X0269565Y0099347D01*
X0269593Y0092305D01*
X0281463Y0092305D01*
X0281435Y0099347D01*
X0276625Y0103625D02*
X0274125Y0101125D01*
X0269125Y0101125D01*
X0266625Y0103625D01*
X0266625Y0108625D01*
X0269125Y0111125D01*
X0274125Y0111125D01*
X0276625Y0108625D01*
X0276625Y0103625D01*
X0274125Y0111125D02*
X0284125Y0111125D01*
X0286625Y0113625D01*
X0286625Y0118625D01*
X0284125Y0121125D01*
X0269125Y0121125D01*
X0266625Y0118625D01*
X0266625Y0113625D01*
X0269125Y0111125D01*
X0265376Y0106366D02*
X0263975Y0106366D01*
X0264675Y0106366D02*
X0264675Y0102162D01*
X0263975Y0102162D02*
X0265376Y0102162D01*
X0262173Y0102863D02*
X0262173Y0105665D01*
X0261472Y0106366D01*
X0259371Y0106366D01*
X0259371Y0102162D01*
X0261472Y0102162D01*
X0262173Y0102863D01*
X0257569Y0104264D02*
X0257569Y0105665D01*
X0256869Y0106366D01*
X0254767Y0106366D01*
X0254767Y0102162D01*
X0254767Y0103563D02*
X0256869Y0103563D01*
X0257569Y0104264D01*
X0252965Y0102863D02*
X0252265Y0102162D01*
X0250863Y0102162D01*
X0250163Y0102863D01*
X0250163Y0106366D01*
X0252965Y0106366D02*
X0252965Y0102863D01*
X0239343Y0093959D02*
X0239346Y0087008D01*
X0225997Y0087008D01*
X0225994Y0093959D01*
X0239343Y0093959D01*
X0234687Y0090500D02*
X0233487Y0090500D01*
X0233387Y0089100D02*
X0233387Y0092000D01*
X0232087Y0092000D02*
X0232087Y0089100D01*
X0231987Y0090500D02*
X0230687Y0090500D01*
X0229939Y0109157D02*
X0232742Y0111960D01*
X0232742Y0112660D01*
X0232041Y0113361D01*
X0230640Y0113361D01*
X0229939Y0112660D01*
X0228138Y0113361D02*
X0225335Y0113361D01*
X0225335Y0109157D01*
X0225335Y0111259D02*
X0226737Y0111259D01*
X0223534Y0111259D02*
X0223534Y0112660D01*
X0222833Y0113361D01*
X0220731Y0113361D01*
X0220731Y0109157D01*
X0220731Y0110558D02*
X0222833Y0110558D01*
X0223534Y0111259D01*
X0220719Y0115791D02*
X0236568Y0115791D01*
X0239351Y0120025D02*
X0238650Y0120726D01*
X0239351Y0120025D02*
X0240752Y0120025D01*
X0241452Y0120726D01*
X0241452Y0121426D01*
X0240752Y0122127D01*
X0240051Y0122127D01*
X0240752Y0122127D02*
X0241452Y0122827D01*
X0241452Y0123528D01*
X0240752Y0124229D01*
X0239351Y0124229D01*
X0238650Y0123528D01*
X0236568Y0126416D02*
X0220719Y0126416D01*
X0217155Y0128460D02*
X0212952Y0128460D01*
X0212952Y0131263D01*
X0213652Y0133064D02*
X0212952Y0133765D01*
X0212952Y0135166D01*
X0213652Y0135867D01*
X0214353Y0135867D01*
X0215054Y0135166D01*
X0215754Y0135867D01*
X0216455Y0135867D01*
X0217155Y0135166D01*
X0217155Y0133765D01*
X0216455Y0133064D01*
X0215054Y0134465D02*
X0215054Y0135166D01*
X0215054Y0129862D02*
X0215054Y0128460D01*
X0215054Y0126659D02*
X0213652Y0126659D01*
X0212952Y0125958D01*
X0212952Y0123856D01*
X0217155Y0123856D01*
X0215754Y0123856D02*
X0215754Y0125958D01*
X0215054Y0126659D01*
X0220166Y0131932D02*
X0220166Y0145281D01*
X0227117Y0145284D01*
X0227117Y0131934D01*
X0220166Y0131932D01*
X0223625Y0136625D02*
X0223625Y0137925D01*
X0225025Y0138025D02*
X0222125Y0138025D01*
X0222125Y0139325D02*
X0225025Y0139325D01*
X0223625Y0139425D02*
X0223625Y0140625D01*
X0230166Y0145281D02*
X0237117Y0145284D01*
X0237117Y0131934D01*
X0230166Y0131932D01*
X0230166Y0145281D01*
X0233625Y0140625D02*
X0233625Y0139425D01*
X0235025Y0139325D02*
X0232125Y0139325D01*
X0232125Y0138025D02*
X0235025Y0138025D01*
X0233625Y0137925D02*
X0233625Y0136625D01*
X0243955Y0124229D02*
X0243254Y0123528D01*
X0243955Y0124229D02*
X0245356Y0124229D01*
X0246056Y0123528D01*
X0246056Y0122827D01*
X0243254Y0120025D01*
X0246056Y0120025D01*
X0247858Y0120025D02*
X0247858Y0124229D01*
X0249960Y0122827D02*
X0247858Y0121426D01*
X0249960Y0120025D01*
X0251694Y0120025D02*
X0251694Y0124229D01*
X0251694Y0122127D02*
X0254497Y0122127D01*
X0256298Y0122827D02*
X0259101Y0122827D01*
X0256298Y0120025D01*
X0259101Y0120025D01*
X0254497Y0120025D02*
X0254497Y0124229D01*
X0266625Y0123625D02*
X0266625Y0128625D01*
X0269125Y0131125D01*
X0284125Y0131125D01*
X0286625Y0128625D01*
X0286625Y0123625D01*
X0284125Y0121125D01*
X0284125Y0131125D02*
X0286625Y0133625D01*
X0286625Y0138625D01*
X0284125Y0141125D01*
X0269125Y0141125D01*
X0266625Y0138625D01*
X0266625Y0133625D01*
X0269125Y0131125D01*
X0266625Y0123625D02*
X0269125Y0121125D01*
X0268782Y0144838D02*
X0268081Y0145539D01*
X0268782Y0144838D02*
X0270183Y0144838D01*
X0270883Y0145539D01*
X0270883Y0146239D01*
X0270183Y0146940D01*
X0268782Y0146940D01*
X0268081Y0147640D01*
X0268081Y0148341D01*
X0268782Y0149042D01*
X0270183Y0149042D01*
X0270883Y0148341D01*
X0272685Y0149042D02*
X0274787Y0149042D01*
X0275487Y0148341D01*
X0275487Y0146940D01*
X0274787Y0146239D01*
X0272685Y0146239D01*
X0272685Y0144838D02*
X0272685Y0149042D01*
X0277289Y0149042D02*
X0278690Y0149042D01*
X0277989Y0149042D02*
X0277989Y0144838D01*
X0277289Y0144838D02*
X0278690Y0144838D01*
X0280358Y0144838D02*
X0283161Y0144838D01*
X0281759Y0144838D02*
X0281759Y0149042D01*
X0280358Y0147640D01*
X0232742Y0109157D02*
X0229939Y0109157D01*
X0206846Y0124821D02*
X0193497Y0124821D01*
X0193494Y0131771D01*
X0206843Y0131771D01*
X0206846Y0124821D01*
X0202187Y0128312D02*
X0200987Y0128312D01*
X0200887Y0126912D02*
X0200887Y0129812D01*
X0199587Y0129812D02*
X0199587Y0126912D01*
X0199487Y0128312D02*
X0198187Y0128312D01*
X0193497Y0132633D02*
X0206846Y0132633D01*
X0206843Y0139584D01*
X0193494Y0139584D01*
X0193497Y0132633D01*
X0198187Y0136125D02*
X0199487Y0136125D01*
X0199587Y0134725D02*
X0199587Y0137625D01*
X0200887Y0137625D02*
X0200887Y0134725D01*
X0200987Y0136125D02*
X0202187Y0136125D01*
X0118570Y0097080D02*
X0114366Y0097080D01*
X0114366Y0095679D02*
X0114366Y0098481D01*
X0114366Y0093877D02*
X0117869Y0093877D01*
X0118570Y0093177D01*
X0118570Y0091776D01*
X0117869Y0091075D01*
X0114366Y0091075D01*
X0115067Y0089273D02*
X0114366Y0088573D01*
X0114366Y0087172D01*
X0115067Y0086471D01*
X0117869Y0086471D01*
X0118570Y0087172D01*
X0118570Y0088573D01*
X0117869Y0089273D01*
X0115067Y0089273D01*
X0042994Y0187150D02*
X0042994Y0191354D01*
X0040191Y0191354D02*
X0042994Y0187150D01*
X0040191Y0187150D02*
X0040191Y0191354D01*
X0038390Y0190653D02*
X0037689Y0191354D01*
X0036288Y0191354D01*
X0035588Y0190653D01*
X0035588Y0187851D01*
X0036288Y0187150D01*
X0037689Y0187150D01*
X0038390Y0187851D01*
X0038390Y0190653D01*
X0022818Y0184905D02*
X0022818Y0202621D01*
X0085810Y0202621D01*
X0072536Y0218712D02*
X0069734Y0218712D01*
X0069734Y0222916D01*
X0059560Y0217785D02*
X0047690Y0217785D01*
X0047718Y0210743D01*
X0059588Y0210743D01*
X0059560Y0217785D01*
X0054640Y0215656D02*
X0054797Y0215031D01*
X0054625Y0215650D02*
X0053625Y0212750D01*
X0052625Y0215650D01*
X0052610Y0215578D02*
X0052453Y0215031D01*
X0149625Y0213625D02*
X0149625Y0218625D01*
X0159625Y0218625D02*
X0159625Y0213625D01*
X0179625Y0213625D02*
X0179625Y0218625D01*
X0196125Y0218625D02*
X0196125Y0213625D01*
X0198625Y0211125D01*
X0203625Y0211125D01*
X0206125Y0213625D01*
X0206125Y0218625D01*
X0203625Y0221125D01*
X0198625Y0221125D01*
X0196125Y0218625D01*
X0206125Y0218625D02*
X0208625Y0221125D01*
X0213625Y0221125D01*
X0216125Y0218625D01*
X0218625Y0221125D01*
X0223625Y0221125D01*
X0226125Y0218625D01*
X0228625Y0221125D01*
X0233625Y0221125D01*
X0236125Y0218625D01*
X0238625Y0221125D01*
X0243625Y0221125D01*
X0246125Y0218625D01*
X0248625Y0221125D01*
X0253625Y0221125D01*
X0256125Y0218625D01*
X0258625Y0221125D01*
X0263625Y0221125D01*
X0266125Y0218625D01*
X0268625Y0221125D01*
X0273625Y0221125D01*
X0276125Y0218625D01*
X0276125Y0213625D01*
X0273625Y0211125D01*
X0268625Y0211125D01*
X0266125Y0213625D01*
X0263625Y0211125D01*
X0258625Y0211125D01*
X0256125Y0213625D01*
X0256125Y0218625D01*
X0256125Y0213625D02*
X0253625Y0211125D01*
X0248625Y0211125D01*
X0246125Y0213625D01*
X0243625Y0211125D01*
X0238625Y0211125D01*
X0236125Y0213625D01*
X0233625Y0211125D01*
X0228625Y0211125D01*
X0226125Y0213625D01*
X0226125Y0218625D01*
X0226125Y0213625D02*
X0223625Y0211125D01*
X0218625Y0211125D01*
X0216125Y0213625D01*
X0213625Y0211125D01*
X0208625Y0211125D01*
X0206125Y0213625D01*
X0216125Y0213625D02*
X0216125Y0218625D01*
X0236125Y0218625D02*
X0236125Y0213625D01*
X0246125Y0213625D02*
X0246125Y0218625D01*
X0266125Y0218625D02*
X0266125Y0213625D01*
D12*
X0265436Y0208921D02*
X0265436Y0205785D01*
X0265436Y0207353D02*
X0260732Y0207353D01*
X0262300Y0205785D01*
X0255436Y0205785D02*
X0252300Y0208921D01*
X0251516Y0208921D01*
X0250732Y0208137D01*
X0250732Y0206569D01*
X0251516Y0205785D01*
X0255436Y0205785D02*
X0255436Y0208921D01*
X0245436Y0208137D02*
X0245436Y0206569D01*
X0244652Y0205785D01*
X0243084Y0207353D02*
X0243084Y0208137D01*
X0243868Y0208921D01*
X0244652Y0208921D01*
X0245436Y0208137D01*
X0243084Y0208137D02*
X0242300Y0208921D01*
X0241516Y0208921D01*
X0240732Y0208137D01*
X0240732Y0206569D01*
X0241516Y0205785D01*
X0235436Y0208137D02*
X0230732Y0208137D01*
X0233084Y0205785D01*
X0233084Y0208921D01*
X0225436Y0208137D02*
X0225436Y0206569D01*
X0224652Y0205785D01*
X0223084Y0205785D02*
X0222300Y0207353D01*
X0222300Y0208137D01*
X0223084Y0208921D01*
X0224652Y0208921D01*
X0225436Y0208137D01*
X0223084Y0205785D02*
X0220732Y0205785D01*
X0220732Y0208921D01*
X0215436Y0208137D02*
X0215436Y0206569D01*
X0214652Y0205785D01*
X0213084Y0205785D01*
X0213084Y0208137D01*
X0213868Y0208921D01*
X0214652Y0208921D01*
X0215436Y0208137D01*
X0213084Y0205785D02*
X0211516Y0207353D01*
X0210732Y0208921D01*
X0205436Y0205785D02*
X0204652Y0205785D01*
X0201516Y0208921D01*
X0200732Y0208921D01*
X0200732Y0205785D01*
X0201327Y0202088D02*
X0201327Y0201304D01*
X0201327Y0199736D02*
X0201327Y0196600D01*
X0200543Y0196600D02*
X0202111Y0196600D01*
X0204765Y0197384D02*
X0205549Y0196600D01*
X0204765Y0197384D02*
X0204765Y0200520D01*
X0203981Y0199736D02*
X0205549Y0199736D01*
X0208202Y0199736D02*
X0209770Y0199736D01*
X0210554Y0198952D01*
X0210554Y0196600D01*
X0208202Y0196600D01*
X0207418Y0197384D01*
X0208202Y0198168D01*
X0210554Y0198168D01*
X0212575Y0196600D02*
X0214143Y0196600D01*
X0213359Y0196600D02*
X0213359Y0201304D01*
X0212575Y0201304D01*
X0201327Y0199736D02*
X0200543Y0199736D01*
X0198523Y0199736D02*
X0196171Y0199736D01*
X0195387Y0198952D01*
X0195387Y0197384D01*
X0196171Y0196600D01*
X0198523Y0196600D01*
X0198523Y0195816D02*
X0198523Y0199736D01*
X0198523Y0195816D02*
X0197739Y0195032D01*
X0196955Y0195032D01*
X0193517Y0196600D02*
X0191949Y0196600D01*
X0192733Y0196600D02*
X0192733Y0199736D01*
X0191949Y0199736D01*
X0192733Y0201304D02*
X0192733Y0202088D01*
X0189929Y0200520D02*
X0189929Y0197384D01*
X0189145Y0196600D01*
X0186793Y0196600D01*
X0186793Y0201304D01*
X0189145Y0201304D01*
X0189929Y0200520D01*
X0188652Y0205785D02*
X0187868Y0205785D01*
X0187084Y0206569D01*
X0187084Y0208137D01*
X0187868Y0208921D01*
X0188652Y0208921D01*
X0189436Y0208137D01*
X0189436Y0206569D01*
X0188652Y0205785D01*
X0187084Y0206569D02*
X0186300Y0205785D01*
X0185516Y0205785D01*
X0184732Y0206569D01*
X0184732Y0208137D01*
X0185516Y0208921D01*
X0186300Y0208921D01*
X0187084Y0208137D01*
X0179436Y0208137D02*
X0179436Y0206569D01*
X0178652Y0205785D01*
X0177084Y0206569D02*
X0177084Y0208921D01*
X0178652Y0208921D02*
X0175516Y0208921D01*
X0174732Y0208137D01*
X0174732Y0206569D01*
X0175516Y0205785D01*
X0176300Y0205785D01*
X0177084Y0206569D01*
X0179436Y0208137D02*
X0178652Y0208921D01*
X0169436Y0208137D02*
X0169436Y0206569D01*
X0168652Y0205785D01*
X0165516Y0208921D01*
X0168652Y0208921D01*
X0169436Y0208137D01*
X0168652Y0205785D02*
X0165516Y0205785D01*
X0164732Y0206569D01*
X0164732Y0208137D01*
X0165516Y0208921D01*
X0159436Y0208921D02*
X0159436Y0205785D01*
X0159436Y0207353D02*
X0154732Y0207353D01*
X0156300Y0205785D01*
X0159436Y0203765D02*
X0159436Y0200629D01*
X0159436Y0202197D02*
X0154732Y0202197D01*
X0156300Y0200629D01*
X0149436Y0200629D02*
X0149436Y0203765D01*
X0149436Y0202197D02*
X0144732Y0202197D01*
X0146300Y0200629D01*
X0145516Y0205785D02*
X0144732Y0206569D01*
X0144732Y0208137D01*
X0145516Y0208921D01*
X0146300Y0208921D01*
X0149436Y0205785D01*
X0149436Y0208921D01*
X0139436Y0208137D02*
X0139436Y0206569D01*
X0138652Y0205785D01*
X0139436Y0203765D02*
X0139436Y0200629D01*
X0139436Y0202197D02*
X0134732Y0202197D01*
X0136300Y0200629D01*
X0135516Y0205785D02*
X0134732Y0206569D01*
X0134732Y0208137D01*
X0135516Y0208921D01*
X0136300Y0208921D01*
X0137084Y0208137D01*
X0137868Y0208921D01*
X0138652Y0208921D01*
X0139436Y0208137D01*
X0137084Y0208137D02*
X0137084Y0207353D01*
X0164732Y0202197D02*
X0169436Y0202197D01*
X0169436Y0200629D02*
X0169436Y0203765D01*
X0166300Y0200629D02*
X0164732Y0202197D01*
X0270732Y0206569D02*
X0270732Y0208137D01*
X0271516Y0208921D01*
X0274652Y0205785D01*
X0275436Y0206569D01*
X0275436Y0208137D01*
X0274652Y0208921D01*
X0271516Y0208921D01*
X0270732Y0206569D02*
X0271516Y0205785D01*
X0274652Y0205785D01*
X0258784Y0042229D02*
X0257216Y0042229D01*
X0256432Y0041445D01*
X0256432Y0038309D01*
X0257216Y0037525D01*
X0258784Y0037525D01*
X0259568Y0038309D01*
X0259568Y0039877D01*
X0258000Y0039877D01*
X0259568Y0041445D02*
X0258784Y0042229D01*
X0254412Y0041445D02*
X0254412Y0038309D01*
X0253628Y0037525D01*
X0252060Y0037525D01*
X0251276Y0038309D01*
X0251276Y0041445D01*
X0252060Y0042229D01*
X0253628Y0042229D01*
X0254412Y0041445D01*
X0249255Y0037525D02*
X0246119Y0037525D01*
X0246119Y0042229D01*
X0244099Y0040661D02*
X0244099Y0037525D01*
X0244099Y0039877D02*
X0240963Y0039877D01*
X0240963Y0040661D02*
X0240963Y0037525D01*
X0238942Y0037525D02*
X0238942Y0042229D01*
X0240963Y0040661D02*
X0242531Y0042229D01*
X0244099Y0040661D01*
X0238942Y0037525D02*
X0235806Y0042229D01*
X0235806Y0037525D01*
X0233786Y0037525D02*
X0233786Y0040661D01*
X0232218Y0042229D01*
X0230650Y0040661D01*
X0230650Y0037525D01*
X0230650Y0039877D02*
X0233786Y0039877D01*
X0222970Y0037707D02*
X0222970Y0034571D01*
X0222186Y0033787D01*
X0220618Y0033787D01*
X0219834Y0034571D01*
X0222970Y0037707D01*
X0222186Y0038491D01*
X0220618Y0038491D01*
X0219834Y0037707D01*
X0219834Y0034571D01*
X0270475Y0035215D02*
X0271259Y0034431D01*
X0272827Y0034431D01*
X0273611Y0035215D01*
X0273611Y0035999D01*
X0272827Y0036783D01*
X0270475Y0036783D01*
X0270475Y0035215D01*
X0270475Y0036783D02*
X0272043Y0038351D01*
X0273611Y0039135D01*
D13*
X0236857Y0069895D02*
X0236857Y0072164D01*
X0236290Y0072731D01*
X0235155Y0072731D01*
X0234588Y0072164D01*
X0234588Y0071597D01*
X0235155Y0071030D01*
X0236857Y0071030D01*
X0236857Y0069895D02*
X0236290Y0069328D01*
X0235155Y0069328D01*
X0234588Y0069895D01*
X0233174Y0069895D02*
X0232606Y0069328D01*
X0231472Y0069328D01*
X0230905Y0069895D01*
X0233174Y0072164D01*
X0233174Y0069895D01*
X0233174Y0072164D02*
X0232606Y0072731D01*
X0231472Y0072731D01*
X0230905Y0072164D01*
X0230905Y0069895D01*
X0229490Y0069895D02*
X0229490Y0070462D01*
X0228923Y0071030D01*
X0227789Y0071030D01*
X0227222Y0071597D01*
X0227222Y0072164D01*
X0227789Y0072731D01*
X0228923Y0072731D01*
X0229490Y0072164D01*
X0229490Y0071597D01*
X0228923Y0071030D01*
X0227789Y0071030D02*
X0227222Y0070462D01*
X0227222Y0069895D01*
X0227789Y0069328D01*
X0228923Y0069328D01*
X0229490Y0069895D01*
X0225807Y0071030D02*
X0223539Y0071030D01*
X0225240Y0072731D01*
X0225240Y0069328D01*
X0222124Y0069328D02*
X0222124Y0071597D01*
X0220990Y0072731D01*
X0219856Y0071597D01*
X0219856Y0069328D01*
X0218441Y0069895D02*
X0218441Y0071030D01*
X0217307Y0071030D01*
X0218441Y0072164D02*
X0217874Y0072731D01*
X0216740Y0072731D01*
X0216172Y0072164D01*
X0216172Y0069895D01*
X0216740Y0069328D01*
X0217874Y0069328D01*
X0218441Y0069895D01*
X0219856Y0071030D02*
X0222124Y0071030D01*
X0214758Y0072731D02*
X0212489Y0072731D01*
X0212489Y0069328D01*
X0214758Y0069328D01*
X0213624Y0071030D02*
X0212489Y0071030D01*
X0211075Y0072731D02*
X0211075Y0069328D01*
X0208806Y0069328D02*
X0208806Y0072731D01*
X0209940Y0071597D01*
X0211075Y0072731D01*
X0207392Y0072731D02*
X0205123Y0072731D01*
X0206257Y0072731D02*
X0206257Y0069328D01*
X0203708Y0069328D02*
X0203708Y0071597D01*
X0202574Y0072731D01*
X0201440Y0071597D01*
X0201440Y0069328D01*
X0201440Y0071030D02*
X0203708Y0071030D01*
X0189919Y0035771D02*
X0188217Y0035771D01*
X0188217Y0032368D01*
X0189919Y0032368D01*
X0190486Y0032935D01*
X0190486Y0035203D01*
X0189919Y0035771D01*
X0186803Y0035771D02*
X0186803Y0032368D01*
X0184534Y0035771D01*
X0184534Y0032368D01*
X0183120Y0032935D02*
X0183120Y0034069D01*
X0181985Y0034069D01*
X0180851Y0032935D02*
X0181418Y0032368D01*
X0182552Y0032368D01*
X0183120Y0032935D01*
X0183120Y0035203D02*
X0182552Y0035771D01*
X0181418Y0035771D01*
X0180851Y0035203D01*
X0180851Y0032935D01*
X0254181Y0086362D02*
X0256450Y0086362D01*
X0255316Y0086362D02*
X0255316Y0089765D01*
X0254181Y0088631D01*
X0257864Y0089198D02*
X0257864Y0086930D01*
X0260133Y0089198D01*
X0260133Y0086930D01*
X0259566Y0086362D01*
X0258432Y0086362D01*
X0257864Y0086930D01*
X0257864Y0089198D02*
X0258432Y0089765D01*
X0259566Y0089765D01*
X0260133Y0089198D01*
X0261548Y0089198D02*
X0261548Y0086930D01*
X0263816Y0089198D01*
X0263816Y0086930D01*
X0263249Y0086362D01*
X0262115Y0086362D01*
X0261548Y0086930D01*
X0261548Y0089198D02*
X0262115Y0089765D01*
X0263249Y0089765D01*
X0263816Y0089198D01*
X0265231Y0089765D02*
X0265231Y0086362D01*
X0265231Y0087497D02*
X0266932Y0088631D01*
X0265231Y0087497D02*
X0266932Y0086362D01*
X0266307Y0093237D02*
X0264606Y0094372D01*
X0266307Y0095506D01*
X0264606Y0096640D02*
X0264606Y0093237D01*
X0263191Y0093805D02*
X0263191Y0096073D01*
X0260923Y0093805D01*
X0261490Y0093237D01*
X0262624Y0093237D01*
X0263191Y0093805D01*
X0263191Y0096073D02*
X0262624Y0096640D01*
X0261490Y0096640D01*
X0260923Y0096073D01*
X0260923Y0093805D01*
X0259508Y0093237D02*
X0257239Y0093237D01*
X0258374Y0093237D02*
X0258374Y0096640D01*
X0257239Y0095506D01*
X0230722Y0145888D02*
X0230722Y0149291D01*
X0232424Y0149291D01*
X0232991Y0148724D01*
X0232991Y0147590D01*
X0232424Y0147022D01*
X0230722Y0147022D01*
X0229308Y0147590D02*
X0228741Y0147022D01*
X0227606Y0147022D01*
X0227039Y0147590D01*
X0229308Y0149858D01*
X0229308Y0147590D01*
X0229308Y0149858D02*
X0228741Y0150425D01*
X0227606Y0150425D01*
X0227039Y0149858D01*
X0227039Y0147590D01*
X0225625Y0147022D02*
X0223356Y0147022D01*
X0225625Y0149291D01*
X0225625Y0149858D01*
X0225058Y0150425D01*
X0223923Y0150425D01*
X0223356Y0149858D01*
X0192561Y0138018D02*
X0192561Y0137451D01*
X0190292Y0135182D01*
X0190292Y0134615D01*
X0188877Y0134615D02*
X0188877Y0136884D01*
X0190292Y0138018D02*
X0192561Y0138018D01*
X0188877Y0134615D02*
X0187176Y0134615D01*
X0186609Y0135182D01*
X0186609Y0136884D01*
X0185194Y0136316D02*
X0182926Y0136316D01*
X0184627Y0138018D01*
X0184627Y0134615D01*
X0098082Y0133942D02*
X0097515Y0134509D01*
X0094679Y0134509D01*
X0095246Y0135924D02*
X0095814Y0135924D01*
X0096381Y0136491D01*
X0096381Y0137625D01*
X0096948Y0138192D01*
X0097515Y0138192D01*
X0098082Y0137625D01*
X0098082Y0136491D01*
X0097515Y0135924D01*
X0098082Y0133942D02*
X0098082Y0132808D01*
X0097515Y0132240D01*
X0094679Y0132240D01*
X0095246Y0135924D02*
X0094679Y0136491D01*
X0094679Y0137625D01*
X0095246Y0138192D01*
X0094679Y0139607D02*
X0094679Y0141308D01*
X0095246Y0141875D01*
X0095814Y0141875D01*
X0096381Y0141308D01*
X0096381Y0139607D01*
X0096381Y0141308D02*
X0096948Y0141875D01*
X0097515Y0141875D01*
X0098082Y0141308D01*
X0098082Y0139607D01*
X0094679Y0139607D01*
X0095246Y0143290D02*
X0094679Y0143857D01*
X0094679Y0144991D01*
X0095246Y0145558D01*
X0095814Y0145558D01*
X0096381Y0144991D01*
X0096948Y0145558D01*
X0097515Y0145558D01*
X0098082Y0144991D01*
X0098082Y0143857D01*
X0097515Y0143290D01*
X0096381Y0144424D02*
X0096381Y0144991D01*
X0096948Y0146973D02*
X0098082Y0148107D01*
X0096948Y0149242D01*
X0094679Y0149242D01*
X0094679Y0146973D02*
X0096948Y0146973D01*
D14*
X0088646Y0053615D03*
D15*
X0097866Y0156770D03*
D16*
X0029526Y0026518D02*
X0029526Y0020613D01*
X0029526Y0022581D02*
X0032479Y0022581D01*
X0033463Y0023565D01*
X0033463Y0025533D01*
X0032479Y0026518D01*
X0029526Y0026518D01*
X0035971Y0026518D02*
X0035971Y0020613D01*
X0037940Y0022581D01*
X0039908Y0020613D01*
X0039908Y0026518D01*
X0042417Y0026518D02*
X0045370Y0026518D01*
X0046354Y0025533D01*
X0046354Y0023565D01*
X0045370Y0022581D01*
X0042417Y0022581D01*
X0044385Y0022581D02*
X0046354Y0020613D01*
X0042417Y0020613D02*
X0042417Y0026518D01*
X0101075Y0052451D02*
X0105012Y0052451D01*
X0103044Y0054419D02*
X0103044Y0050482D01*
X0116705Y0053076D02*
X0120642Y0053076D01*
X0118674Y0055044D02*
X0118674Y0051107D01*
X0133366Y0062986D02*
X0133366Y0066923D01*
X0131398Y0064955D02*
X0135334Y0064955D01*
X0147028Y0065267D02*
X0150964Y0065267D01*
X0148996Y0067235D02*
X0148996Y0063299D01*
X0069166Y0082628D02*
X0065230Y0082628D01*
D17*
X0040269Y0180500D03*
X0070106Y0214250D03*
D18*
X0138286Y0199492D02*
X0140286Y0197492D01*
X0182286Y0197492D01*
X0174887Y0175719D02*
X0171113Y0175719D01*
X0170334Y0169838D01*
X0168529Y0169360D01*
X0166803Y0168645D01*
X0165188Y0167707D01*
X0160479Y0171314D01*
X0157811Y0168646D01*
X0161418Y0163937D01*
X0160480Y0162322D01*
X0159765Y0160596D01*
X0159287Y0158791D01*
X0153406Y0158012D01*
X0153406Y0154238D01*
X0159287Y0153459D01*
X0159765Y0151654D01*
X0160480Y0149928D01*
X0161418Y0148313D01*
X0157811Y0143604D01*
X0160479Y0140936D01*
X0165188Y0144543D01*
X0166549Y0143733D01*
X0170068Y0150492D01*
X0169229Y0151016D01*
X0168482Y0151663D01*
X0167844Y0152418D01*
X0167331Y0153263D01*
X0166956Y0154178D01*
X0166727Y0155139D01*
X0166650Y0156125D01*
X0166741Y0157195D01*
X0167011Y0158234D01*
X0167452Y0159213D01*
X0168051Y0160104D01*
X0168792Y0160881D01*
X0169654Y0161522D01*
X0170611Y0162008D01*
X0171636Y0162327D01*
X0172701Y0162468D01*
X0173774Y0162428D01*
X0174825Y0162207D01*
X0175823Y0161813D01*
X0176741Y0161256D01*
X0177552Y0160552D01*
X0178233Y0159722D01*
X0178764Y0158789D01*
X0179131Y0157779D01*
X0179322Y0156723D01*
X0179332Y0155649D01*
X0179161Y0154589D01*
X0178814Y0153573D01*
X0178301Y0152629D01*
X0177637Y0151786D01*
X0176839Y0151067D01*
X0175932Y0150492D01*
X0179451Y0143733D01*
X0180812Y0144543D01*
X0185521Y0140936D01*
X0188189Y0143604D01*
X0184582Y0148313D01*
X0185520Y0149928D01*
X0186235Y0151654D01*
X0186713Y0153459D01*
X0192594Y0154238D01*
X0192594Y0158012D01*
X0186713Y0158791D01*
X0186235Y0160596D01*
X0185520Y0162322D01*
X0184582Y0163937D01*
X0188189Y0168646D01*
X0185521Y0171314D01*
X0180812Y0167707D01*
X0179197Y0168645D01*
X0177471Y0169360D01*
X0175666Y0169838D01*
X0174887Y0175719D01*
X0174978Y0175030D02*
X0171022Y0175030D01*
X0170814Y0173456D02*
X0175186Y0173456D01*
X0175395Y0171883D02*
X0170605Y0171883D01*
X0170397Y0170310D02*
X0175603Y0170310D01*
X0178977Y0168737D02*
X0167023Y0168737D01*
X0163844Y0168737D02*
X0157901Y0168737D01*
X0158947Y0167163D02*
X0187053Y0167163D01*
X0188099Y0168737D02*
X0182156Y0168737D01*
X0184210Y0170310D02*
X0186526Y0170310D01*
X0185848Y0165590D02*
X0160152Y0165590D01*
X0161357Y0164017D02*
X0184643Y0164017D01*
X0185450Y0162443D02*
X0173359Y0162443D01*
X0172514Y0162443D02*
X0160550Y0162443D01*
X0159878Y0160870D02*
X0168782Y0160870D01*
X0167508Y0159297D02*
X0159421Y0159297D01*
X0153406Y0157723D02*
X0166878Y0157723D01*
X0166652Y0156150D02*
X0153406Y0156150D01*
X0153406Y0154577D02*
X0166861Y0154577D01*
X0167489Y0153003D02*
X0159407Y0153003D01*
X0159857Y0151430D02*
X0168751Y0151430D01*
X0169737Y0149857D02*
X0160521Y0149857D01*
X0161396Y0148283D02*
X0168918Y0148283D01*
X0168099Y0146710D02*
X0160190Y0146710D01*
X0158985Y0145137D02*
X0167280Y0145137D01*
X0163909Y0143563D02*
X0157851Y0143563D01*
X0159424Y0141990D02*
X0161855Y0141990D01*
X0176263Y0149857D02*
X0185479Y0149857D01*
X0186143Y0151430D02*
X0177242Y0151430D01*
X0178505Y0153003D02*
X0186593Y0153003D01*
X0184604Y0148283D02*
X0177082Y0148283D01*
X0177901Y0146710D02*
X0185810Y0146710D01*
X0187015Y0145137D02*
X0178720Y0145137D01*
X0182091Y0143563D02*
X0188149Y0143563D01*
X0186576Y0141990D02*
X0184145Y0141990D01*
X0179157Y0154577D02*
X0192594Y0154577D01*
X0192594Y0156150D02*
X0179327Y0156150D01*
X0179141Y0157723D02*
X0192594Y0157723D01*
X0186579Y0159297D02*
X0178475Y0159297D01*
X0177186Y0160870D02*
X0186122Y0160870D01*
X0161790Y0170310D02*
X0159474Y0170310D01*
X0216786Y0197492D02*
X0271286Y0197492D01*
X0273286Y0199492D01*
X0263013Y0140625D02*
X0263015Y0140722D01*
X0263021Y0140819D01*
X0263031Y0140915D01*
X0263045Y0141011D01*
X0263063Y0141107D01*
X0263084Y0141201D01*
X0263110Y0141295D01*
X0263139Y0141387D01*
X0263173Y0141478D01*
X0263209Y0141568D01*
X0263250Y0141656D01*
X0263294Y0141742D01*
X0263342Y0141827D01*
X0263393Y0141909D01*
X0263447Y0141990D01*
X0263505Y0142068D01*
X0263566Y0142143D01*
X0263629Y0142216D01*
X0263696Y0142287D01*
X0263766Y0142354D01*
X0263838Y0142419D01*
X0263913Y0142480D01*
X0263991Y0142539D01*
X0264070Y0142594D01*
X0264152Y0142646D01*
X0264236Y0142694D01*
X0264322Y0142739D01*
X0264410Y0142781D01*
X0264499Y0142819D01*
X0264590Y0142853D01*
X0264682Y0142883D01*
X0264775Y0142910D01*
X0264870Y0142932D01*
X0264965Y0142951D01*
X0265061Y0142966D01*
X0265157Y0142977D01*
X0265254Y0142984D01*
X0265351Y0142987D01*
X0265448Y0142986D01*
X0265545Y0142981D01*
X0265641Y0142972D01*
X0265737Y0142959D01*
X0265833Y0142942D01*
X0265928Y0142921D01*
X0266021Y0142897D01*
X0266114Y0142868D01*
X0266206Y0142836D01*
X0266296Y0142800D01*
X0266384Y0142761D01*
X0266471Y0142717D01*
X0266556Y0142671D01*
X0266639Y0142620D01*
X0266720Y0142567D01*
X0266798Y0142510D01*
X0266875Y0142450D01*
X0266948Y0142387D01*
X0267019Y0142321D01*
X0267087Y0142252D01*
X0267153Y0142180D01*
X0267215Y0142106D01*
X0267274Y0142029D01*
X0267330Y0141950D01*
X0267383Y0141868D01*
X0267433Y0141785D01*
X0267478Y0141699D01*
X0267521Y0141612D01*
X0267560Y0141523D01*
X0267595Y0141433D01*
X0267626Y0141341D01*
X0267653Y0141248D01*
X0267677Y0141154D01*
X0267697Y0141059D01*
X0267713Y0140963D01*
X0267725Y0140867D01*
X0267733Y0140770D01*
X0267737Y0140673D01*
X0267737Y0140577D01*
X0267733Y0140480D01*
X0267725Y0140383D01*
X0267713Y0140287D01*
X0267697Y0140191D01*
X0267677Y0140096D01*
X0267653Y0140002D01*
X0267626Y0139909D01*
X0267595Y0139817D01*
X0267560Y0139727D01*
X0267521Y0139638D01*
X0267478Y0139551D01*
X0267433Y0139465D01*
X0267383Y0139382D01*
X0267330Y0139300D01*
X0267274Y0139221D01*
X0267215Y0139144D01*
X0267153Y0139070D01*
X0267087Y0138998D01*
X0267019Y0138929D01*
X0266948Y0138863D01*
X0266875Y0138800D01*
X0266798Y0138740D01*
X0266720Y0138683D01*
X0266639Y0138630D01*
X0266556Y0138579D01*
X0266471Y0138533D01*
X0266384Y0138489D01*
X0266296Y0138450D01*
X0266206Y0138414D01*
X0266114Y0138382D01*
X0266021Y0138353D01*
X0265928Y0138329D01*
X0265833Y0138308D01*
X0265737Y0138291D01*
X0265641Y0138278D01*
X0265545Y0138269D01*
X0265448Y0138264D01*
X0265351Y0138263D01*
X0265254Y0138266D01*
X0265157Y0138273D01*
X0265061Y0138284D01*
X0264965Y0138299D01*
X0264870Y0138318D01*
X0264775Y0138340D01*
X0264682Y0138367D01*
X0264590Y0138397D01*
X0264499Y0138431D01*
X0264410Y0138469D01*
X0264322Y0138511D01*
X0264236Y0138556D01*
X0264152Y0138604D01*
X0264070Y0138656D01*
X0263991Y0138711D01*
X0263913Y0138770D01*
X0263838Y0138831D01*
X0263766Y0138896D01*
X0263696Y0138963D01*
X0263629Y0139034D01*
X0263566Y0139107D01*
X0263505Y0139182D01*
X0263447Y0139260D01*
X0263393Y0139341D01*
X0263342Y0139423D01*
X0263294Y0139508D01*
X0263250Y0139594D01*
X0263209Y0139682D01*
X0263173Y0139772D01*
X0263139Y0139863D01*
X0263110Y0139955D01*
X0263084Y0140049D01*
X0263063Y0140143D01*
X0263045Y0140239D01*
X0263031Y0140335D01*
X0263021Y0140431D01*
X0263015Y0140528D01*
X0263013Y0140625D01*
D19*
X0275500Y0069251D03*
D20*
X0276103Y0179575D02*
X0272796Y0179575D01*
X0271143Y0181228D01*
X0272796Y0184535D02*
X0277756Y0184535D01*
X0277756Y0187841D02*
X0277756Y0181228D01*
X0276103Y0179575D01*
X0272796Y0184535D02*
X0271143Y0186188D01*
X0271143Y0187841D01*
X0272796Y0189495D01*
X0276103Y0189495D01*
X0277756Y0187841D01*
X0266880Y0187841D02*
X0266880Y0181228D01*
X0265227Y0179575D01*
X0261921Y0179575D01*
X0260267Y0181228D01*
X0266880Y0187841D01*
X0265227Y0189495D01*
X0261921Y0189495D01*
X0260267Y0187841D01*
X0260267Y0181228D01*
X0256005Y0181228D02*
X0254352Y0179575D01*
X0251045Y0179575D01*
X0249392Y0181228D01*
X0249392Y0182881D01*
X0251045Y0184535D01*
X0254352Y0184535D01*
X0256005Y0182881D01*
X0256005Y0181228D01*
X0254352Y0184535D02*
X0256005Y0186188D01*
X0256005Y0187841D01*
X0254352Y0189495D01*
X0251045Y0189495D01*
X0249392Y0187841D01*
X0249392Y0186188D01*
X0251045Y0184535D01*
X0245130Y0184535D02*
X0238517Y0184535D01*
X0243476Y0189495D01*
X0243476Y0179575D01*
X0223379Y0181228D02*
X0223379Y0184535D01*
X0221725Y0186188D01*
X0218419Y0186188D01*
X0216766Y0184535D01*
X0216766Y0181228D01*
X0218419Y0179575D01*
X0221725Y0179575D01*
X0223379Y0181228D01*
X0212503Y0179575D02*
X0212503Y0184535D01*
X0210850Y0186188D01*
X0205890Y0186188D01*
X0205890Y0179575D01*
X0201947Y0179575D02*
X0198640Y0179575D01*
X0200293Y0179575D02*
X0200293Y0186188D01*
X0198640Y0186188D01*
X0200293Y0189495D02*
X0200293Y0191148D01*
X0194378Y0186188D02*
X0194378Y0179575D01*
X0189418Y0179575D01*
X0187765Y0181228D01*
X0187765Y0186188D01*
X0183502Y0186188D02*
X0178542Y0186188D01*
X0176889Y0184535D01*
X0176889Y0181228D01*
X0178542Y0179575D01*
X0183502Y0179575D01*
X0183502Y0189495D01*
X0172627Y0184535D02*
X0172627Y0182881D01*
X0166014Y0182881D01*
X0166014Y0181228D02*
X0166014Y0184535D01*
X0167667Y0186188D01*
X0170973Y0186188D01*
X0172627Y0184535D01*
X0170973Y0179575D02*
X0167667Y0179575D01*
X0166014Y0181228D01*
X0161751Y0182881D02*
X0155138Y0182881D01*
X0155138Y0181228D02*
X0155138Y0184535D01*
X0156792Y0186188D01*
X0160098Y0186188D01*
X0161751Y0184535D01*
X0161751Y0182881D01*
X0160098Y0179575D02*
X0156792Y0179575D01*
X0155138Y0181228D01*
X0151035Y0186188D02*
X0149382Y0186188D01*
X0146075Y0182881D01*
X0146075Y0179575D02*
X0146075Y0186188D01*
X0141813Y0189495D02*
X0135200Y0189495D01*
X0135200Y0179575D01*
X0135200Y0184535D02*
X0138506Y0184535D01*
M02*
