G75*
%MOIN*%
%OFA0B0*%
%FSLAX25Y25*%
%IPPOS*%
%LPD*%
%AMOC8*
5,1,8,0,0,1.08239X$1,22.5*
%
%ADD10C,0.00800*%
%ADD11C,0.06140*%
%ADD12R,0.03600X0.05500*%
%ADD13C,0.05746*%
%ADD14OC8,0.15748*%
%ADD15C,0.07677*%
%ADD16R,0.06337X0.06337*%
%ADD17C,0.06337*%
%ADD18C,0.04762*%
%ADD19OC8,0.06140*%
%ADD20C,0.07000*%
%ADD21R,0.07000X0.07000*%
%ADD22C,0.05550*%
%ADD23OC8,0.06400*%
%ADD24C,0.06400*%
%ADD25R,0.05500X0.03600*%
%ADD26R,0.06299X0.07087*%
%ADD27R,0.07087X0.06299*%
%ADD28C,0.00787*%
%ADD29C,0.03962*%
%ADD30C,0.03569*%
%ADD31C,0.06496*%
%ADD32C,0.16598*%
%ADD33C,0.05000*%
%ADD34C,0.03937*%
%ADD35C,0.02362*%
%ADD36C,0.03150*%
%ADD37C,0.04750*%
%ADD38C,0.05000*%
%ADD39C,0.00900*%
D10*
X0081125Y0146125D02*
X0089875Y0146125D01*
X0068865Y0212213D02*
X0067464Y0213614D01*
X0066063Y0212213D01*
X0066063Y0216416D01*
X0064261Y0214314D02*
X0063561Y0215015D01*
X0062160Y0215015D01*
X0061459Y0214314D01*
X0061459Y0213614D01*
X0064261Y0213614D01*
X0064261Y0214314D02*
X0064261Y0212913D01*
X0063561Y0212213D01*
X0062160Y0212213D01*
X0059658Y0212213D02*
X0057556Y0212213D01*
X0056855Y0212913D01*
X0057556Y0213614D01*
X0058957Y0213614D01*
X0059658Y0214314D01*
X0058957Y0215015D01*
X0056855Y0215015D01*
X0055054Y0215015D02*
X0053652Y0215015D01*
X0054353Y0215716D02*
X0054353Y0212913D01*
X0053652Y0212213D01*
X0051284Y0212213D02*
X0051284Y0215716D01*
X0050583Y0216416D01*
X0048915Y0216416D02*
X0048915Y0212213D01*
X0047514Y0213614D01*
X0046113Y0212213D01*
X0046113Y0216416D01*
X0044445Y0218311D02*
X0043744Y0218311D01*
X0043043Y0219012D01*
X0043043Y0222515D01*
X0043043Y0219713D02*
X0045145Y0219713D01*
X0045846Y0220413D01*
X0045846Y0222515D01*
X0047647Y0221814D02*
X0048348Y0222515D01*
X0050450Y0222515D01*
X0050450Y0223916D02*
X0050450Y0219713D01*
X0048348Y0219713D01*
X0047647Y0220413D01*
X0047647Y0221814D01*
X0050583Y0214314D02*
X0051984Y0214314D01*
X0057556Y0219713D02*
X0059658Y0219713D01*
X0059658Y0223916D01*
X0057556Y0223916D01*
X0056855Y0223216D01*
X0056855Y0222515D01*
X0057556Y0221814D01*
X0059658Y0221814D01*
X0057556Y0221814D02*
X0056855Y0221114D01*
X0056855Y0220413D01*
X0057556Y0219713D01*
X0061459Y0220413D02*
X0062160Y0219713D01*
X0063561Y0219713D01*
X0064261Y0220413D01*
X0064261Y0223216D01*
X0063561Y0223916D01*
X0062160Y0223916D01*
X0061459Y0223216D01*
X0066063Y0223216D02*
X0066063Y0221814D01*
X0066764Y0221114D01*
X0068865Y0221114D01*
X0068865Y0219713D02*
X0068865Y0223916D01*
X0066764Y0223916D01*
X0066063Y0223216D01*
X0068865Y0216416D02*
X0068865Y0212213D01*
X0266125Y0111625D02*
X0271625Y0106125D01*
D11*
X0271125Y0027967D02*
X0271125Y0024283D01*
X0261125Y0024283D02*
X0261125Y0027967D01*
X0251125Y0027967D02*
X0251125Y0024283D01*
X0241125Y0024283D02*
X0241125Y0027967D01*
X0231125Y0027967D02*
X0231125Y0024283D01*
X0221125Y0024283D02*
X0221125Y0027967D01*
D12*
X0202213Y0044828D03*
X0193920Y0044828D03*
X0111561Y0034223D03*
X0103268Y0034223D03*
X0047771Y0081750D03*
X0039479Y0081750D03*
D13*
X0131125Y0027904D02*
X0131125Y0024456D01*
X0141125Y0024456D02*
X0141125Y0027904D01*
X0151125Y0027904D02*
X0151125Y0024456D01*
X0161125Y0024456D02*
X0161125Y0027904D01*
X0171125Y0027904D02*
X0171125Y0024456D01*
X0181125Y0024456D02*
X0181125Y0027904D01*
X0191125Y0027904D02*
X0191125Y0024456D01*
X0201125Y0024456D02*
X0201125Y0027904D01*
X0201125Y0214401D02*
X0201125Y0217849D01*
X0211125Y0217849D02*
X0211125Y0214401D01*
X0221125Y0214401D02*
X0221125Y0217849D01*
X0231125Y0217849D02*
X0231125Y0214401D01*
X0241125Y0214401D02*
X0241125Y0217849D01*
X0251125Y0217849D02*
X0251125Y0214401D01*
X0261125Y0214401D02*
X0261125Y0217849D01*
X0271125Y0217849D02*
X0271125Y0214401D01*
X0184625Y0214401D02*
X0184625Y0217849D01*
X0174625Y0217849D02*
X0174625Y0214401D01*
X0164625Y0214401D02*
X0164625Y0217849D01*
X0154625Y0217849D02*
X0154625Y0214401D01*
X0144625Y0214401D02*
X0144625Y0217849D01*
X0134625Y0217849D02*
X0134625Y0214401D01*
X0124625Y0214401D02*
X0124625Y0217849D01*
X0114625Y0217849D02*
X0114625Y0214401D01*
X0104625Y0214401D02*
X0104625Y0217849D01*
X0094625Y0217849D02*
X0094625Y0214401D01*
D14*
X0071125Y0050825D03*
X0047525Y0050825D03*
X0059325Y0031125D03*
D15*
X0056325Y0031125D03*
X0062325Y0031125D03*
X0071125Y0047825D03*
X0071125Y0053825D03*
X0047525Y0053825D03*
X0047525Y0047825D03*
D16*
X0081125Y0196125D03*
D17*
X0081125Y0186125D03*
X0081125Y0176125D03*
X0081125Y0166125D03*
X0081125Y0156125D03*
X0081125Y0146125D03*
X0281125Y0026125D03*
D18*
X0178000Y0057376D03*
X0180500Y0113312D03*
X0180500Y0119875D03*
X0217062Y0119875D03*
X0217062Y0113312D03*
X0118625Y0166125D03*
X0111125Y0166125D03*
X0109875Y0181248D03*
X0109875Y0189496D03*
D19*
X0271625Y0136125D03*
X0281625Y0136125D03*
X0281625Y0126125D03*
X0271625Y0126125D03*
X0271625Y0116125D03*
X0281625Y0116125D03*
D20*
X0146184Y0147060D03*
X0092198Y0119309D03*
X0108782Y0085052D03*
X0092198Y0081907D03*
X0146184Y0085052D03*
X0030190Y0119309D03*
D21*
X0030190Y0081907D03*
X0108782Y0147060D03*
D22*
X0089875Y0146125D03*
D23*
X0271625Y0106125D03*
D24*
X0061125Y0129205D02*
X0061125Y0133045D01*
X0051125Y0134045D02*
X0051125Y0130205D01*
X0041125Y0129205D02*
X0041125Y0133045D01*
D25*
X0060812Y0171979D03*
X0060812Y0180271D03*
X0170499Y0072772D03*
X0170499Y0064479D03*
D26*
X0070699Y0113625D03*
X0059676Y0113625D03*
D27*
X0108625Y0107887D03*
X0108625Y0096863D03*
X0268625Y0087887D03*
X0268625Y0076863D03*
D28*
X0026946Y0021008D02*
X0025575Y0022895D01*
X0024854Y0025114D01*
X0024762Y0026280D01*
X0024762Y0216595D01*
X0024854Y0217761D01*
X0025575Y0219980D01*
X0026946Y0221867D01*
X0028833Y0223238D01*
X0031051Y0223958D01*
X0032218Y0224050D01*
X0041786Y0224050D01*
X0041069Y0223333D01*
X0041069Y0219020D01*
X0041069Y0218194D01*
X0041769Y0217493D01*
X0042926Y0216337D01*
X0044138Y0216337D01*
X0044138Y0211395D01*
X0045295Y0210238D01*
X0046931Y0210238D01*
X0047514Y0210821D01*
X0048097Y0210238D01*
X0049733Y0210238D01*
X0050099Y0210604D01*
X0050466Y0210238D01*
X0052102Y0210238D01*
X0052468Y0210604D01*
X0052834Y0210238D01*
X0054470Y0210238D01*
X0055171Y0210938D01*
X0055604Y0211371D01*
X0056738Y0210238D01*
X0060476Y0210238D01*
X0060909Y0210671D01*
X0061342Y0210238D01*
X0064379Y0210238D01*
X0064812Y0210671D01*
X0065245Y0210238D01*
X0066881Y0210238D01*
X0067464Y0210821D01*
X0068047Y0210238D01*
X0069683Y0210238D01*
X0070840Y0211395D01*
X0070840Y0217234D01*
X0070010Y0218064D01*
X0070840Y0218895D01*
X0070840Y0224050D01*
X0282532Y0224050D01*
X0283699Y0223958D01*
X0285917Y0223238D01*
X0287804Y0221867D01*
X0289175Y0219980D01*
X0289896Y0217761D01*
X0289988Y0216595D01*
X0289988Y0133972D01*
X0286274Y0137686D01*
X0286270Y0137690D01*
X0286270Y0138049D01*
X0283549Y0140770D01*
X0279701Y0140770D01*
X0278775Y0139844D01*
X0278775Y0140379D01*
X0278860Y0141091D01*
X0278775Y0141200D01*
X0278775Y0141339D01*
X0278267Y0141846D01*
X0271900Y0149950D01*
X0271900Y0150089D01*
X0271392Y0150596D01*
X0270949Y0151160D01*
X0270812Y0151177D01*
X0270714Y0151275D01*
X0269996Y0151275D01*
X0269284Y0151360D01*
X0269175Y0151275D01*
X0184661Y0151275D01*
X0152474Y0119087D01*
X0151288Y0117901D01*
X0151288Y0101663D01*
X0150465Y0100840D01*
X0149953Y0099606D01*
X0149953Y0098269D01*
X0150465Y0097035D01*
X0151410Y0096090D01*
X0152644Y0095578D01*
X0153981Y0095578D01*
X0155215Y0096090D01*
X0156160Y0097035D01*
X0156672Y0098269D01*
X0156672Y0099606D01*
X0156160Y0100840D01*
X0155337Y0101663D01*
X0155337Y0116224D01*
X0160350Y0121237D01*
X0160350Y0101758D01*
X0160190Y0101265D01*
X0160350Y0100951D01*
X0160350Y0100599D01*
X0160717Y0100232D01*
X0167475Y0086975D01*
X0167141Y0086168D01*
X0167141Y0084832D01*
X0167652Y0083597D01*
X0168597Y0082652D01*
X0169832Y0082141D01*
X0171168Y0082141D01*
X0172403Y0082652D01*
X0173188Y0083438D01*
X0172766Y0082418D01*
X0172766Y0081082D01*
X0173277Y0079847D01*
X0174222Y0078902D01*
X0175457Y0078391D01*
X0176793Y0078391D01*
X0178028Y0078902D01*
X0178973Y0079847D01*
X0179484Y0081082D01*
X0179484Y0082418D01*
X0178973Y0083653D01*
X0178028Y0084598D01*
X0177837Y0084677D01*
X0177837Y0087483D01*
X0177964Y0088103D01*
X0177837Y0088296D01*
X0177837Y0088526D01*
X0177389Y0088974D01*
X0166900Y0104858D01*
X0166900Y0120911D01*
X0187901Y0141913D01*
X0209674Y0141913D01*
X0206288Y0138526D01*
X0206288Y0108851D01*
X0205465Y0108028D01*
X0205344Y0107735D01*
X0205223Y0108028D01*
X0204278Y0108973D01*
X0203043Y0109484D01*
X0201707Y0109484D01*
X0200472Y0108973D01*
X0200380Y0108881D01*
X0192822Y0108881D01*
X0192726Y0108913D01*
X0192277Y0108881D01*
X0191827Y0108881D01*
X0191734Y0108842D01*
X0191633Y0108835D01*
X0191230Y0108634D01*
X0190814Y0108461D01*
X0190743Y0108390D01*
X0189980Y0108009D01*
X0189564Y0107836D01*
X0189493Y0107765D01*
X0189402Y0107720D01*
X0189107Y0107379D01*
X0188789Y0107061D01*
X0188750Y0106968D01*
X0188684Y0106892D01*
X0188541Y0106464D01*
X0188369Y0106048D01*
X0188369Y0105947D01*
X0188337Y0105851D01*
X0188369Y0105402D01*
X0188369Y0087257D01*
X0183661Y0082549D01*
X0183041Y0081051D01*
X0183041Y0042508D01*
X0181356Y0040823D01*
X0170833Y0040823D01*
X0141294Y0041128D01*
X0141239Y0041149D01*
X0140485Y0041136D01*
X0139732Y0041144D01*
X0139677Y0041122D01*
X0122990Y0040829D01*
X0122766Y0040867D01*
X0054575Y0108449D01*
X0054575Y0110475D01*
X0054951Y0110475D01*
X0054951Y0109429D01*
X0055874Y0108507D01*
X0063478Y0108507D01*
X0064208Y0109238D01*
X0066428Y0109238D01*
X0066434Y0109226D01*
X0066694Y0108966D01*
X0067012Y0108783D01*
X0067366Y0108688D01*
X0070306Y0108688D01*
X0070306Y0113231D01*
X0071093Y0113231D01*
X0071093Y0108688D01*
X0074032Y0108688D01*
X0074387Y0108783D01*
X0074705Y0108966D01*
X0074964Y0109226D01*
X0075148Y0109544D01*
X0075243Y0109898D01*
X0075243Y0113231D01*
X0071093Y0113231D01*
X0071093Y0114019D01*
X0070306Y0114019D01*
X0070306Y0118562D01*
X0067366Y0118562D01*
X0067012Y0118467D01*
X0066694Y0118284D01*
X0066434Y0118024D01*
X0066251Y0117706D01*
X0066166Y0117387D01*
X0064400Y0117387D01*
X0064400Y0117821D01*
X0063478Y0118743D01*
X0055874Y0118743D01*
X0054951Y0117821D01*
X0054951Y0116775D01*
X0054684Y0116775D01*
X0055041Y0127369D01*
X0055173Y0127500D01*
X0055900Y0129255D01*
X0055900Y0134995D01*
X0055173Y0136750D01*
X0053830Y0138093D01*
X0052075Y0138820D01*
X0050175Y0138820D01*
X0048420Y0138093D01*
X0047077Y0136750D01*
X0046350Y0134995D01*
X0046350Y0129255D01*
X0046906Y0127914D01*
X0046452Y0114501D01*
X0046425Y0114436D01*
X0046425Y0113694D01*
X0046400Y0112953D01*
X0046425Y0112886D01*
X0046425Y0107551D01*
X0046422Y0107542D01*
X0046425Y0106741D01*
X0046425Y0105939D01*
X0046429Y0105931D01*
X0046429Y0105921D01*
X0046739Y0105183D01*
X0047046Y0104442D01*
X0047052Y0104435D01*
X0047056Y0104426D01*
X0047625Y0103862D01*
X0048192Y0103296D01*
X0048201Y0103292D01*
X0111807Y0040253D01*
X0110666Y0038548D01*
X0109109Y0038548D01*
X0108546Y0037985D01*
X0106027Y0037985D01*
X0105924Y0038088D01*
X0105606Y0038272D01*
X0105252Y0038367D01*
X0103662Y0038367D01*
X0103662Y0034617D01*
X0102875Y0034617D01*
X0102875Y0038367D01*
X0101285Y0038367D01*
X0100930Y0038272D01*
X0100613Y0038088D01*
X0100353Y0037829D01*
X0100170Y0037511D01*
X0100075Y0037157D01*
X0100075Y0034617D01*
X0102875Y0034617D01*
X0102875Y0033830D01*
X0100075Y0033830D01*
X0100075Y0031290D01*
X0100170Y0030935D01*
X0100353Y0030617D01*
X0100613Y0030358D01*
X0100930Y0030174D01*
X0101285Y0030080D01*
X0102875Y0030079D01*
X0102875Y0033829D01*
X0103662Y0033829D01*
X0103662Y0030080D01*
X0104956Y0030080D01*
X0105200Y0029836D01*
X0109630Y0029836D01*
X0109692Y0029898D01*
X0114014Y0029898D01*
X0114936Y0030821D01*
X0114936Y0033603D01*
X0116364Y0035737D01*
X0117702Y0034411D01*
X0117971Y0034034D01*
X0118272Y0033846D01*
X0118524Y0033596D01*
X0118953Y0033421D01*
X0119346Y0033175D01*
X0119696Y0033117D01*
X0120025Y0032983D01*
X0120488Y0032985D01*
X0121593Y0032800D01*
X0121949Y0032660D01*
X0122385Y0032668D01*
X0122815Y0032596D01*
X0123187Y0032682D01*
X0136957Y0032923D01*
X0136957Y0029464D01*
X0136677Y0028789D01*
X0136677Y0023571D01*
X0137354Y0021937D01*
X0138605Y0020685D01*
X0140240Y0020008D01*
X0142010Y0020008D01*
X0143645Y0020685D01*
X0144896Y0021937D01*
X0145573Y0023571D01*
X0145573Y0028789D01*
X0144896Y0030424D01*
X0144043Y0031276D01*
X0144043Y0032949D01*
X0167387Y0032709D01*
X0167452Y0030521D01*
X0167354Y0030424D01*
X0166677Y0028789D01*
X0166677Y0023571D01*
X0167354Y0021937D01*
X0168605Y0020685D01*
X0170240Y0020008D01*
X0172010Y0020008D01*
X0173645Y0020685D01*
X0174896Y0021937D01*
X0175573Y0023571D01*
X0175573Y0028789D01*
X0174896Y0030424D01*
X0174534Y0030786D01*
X0174478Y0032673D01*
X0183854Y0032673D01*
X0185352Y0033294D01*
X0189424Y0037366D01*
X0190570Y0038512D01*
X0191190Y0040010D01*
X0191190Y0040781D01*
X0191467Y0040504D01*
X0196372Y0040504D01*
X0196622Y0040754D01*
X0199972Y0040754D01*
X0200229Y0040685D01*
X0201819Y0040685D01*
X0201819Y0044435D01*
X0202606Y0044435D01*
X0202606Y0040685D01*
X0204196Y0040685D01*
X0204551Y0040780D01*
X0204868Y0040963D01*
X0205128Y0041223D01*
X0205311Y0041540D01*
X0205406Y0041895D01*
X0205406Y0044435D01*
X0202606Y0044435D01*
X0202606Y0045222D01*
X0201819Y0045222D01*
X0201819Y0048972D01*
X0200229Y0048972D01*
X0199972Y0048903D01*
X0196622Y0048903D01*
X0196372Y0049153D01*
X0191467Y0049153D01*
X0191190Y0048876D01*
X0191190Y0078553D01*
X0194757Y0082119D01*
X0218935Y0082119D01*
X0219162Y0082066D01*
X0219478Y0082119D01*
X0219798Y0082119D01*
X0220014Y0082208D01*
X0220244Y0082247D01*
X0220515Y0082416D01*
X0220811Y0082539D01*
X0220976Y0082704D01*
X0221174Y0082827D01*
X0221360Y0083088D01*
X0221586Y0083314D01*
X0221676Y0083529D01*
X0225059Y0088266D01*
X0225840Y0088590D01*
X0225932Y0088682D01*
X0246086Y0088682D01*
X0246594Y0088667D01*
X0246632Y0088682D01*
X0246673Y0088682D01*
X0247143Y0088876D01*
X0247619Y0089058D01*
X0247648Y0089086D01*
X0247686Y0089101D01*
X0248046Y0089461D01*
X0252846Y0093994D01*
X0263505Y0093994D01*
X0263597Y0093902D01*
X0264832Y0093391D01*
X0265869Y0093391D01*
X0265869Y0092611D01*
X0264429Y0092611D01*
X0263507Y0091689D01*
X0263507Y0084085D01*
X0264238Y0083354D01*
X0264238Y0081135D01*
X0264226Y0081128D01*
X0263966Y0080869D01*
X0263783Y0080551D01*
X0263688Y0080196D01*
X0263688Y0077257D01*
X0268231Y0077257D01*
X0268231Y0076470D01*
X0263688Y0076470D01*
X0263688Y0073530D01*
X0263783Y0073176D01*
X0263966Y0072858D01*
X0264226Y0072598D01*
X0264544Y0072415D01*
X0264898Y0072320D01*
X0268231Y0072320D01*
X0268231Y0076469D01*
X0269019Y0076469D01*
X0269019Y0072320D01*
X0272352Y0072320D01*
X0272706Y0072415D01*
X0273024Y0072598D01*
X0273284Y0072858D01*
X0273467Y0073176D01*
X0273562Y0073530D01*
X0273562Y0076470D01*
X0269019Y0076470D01*
X0269019Y0077257D01*
X0273562Y0077257D01*
X0273562Y0080196D01*
X0273467Y0080551D01*
X0273284Y0080869D01*
X0273024Y0081128D01*
X0272706Y0081312D01*
X0272387Y0081397D01*
X0272387Y0083162D01*
X0272821Y0083162D01*
X0273743Y0084085D01*
X0273743Y0091689D01*
X0272821Y0092611D01*
X0271381Y0092611D01*
X0271381Y0093994D01*
X0275111Y0093994D01*
X0276124Y0094414D01*
X0289988Y0108278D01*
X0289988Y0026280D01*
X0289896Y0025114D01*
X0289175Y0022895D01*
X0287804Y0021008D01*
X0285917Y0019637D01*
X0283699Y0018917D01*
X0282532Y0018825D01*
X0032218Y0018825D01*
X0031051Y0018917D01*
X0028833Y0019637D01*
X0026946Y0021008D01*
X0027177Y0020840D02*
X0128450Y0020840D01*
X0128605Y0020685D02*
X0130240Y0020008D01*
X0132010Y0020008D01*
X0133645Y0020685D01*
X0134896Y0021937D01*
X0135573Y0023571D01*
X0135573Y0028789D01*
X0134896Y0030424D01*
X0133645Y0031675D01*
X0132010Y0032352D01*
X0130240Y0032352D01*
X0128605Y0031675D01*
X0127354Y0030424D01*
X0126677Y0028789D01*
X0126677Y0023571D01*
X0127354Y0021937D01*
X0128605Y0020685D01*
X0127664Y0021626D02*
X0026497Y0021626D01*
X0025926Y0022412D02*
X0054931Y0022412D01*
X0055486Y0021857D02*
X0058931Y0021857D01*
X0058931Y0026581D01*
X0059067Y0026650D01*
X0059325Y0026837D01*
X0059583Y0026650D01*
X0059719Y0026581D01*
X0059719Y0021857D01*
X0063164Y0021857D01*
X0068593Y0027286D01*
X0068593Y0030731D01*
X0062719Y0030731D01*
X0062719Y0031519D01*
X0068593Y0031519D01*
X0068593Y0034964D01*
X0063164Y0040393D01*
X0059719Y0040393D01*
X0059719Y0035669D01*
X0059583Y0035600D01*
X0059325Y0035413D01*
X0059067Y0035600D01*
X0058931Y0035669D01*
X0058931Y0040393D01*
X0055486Y0040393D01*
X0050057Y0034964D01*
X0050057Y0031519D01*
X0055931Y0031519D01*
X0055931Y0030731D01*
X0050057Y0030731D01*
X0050057Y0027286D01*
X0055486Y0021857D01*
X0054145Y0023198D02*
X0025477Y0023198D01*
X0025221Y0023984D02*
X0053359Y0023984D01*
X0052573Y0024770D02*
X0024966Y0024770D01*
X0024819Y0025556D02*
X0051788Y0025556D01*
X0051002Y0026342D02*
X0024762Y0026342D01*
X0024762Y0027128D02*
X0050216Y0027128D01*
X0050057Y0027914D02*
X0024762Y0027914D01*
X0024762Y0028700D02*
X0050057Y0028700D01*
X0050057Y0029486D02*
X0024762Y0029486D01*
X0024762Y0030271D02*
X0050057Y0030271D01*
X0050057Y0031843D02*
X0024762Y0031843D01*
X0024762Y0031057D02*
X0055931Y0031057D01*
X0056719Y0031057D02*
X0058931Y0031057D01*
X0058931Y0030731D02*
X0056719Y0030731D01*
X0056719Y0031519D01*
X0058931Y0031519D01*
X0058931Y0030731D01*
X0059719Y0030731D02*
X0059719Y0031519D01*
X0061931Y0031519D01*
X0061931Y0030731D01*
X0059719Y0030731D01*
X0059719Y0031057D02*
X0061931Y0031057D01*
X0062719Y0031057D02*
X0100137Y0031057D01*
X0100075Y0031843D02*
X0068593Y0031843D01*
X0068593Y0032629D02*
X0100075Y0032629D01*
X0100075Y0033415D02*
X0068593Y0033415D01*
X0068593Y0034201D02*
X0102875Y0034201D01*
X0102875Y0033415D02*
X0103662Y0033415D01*
X0103662Y0032629D02*
X0102875Y0032629D01*
X0102875Y0031843D02*
X0103662Y0031843D01*
X0103662Y0031057D02*
X0102875Y0031057D01*
X0102875Y0030271D02*
X0103662Y0030271D01*
X0100763Y0030271D02*
X0068593Y0030271D01*
X0068593Y0029486D02*
X0126966Y0029486D01*
X0126677Y0028700D02*
X0068593Y0028700D01*
X0068593Y0027914D02*
X0126677Y0027914D01*
X0126677Y0027128D02*
X0068434Y0027128D01*
X0067648Y0026342D02*
X0126677Y0026342D01*
X0126677Y0025556D02*
X0066862Y0025556D01*
X0066077Y0024770D02*
X0126677Y0024770D01*
X0126677Y0023984D02*
X0065291Y0023984D01*
X0064505Y0023198D02*
X0126832Y0023198D01*
X0127157Y0022412D02*
X0063719Y0022412D01*
X0059719Y0022412D02*
X0058931Y0022412D01*
X0058931Y0023198D02*
X0059719Y0023198D01*
X0059719Y0023984D02*
X0058931Y0023984D01*
X0058931Y0024770D02*
X0059719Y0024770D01*
X0059719Y0025556D02*
X0058931Y0025556D01*
X0058931Y0026342D02*
X0059719Y0026342D01*
X0050057Y0032629D02*
X0024762Y0032629D01*
X0024762Y0033415D02*
X0050057Y0033415D01*
X0050057Y0034201D02*
X0024762Y0034201D01*
X0024762Y0034987D02*
X0050080Y0034987D01*
X0050866Y0035773D02*
X0024762Y0035773D01*
X0024762Y0036559D02*
X0051652Y0036559D01*
X0052438Y0037345D02*
X0024762Y0037345D01*
X0024762Y0038131D02*
X0053224Y0038131D01*
X0054010Y0038916D02*
X0024762Y0038916D01*
X0024762Y0039702D02*
X0054796Y0039702D01*
X0051867Y0042060D02*
X0066527Y0042060D01*
X0067211Y0041376D02*
X0075039Y0041376D01*
X0080574Y0046911D01*
X0080574Y0054739D01*
X0075039Y0060274D01*
X0067211Y0060274D01*
X0061676Y0054739D01*
X0061676Y0046911D01*
X0067211Y0041376D01*
X0065741Y0042846D02*
X0052653Y0042846D01*
X0053438Y0043632D02*
X0064955Y0043632D01*
X0064169Y0044418D02*
X0054224Y0044418D01*
X0055010Y0045204D02*
X0063384Y0045204D01*
X0062598Y0045990D02*
X0055796Y0045990D01*
X0056582Y0046776D02*
X0061812Y0046776D01*
X0061676Y0047562D02*
X0056793Y0047562D01*
X0056793Y0046986D02*
X0056793Y0050431D01*
X0052069Y0050431D01*
X0052000Y0050567D01*
X0051813Y0050825D01*
X0052000Y0051083D01*
X0052069Y0051219D01*
X0056793Y0051219D01*
X0056793Y0054664D01*
X0051364Y0060093D01*
X0047919Y0060093D01*
X0047919Y0054219D01*
X0047131Y0054219D01*
X0047131Y0060093D01*
X0043686Y0060093D01*
X0038257Y0054664D01*
X0038257Y0051219D01*
X0042981Y0051219D01*
X0043050Y0051083D01*
X0043237Y0050825D01*
X0043050Y0050567D01*
X0042981Y0050431D01*
X0038257Y0050431D01*
X0038257Y0046986D01*
X0043686Y0041557D01*
X0047131Y0041557D01*
X0047131Y0047431D01*
X0047919Y0047431D01*
X0047919Y0041557D01*
X0051364Y0041557D01*
X0056793Y0046986D01*
X0056793Y0048347D02*
X0061676Y0048347D01*
X0061676Y0049133D02*
X0056793Y0049133D01*
X0056793Y0049919D02*
X0061676Y0049919D01*
X0061676Y0050705D02*
X0051900Y0050705D01*
X0047919Y0050431D02*
X0047919Y0048219D01*
X0047131Y0048219D01*
X0047131Y0050431D01*
X0047919Y0050431D01*
X0047919Y0049919D02*
X0047131Y0049919D01*
X0047131Y0049133D02*
X0047919Y0049133D01*
X0047919Y0048347D02*
X0047131Y0048347D01*
X0047131Y0046776D02*
X0047919Y0046776D01*
X0047919Y0045990D02*
X0047131Y0045990D01*
X0047131Y0045204D02*
X0047919Y0045204D01*
X0047919Y0044418D02*
X0047131Y0044418D01*
X0047131Y0043632D02*
X0047919Y0043632D01*
X0047919Y0042846D02*
X0047131Y0042846D01*
X0047131Y0042060D02*
X0047919Y0042060D01*
X0043183Y0042060D02*
X0024762Y0042060D01*
X0024762Y0041274D02*
X0110777Y0041274D01*
X0111570Y0040488D02*
X0024762Y0040488D01*
X0024762Y0042846D02*
X0042397Y0042846D01*
X0041612Y0043632D02*
X0024762Y0043632D01*
X0024762Y0044418D02*
X0040826Y0044418D01*
X0040040Y0045204D02*
X0024762Y0045204D01*
X0024762Y0045990D02*
X0039254Y0045990D01*
X0038468Y0046776D02*
X0024762Y0046776D01*
X0024762Y0047562D02*
X0038257Y0047562D01*
X0038257Y0048347D02*
X0024762Y0048347D01*
X0024762Y0049133D02*
X0038257Y0049133D01*
X0038257Y0049919D02*
X0024762Y0049919D01*
X0024762Y0050705D02*
X0043150Y0050705D01*
X0038257Y0051491D02*
X0024762Y0051491D01*
X0024762Y0052277D02*
X0038257Y0052277D01*
X0038257Y0053063D02*
X0024762Y0053063D01*
X0024762Y0053849D02*
X0038257Y0053849D01*
X0038257Y0054635D02*
X0024762Y0054635D01*
X0024762Y0055421D02*
X0039014Y0055421D01*
X0039800Y0056207D02*
X0024762Y0056207D01*
X0024762Y0056992D02*
X0040586Y0056992D01*
X0041372Y0057778D02*
X0024762Y0057778D01*
X0024762Y0058564D02*
X0042158Y0058564D01*
X0042944Y0059350D02*
X0024762Y0059350D01*
X0024762Y0060136D02*
X0067073Y0060136D01*
X0066288Y0059350D02*
X0052106Y0059350D01*
X0052892Y0058564D02*
X0065502Y0058564D01*
X0064716Y0057778D02*
X0053678Y0057778D01*
X0054464Y0056992D02*
X0063930Y0056992D01*
X0063144Y0056207D02*
X0055250Y0056207D01*
X0056036Y0055421D02*
X0062358Y0055421D01*
X0061676Y0054635D02*
X0056793Y0054635D01*
X0056793Y0053849D02*
X0061676Y0053849D01*
X0061676Y0053063D02*
X0056793Y0053063D01*
X0056793Y0052277D02*
X0061676Y0052277D01*
X0061676Y0051491D02*
X0056793Y0051491D01*
X0047919Y0051491D02*
X0047131Y0051491D01*
X0047131Y0051219D02*
X0047131Y0053431D01*
X0047919Y0053431D01*
X0047919Y0051219D01*
X0047131Y0051219D01*
X0047131Y0052277D02*
X0047919Y0052277D01*
X0047919Y0053063D02*
X0047131Y0053063D01*
X0047131Y0054635D02*
X0047919Y0054635D01*
X0047919Y0055421D02*
X0047131Y0055421D01*
X0047131Y0056207D02*
X0047919Y0056207D01*
X0047919Y0056992D02*
X0047131Y0056992D01*
X0047131Y0057778D02*
X0047919Y0057778D01*
X0047919Y0058564D02*
X0047131Y0058564D01*
X0047131Y0059350D02*
X0047919Y0059350D01*
X0034342Y0076833D02*
X0026038Y0076833D01*
X0025115Y0077755D01*
X0025115Y0086060D01*
X0026038Y0086982D01*
X0034342Y0086982D01*
X0035265Y0086060D01*
X0035265Y0084900D01*
X0036104Y0084900D01*
X0036104Y0085152D01*
X0037026Y0086075D01*
X0041931Y0086075D01*
X0042181Y0085825D01*
X0045527Y0085825D01*
X0045528Y0085824D01*
X0045788Y0085894D01*
X0047378Y0085894D01*
X0047378Y0082144D01*
X0048165Y0082144D01*
X0048165Y0085894D01*
X0049755Y0085894D01*
X0050109Y0085799D01*
X0050427Y0085615D01*
X0050687Y0085356D01*
X0050870Y0085038D01*
X0050965Y0084683D01*
X0050965Y0082144D01*
X0048165Y0082144D01*
X0048165Y0081356D01*
X0047378Y0081356D01*
X0048165Y0081356D01*
X0048165Y0077606D01*
X0049755Y0077606D01*
X0050109Y0077701D01*
X0050427Y0077885D01*
X0050687Y0078144D01*
X0050870Y0078462D01*
X0050965Y0078817D01*
X0050965Y0081356D01*
X0070334Y0081356D01*
X0069541Y0082142D02*
X0048165Y0082142D01*
X0048165Y0082928D02*
X0047378Y0082928D01*
X0047378Y0083714D02*
X0048165Y0083714D01*
X0048165Y0084499D02*
X0047378Y0084499D01*
X0047378Y0085285D02*
X0048165Y0085285D01*
X0050727Y0085285D02*
X0066369Y0085285D01*
X0065576Y0086071D02*
X0041934Y0086071D01*
X0037023Y0086071D02*
X0035253Y0086071D01*
X0035265Y0085285D02*
X0036237Y0085285D01*
X0034467Y0086857D02*
X0064783Y0086857D01*
X0063990Y0087643D02*
X0024762Y0087643D01*
X0024762Y0086857D02*
X0025913Y0086857D01*
X0025127Y0086071D02*
X0024762Y0086071D01*
X0024762Y0085285D02*
X0025115Y0085285D01*
X0025115Y0084499D02*
X0024762Y0084499D01*
X0024762Y0083714D02*
X0025115Y0083714D01*
X0025115Y0082928D02*
X0024762Y0082928D01*
X0024762Y0082142D02*
X0025115Y0082142D01*
X0025115Y0081356D02*
X0024762Y0081356D01*
X0024762Y0080570D02*
X0025115Y0080570D01*
X0025115Y0079784D02*
X0024762Y0079784D01*
X0024762Y0078998D02*
X0025115Y0078998D01*
X0025115Y0078212D02*
X0024762Y0078212D01*
X0024762Y0077426D02*
X0025444Y0077426D01*
X0024762Y0076640D02*
X0075092Y0076640D01*
X0075885Y0075854D02*
X0024762Y0075854D01*
X0024762Y0075068D02*
X0076678Y0075068D01*
X0077471Y0074283D02*
X0024762Y0074283D01*
X0024762Y0073497D02*
X0078264Y0073497D01*
X0079057Y0072711D02*
X0024762Y0072711D01*
X0024762Y0071925D02*
X0079850Y0071925D01*
X0080643Y0071139D02*
X0024762Y0071139D01*
X0024762Y0070353D02*
X0081436Y0070353D01*
X0082229Y0069567D02*
X0024762Y0069567D01*
X0024762Y0068781D02*
X0083022Y0068781D01*
X0083815Y0067995D02*
X0024762Y0067995D01*
X0024762Y0067209D02*
X0084608Y0067209D01*
X0085401Y0066423D02*
X0024762Y0066423D01*
X0024762Y0065638D02*
X0086194Y0065638D01*
X0086987Y0064852D02*
X0024762Y0064852D01*
X0024762Y0064066D02*
X0087780Y0064066D01*
X0088573Y0063280D02*
X0024762Y0063280D01*
X0024762Y0062494D02*
X0089366Y0062494D01*
X0090159Y0061708D02*
X0024762Y0061708D01*
X0024762Y0060922D02*
X0090952Y0060922D01*
X0091745Y0060136D02*
X0075177Y0060136D01*
X0075962Y0059350D02*
X0092538Y0059350D01*
X0093331Y0058564D02*
X0076748Y0058564D01*
X0077534Y0057778D02*
X0094124Y0057778D01*
X0094917Y0056992D02*
X0078320Y0056992D01*
X0079106Y0056207D02*
X0095710Y0056207D01*
X0096503Y0055421D02*
X0079892Y0055421D01*
X0080574Y0054635D02*
X0097296Y0054635D01*
X0098089Y0053849D02*
X0080574Y0053849D01*
X0080574Y0053063D02*
X0098882Y0053063D01*
X0099675Y0052277D02*
X0080574Y0052277D01*
X0080574Y0051491D02*
X0100468Y0051491D01*
X0101261Y0050705D02*
X0080574Y0050705D01*
X0080574Y0049919D02*
X0102054Y0049919D01*
X0102847Y0049133D02*
X0080574Y0049133D01*
X0080574Y0048347D02*
X0103640Y0048347D01*
X0104433Y0047562D02*
X0080574Y0047562D01*
X0080438Y0046776D02*
X0105226Y0046776D01*
X0106019Y0045990D02*
X0079652Y0045990D01*
X0078866Y0045204D02*
X0106812Y0045204D01*
X0107605Y0044418D02*
X0078080Y0044418D01*
X0077295Y0043632D02*
X0108398Y0043632D01*
X0109191Y0042846D02*
X0076509Y0042846D01*
X0075723Y0042060D02*
X0109984Y0042060D01*
X0111439Y0039702D02*
X0063854Y0039702D01*
X0064640Y0038916D02*
X0110913Y0038916D01*
X0108692Y0038131D02*
X0105851Y0038131D01*
X0103662Y0038131D02*
X0102875Y0038131D01*
X0102875Y0037345D02*
X0103662Y0037345D01*
X0103662Y0036559D02*
X0102875Y0036559D01*
X0102875Y0035773D02*
X0103662Y0035773D01*
X0103662Y0034987D02*
X0102875Y0034987D01*
X0100075Y0034987D02*
X0068570Y0034987D01*
X0067784Y0035773D02*
X0100075Y0035773D01*
X0100075Y0036559D02*
X0066998Y0036559D01*
X0066212Y0037345D02*
X0100125Y0037345D01*
X0100686Y0038131D02*
X0065426Y0038131D01*
X0059719Y0038131D02*
X0058931Y0038131D01*
X0058931Y0038916D02*
X0059719Y0038916D01*
X0059719Y0039702D02*
X0058931Y0039702D01*
X0058931Y0037345D02*
X0059719Y0037345D01*
X0059719Y0036559D02*
X0058931Y0036559D01*
X0058931Y0035773D02*
X0059719Y0035773D01*
X0071125Y0047687D02*
X0071125Y0050825D01*
X0071125Y0053825D01*
X0071125Y0050825D02*
X0071125Y0047825D01*
X0093807Y0069567D02*
X0107606Y0069567D01*
X0107231Y0069135D02*
X0106719Y0067597D01*
X0107077Y0062578D01*
X0107071Y0061935D01*
X0107135Y0061775D01*
X0107147Y0061604D01*
X0107435Y0061028D01*
X0107675Y0060431D01*
X0107796Y0060308D01*
X0107873Y0060154D01*
X0108359Y0059732D01*
X0122383Y0045410D01*
X0122392Y0045389D01*
X0122949Y0044832D01*
X0123502Y0044268D01*
X0123522Y0044259D01*
X0123538Y0044243D01*
X0124266Y0043941D01*
X0124993Y0043632D01*
X0125015Y0043631D01*
X0125035Y0043623D01*
X0125824Y0043623D01*
X0126614Y0043614D01*
X0126634Y0043623D01*
X0174484Y0043623D01*
X0175982Y0044243D01*
X0177128Y0045389D01*
X0177749Y0046887D01*
X0177749Y0048508D01*
X0177128Y0050006D01*
X0175982Y0051152D01*
X0174484Y0051772D01*
X0127559Y0051772D01*
X0115112Y0064485D01*
X0114848Y0068178D01*
X0114122Y0069627D01*
X0112897Y0070689D01*
X0111359Y0071201D01*
X0109742Y0071085D01*
X0108293Y0070360D01*
X0107231Y0069135D01*
X0107113Y0068781D02*
X0094600Y0068781D01*
X0095393Y0067995D02*
X0106852Y0067995D01*
X0106747Y0067209D02*
X0096185Y0067209D01*
X0096978Y0066423D02*
X0106803Y0066423D01*
X0106859Y0065638D02*
X0097771Y0065638D01*
X0098564Y0064852D02*
X0106915Y0064852D01*
X0106971Y0064066D02*
X0099357Y0064066D01*
X0100150Y0063280D02*
X0107027Y0063280D01*
X0107077Y0062494D02*
X0100943Y0062494D01*
X0101736Y0061708D02*
X0107140Y0061708D01*
X0107478Y0060922D02*
X0102529Y0060922D01*
X0103322Y0060136D02*
X0107893Y0060136D01*
X0108733Y0059350D02*
X0104115Y0059350D01*
X0104908Y0058564D02*
X0109503Y0058564D01*
X0110272Y0057778D02*
X0105701Y0057778D01*
X0106494Y0056992D02*
X0111042Y0056992D01*
X0111811Y0056207D02*
X0107287Y0056207D01*
X0108080Y0055421D02*
X0112581Y0055421D01*
X0113350Y0054635D02*
X0108873Y0054635D01*
X0109666Y0053849D02*
X0114120Y0053849D01*
X0114890Y0053063D02*
X0110459Y0053063D01*
X0111252Y0052277D02*
X0115659Y0052277D01*
X0116429Y0051491D02*
X0112045Y0051491D01*
X0112838Y0050705D02*
X0117198Y0050705D01*
X0117968Y0049919D02*
X0113631Y0049919D01*
X0114424Y0049133D02*
X0118737Y0049133D01*
X0119507Y0048347D02*
X0115217Y0048347D01*
X0116010Y0047562D02*
X0120276Y0047562D01*
X0121046Y0046776D02*
X0116803Y0046776D01*
X0117596Y0045990D02*
X0121815Y0045990D01*
X0122577Y0045204D02*
X0118389Y0045204D01*
X0119182Y0044418D02*
X0123354Y0044418D01*
X0124992Y0043632D02*
X0119975Y0043632D01*
X0120768Y0042846D02*
X0183041Y0042846D01*
X0183041Y0043632D02*
X0174506Y0043632D01*
X0176157Y0044418D02*
X0183041Y0044418D01*
X0183041Y0045204D02*
X0176943Y0045204D01*
X0177377Y0045990D02*
X0183041Y0045990D01*
X0183041Y0046776D02*
X0177702Y0046776D01*
X0177749Y0047562D02*
X0183041Y0047562D01*
X0183041Y0048347D02*
X0177749Y0048347D01*
X0177490Y0049133D02*
X0183041Y0049133D01*
X0183041Y0049919D02*
X0177164Y0049919D01*
X0176429Y0050705D02*
X0183041Y0050705D01*
X0183041Y0051491D02*
X0175163Y0051491D01*
X0176179Y0053849D02*
X0164924Y0053849D01*
X0164371Y0053296D02*
X0165517Y0054442D01*
X0166137Y0055939D01*
X0166137Y0056927D01*
X0170277Y0061067D01*
X0170335Y0061104D01*
X0173902Y0061104D01*
X0174824Y0062027D01*
X0174824Y0066348D01*
X0174887Y0066411D01*
X0174887Y0070840D01*
X0174643Y0071084D01*
X0174643Y0072378D01*
X0170893Y0072378D01*
X0170893Y0073166D01*
X0170106Y0073166D01*
X0170106Y0075966D01*
X0167566Y0075966D01*
X0167211Y0075871D01*
X0166894Y0075687D01*
X0166634Y0075428D01*
X0166451Y0075110D01*
X0166356Y0074755D01*
X0166356Y0073166D01*
X0170106Y0073166D01*
X0170106Y0072378D01*
X0166356Y0072378D01*
X0166356Y0070788D01*
X0166451Y0070434D01*
X0166634Y0070116D01*
X0166737Y0070013D01*
X0166737Y0067494D01*
X0166175Y0066931D01*
X0166175Y0064760D01*
X0162240Y0060825D01*
X0161252Y0060825D01*
X0159969Y0060293D01*
X0139133Y0060293D01*
X0113857Y0085042D01*
X0113857Y0086062D01*
X0113085Y0087927D01*
X0111932Y0089079D01*
X0111932Y0092139D01*
X0112821Y0092139D01*
X0113743Y0093061D01*
X0113743Y0100665D01*
X0112821Y0101588D01*
X0112700Y0101588D01*
X0112700Y0103437D01*
X0112706Y0103438D01*
X0113024Y0103622D01*
X0113284Y0103881D01*
X0113467Y0104199D01*
X0113562Y0104554D01*
X0113562Y0107493D01*
X0109019Y0107493D01*
X0109019Y0108280D01*
X0113562Y0108280D01*
X0113562Y0111220D01*
X0113467Y0111574D01*
X0113284Y0111892D01*
X0113024Y0112152D01*
X0112706Y0112335D01*
X0112352Y0112430D01*
X0109019Y0112430D01*
X0109019Y0108281D01*
X0108231Y0108281D01*
X0108231Y0112430D01*
X0104898Y0112430D01*
X0104544Y0112335D01*
X0104226Y0112152D01*
X0103966Y0111892D01*
X0103783Y0111574D01*
X0103688Y0111220D01*
X0103688Y0108280D01*
X0108231Y0108280D01*
X0108231Y0107493D01*
X0103688Y0107493D01*
X0103688Y0104554D01*
X0103783Y0104199D01*
X0103966Y0103881D01*
X0104226Y0103622D01*
X0104544Y0103438D01*
X0104550Y0103437D01*
X0104550Y0101588D01*
X0104429Y0101588D01*
X0103507Y0100665D01*
X0103507Y0093061D01*
X0104429Y0092139D01*
X0105633Y0092139D01*
X0105633Y0089079D01*
X0104480Y0087927D01*
X0103708Y0086062D01*
X0103708Y0084043D01*
X0104480Y0082178D01*
X0105908Y0080750D01*
X0107773Y0079977D01*
X0108901Y0079977D01*
X0135195Y0054231D01*
X0135680Y0053746D01*
X0135698Y0053739D01*
X0135712Y0053725D01*
X0136349Y0053469D01*
X0136983Y0053207D01*
X0137002Y0053207D01*
X0137020Y0053199D01*
X0137706Y0053207D01*
X0159969Y0053207D01*
X0161252Y0052675D01*
X0162873Y0052675D01*
X0164371Y0053296D01*
X0163809Y0053063D02*
X0183041Y0053063D01*
X0183041Y0053849D02*
X0179822Y0053849D01*
X0180241Y0054023D02*
X0178787Y0053420D01*
X0177214Y0053420D01*
X0175760Y0054023D01*
X0174647Y0055135D01*
X0174045Y0056589D01*
X0174045Y0058163D01*
X0174647Y0059617D01*
X0175760Y0060730D01*
X0177214Y0061332D01*
X0178787Y0061332D01*
X0180241Y0060730D01*
X0181354Y0059617D01*
X0181956Y0058163D01*
X0181956Y0056589D01*
X0181354Y0055135D01*
X0180241Y0054023D01*
X0180854Y0054635D02*
X0183041Y0054635D01*
X0183041Y0055421D02*
X0181472Y0055421D01*
X0181798Y0056207D02*
X0183041Y0056207D01*
X0183041Y0056992D02*
X0181956Y0056992D01*
X0181956Y0057778D02*
X0183041Y0057778D01*
X0183041Y0058564D02*
X0181790Y0058564D01*
X0181465Y0059350D02*
X0183041Y0059350D01*
X0183041Y0060136D02*
X0180835Y0060136D01*
X0179777Y0060922D02*
X0183041Y0060922D01*
X0183041Y0061708D02*
X0174506Y0061708D01*
X0174824Y0062494D02*
X0183041Y0062494D01*
X0183041Y0063280D02*
X0174824Y0063280D01*
X0174824Y0064066D02*
X0183041Y0064066D01*
X0183041Y0064852D02*
X0174824Y0064852D01*
X0174824Y0065638D02*
X0183041Y0065638D01*
X0183041Y0066423D02*
X0174887Y0066423D01*
X0174887Y0067209D02*
X0183041Y0067209D01*
X0183041Y0067995D02*
X0174887Y0067995D01*
X0174887Y0068781D02*
X0183041Y0068781D01*
X0183041Y0069567D02*
X0174887Y0069567D01*
X0174887Y0070353D02*
X0183041Y0070353D01*
X0183041Y0071139D02*
X0174643Y0071139D01*
X0174643Y0071925D02*
X0183041Y0071925D01*
X0183041Y0072711D02*
X0170893Y0072711D01*
X0170893Y0073166D02*
X0174643Y0073166D01*
X0174643Y0074755D01*
X0174548Y0075110D01*
X0174365Y0075428D01*
X0174105Y0075687D01*
X0173787Y0075871D01*
X0173433Y0075966D01*
X0170893Y0075966D01*
X0170893Y0073166D01*
X0170893Y0073497D02*
X0170106Y0073497D01*
X0170106Y0074283D02*
X0170893Y0074283D01*
X0170893Y0075068D02*
X0170106Y0075068D01*
X0170106Y0075854D02*
X0170893Y0075854D01*
X0173815Y0075854D02*
X0183041Y0075854D01*
X0183041Y0075068D02*
X0174559Y0075068D01*
X0174643Y0074283D02*
X0183041Y0074283D01*
X0183041Y0073497D02*
X0174643Y0073497D01*
X0170106Y0072711D02*
X0126451Y0072711D01*
X0125649Y0073497D02*
X0166356Y0073497D01*
X0166356Y0074283D02*
X0124846Y0074283D01*
X0124043Y0075068D02*
X0166440Y0075068D01*
X0167183Y0075854D02*
X0123241Y0075854D01*
X0122438Y0076640D02*
X0183041Y0076640D01*
X0183041Y0077426D02*
X0121636Y0077426D01*
X0120833Y0078212D02*
X0183041Y0078212D01*
X0183041Y0078998D02*
X0178123Y0078998D01*
X0178909Y0079784D02*
X0183041Y0079784D01*
X0183041Y0080570D02*
X0179272Y0080570D01*
X0179484Y0081356D02*
X0183167Y0081356D01*
X0183493Y0082142D02*
X0179484Y0082142D01*
X0179273Y0082928D02*
X0184040Y0082928D01*
X0184826Y0083714D02*
X0178912Y0083714D01*
X0178126Y0084499D02*
X0185612Y0084499D01*
X0186398Y0085285D02*
X0177837Y0085285D01*
X0177837Y0086071D02*
X0187184Y0086071D01*
X0187970Y0086857D02*
X0177837Y0086857D01*
X0177870Y0087643D02*
X0188369Y0087643D01*
X0188369Y0088429D02*
X0177837Y0088429D01*
X0177230Y0089215D02*
X0188369Y0089215D01*
X0188369Y0090001D02*
X0176711Y0090001D01*
X0176192Y0090787D02*
X0188369Y0090787D01*
X0188369Y0091573D02*
X0175673Y0091573D01*
X0175154Y0092359D02*
X0188369Y0092359D01*
X0188369Y0093144D02*
X0174635Y0093144D01*
X0174116Y0093930D02*
X0188369Y0093930D01*
X0188369Y0094716D02*
X0173597Y0094716D01*
X0173078Y0095502D02*
X0188369Y0095502D01*
X0188369Y0096288D02*
X0172559Y0096288D01*
X0172040Y0097074D02*
X0188369Y0097074D01*
X0188369Y0097860D02*
X0171521Y0097860D01*
X0171002Y0098646D02*
X0188369Y0098646D01*
X0188369Y0099432D02*
X0170483Y0099432D01*
X0169964Y0100218D02*
X0188369Y0100218D01*
X0188369Y0101004D02*
X0169445Y0101004D01*
X0168926Y0101790D02*
X0188369Y0101790D01*
X0188369Y0102575D02*
X0168407Y0102575D01*
X0167888Y0103361D02*
X0188369Y0103361D01*
X0188369Y0104147D02*
X0167369Y0104147D01*
X0166900Y0104933D02*
X0188369Y0104933D01*
X0188347Y0105719D02*
X0166900Y0105719D01*
X0166900Y0106505D02*
X0188555Y0106505D01*
X0189018Y0107291D02*
X0166900Y0107291D01*
X0166900Y0108077D02*
X0190116Y0108077D01*
X0191783Y0108863D02*
X0166900Y0108863D01*
X0166900Y0109649D02*
X0179008Y0109649D01*
X0179713Y0109357D02*
X0181287Y0109357D01*
X0182741Y0109959D01*
X0183854Y0111072D01*
X0184456Y0112526D01*
X0184456Y0114099D01*
X0183854Y0115553D01*
X0182813Y0116594D01*
X0183854Y0117634D01*
X0184456Y0119088D01*
X0184456Y0120662D01*
X0183854Y0122116D01*
X0182741Y0123229D01*
X0181287Y0123831D01*
X0179713Y0123831D01*
X0178259Y0123229D01*
X0177146Y0122116D01*
X0176544Y0120662D01*
X0176544Y0119088D01*
X0177146Y0117634D01*
X0178187Y0116594D01*
X0177146Y0115553D01*
X0176544Y0114099D01*
X0176544Y0112526D01*
X0177146Y0111072D01*
X0178259Y0109959D01*
X0179713Y0109357D01*
X0177783Y0110435D02*
X0166900Y0110435D01*
X0166900Y0111220D02*
X0177085Y0111220D01*
X0176759Y0112006D02*
X0166900Y0112006D01*
X0166900Y0112792D02*
X0176544Y0112792D01*
X0176544Y0113578D02*
X0166900Y0113578D01*
X0166900Y0114364D02*
X0176654Y0114364D01*
X0176979Y0115150D02*
X0166900Y0115150D01*
X0166900Y0115936D02*
X0177529Y0115936D01*
X0178059Y0116722D02*
X0166900Y0116722D01*
X0166900Y0117508D02*
X0177273Y0117508D01*
X0176873Y0118294D02*
X0166900Y0118294D01*
X0166900Y0119080D02*
X0176548Y0119080D01*
X0176544Y0119866D02*
X0166900Y0119866D01*
X0166900Y0120651D02*
X0176544Y0120651D01*
X0176865Y0121437D02*
X0167426Y0121437D01*
X0168212Y0122223D02*
X0177254Y0122223D01*
X0178040Y0123009D02*
X0168998Y0123009D01*
X0169784Y0123795D02*
X0179627Y0123795D01*
X0181373Y0123795D02*
X0206288Y0123795D01*
X0206288Y0123009D02*
X0182960Y0123009D01*
X0183746Y0122223D02*
X0206288Y0122223D01*
X0206288Y0121437D02*
X0184135Y0121437D01*
X0184456Y0120651D02*
X0206288Y0120651D01*
X0206288Y0119866D02*
X0184456Y0119866D01*
X0184452Y0119080D02*
X0206288Y0119080D01*
X0206288Y0118294D02*
X0184127Y0118294D01*
X0183727Y0117508D02*
X0206288Y0117508D01*
X0206288Y0116722D02*
X0182941Y0116722D01*
X0183471Y0115936D02*
X0206288Y0115936D01*
X0206288Y0115150D02*
X0184021Y0115150D01*
X0184346Y0114364D02*
X0206288Y0114364D01*
X0206288Y0113578D02*
X0184456Y0113578D01*
X0184456Y0112792D02*
X0206288Y0112792D01*
X0206288Y0112006D02*
X0184241Y0112006D01*
X0183915Y0111220D02*
X0206288Y0111220D01*
X0206288Y0110435D02*
X0183217Y0110435D01*
X0181992Y0109649D02*
X0206288Y0109649D01*
X0206288Y0108863D02*
X0204388Y0108863D01*
X0205174Y0108077D02*
X0205514Y0108077D01*
X0210337Y0108851D02*
X0210337Y0136849D01*
X0212901Y0139413D01*
X0256224Y0139413D01*
X0260038Y0135599D01*
X0260038Y0124974D01*
X0264100Y0120911D01*
X0264100Y0110786D01*
X0265286Y0109600D01*
X0265357Y0109600D01*
X0266852Y0108105D01*
X0266850Y0108103D01*
X0266850Y0104147D01*
X0269647Y0101350D01*
X0273603Y0101350D01*
X0276400Y0104147D01*
X0276400Y0107991D01*
X0276531Y0108122D01*
X0276531Y0114128D01*
X0276270Y0114389D01*
X0276270Y0117906D01*
X0276315Y0117906D01*
X0277468Y0119060D01*
X0277468Y0121656D01*
X0279440Y0121656D01*
X0279483Y0121699D01*
X0279701Y0121480D01*
X0283549Y0121480D01*
X0283736Y0121667D01*
X0283747Y0121656D01*
X0285557Y0121656D01*
X0285557Y0118506D01*
X0283474Y0120589D01*
X0282019Y0120589D01*
X0282019Y0116519D01*
X0281231Y0116519D01*
X0281231Y0120589D01*
X0279776Y0120589D01*
X0277161Y0117974D01*
X0277161Y0116519D01*
X0281231Y0116519D01*
X0281231Y0115731D01*
X0282019Y0115731D01*
X0282019Y0111661D01*
X0283474Y0111661D01*
X0285557Y0113744D01*
X0285557Y0111642D01*
X0273421Y0099506D01*
X0267495Y0099506D01*
X0267403Y0099598D01*
X0266168Y0100109D01*
X0264832Y0100109D01*
X0263597Y0099598D01*
X0263505Y0099506D01*
X0251789Y0099506D01*
X0251281Y0099520D01*
X0251243Y0099506D01*
X0251202Y0099506D01*
X0250732Y0099311D01*
X0250256Y0099130D01*
X0250227Y0099102D01*
X0250189Y0099086D01*
X0249829Y0098727D01*
X0245029Y0094193D01*
X0225932Y0094193D01*
X0225840Y0094285D01*
X0224606Y0094797D01*
X0223269Y0094797D01*
X0222035Y0094285D01*
X0221090Y0093340D01*
X0220578Y0092106D01*
X0220578Y0091476D01*
X0217832Y0087631D01*
X0194757Y0087631D01*
X0194058Y0088329D01*
X0193881Y0088403D01*
X0193881Y0097994D01*
X0194222Y0097652D01*
X0195457Y0097141D01*
X0196516Y0097141D01*
X0196516Y0096082D01*
X0197027Y0094847D01*
X0197972Y0093902D01*
X0199207Y0093391D01*
X0200543Y0093391D01*
X0201778Y0093902D01*
X0202490Y0094614D01*
X0202652Y0094222D01*
X0203597Y0093277D01*
X0204832Y0092766D01*
X0206168Y0092766D01*
X0207403Y0093277D01*
X0208348Y0094222D01*
X0208859Y0095457D01*
X0208859Y0095975D01*
X0240089Y0095975D01*
X0251964Y0107850D01*
X0256011Y0107850D01*
X0256090Y0107660D01*
X0257035Y0106715D01*
X0258269Y0106203D01*
X0259606Y0106203D01*
X0260840Y0106715D01*
X0261785Y0107660D01*
X0262297Y0108894D01*
X0262297Y0110231D01*
X0261785Y0111465D01*
X0260840Y0112410D01*
X0259606Y0112922D01*
X0258269Y0112922D01*
X0257035Y0112410D01*
X0256524Y0111900D01*
X0250286Y0111900D01*
X0249100Y0110714D01*
X0238411Y0100025D01*
X0237888Y0100025D01*
X0252057Y0114193D01*
X0252347Y0113902D01*
X0253582Y0113391D01*
X0254918Y0113391D01*
X0256153Y0113902D01*
X0257098Y0114847D01*
X0257609Y0116082D01*
X0257609Y0117418D01*
X0257098Y0118653D01*
X0256153Y0119598D01*
X0254918Y0120109D01*
X0253582Y0120109D01*
X0252347Y0119598D01*
X0251524Y0118775D01*
X0250911Y0118775D01*
X0249725Y0117589D01*
X0249725Y0117589D01*
X0234349Y0102212D01*
X0233826Y0102212D01*
X0252504Y0120891D01*
X0253668Y0120891D01*
X0254903Y0121402D01*
X0255848Y0122347D01*
X0256359Y0123582D01*
X0256359Y0124918D01*
X0255848Y0126153D01*
X0254903Y0127098D01*
X0253668Y0127609D01*
X0252332Y0127609D01*
X0251097Y0127098D01*
X0250152Y0126153D01*
X0249641Y0124918D01*
X0249641Y0123754D01*
X0230286Y0104400D01*
X0211234Y0104400D01*
X0211672Y0105457D01*
X0211672Y0106793D01*
X0211160Y0108028D01*
X0210337Y0108851D01*
X0210337Y0108863D02*
X0234749Y0108863D01*
X0235535Y0109649D02*
X0218554Y0109649D01*
X0217849Y0109357D02*
X0219303Y0109959D01*
X0220416Y0111072D01*
X0221018Y0112526D01*
X0221018Y0114099D01*
X0220416Y0115553D01*
X0219376Y0116594D01*
X0220416Y0117634D01*
X0221018Y0119088D01*
X0221018Y0120662D01*
X0220416Y0122116D01*
X0219303Y0123229D01*
X0217849Y0123831D01*
X0216276Y0123831D01*
X0214822Y0123229D01*
X0213709Y0122116D01*
X0213107Y0120662D01*
X0213107Y0119088D01*
X0213709Y0117634D01*
X0214749Y0116594D01*
X0213709Y0115553D01*
X0213107Y0114099D01*
X0213107Y0112526D01*
X0213709Y0111072D01*
X0214822Y0109959D01*
X0216276Y0109357D01*
X0217849Y0109357D01*
X0219779Y0110435D02*
X0236321Y0110435D01*
X0237107Y0111220D02*
X0220478Y0111220D01*
X0220803Y0112006D02*
X0237893Y0112006D01*
X0238679Y0112792D02*
X0221018Y0112792D01*
X0221018Y0113578D02*
X0239465Y0113578D01*
X0240251Y0114364D02*
X0220909Y0114364D01*
X0220583Y0115150D02*
X0241037Y0115150D01*
X0241822Y0115936D02*
X0220034Y0115936D01*
X0219504Y0116722D02*
X0242608Y0116722D01*
X0243394Y0117508D02*
X0220290Y0117508D01*
X0220689Y0118294D02*
X0244180Y0118294D01*
X0244966Y0119080D02*
X0221015Y0119080D01*
X0221018Y0119866D02*
X0245752Y0119866D01*
X0246538Y0120651D02*
X0221018Y0120651D01*
X0220697Y0121437D02*
X0247324Y0121437D01*
X0248110Y0122223D02*
X0220309Y0122223D01*
X0219523Y0123009D02*
X0248896Y0123009D01*
X0249641Y0123795D02*
X0217936Y0123795D01*
X0216189Y0123795D02*
X0210337Y0123795D01*
X0210337Y0123009D02*
X0214602Y0123009D01*
X0213816Y0122223D02*
X0210337Y0122223D01*
X0210337Y0121437D02*
X0213428Y0121437D01*
X0213107Y0120651D02*
X0210337Y0120651D01*
X0210337Y0119866D02*
X0213107Y0119866D01*
X0213110Y0119080D02*
X0210337Y0119080D01*
X0210337Y0118294D02*
X0213436Y0118294D01*
X0213835Y0117508D02*
X0210337Y0117508D01*
X0210337Y0116722D02*
X0214621Y0116722D01*
X0214091Y0115936D02*
X0210337Y0115936D01*
X0210337Y0115150D02*
X0213542Y0115150D01*
X0213216Y0114364D02*
X0210337Y0114364D01*
X0210337Y0113578D02*
X0213107Y0113578D01*
X0213107Y0112792D02*
X0210337Y0112792D01*
X0210337Y0112006D02*
X0213322Y0112006D01*
X0213647Y0111220D02*
X0210337Y0111220D01*
X0210337Y0110435D02*
X0214346Y0110435D01*
X0215571Y0109649D02*
X0210337Y0109649D01*
X0211111Y0108077D02*
X0233963Y0108077D01*
X0233177Y0107291D02*
X0211465Y0107291D01*
X0211672Y0106505D02*
X0232391Y0106505D01*
X0231606Y0105719D02*
X0211672Y0105719D01*
X0211455Y0104933D02*
X0230820Y0104933D01*
X0234189Y0102575D02*
X0234712Y0102575D01*
X0234975Y0103361D02*
X0235498Y0103361D01*
X0235761Y0104147D02*
X0236284Y0104147D01*
X0236547Y0104933D02*
X0237070Y0104933D01*
X0237333Y0105719D02*
X0237856Y0105719D01*
X0238118Y0106505D02*
X0238641Y0106505D01*
X0238904Y0107291D02*
X0239427Y0107291D01*
X0239690Y0108077D02*
X0240213Y0108077D01*
X0240476Y0108863D02*
X0240999Y0108863D01*
X0241262Y0109649D02*
X0241785Y0109649D01*
X0242048Y0110435D02*
X0242571Y0110435D01*
X0242834Y0111220D02*
X0243357Y0111220D01*
X0243620Y0112006D02*
X0244143Y0112006D01*
X0244406Y0112792D02*
X0244929Y0112792D01*
X0245192Y0113578D02*
X0245715Y0113578D01*
X0245978Y0114364D02*
X0246501Y0114364D01*
X0246764Y0115150D02*
X0247287Y0115150D01*
X0247549Y0115936D02*
X0248072Y0115936D01*
X0248335Y0116722D02*
X0248858Y0116722D01*
X0249121Y0117508D02*
X0249644Y0117508D01*
X0249907Y0118294D02*
X0250430Y0118294D01*
X0250693Y0119080D02*
X0251829Y0119080D01*
X0251479Y0119866D02*
X0252994Y0119866D01*
X0252265Y0120651D02*
X0264100Y0120651D01*
X0264100Y0119866D02*
X0255506Y0119866D01*
X0256671Y0119080D02*
X0264100Y0119080D01*
X0264100Y0118294D02*
X0257246Y0118294D01*
X0257572Y0117508D02*
X0264100Y0117508D01*
X0264100Y0116722D02*
X0257609Y0116722D01*
X0257549Y0115936D02*
X0264100Y0115936D01*
X0264100Y0115150D02*
X0257223Y0115150D01*
X0256615Y0114364D02*
X0264100Y0114364D01*
X0264100Y0113578D02*
X0255370Y0113578D01*
X0256631Y0112006D02*
X0249870Y0112006D01*
X0249607Y0111220D02*
X0249084Y0111220D01*
X0248821Y0110435D02*
X0248298Y0110435D01*
X0248035Y0109649D02*
X0247512Y0109649D01*
X0247249Y0108863D02*
X0246726Y0108863D01*
X0246463Y0108077D02*
X0245940Y0108077D01*
X0245677Y0107291D02*
X0245154Y0107291D01*
X0244891Y0106505D02*
X0244368Y0106505D01*
X0244106Y0105719D02*
X0243583Y0105719D01*
X0243320Y0104933D02*
X0242797Y0104933D01*
X0242534Y0104147D02*
X0242011Y0104147D01*
X0241748Y0103361D02*
X0241225Y0103361D01*
X0240962Y0102575D02*
X0240439Y0102575D01*
X0240176Y0101790D02*
X0239653Y0101790D01*
X0239390Y0101004D02*
X0238867Y0101004D01*
X0238604Y0100218D02*
X0238081Y0100218D01*
X0241188Y0097074D02*
X0248079Y0097074D01*
X0247247Y0096288D02*
X0240402Y0096288D01*
X0241973Y0097860D02*
X0248912Y0097860D01*
X0249744Y0098646D02*
X0242759Y0098646D01*
X0243545Y0099432D02*
X0251023Y0099432D01*
X0245903Y0101790D02*
X0269208Y0101790D01*
X0268422Y0102575D02*
X0246689Y0102575D01*
X0247475Y0103361D02*
X0267636Y0103361D01*
X0266850Y0104147D02*
X0248261Y0104147D01*
X0249047Y0104933D02*
X0266850Y0104933D01*
X0266850Y0105719D02*
X0249833Y0105719D01*
X0250618Y0106505D02*
X0257541Y0106505D01*
X0256459Y0107291D02*
X0251404Y0107291D01*
X0245117Y0101004D02*
X0274919Y0101004D01*
X0275705Y0101790D02*
X0274042Y0101790D01*
X0274828Y0102575D02*
X0276490Y0102575D01*
X0277276Y0103361D02*
X0275614Y0103361D01*
X0276400Y0104147D02*
X0278062Y0104147D01*
X0278848Y0104933D02*
X0276400Y0104933D01*
X0276400Y0105719D02*
X0279634Y0105719D01*
X0280420Y0106505D02*
X0276400Y0106505D01*
X0276400Y0107291D02*
X0281206Y0107291D01*
X0281992Y0108077D02*
X0276486Y0108077D01*
X0276531Y0108863D02*
X0282778Y0108863D01*
X0283564Y0109649D02*
X0276531Y0109649D01*
X0276531Y0110435D02*
X0284350Y0110435D01*
X0285136Y0111220D02*
X0276531Y0111220D01*
X0276531Y0112006D02*
X0279431Y0112006D01*
X0279776Y0111661D02*
X0281231Y0111661D01*
X0281231Y0115731D01*
X0277161Y0115731D01*
X0277161Y0114276D01*
X0279776Y0111661D01*
X0281231Y0112006D02*
X0282019Y0112006D01*
X0282019Y0112792D02*
X0281231Y0112792D01*
X0281231Y0113578D02*
X0282019Y0113578D01*
X0282019Y0114364D02*
X0281231Y0114364D01*
X0281231Y0115150D02*
X0282019Y0115150D01*
X0281231Y0115936D02*
X0276270Y0115936D01*
X0276270Y0116722D02*
X0277161Y0116722D01*
X0277161Y0117508D02*
X0276270Y0117508D01*
X0276703Y0118294D02*
X0277481Y0118294D01*
X0277468Y0119080D02*
X0278267Y0119080D01*
X0279053Y0119866D02*
X0277468Y0119866D01*
X0277468Y0120651D02*
X0285557Y0120651D01*
X0285557Y0119866D02*
X0284197Y0119866D01*
X0284983Y0119080D02*
X0285557Y0119080D01*
X0285557Y0121437D02*
X0277468Y0121437D01*
X0281231Y0119866D02*
X0282019Y0119866D01*
X0282019Y0119080D02*
X0281231Y0119080D01*
X0281231Y0118294D02*
X0282019Y0118294D01*
X0282019Y0117508D02*
X0281231Y0117508D01*
X0281231Y0116722D02*
X0282019Y0116722D01*
X0284605Y0112792D02*
X0285557Y0112792D01*
X0285557Y0112006D02*
X0283819Y0112006D01*
X0285391Y0113578D02*
X0285557Y0113578D01*
X0289787Y0108077D02*
X0289988Y0108077D01*
X0289988Y0107291D02*
X0289001Y0107291D01*
X0288215Y0106505D02*
X0289988Y0106505D01*
X0289988Y0105719D02*
X0287429Y0105719D01*
X0286643Y0104933D02*
X0289988Y0104933D01*
X0289988Y0104147D02*
X0285857Y0104147D01*
X0285071Y0103361D02*
X0289988Y0103361D01*
X0289988Y0102575D02*
X0284285Y0102575D01*
X0283499Y0101790D02*
X0289988Y0101790D01*
X0289988Y0101004D02*
X0282714Y0101004D01*
X0281928Y0100218D02*
X0289988Y0100218D01*
X0289988Y0099432D02*
X0281142Y0099432D01*
X0280356Y0098646D02*
X0289988Y0098646D01*
X0289988Y0097860D02*
X0279570Y0097860D01*
X0278784Y0097074D02*
X0289988Y0097074D01*
X0289988Y0096288D02*
X0277998Y0096288D01*
X0277212Y0095502D02*
X0289988Y0095502D01*
X0289988Y0094716D02*
X0276426Y0094716D01*
X0273073Y0092359D02*
X0289988Y0092359D01*
X0289988Y0093144D02*
X0271381Y0093144D01*
X0271381Y0093930D02*
X0289988Y0093930D01*
X0289988Y0091573D02*
X0273743Y0091573D01*
X0273743Y0090787D02*
X0289988Y0090787D01*
X0289988Y0090001D02*
X0273743Y0090001D01*
X0273743Y0089215D02*
X0289988Y0089215D01*
X0289988Y0088429D02*
X0273743Y0088429D01*
X0273743Y0087643D02*
X0289988Y0087643D01*
X0289988Y0086857D02*
X0273743Y0086857D01*
X0273743Y0086071D02*
X0289988Y0086071D01*
X0289988Y0085285D02*
X0273743Y0085285D01*
X0273743Y0084499D02*
X0289988Y0084499D01*
X0289988Y0083714D02*
X0273372Y0083714D01*
X0272387Y0082928D02*
X0289988Y0082928D01*
X0289988Y0082142D02*
X0272387Y0082142D01*
X0272541Y0081356D02*
X0289988Y0081356D01*
X0289988Y0080570D02*
X0273456Y0080570D01*
X0273562Y0079784D02*
X0289988Y0079784D01*
X0289988Y0078998D02*
X0273562Y0078998D01*
X0273562Y0078212D02*
X0289988Y0078212D01*
X0289988Y0077426D02*
X0273562Y0077426D01*
X0273562Y0075854D02*
X0289988Y0075854D01*
X0289988Y0075068D02*
X0273562Y0075068D01*
X0273562Y0074283D02*
X0289988Y0074283D01*
X0289988Y0073497D02*
X0273553Y0073497D01*
X0273136Y0072711D02*
X0289988Y0072711D01*
X0289988Y0071925D02*
X0255337Y0071925D01*
X0255337Y0072711D02*
X0264114Y0072711D01*
X0263697Y0073497D02*
X0255337Y0073497D01*
X0255337Y0074283D02*
X0263688Y0074283D01*
X0263688Y0075068D02*
X0255337Y0075068D01*
X0255337Y0075854D02*
X0263688Y0075854D01*
X0263688Y0077426D02*
X0255337Y0077426D01*
X0255337Y0076640D02*
X0268231Y0076640D01*
X0268231Y0075854D02*
X0269019Y0075854D01*
X0269019Y0075068D02*
X0268231Y0075068D01*
X0268231Y0074283D02*
X0269019Y0074283D01*
X0269019Y0073497D02*
X0268231Y0073497D01*
X0268231Y0072711D02*
X0269019Y0072711D01*
X0269019Y0076640D02*
X0289988Y0076640D01*
X0289988Y0071139D02*
X0255337Y0071139D01*
X0255337Y0070353D02*
X0289988Y0070353D01*
X0289988Y0069567D02*
X0255546Y0069567D01*
X0255337Y0069776D02*
X0255337Y0084962D01*
X0256160Y0085785D01*
X0256672Y0087019D01*
X0256672Y0088356D01*
X0256160Y0089590D01*
X0255215Y0090535D01*
X0253981Y0091047D01*
X0252644Y0091047D01*
X0251410Y0090535D01*
X0250465Y0089590D01*
X0249953Y0088356D01*
X0249953Y0087019D01*
X0250465Y0085785D01*
X0251288Y0084962D01*
X0251288Y0068099D01*
X0280350Y0039036D01*
X0280350Y0030868D01*
X0280181Y0030868D01*
X0278438Y0030146D01*
X0277104Y0028812D01*
X0276382Y0027069D01*
X0276382Y0025181D01*
X0277104Y0023438D01*
X0278438Y0022104D01*
X0280181Y0021382D01*
X0282069Y0021382D01*
X0283812Y0022104D01*
X0285146Y0023438D01*
X0285868Y0025181D01*
X0285868Y0027069D01*
X0285146Y0028812D01*
X0284400Y0029558D01*
X0284400Y0040714D01*
X0283214Y0041900D01*
X0283214Y0041900D01*
X0255337Y0069776D01*
X0256332Y0068781D02*
X0289988Y0068781D01*
X0289988Y0067995D02*
X0257118Y0067995D01*
X0257904Y0067209D02*
X0289988Y0067209D01*
X0289988Y0066423D02*
X0258690Y0066423D01*
X0259476Y0065638D02*
X0289988Y0065638D01*
X0289988Y0064852D02*
X0260262Y0064852D01*
X0261048Y0064066D02*
X0289988Y0064066D01*
X0289988Y0063280D02*
X0261834Y0063280D01*
X0262620Y0062494D02*
X0289988Y0062494D01*
X0289988Y0061708D02*
X0263406Y0061708D01*
X0264191Y0060922D02*
X0289988Y0060922D01*
X0289988Y0060136D02*
X0264977Y0060136D01*
X0265763Y0059350D02*
X0289988Y0059350D01*
X0289988Y0058564D02*
X0266549Y0058564D01*
X0267335Y0057778D02*
X0289988Y0057778D01*
X0289988Y0056992D02*
X0268121Y0056992D01*
X0268907Y0056207D02*
X0289988Y0056207D01*
X0289988Y0055421D02*
X0269693Y0055421D01*
X0270479Y0054635D02*
X0289988Y0054635D01*
X0289988Y0053849D02*
X0271265Y0053849D01*
X0272051Y0053063D02*
X0289988Y0053063D01*
X0289988Y0052277D02*
X0272836Y0052277D01*
X0273622Y0051491D02*
X0289988Y0051491D01*
X0289988Y0050705D02*
X0274408Y0050705D01*
X0275194Y0049919D02*
X0289988Y0049919D01*
X0289988Y0049133D02*
X0275980Y0049133D01*
X0276766Y0048347D02*
X0289988Y0048347D01*
X0289988Y0047562D02*
X0277552Y0047562D01*
X0278338Y0046776D02*
X0289988Y0046776D01*
X0289988Y0045990D02*
X0279124Y0045990D01*
X0279910Y0045204D02*
X0289988Y0045204D01*
X0289988Y0044418D02*
X0280696Y0044418D01*
X0281482Y0043632D02*
X0289988Y0043632D01*
X0289988Y0042846D02*
X0282267Y0042846D01*
X0283053Y0042060D02*
X0289988Y0042060D01*
X0289988Y0041274D02*
X0283839Y0041274D01*
X0284400Y0040488D02*
X0289988Y0040488D01*
X0289988Y0039702D02*
X0284400Y0039702D01*
X0284400Y0038916D02*
X0289988Y0038916D01*
X0289988Y0038131D02*
X0284400Y0038131D01*
X0284400Y0037345D02*
X0289988Y0037345D01*
X0289988Y0036559D02*
X0284400Y0036559D01*
X0284400Y0035773D02*
X0289988Y0035773D01*
X0289988Y0034987D02*
X0284400Y0034987D01*
X0284400Y0034201D02*
X0289988Y0034201D01*
X0289988Y0033415D02*
X0284400Y0033415D01*
X0284400Y0032629D02*
X0289988Y0032629D01*
X0289988Y0031843D02*
X0284400Y0031843D01*
X0284400Y0031057D02*
X0289988Y0031057D01*
X0289988Y0030271D02*
X0284400Y0030271D01*
X0284473Y0029486D02*
X0289988Y0029486D01*
X0289988Y0028700D02*
X0285193Y0028700D01*
X0285518Y0027914D02*
X0289988Y0027914D01*
X0289988Y0027128D02*
X0285844Y0027128D01*
X0285868Y0026342D02*
X0289988Y0026342D01*
X0289931Y0025556D02*
X0285868Y0025556D01*
X0285698Y0024770D02*
X0289784Y0024770D01*
X0289529Y0023984D02*
X0285372Y0023984D01*
X0284906Y0023198D02*
X0289273Y0023198D01*
X0288824Y0022412D02*
X0284120Y0022412D01*
X0282659Y0021626D02*
X0288253Y0021626D01*
X0287573Y0020840D02*
X0274251Y0020840D01*
X0273756Y0020345D02*
X0275063Y0021652D01*
X0275770Y0023359D01*
X0275770Y0028891D01*
X0275063Y0030598D01*
X0273756Y0031905D01*
X0272049Y0032612D01*
X0270201Y0032612D01*
X0268494Y0031905D01*
X0267187Y0030598D01*
X0266480Y0028891D01*
X0266480Y0023359D01*
X0267187Y0021652D01*
X0268494Y0020345D01*
X0270201Y0019638D01*
X0272049Y0019638D01*
X0273756Y0020345D01*
X0273054Y0020055D02*
X0286491Y0020055D01*
X0284782Y0019269D02*
X0029968Y0019269D01*
X0028259Y0020055D02*
X0130128Y0020055D01*
X0132122Y0020055D02*
X0140128Y0020055D01*
X0138450Y0020840D02*
X0133800Y0020840D01*
X0134586Y0021626D02*
X0137664Y0021626D01*
X0137157Y0022412D02*
X0135093Y0022412D01*
X0135418Y0023198D02*
X0136832Y0023198D01*
X0136677Y0023984D02*
X0135573Y0023984D01*
X0135573Y0024770D02*
X0136677Y0024770D01*
X0136677Y0025556D02*
X0135573Y0025556D01*
X0135573Y0026342D02*
X0136677Y0026342D01*
X0136677Y0027128D02*
X0135573Y0027128D01*
X0135573Y0027914D02*
X0136677Y0027914D01*
X0136677Y0028700D02*
X0135573Y0028700D01*
X0135284Y0029486D02*
X0136957Y0029486D01*
X0136957Y0030271D02*
X0134959Y0030271D01*
X0134262Y0031057D02*
X0136957Y0031057D01*
X0136957Y0031843D02*
X0133238Y0031843D01*
X0129012Y0031843D02*
X0114936Y0031843D01*
X0114936Y0031057D02*
X0127988Y0031057D01*
X0127291Y0030271D02*
X0114387Y0030271D01*
X0114936Y0032629D02*
X0122615Y0032629D01*
X0122960Y0032629D02*
X0136957Y0032629D01*
X0144043Y0032629D02*
X0167389Y0032629D01*
X0167413Y0031843D02*
X0163238Y0031843D01*
X0163645Y0031675D02*
X0162010Y0032352D01*
X0160240Y0032352D01*
X0158605Y0031675D01*
X0157354Y0030424D01*
X0156677Y0028789D01*
X0156677Y0023571D01*
X0157354Y0021937D01*
X0158605Y0020685D01*
X0160240Y0020008D01*
X0162010Y0020008D01*
X0163645Y0020685D01*
X0164896Y0021937D01*
X0165573Y0023571D01*
X0165573Y0028789D01*
X0164896Y0030424D01*
X0163645Y0031675D01*
X0164262Y0031057D02*
X0167436Y0031057D01*
X0167291Y0030271D02*
X0164959Y0030271D01*
X0165284Y0029486D02*
X0166966Y0029486D01*
X0166677Y0028700D02*
X0165573Y0028700D01*
X0165573Y0027914D02*
X0166677Y0027914D01*
X0166677Y0027128D02*
X0165573Y0027128D01*
X0165573Y0026342D02*
X0166677Y0026342D01*
X0166677Y0025556D02*
X0165573Y0025556D01*
X0165573Y0024770D02*
X0166677Y0024770D01*
X0166677Y0023984D02*
X0165573Y0023984D01*
X0165418Y0023198D02*
X0166832Y0023198D01*
X0167157Y0022412D02*
X0165093Y0022412D01*
X0164586Y0021626D02*
X0167664Y0021626D01*
X0168450Y0020840D02*
X0163800Y0020840D01*
X0162122Y0020055D02*
X0170128Y0020055D01*
X0172122Y0020055D02*
X0200128Y0020055D01*
X0200240Y0020008D02*
X0202010Y0020008D01*
X0203645Y0020685D01*
X0204896Y0021937D01*
X0205573Y0023571D01*
X0205573Y0028789D01*
X0204896Y0030424D01*
X0203645Y0031675D01*
X0202010Y0032352D01*
X0200240Y0032352D01*
X0198605Y0031675D01*
X0197354Y0030424D01*
X0196677Y0028789D01*
X0196677Y0023571D01*
X0197354Y0021937D01*
X0198605Y0020685D01*
X0200240Y0020008D01*
X0202122Y0020055D02*
X0219196Y0020055D01*
X0218494Y0020345D02*
X0220201Y0019638D01*
X0222049Y0019638D01*
X0223756Y0020345D01*
X0225063Y0021652D01*
X0225770Y0023359D01*
X0225770Y0028891D01*
X0225063Y0030598D01*
X0223756Y0031905D01*
X0222049Y0032612D01*
X0220201Y0032612D01*
X0218494Y0031905D01*
X0217187Y0030598D01*
X0216480Y0028891D01*
X0216480Y0023359D01*
X0217187Y0021652D01*
X0218494Y0020345D01*
X0217999Y0020840D02*
X0203800Y0020840D01*
X0204586Y0021626D02*
X0217213Y0021626D01*
X0216872Y0022412D02*
X0205093Y0022412D01*
X0205418Y0023198D02*
X0216547Y0023198D01*
X0216480Y0023984D02*
X0205573Y0023984D01*
X0205573Y0024770D02*
X0216480Y0024770D01*
X0216480Y0025556D02*
X0205573Y0025556D01*
X0205573Y0026342D02*
X0216480Y0026342D01*
X0216480Y0027128D02*
X0205573Y0027128D01*
X0205573Y0027914D02*
X0216480Y0027914D01*
X0216480Y0028700D02*
X0205573Y0028700D01*
X0205284Y0029486D02*
X0216726Y0029486D01*
X0217052Y0030271D02*
X0204959Y0030271D01*
X0204262Y0031057D02*
X0217646Y0031057D01*
X0218432Y0031843D02*
X0203238Y0031843D01*
X0199012Y0031843D02*
X0192793Y0031843D01*
X0192763Y0031858D02*
X0192124Y0032066D01*
X0191519Y0032162D01*
X0191519Y0026574D01*
X0195392Y0026574D01*
X0195392Y0028240D01*
X0195287Y0028903D01*
X0195079Y0029542D01*
X0194774Y0030140D01*
X0194380Y0030684D01*
X0193905Y0031159D01*
X0193361Y0031553D01*
X0192763Y0031858D01*
X0191519Y0031843D02*
X0190731Y0031843D01*
X0190731Y0032162D02*
X0190126Y0032066D01*
X0189487Y0031858D01*
X0188889Y0031553D01*
X0188345Y0031159D01*
X0187870Y0030684D01*
X0187476Y0030140D01*
X0187171Y0029542D01*
X0186963Y0028903D01*
X0186858Y0028240D01*
X0186858Y0026574D01*
X0190731Y0026574D01*
X0190731Y0025786D01*
X0191519Y0025786D01*
X0191519Y0020198D01*
X0192124Y0020294D01*
X0192763Y0020502D01*
X0193361Y0020807D01*
X0193905Y0021202D01*
X0194380Y0021676D01*
X0194774Y0022220D01*
X0195079Y0022818D01*
X0195287Y0023457D01*
X0195392Y0024120D01*
X0195392Y0025786D01*
X0191519Y0025786D01*
X0191519Y0026574D01*
X0190731Y0026574D01*
X0190731Y0032162D01*
X0190731Y0031057D02*
X0191519Y0031057D01*
X0191519Y0030271D02*
X0190731Y0030271D01*
X0190731Y0029486D02*
X0191519Y0029486D01*
X0191519Y0028700D02*
X0190731Y0028700D01*
X0190731Y0027914D02*
X0191519Y0027914D01*
X0191519Y0027128D02*
X0190731Y0027128D01*
X0190731Y0026342D02*
X0181519Y0026342D01*
X0181519Y0026574D02*
X0185392Y0026574D01*
X0185392Y0028240D01*
X0185287Y0028903D01*
X0185079Y0029542D01*
X0184774Y0030140D01*
X0184380Y0030684D01*
X0183905Y0031159D01*
X0183361Y0031553D01*
X0182763Y0031858D01*
X0182124Y0032066D01*
X0181519Y0032162D01*
X0181519Y0026574D01*
X0181519Y0025786D01*
X0181519Y0020198D01*
X0182124Y0020294D01*
X0182763Y0020502D01*
X0183361Y0020807D01*
X0183905Y0021202D01*
X0184380Y0021676D01*
X0184774Y0022220D01*
X0185079Y0022818D01*
X0185287Y0023457D01*
X0185392Y0024120D01*
X0185392Y0025786D01*
X0181519Y0025786D01*
X0180731Y0025786D01*
X0180731Y0020198D01*
X0180126Y0020294D01*
X0179487Y0020502D01*
X0178889Y0020807D01*
X0178345Y0021202D01*
X0177870Y0021676D01*
X0177476Y0022220D01*
X0177171Y0022818D01*
X0176963Y0023457D01*
X0176858Y0024120D01*
X0176858Y0025786D01*
X0180731Y0025786D01*
X0180731Y0026574D01*
X0176858Y0026574D01*
X0176858Y0028240D01*
X0176963Y0028903D01*
X0177171Y0029542D01*
X0177476Y0030140D01*
X0177870Y0030684D01*
X0178345Y0031159D01*
X0178889Y0031553D01*
X0179487Y0031858D01*
X0180126Y0032066D01*
X0180731Y0032162D01*
X0180731Y0026574D01*
X0181519Y0026574D01*
X0181519Y0027128D02*
X0180731Y0027128D01*
X0180731Y0027914D02*
X0181519Y0027914D01*
X0181519Y0028700D02*
X0180731Y0028700D01*
X0180731Y0029486D02*
X0181519Y0029486D01*
X0181519Y0030271D02*
X0180731Y0030271D01*
X0180731Y0031057D02*
X0181519Y0031057D01*
X0181519Y0031843D02*
X0180731Y0031843D01*
X0179457Y0031843D02*
X0174502Y0031843D01*
X0174526Y0031057D02*
X0178244Y0031057D01*
X0177571Y0030271D02*
X0174959Y0030271D01*
X0175284Y0029486D02*
X0177152Y0029486D01*
X0176931Y0028700D02*
X0175573Y0028700D01*
X0175573Y0027914D02*
X0176858Y0027914D01*
X0176858Y0027128D02*
X0175573Y0027128D01*
X0175573Y0026342D02*
X0180731Y0026342D01*
X0180731Y0025556D02*
X0181519Y0025556D01*
X0181519Y0024770D02*
X0180731Y0024770D01*
X0180731Y0023984D02*
X0181519Y0023984D01*
X0181519Y0023198D02*
X0180731Y0023198D01*
X0180731Y0022412D02*
X0181519Y0022412D01*
X0181519Y0021626D02*
X0180731Y0021626D01*
X0180731Y0020840D02*
X0181519Y0020840D01*
X0183408Y0020840D02*
X0188842Y0020840D01*
X0188889Y0020807D02*
X0189487Y0020502D01*
X0190126Y0020294D01*
X0190731Y0020198D01*
X0190731Y0025786D01*
X0186858Y0025786D01*
X0186858Y0024120D01*
X0186963Y0023457D01*
X0187171Y0022818D01*
X0187476Y0022220D01*
X0187870Y0021676D01*
X0188345Y0021202D01*
X0188889Y0020807D01*
X0187920Y0021626D02*
X0184330Y0021626D01*
X0184872Y0022412D02*
X0187378Y0022412D01*
X0187047Y0023198D02*
X0185203Y0023198D01*
X0185370Y0023984D02*
X0186880Y0023984D01*
X0186858Y0024770D02*
X0185392Y0024770D01*
X0185392Y0025556D02*
X0186858Y0025556D01*
X0186858Y0027128D02*
X0185392Y0027128D01*
X0185392Y0027914D02*
X0186858Y0027914D01*
X0186931Y0028700D02*
X0185319Y0028700D01*
X0185098Y0029486D02*
X0187152Y0029486D01*
X0187571Y0030271D02*
X0184679Y0030271D01*
X0184006Y0031057D02*
X0188244Y0031057D01*
X0189457Y0031843D02*
X0182793Y0031843D01*
X0185473Y0033415D02*
X0280350Y0033415D01*
X0280350Y0032629D02*
X0174479Y0032629D01*
X0175573Y0025556D02*
X0176858Y0025556D01*
X0176858Y0024770D02*
X0175573Y0024770D01*
X0175573Y0023984D02*
X0176880Y0023984D01*
X0177047Y0023198D02*
X0175418Y0023198D01*
X0175093Y0022412D02*
X0177378Y0022412D01*
X0177920Y0021626D02*
X0174586Y0021626D01*
X0173800Y0020840D02*
X0178842Y0020840D01*
X0190731Y0020840D02*
X0191519Y0020840D01*
X0191519Y0021626D02*
X0190731Y0021626D01*
X0190731Y0022412D02*
X0191519Y0022412D01*
X0191519Y0023198D02*
X0190731Y0023198D01*
X0190731Y0023984D02*
X0191519Y0023984D01*
X0191519Y0024770D02*
X0190731Y0024770D01*
X0190731Y0025556D02*
X0191519Y0025556D01*
X0191519Y0026342D02*
X0196677Y0026342D01*
X0196677Y0027128D02*
X0195392Y0027128D01*
X0195392Y0027914D02*
X0196677Y0027914D01*
X0196677Y0028700D02*
X0195319Y0028700D01*
X0195098Y0029486D02*
X0196966Y0029486D01*
X0197291Y0030271D02*
X0194679Y0030271D01*
X0194006Y0031057D02*
X0197988Y0031057D01*
X0196677Y0025556D02*
X0195392Y0025556D01*
X0195392Y0024770D02*
X0196677Y0024770D01*
X0196677Y0023984D02*
X0195370Y0023984D01*
X0195203Y0023198D02*
X0196832Y0023198D01*
X0197157Y0022412D02*
X0194872Y0022412D01*
X0194330Y0021626D02*
X0197664Y0021626D01*
X0198450Y0020840D02*
X0193408Y0020840D01*
X0186259Y0034201D02*
X0280350Y0034201D01*
X0280350Y0034987D02*
X0187045Y0034987D01*
X0187831Y0035773D02*
X0280350Y0035773D01*
X0280350Y0036559D02*
X0188617Y0036559D01*
X0189402Y0037345D02*
X0280350Y0037345D01*
X0280350Y0038131D02*
X0190188Y0038131D01*
X0190737Y0038916D02*
X0280350Y0038916D01*
X0279684Y0039702D02*
X0191063Y0039702D01*
X0191190Y0040488D02*
X0278898Y0040488D01*
X0278112Y0041274D02*
X0205158Y0041274D01*
X0205406Y0042060D02*
X0277326Y0042060D01*
X0276540Y0042846D02*
X0205406Y0042846D01*
X0205406Y0043632D02*
X0275755Y0043632D01*
X0274969Y0044418D02*
X0205406Y0044418D01*
X0205406Y0045222D02*
X0202606Y0045222D01*
X0202606Y0048972D01*
X0204196Y0048972D01*
X0204551Y0048877D01*
X0204868Y0048694D01*
X0205128Y0048434D01*
X0205311Y0048116D01*
X0205406Y0047762D01*
X0205406Y0045222D01*
X0205406Y0045990D02*
X0273397Y0045990D01*
X0272611Y0046776D02*
X0205406Y0046776D01*
X0205406Y0047562D02*
X0271825Y0047562D01*
X0271039Y0048347D02*
X0205178Y0048347D01*
X0202606Y0048347D02*
X0201819Y0048347D01*
X0201819Y0047562D02*
X0202606Y0047562D01*
X0202606Y0046776D02*
X0201819Y0046776D01*
X0201819Y0045990D02*
X0202606Y0045990D01*
X0202606Y0045204D02*
X0274183Y0045204D01*
X0270253Y0049133D02*
X0196392Y0049133D01*
X0191448Y0049133D02*
X0191190Y0049133D01*
X0191190Y0049919D02*
X0269467Y0049919D01*
X0268681Y0050705D02*
X0191190Y0050705D01*
X0191190Y0051491D02*
X0267895Y0051491D01*
X0267109Y0052277D02*
X0191190Y0052277D01*
X0191190Y0053063D02*
X0266324Y0053063D01*
X0265538Y0053849D02*
X0191190Y0053849D01*
X0191190Y0054635D02*
X0264752Y0054635D01*
X0263966Y0055421D02*
X0191190Y0055421D01*
X0191190Y0056207D02*
X0263180Y0056207D01*
X0262394Y0056992D02*
X0191190Y0056992D01*
X0191190Y0057778D02*
X0261608Y0057778D01*
X0260822Y0058564D02*
X0191190Y0058564D01*
X0191190Y0059350D02*
X0260036Y0059350D01*
X0259250Y0060136D02*
X0191190Y0060136D01*
X0191190Y0060922D02*
X0258464Y0060922D01*
X0257679Y0061708D02*
X0191190Y0061708D01*
X0191190Y0062494D02*
X0256893Y0062494D01*
X0256107Y0063280D02*
X0191190Y0063280D01*
X0191190Y0064066D02*
X0255321Y0064066D01*
X0254535Y0064852D02*
X0191190Y0064852D01*
X0191190Y0065638D02*
X0253749Y0065638D01*
X0252963Y0066423D02*
X0191190Y0066423D01*
X0191190Y0067209D02*
X0252177Y0067209D01*
X0251391Y0067995D02*
X0191190Y0067995D01*
X0191190Y0068781D02*
X0251288Y0068781D01*
X0251288Y0069567D02*
X0191190Y0069567D01*
X0191190Y0070353D02*
X0251288Y0070353D01*
X0251288Y0071139D02*
X0191190Y0071139D01*
X0191190Y0071925D02*
X0251288Y0071925D01*
X0251288Y0072711D02*
X0191190Y0072711D01*
X0191190Y0073497D02*
X0251288Y0073497D01*
X0251288Y0074283D02*
X0191190Y0074283D01*
X0191190Y0075068D02*
X0251288Y0075068D01*
X0251288Y0075854D02*
X0191190Y0075854D01*
X0191190Y0076640D02*
X0251288Y0076640D01*
X0251288Y0077426D02*
X0191190Y0077426D01*
X0191190Y0078212D02*
X0251288Y0078212D01*
X0251288Y0078998D02*
X0191636Y0078998D01*
X0192422Y0079784D02*
X0251288Y0079784D01*
X0251288Y0080570D02*
X0193207Y0080570D01*
X0193993Y0081356D02*
X0251288Y0081356D01*
X0251288Y0082142D02*
X0219853Y0082142D01*
X0221246Y0082928D02*
X0251288Y0082928D01*
X0251288Y0083714D02*
X0221807Y0083714D01*
X0222368Y0084499D02*
X0251288Y0084499D01*
X0250964Y0085285D02*
X0222930Y0085285D01*
X0223491Y0086071D02*
X0250346Y0086071D01*
X0250021Y0086857D02*
X0224053Y0086857D01*
X0224614Y0087643D02*
X0249953Y0087643D01*
X0249984Y0088429D02*
X0225452Y0088429D01*
X0220578Y0091573D02*
X0193881Y0091573D01*
X0193881Y0092359D02*
X0220683Y0092359D01*
X0221009Y0093144D02*
X0207082Y0093144D01*
X0208056Y0093930D02*
X0221680Y0093930D01*
X0223076Y0094716D02*
X0208552Y0094716D01*
X0208859Y0095502D02*
X0246415Y0095502D01*
X0245583Y0094716D02*
X0224799Y0094716D01*
X0220086Y0090787D02*
X0193881Y0090787D01*
X0193881Y0090001D02*
X0219525Y0090001D01*
X0218963Y0089215D02*
X0193881Y0089215D01*
X0193881Y0088429D02*
X0218402Y0088429D01*
X0217840Y0087643D02*
X0194745Y0087643D01*
X0193881Y0093144D02*
X0203918Y0093144D01*
X0202944Y0093930D02*
X0201806Y0093930D01*
X0197944Y0093930D02*
X0193881Y0093930D01*
X0193881Y0094716D02*
X0197158Y0094716D01*
X0196756Y0095502D02*
X0193881Y0095502D01*
X0193881Y0096288D02*
X0196516Y0096288D01*
X0196516Y0097074D02*
X0193881Y0097074D01*
X0193881Y0097860D02*
X0194015Y0097860D01*
X0172977Y0082928D02*
X0172678Y0082928D01*
X0172766Y0082142D02*
X0171170Y0082142D01*
X0169830Y0082142D02*
X0150118Y0082142D01*
X0149917Y0081864D02*
X0150370Y0082487D01*
X0150719Y0083174D01*
X0150957Y0083906D01*
X0151076Y0084658D01*
X0146578Y0084658D01*
X0146578Y0080160D01*
X0147330Y0080279D01*
X0148063Y0080517D01*
X0148749Y0080867D01*
X0149372Y0081319D01*
X0149917Y0081864D01*
X0149408Y0081356D02*
X0172766Y0081356D01*
X0172978Y0080570D02*
X0148166Y0080570D01*
X0146578Y0080570D02*
X0145790Y0080570D01*
X0145790Y0080160D02*
X0145790Y0084658D01*
X0146578Y0084658D01*
X0146578Y0085446D01*
X0151076Y0085446D01*
X0150957Y0086198D01*
X0150719Y0086931D01*
X0150370Y0087617D01*
X0149917Y0088240D01*
X0149372Y0088785D01*
X0148749Y0089238D01*
X0148063Y0089587D01*
X0147330Y0089825D01*
X0146578Y0089944D01*
X0146578Y0085446D01*
X0145790Y0085446D01*
X0145790Y0084658D01*
X0141292Y0084658D01*
X0141411Y0083906D01*
X0141649Y0083174D01*
X0141999Y0082487D01*
X0142451Y0081864D01*
X0142996Y0081319D01*
X0143619Y0080867D01*
X0144306Y0080517D01*
X0145038Y0080279D01*
X0145790Y0080160D01*
X0145790Y0081356D02*
X0146578Y0081356D01*
X0146578Y0082142D02*
X0145790Y0082142D01*
X0145790Y0082928D02*
X0146578Y0082928D01*
X0146578Y0083714D02*
X0145790Y0083714D01*
X0145790Y0084499D02*
X0146578Y0084499D01*
X0146578Y0085285D02*
X0167141Y0085285D01*
X0167141Y0086071D02*
X0150977Y0086071D01*
X0150743Y0086857D02*
X0167426Y0086857D01*
X0167135Y0087643D02*
X0150351Y0087643D01*
X0149728Y0088429D02*
X0166734Y0088429D01*
X0166333Y0089215D02*
X0148780Y0089215D01*
X0146578Y0089215D02*
X0145790Y0089215D01*
X0145790Y0089944D02*
X0145790Y0085446D01*
X0141292Y0085446D01*
X0141411Y0086198D01*
X0141649Y0086931D01*
X0141999Y0087617D01*
X0142451Y0088240D01*
X0142996Y0088785D01*
X0143619Y0089238D01*
X0144306Y0089587D01*
X0145038Y0089825D01*
X0145790Y0089944D01*
X0145790Y0088429D02*
X0146578Y0088429D01*
X0146578Y0087643D02*
X0145790Y0087643D01*
X0145790Y0086857D02*
X0146578Y0086857D01*
X0146578Y0086071D02*
X0145790Y0086071D01*
X0145790Y0085285D02*
X0113857Y0085285D01*
X0113853Y0086071D02*
X0141391Y0086071D01*
X0141625Y0086857D02*
X0113528Y0086857D01*
X0113202Y0087643D02*
X0142018Y0087643D01*
X0142640Y0088429D02*
X0112583Y0088429D01*
X0111932Y0089215D02*
X0143588Y0089215D01*
X0141317Y0084499D02*
X0114412Y0084499D01*
X0115214Y0083714D02*
X0141473Y0083714D01*
X0141774Y0082928D02*
X0116017Y0082928D01*
X0116820Y0082142D02*
X0142250Y0082142D01*
X0142960Y0081356D02*
X0117622Y0081356D01*
X0118425Y0080570D02*
X0144202Y0080570D01*
X0150594Y0082928D02*
X0168322Y0082928D01*
X0167604Y0083714D02*
X0150895Y0083714D01*
X0151051Y0084499D02*
X0167279Y0084499D01*
X0173341Y0079784D02*
X0119228Y0079784D01*
X0120030Y0078998D02*
X0174127Y0078998D01*
X0166356Y0071925D02*
X0127254Y0071925D01*
X0128057Y0071139D02*
X0166356Y0071139D01*
X0166497Y0070353D02*
X0128859Y0070353D01*
X0129662Y0069567D02*
X0166737Y0069567D01*
X0166737Y0068781D02*
X0130465Y0068781D01*
X0131267Y0067995D02*
X0166737Y0067995D01*
X0166453Y0067209D02*
X0132070Y0067209D01*
X0132873Y0066423D02*
X0166175Y0066423D01*
X0166175Y0065638D02*
X0133675Y0065638D01*
X0134478Y0064852D02*
X0166175Y0064852D01*
X0165481Y0064066D02*
X0135281Y0064066D01*
X0136083Y0063280D02*
X0164695Y0063280D01*
X0163909Y0062494D02*
X0136886Y0062494D01*
X0137689Y0061708D02*
X0163123Y0061708D01*
X0162337Y0060922D02*
X0138491Y0060922D01*
X0133178Y0056207D02*
X0123217Y0056207D01*
X0122448Y0056992D02*
X0132375Y0056992D01*
X0131573Y0057778D02*
X0121678Y0057778D01*
X0120909Y0058564D02*
X0130770Y0058564D01*
X0129967Y0059350D02*
X0120139Y0059350D01*
X0119370Y0060136D02*
X0129165Y0060136D01*
X0128362Y0060922D02*
X0118600Y0060922D01*
X0117830Y0061708D02*
X0127559Y0061708D01*
X0126757Y0062494D02*
X0117061Y0062494D01*
X0116291Y0063280D02*
X0125954Y0063280D01*
X0125151Y0064066D02*
X0115522Y0064066D01*
X0115085Y0064852D02*
X0124349Y0064852D01*
X0123546Y0065638D02*
X0115029Y0065638D01*
X0114973Y0066423D02*
X0122743Y0066423D01*
X0121941Y0067209D02*
X0114917Y0067209D01*
X0114861Y0067995D02*
X0121138Y0067995D01*
X0120335Y0068781D02*
X0114546Y0068781D01*
X0114153Y0069567D02*
X0119533Y0069567D01*
X0118730Y0070353D02*
X0113285Y0070353D01*
X0111546Y0071139D02*
X0117927Y0071139D01*
X0117125Y0071925D02*
X0091428Y0071925D01*
X0092221Y0071139D02*
X0110490Y0071139D01*
X0108287Y0070353D02*
X0093014Y0070353D01*
X0090635Y0072711D02*
X0116322Y0072711D01*
X0115520Y0073497D02*
X0089842Y0073497D01*
X0089049Y0074283D02*
X0114717Y0074283D01*
X0113914Y0075068D02*
X0088256Y0075068D01*
X0087463Y0075854D02*
X0113112Y0075854D01*
X0112309Y0076640D02*
X0086670Y0076640D01*
X0085877Y0077426D02*
X0089755Y0077426D01*
X0089323Y0077605D02*
X0091188Y0076833D01*
X0093207Y0076833D01*
X0095072Y0077605D01*
X0096500Y0079033D01*
X0097273Y0080898D01*
X0097273Y0082917D01*
X0096500Y0084782D01*
X0095072Y0086210D01*
X0093207Y0086982D01*
X0091188Y0086982D01*
X0089323Y0086210D01*
X0087896Y0084782D01*
X0087123Y0082917D01*
X0087123Y0080898D01*
X0087896Y0079033D01*
X0089323Y0077605D01*
X0088716Y0078212D02*
X0085084Y0078212D01*
X0084291Y0078998D02*
X0087930Y0078998D01*
X0087584Y0079784D02*
X0083498Y0079784D01*
X0082705Y0080570D02*
X0087259Y0080570D01*
X0087123Y0081356D02*
X0081912Y0081356D01*
X0081119Y0082142D02*
X0087123Y0082142D01*
X0087127Y0082928D02*
X0080326Y0082928D01*
X0079533Y0083714D02*
X0087453Y0083714D01*
X0087779Y0084499D02*
X0078740Y0084499D01*
X0077947Y0085285D02*
X0088399Y0085285D01*
X0089185Y0086071D02*
X0077154Y0086071D01*
X0076361Y0086857D02*
X0090886Y0086857D01*
X0093509Y0086857D02*
X0104037Y0086857D01*
X0103712Y0086071D02*
X0095211Y0086071D01*
X0095997Y0085285D02*
X0103708Y0085285D01*
X0103708Y0084499D02*
X0096617Y0084499D01*
X0096943Y0083714D02*
X0103844Y0083714D01*
X0104170Y0082928D02*
X0097268Y0082928D01*
X0097273Y0082142D02*
X0104516Y0082142D01*
X0105302Y0081356D02*
X0097273Y0081356D01*
X0097137Y0080570D02*
X0106343Y0080570D01*
X0109098Y0079784D02*
X0096811Y0079784D01*
X0096465Y0078998D02*
X0109901Y0078998D01*
X0110704Y0078212D02*
X0095679Y0078212D01*
X0094640Y0077426D02*
X0111506Y0077426D01*
X0104363Y0087643D02*
X0075568Y0087643D01*
X0074775Y0088429D02*
X0104982Y0088429D01*
X0105633Y0089215D02*
X0073982Y0089215D01*
X0073189Y0090001D02*
X0105633Y0090001D01*
X0105633Y0090787D02*
X0072396Y0090787D01*
X0071603Y0091573D02*
X0105633Y0091573D01*
X0104210Y0092359D02*
X0070810Y0092359D01*
X0070017Y0093144D02*
X0103507Y0093144D01*
X0103507Y0093930D02*
X0069224Y0093930D01*
X0068431Y0094716D02*
X0103507Y0094716D01*
X0103507Y0095502D02*
X0067638Y0095502D01*
X0066845Y0096288D02*
X0103507Y0096288D01*
X0103507Y0097074D02*
X0066052Y0097074D01*
X0065259Y0097860D02*
X0103507Y0097860D01*
X0103507Y0098646D02*
X0064466Y0098646D01*
X0063673Y0099432D02*
X0103507Y0099432D01*
X0103507Y0100218D02*
X0062880Y0100218D01*
X0062087Y0101004D02*
X0103845Y0101004D01*
X0104550Y0101790D02*
X0061294Y0101790D01*
X0060501Y0102575D02*
X0104550Y0102575D01*
X0104550Y0103361D02*
X0059708Y0103361D01*
X0058915Y0104147D02*
X0103813Y0104147D01*
X0103688Y0104933D02*
X0058122Y0104933D01*
X0057329Y0105719D02*
X0103688Y0105719D01*
X0103688Y0106505D02*
X0056536Y0106505D01*
X0055743Y0107291D02*
X0103688Y0107291D01*
X0103688Y0108863D02*
X0074525Y0108863D01*
X0075176Y0109649D02*
X0103688Y0109649D01*
X0103688Y0110435D02*
X0075243Y0110435D01*
X0075243Y0111220D02*
X0103688Y0111220D01*
X0104081Y0112006D02*
X0075243Y0112006D01*
X0075243Y0112792D02*
X0151288Y0112792D01*
X0151288Y0112006D02*
X0113169Y0112006D01*
X0113562Y0111220D02*
X0151288Y0111220D01*
X0151288Y0110435D02*
X0113562Y0110435D01*
X0113562Y0109649D02*
X0151288Y0109649D01*
X0151288Y0108863D02*
X0113562Y0108863D01*
X0113562Y0107291D02*
X0151288Y0107291D01*
X0151288Y0108077D02*
X0109019Y0108077D01*
X0109019Y0108863D02*
X0108231Y0108863D01*
X0108231Y0109649D02*
X0109019Y0109649D01*
X0109019Y0110435D02*
X0108231Y0110435D01*
X0108231Y0111220D02*
X0109019Y0111220D01*
X0109019Y0112006D02*
X0108231Y0112006D01*
X0108231Y0108077D02*
X0054950Y0108077D01*
X0054575Y0108863D02*
X0055518Y0108863D01*
X0054951Y0109649D02*
X0054575Y0109649D01*
X0054575Y0110435D02*
X0054951Y0110435D01*
X0046842Y0104933D02*
X0024762Y0104933D01*
X0024762Y0104147D02*
X0047338Y0104147D01*
X0048126Y0103361D02*
X0024762Y0103361D01*
X0024762Y0102575D02*
X0048924Y0102575D01*
X0049717Y0101790D02*
X0024762Y0101790D01*
X0024762Y0101004D02*
X0050510Y0101004D01*
X0051303Y0100218D02*
X0024762Y0100218D01*
X0024762Y0099432D02*
X0052095Y0099432D01*
X0052888Y0098646D02*
X0024762Y0098646D01*
X0024762Y0097860D02*
X0053681Y0097860D01*
X0054474Y0097074D02*
X0024762Y0097074D01*
X0024762Y0096288D02*
X0055267Y0096288D01*
X0056060Y0095502D02*
X0024762Y0095502D01*
X0024762Y0094716D02*
X0056853Y0094716D01*
X0057646Y0093930D02*
X0024762Y0093930D01*
X0024762Y0093144D02*
X0058439Y0093144D01*
X0059232Y0092359D02*
X0024762Y0092359D01*
X0024762Y0091573D02*
X0060025Y0091573D01*
X0060818Y0090787D02*
X0024762Y0090787D01*
X0024762Y0090001D02*
X0061611Y0090001D01*
X0062404Y0089215D02*
X0024762Y0089215D01*
X0024762Y0088429D02*
X0063197Y0088429D01*
X0067162Y0084499D02*
X0050965Y0084499D01*
X0050965Y0083714D02*
X0067955Y0083714D01*
X0068748Y0082928D02*
X0050965Y0082928D01*
X0050965Y0081356D02*
X0048165Y0081356D01*
X0048165Y0080570D02*
X0047378Y0080570D01*
X0047378Y0079784D02*
X0048165Y0079784D01*
X0048165Y0078998D02*
X0047378Y0078998D01*
X0047378Y0078212D02*
X0048165Y0078212D01*
X0047378Y0077606D02*
X0047378Y0081356D01*
X0050965Y0080570D02*
X0071127Y0080570D01*
X0071920Y0079784D02*
X0050965Y0079784D01*
X0050965Y0078998D02*
X0072713Y0078998D01*
X0073506Y0078212D02*
X0050726Y0078212D01*
X0047378Y0077606D02*
X0045788Y0077606D01*
X0045528Y0077676D01*
X0045527Y0077675D01*
X0042181Y0077675D01*
X0041931Y0077425D01*
X0037026Y0077425D01*
X0036104Y0078348D01*
X0036104Y0078600D01*
X0035265Y0078600D01*
X0035265Y0077755D01*
X0034342Y0076833D01*
X0034936Y0077426D02*
X0037025Y0077426D01*
X0036239Y0078212D02*
X0035265Y0078212D01*
X0041932Y0077426D02*
X0074299Y0077426D01*
X0046514Y0105719D02*
X0024762Y0105719D01*
X0024762Y0106505D02*
X0046425Y0106505D01*
X0046423Y0107291D02*
X0024762Y0107291D01*
X0024762Y0108077D02*
X0046425Y0108077D01*
X0046425Y0108863D02*
X0024762Y0108863D01*
X0024762Y0109649D02*
X0046425Y0109649D01*
X0046425Y0110435D02*
X0024762Y0110435D01*
X0024762Y0111220D02*
X0046425Y0111220D01*
X0046425Y0112006D02*
X0024762Y0112006D01*
X0024762Y0112792D02*
X0046425Y0112792D01*
X0046421Y0113578D02*
X0024762Y0113578D01*
X0024762Y0114364D02*
X0046425Y0114364D01*
X0046474Y0115150D02*
X0032791Y0115150D01*
X0032755Y0115124D02*
X0033378Y0115576D01*
X0033923Y0116121D01*
X0034375Y0116744D01*
X0034725Y0117431D01*
X0034963Y0118163D01*
X0035082Y0118915D01*
X0030584Y0118915D01*
X0030584Y0119703D01*
X0035082Y0119703D01*
X0034963Y0120455D01*
X0034725Y0121188D01*
X0034375Y0121874D01*
X0033923Y0122497D01*
X0033378Y0123042D01*
X0032755Y0123495D01*
X0032068Y0123844D01*
X0031336Y0124082D01*
X0030584Y0124201D01*
X0030584Y0119703D01*
X0029796Y0119703D01*
X0029796Y0124201D01*
X0029044Y0124082D01*
X0028311Y0123844D01*
X0027625Y0123495D01*
X0027002Y0123042D01*
X0026457Y0122497D01*
X0026004Y0121874D01*
X0025655Y0121188D01*
X0025417Y0120455D01*
X0025298Y0119703D01*
X0029796Y0119703D01*
X0029796Y0118915D01*
X0030584Y0118915D01*
X0030584Y0114417D01*
X0031336Y0114536D01*
X0032068Y0114774D01*
X0032755Y0115124D01*
X0033738Y0115936D02*
X0046501Y0115936D01*
X0046527Y0116722D02*
X0034359Y0116722D01*
X0034750Y0117508D02*
X0046554Y0117508D01*
X0046581Y0118294D02*
X0034984Y0118294D01*
X0035057Y0119866D02*
X0046634Y0119866D01*
X0046660Y0120651D02*
X0034899Y0120651D01*
X0034598Y0121437D02*
X0046687Y0121437D01*
X0046713Y0122223D02*
X0034122Y0122223D01*
X0033411Y0123009D02*
X0046740Y0123009D01*
X0046766Y0123795D02*
X0032165Y0123795D01*
X0030584Y0123795D02*
X0029796Y0123795D01*
X0029796Y0123009D02*
X0030584Y0123009D01*
X0030584Y0122223D02*
X0029796Y0122223D01*
X0029796Y0121437D02*
X0030584Y0121437D01*
X0030584Y0120651D02*
X0029796Y0120651D01*
X0029796Y0119866D02*
X0030584Y0119866D01*
X0030584Y0119080D02*
X0046607Y0119080D01*
X0046793Y0124581D02*
X0042439Y0124581D01*
X0042075Y0124430D02*
X0043830Y0125157D01*
X0045173Y0126500D01*
X0045900Y0128255D01*
X0045900Y0133995D01*
X0045173Y0135750D01*
X0044668Y0136254D01*
X0044668Y0179345D01*
X0047905Y0182582D01*
X0056488Y0182582D01*
X0056488Y0178090D01*
X0056425Y0178027D01*
X0056425Y0173598D01*
X0056669Y0173354D01*
X0056669Y0172372D01*
X0060419Y0172372D01*
X0060419Y0171585D01*
X0061206Y0171585D01*
X0061206Y0168785D01*
X0063746Y0168785D01*
X0064100Y0168880D01*
X0064418Y0169063D01*
X0064678Y0169323D01*
X0064861Y0169641D01*
X0064956Y0169995D01*
X0064956Y0171585D01*
X0061206Y0171585D01*
X0061206Y0172372D01*
X0064956Y0172372D01*
X0064956Y0173962D01*
X0064861Y0174316D01*
X0064678Y0174634D01*
X0064575Y0174737D01*
X0064575Y0177257D01*
X0065137Y0177819D01*
X0065137Y0182582D01*
X0077960Y0182582D01*
X0078438Y0182104D01*
X0080181Y0181382D01*
X0082069Y0181382D01*
X0083812Y0182104D01*
X0085146Y0183438D01*
X0085868Y0185181D01*
X0085868Y0187069D01*
X0085146Y0188812D01*
X0083812Y0190146D01*
X0082069Y0190868D01*
X0080181Y0190868D01*
X0078438Y0190146D01*
X0077960Y0189668D01*
X0045733Y0189668D01*
X0044430Y0189129D01*
X0043434Y0188132D01*
X0038121Y0182820D01*
X0037582Y0181517D01*
X0037582Y0136254D01*
X0037077Y0135750D01*
X0036350Y0133995D01*
X0036350Y0128255D01*
X0037077Y0126500D01*
X0038420Y0125157D01*
X0040175Y0124430D01*
X0042075Y0124430D01*
X0044039Y0125367D02*
X0046820Y0125367D01*
X0046846Y0126153D02*
X0044825Y0126153D01*
X0045354Y0126939D02*
X0046873Y0126939D01*
X0046899Y0127725D02*
X0045680Y0127725D01*
X0045900Y0128511D02*
X0046659Y0128511D01*
X0046350Y0129296D02*
X0045900Y0129296D01*
X0045900Y0130082D02*
X0046350Y0130082D01*
X0046350Y0130868D02*
X0045900Y0130868D01*
X0045900Y0131654D02*
X0046350Y0131654D01*
X0046350Y0132440D02*
X0045900Y0132440D01*
X0045900Y0133226D02*
X0046350Y0133226D01*
X0046350Y0134012D02*
X0045893Y0134012D01*
X0045567Y0134798D02*
X0046350Y0134798D01*
X0046594Y0135584D02*
X0045242Y0135584D01*
X0044668Y0136370D02*
X0046920Y0136370D01*
X0047483Y0137156D02*
X0044668Y0137156D01*
X0044668Y0137941D02*
X0048269Y0137941D01*
X0049952Y0138727D02*
X0044668Y0138727D01*
X0044668Y0139513D02*
X0172900Y0139513D01*
X0172114Y0138727D02*
X0052298Y0138727D01*
X0053981Y0137941D02*
X0171328Y0137941D01*
X0170542Y0137156D02*
X0063678Y0137156D01*
X0063830Y0137093D02*
X0062075Y0137820D01*
X0060175Y0137820D01*
X0058420Y0137093D01*
X0057077Y0135750D01*
X0056350Y0133995D01*
X0056350Y0128255D01*
X0057077Y0126500D01*
X0058420Y0125157D01*
X0060175Y0124430D01*
X0062075Y0124430D01*
X0063830Y0125157D01*
X0065173Y0126500D01*
X0065900Y0128255D01*
X0065900Y0133995D01*
X0065173Y0135750D01*
X0063830Y0137093D01*
X0064553Y0136370D02*
X0169756Y0136370D01*
X0168970Y0135584D02*
X0065242Y0135584D01*
X0065567Y0134798D02*
X0168184Y0134798D01*
X0167398Y0134012D02*
X0065893Y0134012D01*
X0065900Y0133226D02*
X0166613Y0133226D01*
X0165827Y0132440D02*
X0065900Y0132440D01*
X0065900Y0131654D02*
X0165041Y0131654D01*
X0164255Y0130868D02*
X0065900Y0130868D01*
X0065900Y0130082D02*
X0163469Y0130082D01*
X0162683Y0129296D02*
X0065900Y0129296D01*
X0065900Y0128511D02*
X0161897Y0128511D01*
X0161111Y0127725D02*
X0065680Y0127725D01*
X0065354Y0126939D02*
X0160325Y0126939D01*
X0159539Y0126153D02*
X0064825Y0126153D01*
X0064039Y0125367D02*
X0158753Y0125367D01*
X0157967Y0124581D02*
X0062439Y0124581D01*
X0059811Y0124581D02*
X0054947Y0124581D01*
X0054974Y0125367D02*
X0058211Y0125367D01*
X0057425Y0126153D02*
X0055000Y0126153D01*
X0055027Y0126939D02*
X0056896Y0126939D01*
X0056570Y0127725D02*
X0055266Y0127725D01*
X0055591Y0128511D02*
X0056350Y0128511D01*
X0056350Y0129296D02*
X0055900Y0129296D01*
X0055900Y0130082D02*
X0056350Y0130082D01*
X0056350Y0130868D02*
X0055900Y0130868D01*
X0055900Y0131654D02*
X0056350Y0131654D01*
X0056350Y0132440D02*
X0055900Y0132440D01*
X0055900Y0133226D02*
X0056350Y0133226D01*
X0056357Y0134012D02*
X0055900Y0134012D01*
X0055900Y0134798D02*
X0056683Y0134798D01*
X0057008Y0135584D02*
X0055656Y0135584D01*
X0055330Y0136370D02*
X0057697Y0136370D01*
X0058572Y0137156D02*
X0054767Y0137156D01*
X0044668Y0140299D02*
X0173686Y0140299D01*
X0174472Y0141085D02*
X0044668Y0141085D01*
X0044668Y0141871D02*
X0079000Y0141871D01*
X0078438Y0142104D02*
X0080181Y0141382D01*
X0082069Y0141382D01*
X0083812Y0142104D01*
X0085146Y0143438D01*
X0085441Y0144150D01*
X0085985Y0144150D01*
X0086188Y0143661D01*
X0087411Y0142438D01*
X0089010Y0141775D01*
X0090740Y0141775D01*
X0092339Y0142438D01*
X0093562Y0143661D01*
X0094225Y0145260D01*
X0094225Y0146990D01*
X0093562Y0148589D01*
X0092339Y0149812D01*
X0090740Y0150475D01*
X0089010Y0150475D01*
X0087411Y0149812D01*
X0086188Y0148589D01*
X0085985Y0148100D01*
X0085441Y0148100D01*
X0085146Y0148812D01*
X0083812Y0150146D01*
X0082069Y0150868D01*
X0080181Y0150868D01*
X0078438Y0150146D01*
X0077104Y0148812D01*
X0076382Y0147069D01*
X0076382Y0145181D01*
X0077104Y0143438D01*
X0078438Y0142104D01*
X0077885Y0142657D02*
X0044668Y0142657D01*
X0044668Y0143443D02*
X0077102Y0143443D01*
X0076776Y0144229D02*
X0044668Y0144229D01*
X0044668Y0145015D02*
X0076451Y0145015D01*
X0076382Y0145801D02*
X0044668Y0145801D01*
X0044668Y0146587D02*
X0076382Y0146587D01*
X0076508Y0147372D02*
X0044668Y0147372D01*
X0044668Y0148158D02*
X0076833Y0148158D01*
X0077236Y0148944D02*
X0044668Y0148944D01*
X0044668Y0149730D02*
X0078022Y0149730D01*
X0079331Y0150516D02*
X0044668Y0150516D01*
X0044668Y0151302D02*
X0103797Y0151302D01*
X0103708Y0151212D02*
X0103708Y0142908D01*
X0104630Y0141985D01*
X0112935Y0141985D01*
X0113857Y0142908D01*
X0113857Y0151212D01*
X0112935Y0152135D01*
X0104630Y0152135D01*
X0103708Y0151212D01*
X0103708Y0150516D02*
X0082919Y0150516D01*
X0082069Y0151382D02*
X0083812Y0152104D01*
X0085146Y0153438D01*
X0085868Y0155181D01*
X0085868Y0157069D01*
X0085146Y0158812D01*
X0083812Y0160146D01*
X0082069Y0160868D01*
X0080181Y0160868D01*
X0078438Y0160146D01*
X0077104Y0158812D01*
X0076382Y0157069D01*
X0076382Y0155181D01*
X0077104Y0153438D01*
X0078438Y0152104D01*
X0080181Y0151382D01*
X0082069Y0151382D01*
X0083774Y0152088D02*
X0104583Y0152088D01*
X0103708Y0149730D02*
X0092421Y0149730D01*
X0093207Y0148944D02*
X0103708Y0148944D01*
X0103708Y0148158D02*
X0093741Y0148158D01*
X0094066Y0147372D02*
X0103708Y0147372D01*
X0103708Y0146587D02*
X0094225Y0146587D01*
X0094225Y0145801D02*
X0103708Y0145801D01*
X0103708Y0145015D02*
X0094123Y0145015D01*
X0093798Y0144229D02*
X0103708Y0144229D01*
X0103708Y0143443D02*
X0093344Y0143443D01*
X0092558Y0142657D02*
X0103958Y0142657D01*
X0113607Y0142657D02*
X0144046Y0142657D01*
X0144306Y0142525D02*
X0145038Y0142287D01*
X0145790Y0142168D01*
X0145790Y0146666D01*
X0141292Y0146666D01*
X0141411Y0145914D01*
X0141649Y0145182D01*
X0141999Y0144495D01*
X0142451Y0143872D01*
X0142996Y0143327D01*
X0143619Y0142875D01*
X0144306Y0142525D01*
X0145790Y0142657D02*
X0146578Y0142657D01*
X0146578Y0142168D02*
X0147330Y0142287D01*
X0148063Y0142525D01*
X0148749Y0142875D01*
X0149372Y0143327D01*
X0149917Y0143872D01*
X0150370Y0144495D01*
X0150719Y0145182D01*
X0150957Y0145914D01*
X0151076Y0146666D01*
X0146578Y0146666D01*
X0146578Y0142168D01*
X0146578Y0143443D02*
X0145790Y0143443D01*
X0145790Y0144229D02*
X0146578Y0144229D01*
X0146578Y0145015D02*
X0145790Y0145015D01*
X0145790Y0145801D02*
X0146578Y0145801D01*
X0146578Y0146587D02*
X0145790Y0146587D01*
X0145790Y0146666D02*
X0146578Y0146666D01*
X0146578Y0147454D01*
X0145790Y0147454D01*
X0145790Y0146666D01*
X0145790Y0147372D02*
X0113857Y0147372D01*
X0113857Y0146587D02*
X0141304Y0146587D01*
X0141448Y0145801D02*
X0113857Y0145801D01*
X0113857Y0145015D02*
X0141734Y0145015D01*
X0142192Y0144229D02*
X0113857Y0144229D01*
X0113857Y0143443D02*
X0142880Y0143443D01*
X0148322Y0142657D02*
X0176043Y0142657D01*
X0175258Y0141871D02*
X0090971Y0141871D01*
X0088779Y0141871D02*
X0083250Y0141871D01*
X0084365Y0142657D02*
X0087192Y0142657D01*
X0086406Y0143443D02*
X0085148Y0143443D01*
X0085417Y0148158D02*
X0086009Y0148158D01*
X0086543Y0148944D02*
X0085014Y0148944D01*
X0084228Y0149730D02*
X0087329Y0149730D01*
X0084582Y0152874D02*
X0289988Y0152874D01*
X0289988Y0153660D02*
X0085238Y0153660D01*
X0085564Y0154446D02*
X0289988Y0154446D01*
X0289988Y0155232D02*
X0141249Y0155232D01*
X0140661Y0154988D02*
X0142112Y0155589D01*
X0143223Y0156700D01*
X0143305Y0156896D01*
X0202761Y0156613D01*
X0203597Y0155777D01*
X0204832Y0155266D01*
X0206168Y0155266D01*
X0207403Y0155777D01*
X0208226Y0156600D01*
X0278399Y0156600D01*
X0279222Y0155777D01*
X0280457Y0155266D01*
X0281793Y0155266D01*
X0283028Y0155777D01*
X0283973Y0156722D01*
X0284484Y0157957D01*
X0284484Y0159293D01*
X0283973Y0160528D01*
X0283028Y0161473D01*
X0281793Y0161984D01*
X0280457Y0161984D01*
X0279222Y0161473D01*
X0278399Y0160650D01*
X0208226Y0160650D01*
X0207403Y0161473D01*
X0206168Y0161984D01*
X0204832Y0161984D01*
X0203597Y0161473D01*
X0202787Y0160663D01*
X0143318Y0160946D01*
X0143223Y0161175D01*
X0142112Y0162286D01*
X0140661Y0162887D01*
X0139089Y0162887D01*
X0137638Y0162286D01*
X0136527Y0161175D01*
X0135925Y0159723D01*
X0135925Y0158152D01*
X0136527Y0156700D01*
X0137638Y0155589D01*
X0139089Y0154988D01*
X0140661Y0154988D01*
X0142541Y0156017D02*
X0203357Y0156017D01*
X0207643Y0156017D02*
X0278982Y0156017D01*
X0283268Y0156017D02*
X0289988Y0156017D01*
X0289988Y0156803D02*
X0284006Y0156803D01*
X0284332Y0157589D02*
X0289988Y0157589D01*
X0289988Y0158375D02*
X0284484Y0158375D01*
X0284484Y0159161D02*
X0289988Y0159161D01*
X0289988Y0159947D02*
X0284213Y0159947D01*
X0283767Y0160733D02*
X0289988Y0160733D01*
X0289988Y0161519D02*
X0282916Y0161519D01*
X0279334Y0161519D02*
X0207291Y0161519D01*
X0208142Y0160733D02*
X0278483Y0160733D01*
X0289988Y0162305D02*
X0229689Y0162305D01*
X0229293Y0162141D02*
X0230528Y0162652D01*
X0231473Y0163597D01*
X0231940Y0164725D01*
X0260587Y0164725D01*
X0261410Y0163902D01*
X0262644Y0163391D01*
X0263981Y0163391D01*
X0265215Y0163902D01*
X0266160Y0164847D01*
X0266672Y0166082D01*
X0266672Y0167418D01*
X0266160Y0168653D01*
X0265215Y0169598D01*
X0263981Y0170109D01*
X0262644Y0170109D01*
X0261410Y0169598D01*
X0260587Y0168775D01*
X0229497Y0168775D01*
X0229293Y0168859D01*
X0227957Y0168859D01*
X0226722Y0168348D01*
X0225777Y0167403D01*
X0225266Y0166168D01*
X0225266Y0164832D01*
X0225777Y0163597D01*
X0226722Y0162652D01*
X0227957Y0162141D01*
X0229293Y0162141D01*
X0227561Y0162305D02*
X0142066Y0162305D01*
X0142879Y0161519D02*
X0203709Y0161519D01*
X0202858Y0160733D02*
X0188037Y0160733D01*
X0178348Y0167347D02*
X0178859Y0168582D01*
X0178859Y0169918D01*
X0178348Y0171153D01*
X0177403Y0172098D01*
X0176168Y0172609D01*
X0174832Y0172609D01*
X0173597Y0172098D01*
X0172774Y0171275D01*
X0145089Y0171275D01*
X0133091Y0183273D01*
X0113318Y0183273D01*
X0113229Y0183489D01*
X0112116Y0184602D01*
X0110662Y0185204D01*
X0109088Y0185204D01*
X0107634Y0184602D01*
X0106521Y0183489D01*
X0105919Y0182035D01*
X0105919Y0180461D01*
X0106521Y0179007D01*
X0107634Y0177894D01*
X0109088Y0177292D01*
X0110662Y0177292D01*
X0112116Y0177894D01*
X0113229Y0179007D01*
X0113318Y0179223D01*
X0131413Y0179223D01*
X0143411Y0167225D01*
X0172774Y0167225D01*
X0173597Y0166402D01*
X0174832Y0165891D01*
X0176168Y0165891D01*
X0177403Y0166402D01*
X0178348Y0167347D01*
X0178021Y0167020D02*
X0225619Y0167020D01*
X0225293Y0166234D02*
X0176997Y0166234D01*
X0178538Y0167806D02*
X0210360Y0167806D01*
X0210457Y0167766D02*
X0211793Y0167766D01*
X0213028Y0168277D01*
X0213973Y0169222D01*
X0214484Y0170457D01*
X0214484Y0171600D01*
X0225899Y0171600D01*
X0226722Y0170777D01*
X0227957Y0170266D01*
X0229293Y0170266D01*
X0230528Y0170777D01*
X0231473Y0171722D01*
X0231984Y0172957D01*
X0231984Y0174293D01*
X0231473Y0175528D01*
X0230528Y0176473D01*
X0229293Y0176984D01*
X0227957Y0176984D01*
X0226722Y0176473D01*
X0225899Y0175650D01*
X0212786Y0175650D01*
X0211621Y0174484D01*
X0210457Y0174484D01*
X0209222Y0173973D01*
X0208277Y0173028D01*
X0207766Y0171793D01*
X0207766Y0170457D01*
X0208277Y0169222D01*
X0209222Y0168277D01*
X0210457Y0167766D01*
X0211890Y0167806D02*
X0226181Y0167806D01*
X0227312Y0168592D02*
X0213343Y0168592D01*
X0214037Y0169378D02*
X0261190Y0169378D01*
X0265435Y0169378D02*
X0289988Y0169378D01*
X0289988Y0168592D02*
X0266185Y0168592D01*
X0266511Y0167806D02*
X0289988Y0167806D01*
X0289988Y0167020D02*
X0266672Y0167020D01*
X0266672Y0166234D02*
X0289988Y0166234D01*
X0289988Y0165448D02*
X0266409Y0165448D01*
X0265975Y0164663D02*
X0289988Y0164663D01*
X0289988Y0163877D02*
X0265153Y0163877D01*
X0261472Y0163877D02*
X0231588Y0163877D01*
X0231914Y0164663D02*
X0260650Y0164663D01*
X0264847Y0174840D02*
X0266082Y0174328D01*
X0267418Y0174328D01*
X0268653Y0174840D01*
X0269598Y0175785D01*
X0270109Y0177019D01*
X0270109Y0178356D01*
X0269598Y0179590D01*
X0268653Y0180535D01*
X0267418Y0181047D01*
X0266082Y0181047D01*
X0264847Y0180535D01*
X0264337Y0180025D01*
X0239464Y0180025D01*
X0238775Y0180714D01*
X0237589Y0181900D01*
X0209349Y0181900D01*
X0205286Y0177837D01*
X0191746Y0177837D01*
X0182932Y0188163D01*
X0201964Y0188163D01*
X0203214Y0189413D01*
X0207481Y0189413D01*
X0207302Y0189400D01*
X0206536Y0189400D01*
X0206477Y0189340D01*
X0206393Y0189334D01*
X0205892Y0188755D01*
X0205350Y0188214D01*
X0205350Y0188130D01*
X0203742Y0186272D01*
X0202844Y0186272D01*
X0201610Y0185760D01*
X0200665Y0184815D01*
X0200153Y0183581D01*
X0200153Y0182244D01*
X0200665Y0181010D01*
X0201610Y0180065D01*
X0202844Y0179553D01*
X0204181Y0179553D01*
X0205415Y0180065D01*
X0206360Y0181010D01*
X0206872Y0182244D01*
X0206872Y0183581D01*
X0206838Y0183661D01*
X0208300Y0185350D01*
X0232589Y0185350D01*
X0253150Y0205911D01*
X0253150Y0210425D01*
X0253645Y0210630D01*
X0254896Y0211881D01*
X0255573Y0213516D01*
X0255573Y0218734D01*
X0254896Y0220369D01*
X0253645Y0221620D01*
X0252010Y0222297D01*
X0250240Y0222297D01*
X0248605Y0221620D01*
X0247354Y0220369D01*
X0246677Y0218734D01*
X0246677Y0213516D01*
X0247354Y0211881D01*
X0247576Y0211660D01*
X0246793Y0211984D01*
X0245457Y0211984D01*
X0244674Y0211660D01*
X0244896Y0211881D01*
X0245573Y0213516D01*
X0245573Y0218734D01*
X0244896Y0220369D01*
X0243645Y0221620D01*
X0242010Y0222297D01*
X0240240Y0222297D01*
X0238605Y0221620D01*
X0237354Y0220369D01*
X0236677Y0218734D01*
X0236677Y0213516D01*
X0237354Y0211881D01*
X0238586Y0210650D01*
X0235599Y0210650D01*
X0234413Y0209464D01*
X0234349Y0209400D01*
X0163839Y0209400D01*
X0162964Y0210275D01*
X0163740Y0209953D01*
X0165510Y0209953D01*
X0167145Y0210630D01*
X0168396Y0211881D01*
X0169073Y0213516D01*
X0169073Y0218734D01*
X0168396Y0220369D01*
X0167145Y0221620D01*
X0165510Y0222297D01*
X0163740Y0222297D01*
X0162105Y0221620D01*
X0160854Y0220369D01*
X0160177Y0218734D01*
X0160177Y0213516D01*
X0160499Y0212740D01*
X0159073Y0214165D01*
X0159073Y0218734D01*
X0158396Y0220369D01*
X0157145Y0221620D01*
X0155510Y0222297D01*
X0153740Y0222297D01*
X0152105Y0221620D01*
X0150854Y0220369D01*
X0150177Y0218734D01*
X0150177Y0213516D01*
X0150499Y0212740D01*
X0149073Y0214165D01*
X0149073Y0218734D01*
X0148396Y0220369D01*
X0147145Y0221620D01*
X0145510Y0222297D01*
X0143740Y0222297D01*
X0142105Y0221620D01*
X0140854Y0220369D01*
X0140177Y0218734D01*
X0140177Y0213516D01*
X0140499Y0212740D01*
X0139073Y0214165D01*
X0139073Y0218734D01*
X0138396Y0220369D01*
X0137145Y0221620D01*
X0135510Y0222297D01*
X0133740Y0222297D01*
X0132105Y0221620D01*
X0130854Y0220369D01*
X0130177Y0218734D01*
X0130177Y0213516D01*
X0130854Y0211881D01*
X0132105Y0210630D01*
X0133740Y0209953D01*
X0135510Y0209953D01*
X0136958Y0210553D01*
X0139987Y0207525D01*
X0115714Y0207525D01*
X0112964Y0210275D01*
X0113740Y0209953D01*
X0115510Y0209953D01*
X0117145Y0210630D01*
X0118396Y0211881D01*
X0119073Y0213516D01*
X0119073Y0218734D01*
X0118396Y0220369D01*
X0117145Y0221620D01*
X0115510Y0222297D01*
X0113740Y0222297D01*
X0112105Y0221620D01*
X0110854Y0220369D01*
X0110177Y0218734D01*
X0110177Y0213516D01*
X0110499Y0212740D01*
X0109073Y0214165D01*
X0109073Y0218734D01*
X0108396Y0220369D01*
X0107145Y0221620D01*
X0105510Y0222297D01*
X0103740Y0222297D01*
X0102105Y0221620D01*
X0100854Y0220369D01*
X0100177Y0218734D01*
X0100177Y0213516D01*
X0100854Y0211881D01*
X0102105Y0210630D01*
X0103740Y0209953D01*
X0105510Y0209953D01*
X0106958Y0210553D01*
X0108737Y0208775D01*
X0075911Y0208775D01*
X0075371Y0208234D01*
X0074207Y0208234D01*
X0072972Y0207723D01*
X0072027Y0206778D01*
X0071516Y0205543D01*
X0071516Y0204207D01*
X0072027Y0202972D01*
X0072972Y0202027D01*
X0074207Y0201516D01*
X0075543Y0201516D01*
X0076778Y0202027D01*
X0077723Y0202972D01*
X0078234Y0204207D01*
X0078234Y0204725D01*
X0108411Y0204725D01*
X0113099Y0200038D01*
X0139350Y0200038D01*
X0138590Y0199278D01*
X0138078Y0198043D01*
X0138078Y0196707D01*
X0138590Y0195472D01*
X0139535Y0194527D01*
X0085687Y0194527D01*
X0085687Y0193741D02*
X0142208Y0193741D01*
X0141933Y0194016D02*
X0153099Y0182850D01*
X0170912Y0182850D01*
X0170274Y0182212D01*
X0144464Y0182212D01*
X0135155Y0191521D01*
X0113318Y0191521D01*
X0113229Y0191737D01*
X0112116Y0192850D01*
X0110662Y0193452D01*
X0109088Y0193452D01*
X0107634Y0192850D01*
X0106521Y0191737D01*
X0105919Y0190283D01*
X0105919Y0188709D01*
X0106521Y0187255D01*
X0107634Y0186142D01*
X0109088Y0185540D01*
X0110662Y0185540D01*
X0112116Y0186142D01*
X0113229Y0187255D01*
X0113318Y0187471D01*
X0133478Y0187471D01*
X0142786Y0178163D01*
X0170274Y0178163D01*
X0171097Y0177340D01*
X0172332Y0176828D01*
X0173668Y0176828D01*
X0174903Y0177340D01*
X0175848Y0178285D01*
X0176359Y0179519D01*
X0176359Y0180856D01*
X0175848Y0182090D01*
X0175088Y0182850D01*
X0176849Y0182850D01*
X0178432Y0181267D01*
X0178391Y0181168D01*
X0178391Y0179832D01*
X0178902Y0178597D01*
X0179847Y0177652D01*
X0181082Y0177141D01*
X0182418Y0177141D01*
X0183653Y0177652D01*
X0184598Y0178597D01*
X0184982Y0179524D01*
X0188788Y0175066D01*
X0188788Y0174974D01*
X0189324Y0174437D01*
X0189817Y0173860D01*
X0189909Y0173853D01*
X0189974Y0173788D01*
X0190733Y0173788D01*
X0191489Y0173728D01*
X0191559Y0173788D01*
X0206964Y0173788D01*
X0208150Y0174974D01*
X0211026Y0177850D01*
X0235911Y0177850D01*
X0237786Y0175975D01*
X0263823Y0175975D01*
X0263902Y0175785D01*
X0264847Y0174840D01*
X0264808Y0174879D02*
X0231741Y0174879D01*
X0231984Y0174093D02*
X0289988Y0174093D01*
X0289988Y0173308D02*
X0231984Y0173308D01*
X0231804Y0172522D02*
X0289988Y0172522D01*
X0289988Y0171736D02*
X0231478Y0171736D01*
X0230700Y0170950D02*
X0289988Y0170950D01*
X0289988Y0170164D02*
X0214363Y0170164D01*
X0214484Y0170950D02*
X0226550Y0170950D01*
X0225915Y0175665D02*
X0208841Y0175665D01*
X0208055Y0174879D02*
X0212016Y0174879D01*
X0209514Y0174093D02*
X0207269Y0174093D01*
X0208557Y0173308D02*
X0143056Y0173308D01*
X0142270Y0174093D02*
X0189618Y0174093D01*
X0188882Y0174879D02*
X0141484Y0174879D01*
X0140698Y0175665D02*
X0188276Y0175665D01*
X0187605Y0176451D02*
X0139912Y0176451D01*
X0139126Y0177237D02*
X0171345Y0177237D01*
X0170414Y0178023D02*
X0138340Y0178023D01*
X0137555Y0178809D02*
X0142140Y0178809D01*
X0141354Y0179595D02*
X0136769Y0179595D01*
X0135983Y0180381D02*
X0140568Y0180381D01*
X0139782Y0181167D02*
X0135197Y0181167D01*
X0134411Y0181953D02*
X0138996Y0181953D01*
X0138210Y0182739D02*
X0133625Y0182739D01*
X0135853Y0185096D02*
X0110922Y0185096D01*
X0111488Y0185882D02*
X0135067Y0185882D01*
X0134281Y0186668D02*
X0112642Y0186668D01*
X0113311Y0187454D02*
X0133495Y0187454D01*
X0136078Y0190598D02*
X0145351Y0190598D01*
X0144565Y0191384D02*
X0135292Y0191384D01*
X0136864Y0189812D02*
X0146137Y0189812D01*
X0146923Y0189026D02*
X0137650Y0189026D01*
X0138436Y0188240D02*
X0147709Y0188240D01*
X0148495Y0187454D02*
X0139222Y0187454D01*
X0140008Y0186668D02*
X0149281Y0186668D01*
X0150067Y0185882D02*
X0140794Y0185882D01*
X0141580Y0185096D02*
X0150853Y0185096D01*
X0151639Y0184310D02*
X0142366Y0184310D01*
X0143152Y0183524D02*
X0152425Y0183524D01*
X0143937Y0182739D02*
X0170801Y0182739D01*
X0175199Y0182739D02*
X0176960Y0182739D01*
X0177746Y0181953D02*
X0175905Y0181953D01*
X0176230Y0181167D02*
X0178391Y0181167D01*
X0178391Y0180381D02*
X0176359Y0180381D01*
X0176359Y0179595D02*
X0178489Y0179595D01*
X0178815Y0178809D02*
X0176065Y0178809D01*
X0175586Y0178023D02*
X0179477Y0178023D01*
X0180850Y0177237D02*
X0174655Y0177237D01*
X0174621Y0172522D02*
X0143842Y0172522D01*
X0144628Y0171736D02*
X0173235Y0171736D01*
X0176379Y0172522D02*
X0208068Y0172522D01*
X0207766Y0171736D02*
X0177765Y0171736D01*
X0178432Y0170950D02*
X0207766Y0170950D01*
X0207887Y0170164D02*
X0178757Y0170164D01*
X0178859Y0169378D02*
X0208213Y0169378D01*
X0208907Y0168592D02*
X0178859Y0168592D01*
X0174003Y0166234D02*
X0122581Y0166234D01*
X0122581Y0166912D02*
X0121979Y0168366D01*
X0120866Y0169479D01*
X0119412Y0170081D01*
X0117838Y0170081D01*
X0116384Y0169479D01*
X0115271Y0168366D01*
X0114875Y0167409D01*
X0114479Y0168366D01*
X0113366Y0169479D01*
X0111912Y0170081D01*
X0110338Y0170081D01*
X0108884Y0169479D01*
X0107771Y0168366D01*
X0107169Y0166912D01*
X0107169Y0165338D01*
X0107771Y0163884D01*
X0108884Y0162771D01*
X0110338Y0162169D01*
X0111912Y0162169D01*
X0113366Y0162771D01*
X0114479Y0163884D01*
X0114875Y0164841D01*
X0115271Y0163884D01*
X0116384Y0162771D01*
X0117838Y0162169D01*
X0119412Y0162169D01*
X0120866Y0162771D01*
X0121979Y0163884D01*
X0122581Y0165338D01*
X0122581Y0166912D01*
X0122536Y0167020D02*
X0172979Y0167020D01*
X0182650Y0177237D02*
X0186934Y0177237D01*
X0186263Y0178023D02*
X0184023Y0178023D01*
X0184685Y0178809D02*
X0185592Y0178809D01*
X0188904Y0181167D02*
X0200600Y0181167D01*
X0200274Y0181953D02*
X0188233Y0181953D01*
X0187562Y0182739D02*
X0200153Y0182739D01*
X0200153Y0183524D02*
X0186891Y0183524D01*
X0186220Y0184310D02*
X0200456Y0184310D01*
X0200946Y0185096D02*
X0185550Y0185096D01*
X0184879Y0185882D02*
X0201904Y0185882D01*
X0204085Y0186668D02*
X0184208Y0186668D01*
X0183537Y0187454D02*
X0204765Y0187454D01*
X0205376Y0188240D02*
X0202041Y0188240D01*
X0202827Y0189026D02*
X0206126Y0189026D01*
X0208081Y0185096D02*
X0289988Y0185096D01*
X0289988Y0184310D02*
X0207400Y0184310D01*
X0206872Y0183524D02*
X0289988Y0183524D01*
X0289988Y0182739D02*
X0206872Y0182739D01*
X0206751Y0181953D02*
X0289988Y0181953D01*
X0289988Y0181167D02*
X0238322Y0181167D01*
X0239108Y0180381D02*
X0264693Y0180381D01*
X0268807Y0180381D02*
X0289988Y0180381D01*
X0289988Y0179595D02*
X0269593Y0179595D01*
X0269921Y0178809D02*
X0289988Y0178809D01*
X0289988Y0178023D02*
X0270109Y0178023D01*
X0270109Y0177237D02*
X0289988Y0177237D01*
X0289988Y0176451D02*
X0269874Y0176451D01*
X0269478Y0175665D02*
X0289988Y0175665D01*
X0289988Y0174879D02*
X0268692Y0174879D01*
X0264022Y0175665D02*
X0231335Y0175665D01*
X0230549Y0176451D02*
X0237310Y0176451D01*
X0236524Y0177237D02*
X0210413Y0177237D01*
X0209627Y0176451D02*
X0226701Y0176451D01*
X0225266Y0165448D02*
X0122581Y0165448D01*
X0122301Y0164663D02*
X0225336Y0164663D01*
X0225662Y0163877D02*
X0121971Y0163877D01*
X0121185Y0163091D02*
X0226284Y0163091D01*
X0230966Y0163091D02*
X0289988Y0163091D01*
X0289988Y0152088D02*
X0112982Y0152088D01*
X0113768Y0151302D02*
X0143730Y0151302D01*
X0143619Y0151245D02*
X0142996Y0150793D01*
X0142451Y0150248D01*
X0141999Y0149625D01*
X0141649Y0148939D01*
X0141411Y0148206D01*
X0141292Y0147454D01*
X0145790Y0147454D01*
X0145790Y0151952D01*
X0145038Y0151833D01*
X0144306Y0151595D01*
X0143619Y0151245D01*
X0142719Y0150516D02*
X0113857Y0150516D01*
X0113857Y0149730D02*
X0142075Y0149730D01*
X0141652Y0148944D02*
X0113857Y0148944D01*
X0113857Y0148158D02*
X0141403Y0148158D01*
X0145790Y0148158D02*
X0146578Y0148158D01*
X0146578Y0147454D02*
X0146578Y0151952D01*
X0147330Y0151833D01*
X0148063Y0151595D01*
X0148749Y0151245D01*
X0149372Y0150793D01*
X0149917Y0150248D01*
X0150370Y0149625D01*
X0150719Y0148939D01*
X0150957Y0148206D01*
X0151076Y0147454D01*
X0146578Y0147454D01*
X0146578Y0147372D02*
X0180759Y0147372D01*
X0179973Y0146587D02*
X0151064Y0146587D01*
X0150920Y0145801D02*
X0179187Y0145801D01*
X0178401Y0145015D02*
X0150634Y0145015D01*
X0150176Y0144229D02*
X0177615Y0144229D01*
X0176829Y0143443D02*
X0149488Y0143443D01*
X0150965Y0148158D02*
X0181545Y0148158D01*
X0182331Y0148944D02*
X0150716Y0148944D01*
X0150293Y0149730D02*
X0183117Y0149730D01*
X0183903Y0150516D02*
X0149649Y0150516D01*
X0148638Y0151302D02*
X0269209Y0151302D01*
X0269769Y0151302D02*
X0289988Y0151302D01*
X0289988Y0150516D02*
X0271472Y0150516D01*
X0272073Y0149730D02*
X0289988Y0149730D01*
X0289988Y0148944D02*
X0272690Y0148944D01*
X0273308Y0148158D02*
X0289988Y0148158D01*
X0289988Y0147372D02*
X0273925Y0147372D01*
X0274543Y0146587D02*
X0289988Y0146587D01*
X0289988Y0145801D02*
X0275160Y0145801D01*
X0275778Y0145015D02*
X0289988Y0145015D01*
X0289988Y0144229D02*
X0276395Y0144229D01*
X0277013Y0143443D02*
X0289988Y0143443D01*
X0289988Y0142657D02*
X0277630Y0142657D01*
X0278248Y0141871D02*
X0289988Y0141871D01*
X0289988Y0141085D02*
X0278860Y0141085D01*
X0278775Y0140299D02*
X0279230Y0140299D01*
X0284020Y0140299D02*
X0289988Y0140299D01*
X0289988Y0139513D02*
X0284806Y0139513D01*
X0285591Y0138727D02*
X0289988Y0138727D01*
X0289988Y0137941D02*
X0286270Y0137941D01*
X0286274Y0137686D02*
X0286274Y0137686D01*
X0286804Y0137156D02*
X0289988Y0137156D01*
X0289988Y0136370D02*
X0287590Y0136370D01*
X0288376Y0135584D02*
X0289988Y0135584D01*
X0289988Y0134798D02*
X0289162Y0134798D01*
X0289948Y0134012D02*
X0289988Y0134012D01*
X0277161Y0115150D02*
X0276270Y0115150D01*
X0276295Y0114364D02*
X0277161Y0114364D01*
X0276531Y0113578D02*
X0277859Y0113578D01*
X0278645Y0112792D02*
X0276531Y0112792D01*
X0266850Y0108077D02*
X0261958Y0108077D01*
X0262283Y0108863D02*
X0266094Y0108863D01*
X0265238Y0109649D02*
X0262297Y0109649D01*
X0262212Y0110435D02*
X0264452Y0110435D01*
X0264100Y0111220D02*
X0261887Y0111220D01*
X0261244Y0112006D02*
X0264100Y0112006D01*
X0264100Y0112792D02*
X0259918Y0112792D01*
X0257957Y0112792D02*
X0250656Y0112792D01*
X0251442Y0113578D02*
X0253130Y0113578D01*
X0254938Y0121437D02*
X0263574Y0121437D01*
X0262788Y0122223D02*
X0255724Y0122223D01*
X0256122Y0123009D02*
X0262002Y0123009D01*
X0261216Y0123795D02*
X0256359Y0123795D01*
X0256359Y0124581D02*
X0260431Y0124581D01*
X0260038Y0125367D02*
X0256173Y0125367D01*
X0255848Y0126153D02*
X0260038Y0126153D01*
X0260038Y0126939D02*
X0255062Y0126939D01*
X0260038Y0127725D02*
X0210337Y0127725D01*
X0210337Y0128511D02*
X0260038Y0128511D01*
X0260038Y0129296D02*
X0210337Y0129296D01*
X0210337Y0130082D02*
X0260038Y0130082D01*
X0260038Y0130868D02*
X0210337Y0130868D01*
X0210337Y0131654D02*
X0260038Y0131654D01*
X0260038Y0132440D02*
X0210337Y0132440D01*
X0210337Y0133226D02*
X0260038Y0133226D01*
X0260038Y0134012D02*
X0210337Y0134012D01*
X0210337Y0134798D02*
X0260038Y0134798D01*
X0260038Y0135584D02*
X0210337Y0135584D01*
X0210337Y0136370D02*
X0259267Y0136370D01*
X0258481Y0137156D02*
X0210644Y0137156D01*
X0211430Y0137941D02*
X0257695Y0137941D01*
X0256909Y0138727D02*
X0212216Y0138727D01*
X0209633Y0141871D02*
X0187860Y0141871D01*
X0187074Y0141085D02*
X0208847Y0141085D01*
X0208061Y0140299D02*
X0186288Y0140299D01*
X0185502Y0139513D02*
X0207275Y0139513D01*
X0206489Y0138727D02*
X0184716Y0138727D01*
X0183930Y0137941D02*
X0206288Y0137941D01*
X0206288Y0137156D02*
X0183144Y0137156D01*
X0182358Y0136370D02*
X0206288Y0136370D01*
X0206288Y0135584D02*
X0181572Y0135584D01*
X0180786Y0134798D02*
X0206288Y0134798D01*
X0206288Y0134012D02*
X0180000Y0134012D01*
X0179215Y0133226D02*
X0206288Y0133226D01*
X0206288Y0132440D02*
X0178429Y0132440D01*
X0177643Y0131654D02*
X0206288Y0131654D01*
X0206288Y0130868D02*
X0176857Y0130868D01*
X0176071Y0130082D02*
X0206288Y0130082D01*
X0206288Y0129296D02*
X0175285Y0129296D01*
X0174499Y0128511D02*
X0206288Y0128511D01*
X0206288Y0127725D02*
X0173713Y0127725D01*
X0172927Y0126939D02*
X0206288Y0126939D01*
X0206288Y0126153D02*
X0172141Y0126153D01*
X0171355Y0125367D02*
X0206288Y0125367D01*
X0206288Y0124581D02*
X0170569Y0124581D01*
X0160350Y0120651D02*
X0159765Y0120651D01*
X0160350Y0119866D02*
X0158979Y0119866D01*
X0158193Y0119080D02*
X0160350Y0119080D01*
X0160350Y0118294D02*
X0157407Y0118294D01*
X0156621Y0117508D02*
X0160350Y0117508D01*
X0160350Y0116722D02*
X0155835Y0116722D01*
X0155337Y0115936D02*
X0160350Y0115936D01*
X0160350Y0115150D02*
X0155337Y0115150D01*
X0155337Y0114364D02*
X0160350Y0114364D01*
X0160350Y0113578D02*
X0155337Y0113578D01*
X0155337Y0112792D02*
X0160350Y0112792D01*
X0160350Y0112006D02*
X0155337Y0112006D01*
X0155337Y0111220D02*
X0160350Y0111220D01*
X0160350Y0110435D02*
X0155337Y0110435D01*
X0155337Y0109649D02*
X0160350Y0109649D01*
X0160350Y0108863D02*
X0155337Y0108863D01*
X0155337Y0108077D02*
X0160350Y0108077D01*
X0160350Y0107291D02*
X0155337Y0107291D01*
X0155337Y0106505D02*
X0160350Y0106505D01*
X0160350Y0105719D02*
X0155337Y0105719D01*
X0155337Y0104933D02*
X0160350Y0104933D01*
X0160350Y0104147D02*
X0155337Y0104147D01*
X0155337Y0103361D02*
X0160350Y0103361D01*
X0160350Y0102575D02*
X0155337Y0102575D01*
X0155337Y0101790D02*
X0160350Y0101790D01*
X0160323Y0101004D02*
X0155997Y0101004D01*
X0156418Y0100218D02*
X0160724Y0100218D01*
X0161125Y0099432D02*
X0156672Y0099432D01*
X0156672Y0098646D02*
X0161525Y0098646D01*
X0161926Y0097860D02*
X0156502Y0097860D01*
X0156176Y0097074D02*
X0162327Y0097074D01*
X0162727Y0096288D02*
X0155414Y0096288D01*
X0151211Y0096288D02*
X0113743Y0096288D01*
X0113743Y0095502D02*
X0163128Y0095502D01*
X0163529Y0094716D02*
X0113743Y0094716D01*
X0113743Y0093930D02*
X0163929Y0093930D01*
X0164330Y0093144D02*
X0113743Y0093144D01*
X0113040Y0092359D02*
X0164731Y0092359D01*
X0165131Y0091573D02*
X0111932Y0091573D01*
X0111932Y0090787D02*
X0165532Y0090787D01*
X0165933Y0090001D02*
X0111932Y0090001D01*
X0113743Y0097074D02*
X0150449Y0097074D01*
X0150123Y0097860D02*
X0113743Y0097860D01*
X0113743Y0098646D02*
X0149953Y0098646D01*
X0149953Y0099432D02*
X0113743Y0099432D01*
X0113743Y0100218D02*
X0150207Y0100218D01*
X0150628Y0101004D02*
X0113405Y0101004D01*
X0112700Y0101790D02*
X0151288Y0101790D01*
X0151288Y0102575D02*
X0112700Y0102575D01*
X0112700Y0103361D02*
X0151288Y0103361D01*
X0151288Y0104147D02*
X0113437Y0104147D01*
X0113562Y0104933D02*
X0151288Y0104933D01*
X0151288Y0105719D02*
X0113562Y0105719D01*
X0113562Y0106505D02*
X0151288Y0106505D01*
X0151288Y0113578D02*
X0071093Y0113578D01*
X0071093Y0114019D02*
X0075243Y0114019D01*
X0075243Y0117352D01*
X0075148Y0117706D01*
X0074964Y0118024D01*
X0074705Y0118284D01*
X0074387Y0118467D01*
X0074032Y0118562D01*
X0071093Y0118562D01*
X0071093Y0114019D01*
X0071093Y0114364D02*
X0070306Y0114364D01*
X0070306Y0115150D02*
X0071093Y0115150D01*
X0071093Y0115936D02*
X0070306Y0115936D01*
X0070306Y0116722D02*
X0071093Y0116722D01*
X0071093Y0117508D02*
X0070306Y0117508D01*
X0070306Y0118294D02*
X0071093Y0118294D01*
X0066712Y0118294D02*
X0063927Y0118294D01*
X0064400Y0117508D02*
X0066198Y0117508D01*
X0070306Y0112792D02*
X0071093Y0112792D01*
X0071093Y0112006D02*
X0070306Y0112006D01*
X0070306Y0111220D02*
X0071093Y0111220D01*
X0071093Y0110435D02*
X0070306Y0110435D01*
X0070306Y0109649D02*
X0071093Y0109649D01*
X0071093Y0108863D02*
X0070306Y0108863D01*
X0066874Y0108863D02*
X0063833Y0108863D01*
X0054951Y0117508D02*
X0054708Y0117508D01*
X0054735Y0118294D02*
X0055424Y0118294D01*
X0054761Y0119080D02*
X0091804Y0119080D01*
X0091804Y0118915D02*
X0087305Y0118915D01*
X0087425Y0118163D01*
X0087663Y0117431D01*
X0088012Y0116744D01*
X0088465Y0116121D01*
X0089010Y0115576D01*
X0089633Y0115124D01*
X0090319Y0114774D01*
X0091052Y0114536D01*
X0091804Y0114417D01*
X0091804Y0118915D01*
X0092592Y0118915D01*
X0092592Y0119703D01*
X0097090Y0119703D01*
X0096971Y0120455D01*
X0096733Y0121188D01*
X0096383Y0121874D01*
X0095931Y0122497D01*
X0095386Y0123042D01*
X0094763Y0123495D01*
X0094076Y0123844D01*
X0093344Y0124082D01*
X0092592Y0124201D01*
X0092592Y0119703D01*
X0091804Y0119703D01*
X0091804Y0124201D01*
X0091052Y0124082D01*
X0090319Y0123844D01*
X0089633Y0123495D01*
X0089010Y0123042D01*
X0088465Y0122497D01*
X0088012Y0121874D01*
X0087663Y0121188D01*
X0087425Y0120455D01*
X0087305Y0119703D01*
X0091804Y0119703D01*
X0091804Y0118915D01*
X0091804Y0118294D02*
X0092592Y0118294D01*
X0092592Y0118915D02*
X0092592Y0114417D01*
X0093344Y0114536D01*
X0094076Y0114774D01*
X0094763Y0115124D01*
X0095386Y0115576D01*
X0095931Y0116121D01*
X0096383Y0116744D01*
X0096733Y0117431D01*
X0096971Y0118163D01*
X0097090Y0118915D01*
X0092592Y0118915D01*
X0092592Y0119080D02*
X0152466Y0119080D01*
X0153252Y0119866D02*
X0097064Y0119866D01*
X0096907Y0120651D02*
X0154038Y0120651D01*
X0154824Y0121437D02*
X0096606Y0121437D01*
X0096130Y0122223D02*
X0155610Y0122223D01*
X0156396Y0123009D02*
X0095418Y0123009D01*
X0094173Y0123795D02*
X0157182Y0123795D01*
X0151680Y0118294D02*
X0096992Y0118294D01*
X0096758Y0117508D02*
X0151288Y0117508D01*
X0151288Y0116722D02*
X0096367Y0116722D01*
X0095745Y0115936D02*
X0151288Y0115936D01*
X0151288Y0115150D02*
X0094799Y0115150D01*
X0092592Y0115150D02*
X0091804Y0115150D01*
X0091804Y0115936D02*
X0092592Y0115936D01*
X0092592Y0116722D02*
X0091804Y0116722D01*
X0091804Y0117508D02*
X0092592Y0117508D01*
X0092592Y0119866D02*
X0091804Y0119866D01*
X0091804Y0120651D02*
X0092592Y0120651D01*
X0092592Y0121437D02*
X0091804Y0121437D01*
X0091804Y0122223D02*
X0092592Y0122223D01*
X0092592Y0123009D02*
X0091804Y0123009D01*
X0091804Y0123795D02*
X0092592Y0123795D01*
X0090223Y0123795D02*
X0054921Y0123795D01*
X0054894Y0123009D02*
X0088977Y0123009D01*
X0088266Y0122223D02*
X0054868Y0122223D01*
X0054841Y0121437D02*
X0087790Y0121437D01*
X0087488Y0120651D02*
X0054814Y0120651D01*
X0054788Y0119866D02*
X0087331Y0119866D01*
X0087404Y0118294D02*
X0074687Y0118294D01*
X0075201Y0117508D02*
X0087638Y0117508D01*
X0088029Y0116722D02*
X0075243Y0116722D01*
X0075243Y0115936D02*
X0088650Y0115936D01*
X0089597Y0115150D02*
X0075243Y0115150D01*
X0075243Y0114364D02*
X0151288Y0114364D01*
X0146578Y0148944D02*
X0145790Y0148944D01*
X0145790Y0149730D02*
X0146578Y0149730D01*
X0146578Y0150516D02*
X0145790Y0150516D01*
X0145790Y0151302D02*
X0146578Y0151302D01*
X0143266Y0156803D02*
X0162819Y0156803D01*
X0142830Y0167806D02*
X0122210Y0167806D01*
X0121752Y0168592D02*
X0142044Y0168592D01*
X0141258Y0169378D02*
X0120966Y0169378D01*
X0116284Y0169378D02*
X0113466Y0169378D01*
X0114252Y0168592D02*
X0115498Y0168592D01*
X0115040Y0167806D02*
X0114710Y0167806D01*
X0108784Y0169378D02*
X0084580Y0169378D01*
X0085146Y0168812D02*
X0083812Y0170146D01*
X0082069Y0170868D01*
X0080181Y0170868D01*
X0078438Y0170146D01*
X0077104Y0168812D01*
X0076382Y0167069D01*
X0076382Y0165181D01*
X0077104Y0163438D01*
X0078438Y0162104D01*
X0080181Y0161382D01*
X0082069Y0161382D01*
X0083812Y0162104D01*
X0085146Y0163438D01*
X0085868Y0165181D01*
X0085868Y0167069D01*
X0085146Y0168812D01*
X0085237Y0168592D02*
X0107998Y0168592D01*
X0107540Y0167806D02*
X0085563Y0167806D01*
X0085868Y0167020D02*
X0107214Y0167020D01*
X0107169Y0166234D02*
X0085868Y0166234D01*
X0085868Y0165448D02*
X0107169Y0165448D01*
X0107449Y0164663D02*
X0085653Y0164663D01*
X0085328Y0163877D02*
X0107779Y0163877D01*
X0108565Y0163091D02*
X0084799Y0163091D01*
X0084013Y0162305D02*
X0110010Y0162305D01*
X0112239Y0162305D02*
X0117510Y0162305D01*
X0116065Y0163091D02*
X0113685Y0163091D01*
X0114471Y0163877D02*
X0115279Y0163877D01*
X0114949Y0164663D02*
X0114801Y0164663D01*
X0119739Y0162305D02*
X0137684Y0162305D01*
X0136871Y0161519D02*
X0082400Y0161519D01*
X0082395Y0160733D02*
X0136344Y0160733D01*
X0136018Y0159947D02*
X0084011Y0159947D01*
X0084797Y0159161D02*
X0135925Y0159161D01*
X0135925Y0158375D02*
X0085327Y0158375D01*
X0085653Y0157589D02*
X0136158Y0157589D01*
X0136484Y0156803D02*
X0085868Y0156803D01*
X0085868Y0156017D02*
X0137209Y0156017D01*
X0138501Y0155232D02*
X0085868Y0155232D01*
X0078476Y0152088D02*
X0044668Y0152088D01*
X0044668Y0152874D02*
X0077668Y0152874D01*
X0077012Y0153660D02*
X0044668Y0153660D01*
X0044668Y0154446D02*
X0076686Y0154446D01*
X0076382Y0155232D02*
X0044668Y0155232D01*
X0044668Y0156017D02*
X0076382Y0156017D01*
X0076382Y0156803D02*
X0044668Y0156803D01*
X0044668Y0157589D02*
X0076597Y0157589D01*
X0076923Y0158375D02*
X0044668Y0158375D01*
X0044668Y0159161D02*
X0077453Y0159161D01*
X0078239Y0159947D02*
X0044668Y0159947D01*
X0044668Y0160733D02*
X0079855Y0160733D01*
X0079850Y0161519D02*
X0044668Y0161519D01*
X0044668Y0162305D02*
X0078237Y0162305D01*
X0077451Y0163091D02*
X0044668Y0163091D01*
X0044668Y0163877D02*
X0076922Y0163877D01*
X0076597Y0164663D02*
X0044668Y0164663D01*
X0044668Y0165448D02*
X0076382Y0165448D01*
X0076382Y0166234D02*
X0044668Y0166234D01*
X0044668Y0167020D02*
X0076382Y0167020D01*
X0076687Y0167806D02*
X0044668Y0167806D01*
X0044668Y0168592D02*
X0077013Y0168592D01*
X0077670Y0169378D02*
X0064710Y0169378D01*
X0064956Y0170164D02*
X0078481Y0170164D01*
X0079327Y0171736D02*
X0061206Y0171736D01*
X0061206Y0170950D02*
X0060419Y0170950D01*
X0060419Y0171585D02*
X0060419Y0168785D01*
X0057879Y0168785D01*
X0057525Y0168880D01*
X0057207Y0169063D01*
X0056947Y0169323D01*
X0056764Y0169641D01*
X0056669Y0169995D01*
X0056669Y0171585D01*
X0060419Y0171585D01*
X0060419Y0171736D02*
X0044668Y0171736D01*
X0044668Y0172522D02*
X0056669Y0172522D01*
X0056669Y0173308D02*
X0044668Y0173308D01*
X0044668Y0174093D02*
X0056425Y0174093D01*
X0056425Y0174879D02*
X0044668Y0174879D01*
X0044668Y0175665D02*
X0056425Y0175665D01*
X0056425Y0176451D02*
X0044668Y0176451D01*
X0044668Y0177237D02*
X0056425Y0177237D01*
X0056425Y0178023D02*
X0044668Y0178023D01*
X0044668Y0178809D02*
X0056488Y0178809D01*
X0056488Y0179595D02*
X0044918Y0179595D01*
X0045704Y0180381D02*
X0056488Y0180381D01*
X0056488Y0181167D02*
X0046490Y0181167D01*
X0047276Y0181953D02*
X0056488Y0181953D01*
X0064575Y0177237D02*
X0076452Y0177237D01*
X0076382Y0177069D02*
X0076382Y0175181D01*
X0077104Y0173438D01*
X0078438Y0172104D01*
X0080181Y0171382D01*
X0082069Y0171382D01*
X0083812Y0172104D01*
X0085146Y0173438D01*
X0085868Y0175181D01*
X0085868Y0177069D01*
X0085146Y0178812D01*
X0083812Y0180146D01*
X0082069Y0180868D01*
X0080181Y0180868D01*
X0078438Y0180146D01*
X0077104Y0178812D01*
X0076382Y0177069D01*
X0076382Y0176451D02*
X0064575Y0176451D01*
X0064575Y0175665D02*
X0076382Y0175665D01*
X0076507Y0174879D02*
X0064575Y0174879D01*
X0064921Y0174093D02*
X0076832Y0174093D01*
X0077234Y0173308D02*
X0064956Y0173308D01*
X0064956Y0172522D02*
X0078020Y0172522D01*
X0082923Y0171736D02*
X0138901Y0171736D01*
X0139687Y0170950D02*
X0064956Y0170950D01*
X0061206Y0170164D02*
X0060419Y0170164D01*
X0060419Y0169378D02*
X0061206Y0169378D01*
X0056915Y0169378D02*
X0044668Y0169378D01*
X0044668Y0170164D02*
X0056669Y0170164D01*
X0056669Y0170950D02*
X0044668Y0170950D01*
X0037582Y0170950D02*
X0024762Y0170950D01*
X0024762Y0171736D02*
X0037582Y0171736D01*
X0037582Y0172522D02*
X0024762Y0172522D01*
X0024762Y0173308D02*
X0037582Y0173308D01*
X0037582Y0174093D02*
X0024762Y0174093D01*
X0024762Y0174879D02*
X0037582Y0174879D01*
X0037582Y0175665D02*
X0024762Y0175665D01*
X0024762Y0176451D02*
X0037582Y0176451D01*
X0037582Y0177237D02*
X0024762Y0177237D01*
X0024762Y0178023D02*
X0037582Y0178023D01*
X0037582Y0178809D02*
X0024762Y0178809D01*
X0024762Y0179595D02*
X0037582Y0179595D01*
X0037582Y0180381D02*
X0024762Y0180381D01*
X0024762Y0181167D02*
X0037582Y0181167D01*
X0037762Y0181953D02*
X0024762Y0181953D01*
X0024762Y0182739D02*
X0038088Y0182739D01*
X0038826Y0183524D02*
X0024762Y0183524D01*
X0024762Y0184310D02*
X0039612Y0184310D01*
X0040398Y0185096D02*
X0024762Y0185096D01*
X0024762Y0185882D02*
X0041184Y0185882D01*
X0041970Y0186668D02*
X0024762Y0186668D01*
X0024762Y0187454D02*
X0042756Y0187454D01*
X0043541Y0188240D02*
X0024762Y0188240D01*
X0024762Y0189026D02*
X0044327Y0189026D01*
X0024762Y0189812D02*
X0078104Y0189812D01*
X0079528Y0190598D02*
X0024762Y0190598D01*
X0024762Y0191384D02*
X0106375Y0191384D01*
X0106049Y0190598D02*
X0082722Y0190598D01*
X0081519Y0191563D02*
X0084477Y0191563D01*
X0084831Y0191658D01*
X0085149Y0191841D01*
X0085409Y0192101D01*
X0085592Y0192419D01*
X0085687Y0192773D01*
X0085687Y0195731D01*
X0081519Y0195731D01*
X0081519Y0196519D01*
X0085687Y0196519D01*
X0085687Y0199477D01*
X0085592Y0199831D01*
X0085409Y0200149D01*
X0085149Y0200409D01*
X0084831Y0200592D01*
X0084477Y0200687D01*
X0081519Y0200687D01*
X0081519Y0196519D01*
X0080731Y0196519D01*
X0080731Y0200687D01*
X0077773Y0200687D01*
X0077419Y0200592D01*
X0077101Y0200409D01*
X0076841Y0200149D01*
X0076658Y0199831D01*
X0076563Y0199477D01*
X0076563Y0196519D01*
X0080731Y0196519D01*
X0080731Y0195731D01*
X0081519Y0195731D01*
X0081519Y0191563D01*
X0081519Y0192169D02*
X0080731Y0192169D01*
X0080731Y0191563D02*
X0080731Y0195731D01*
X0076563Y0195731D01*
X0076563Y0192773D01*
X0076658Y0192419D01*
X0076841Y0192101D01*
X0077101Y0191841D01*
X0077419Y0191658D01*
X0077773Y0191563D01*
X0080731Y0191563D01*
X0080731Y0192955D02*
X0081519Y0192955D01*
X0081519Y0193741D02*
X0080731Y0193741D01*
X0080731Y0194527D02*
X0081519Y0194527D01*
X0081519Y0195313D02*
X0080731Y0195313D01*
X0080731Y0196099D02*
X0024762Y0196099D01*
X0024762Y0195313D02*
X0076563Y0195313D01*
X0076563Y0194527D02*
X0024762Y0194527D01*
X0024762Y0193741D02*
X0076563Y0193741D01*
X0076563Y0192955D02*
X0024762Y0192955D01*
X0024762Y0192169D02*
X0076802Y0192169D01*
X0076563Y0196885D02*
X0024762Y0196885D01*
X0024762Y0197671D02*
X0076563Y0197671D01*
X0076563Y0198457D02*
X0024762Y0198457D01*
X0024762Y0199243D02*
X0076563Y0199243D01*
X0076772Y0200029D02*
X0024762Y0200029D01*
X0024762Y0200815D02*
X0112322Y0200815D01*
X0111536Y0201600D02*
X0075747Y0201600D01*
X0077137Y0202386D02*
X0110750Y0202386D01*
X0109964Y0203172D02*
X0077806Y0203172D01*
X0078131Y0203958D02*
X0109178Y0203958D01*
X0108052Y0209460D02*
X0024762Y0209460D01*
X0024762Y0210245D02*
X0045287Y0210245D01*
X0044501Y0211031D02*
X0024762Y0211031D01*
X0024762Y0211817D02*
X0044138Y0211817D01*
X0044138Y0212603D02*
X0024762Y0212603D01*
X0024762Y0213389D02*
X0044138Y0213389D01*
X0044138Y0214175D02*
X0024762Y0214175D01*
X0024762Y0214961D02*
X0044138Y0214961D01*
X0044138Y0215747D02*
X0024762Y0215747D01*
X0024762Y0216533D02*
X0042730Y0216533D01*
X0041944Y0217319D02*
X0024819Y0217319D01*
X0024966Y0218105D02*
X0041158Y0218105D01*
X0041069Y0218194D02*
X0041069Y0218194D01*
X0041069Y0218194D01*
X0041069Y0218891D02*
X0025221Y0218891D01*
X0025476Y0219676D02*
X0041069Y0219676D01*
X0041069Y0220462D02*
X0025926Y0220462D01*
X0026497Y0221248D02*
X0041069Y0221248D01*
X0041069Y0222034D02*
X0027177Y0222034D01*
X0028258Y0222820D02*
X0041069Y0222820D01*
X0041342Y0223606D02*
X0029967Y0223606D01*
X0041769Y0217493D02*
X0041769Y0217493D01*
X0046938Y0210245D02*
X0048089Y0210245D01*
X0049741Y0210245D02*
X0050458Y0210245D01*
X0052109Y0210245D02*
X0052827Y0210245D01*
X0054478Y0210245D02*
X0056730Y0210245D01*
X0055944Y0211031D02*
X0055264Y0211031D01*
X0055171Y0210938D02*
X0055171Y0210938D01*
X0060483Y0210245D02*
X0061334Y0210245D01*
X0064387Y0210245D02*
X0065237Y0210245D01*
X0066889Y0210245D02*
X0068040Y0210245D01*
X0069691Y0210245D02*
X0093034Y0210245D01*
X0093740Y0209953D02*
X0092105Y0210630D01*
X0090854Y0211881D01*
X0090177Y0213516D01*
X0090177Y0218734D01*
X0090854Y0220369D01*
X0092105Y0221620D01*
X0093740Y0222297D01*
X0095510Y0222297D01*
X0097145Y0221620D01*
X0098396Y0220369D01*
X0099073Y0218734D01*
X0099073Y0213516D01*
X0098396Y0211881D01*
X0097145Y0210630D01*
X0095510Y0209953D01*
X0093740Y0209953D01*
X0091704Y0211031D02*
X0070477Y0211031D01*
X0070840Y0211817D02*
X0090918Y0211817D01*
X0090555Y0212603D02*
X0070840Y0212603D01*
X0070840Y0213389D02*
X0090230Y0213389D01*
X0090177Y0214175D02*
X0070840Y0214175D01*
X0070840Y0214961D02*
X0090177Y0214961D01*
X0090177Y0215747D02*
X0070840Y0215747D01*
X0070840Y0216533D02*
X0090177Y0216533D01*
X0090177Y0217319D02*
X0070756Y0217319D01*
X0070050Y0218105D02*
X0090177Y0218105D01*
X0090242Y0218891D02*
X0070836Y0218891D01*
X0070840Y0219676D02*
X0090567Y0219676D01*
X0090948Y0220462D02*
X0070840Y0220462D01*
X0070840Y0221248D02*
X0091734Y0221248D01*
X0093106Y0222034D02*
X0070840Y0222034D01*
X0070840Y0222820D02*
X0286492Y0222820D01*
X0287573Y0222034D02*
X0272644Y0222034D01*
X0272010Y0222297D02*
X0270240Y0222297D01*
X0268605Y0221620D01*
X0267354Y0220369D01*
X0266677Y0218734D01*
X0266677Y0213516D01*
X0267354Y0211881D01*
X0268605Y0210630D01*
X0270240Y0209953D01*
X0272010Y0209953D01*
X0273645Y0210630D01*
X0274896Y0211881D01*
X0275573Y0213516D01*
X0275573Y0218734D01*
X0274896Y0220369D01*
X0273645Y0221620D01*
X0272010Y0222297D01*
X0274016Y0221248D02*
X0288253Y0221248D01*
X0288824Y0220462D02*
X0274802Y0220462D01*
X0275183Y0219676D02*
X0289274Y0219676D01*
X0289529Y0218891D02*
X0275508Y0218891D01*
X0275573Y0218105D02*
X0289784Y0218105D01*
X0289931Y0217319D02*
X0275573Y0217319D01*
X0275573Y0216533D02*
X0289988Y0216533D01*
X0289988Y0215747D02*
X0275573Y0215747D01*
X0275573Y0214961D02*
X0289988Y0214961D01*
X0289988Y0214175D02*
X0275573Y0214175D01*
X0275520Y0213389D02*
X0289988Y0213389D01*
X0289988Y0212603D02*
X0275195Y0212603D01*
X0274832Y0211817D02*
X0289988Y0211817D01*
X0289988Y0211031D02*
X0274046Y0211031D01*
X0272716Y0210245D02*
X0289988Y0210245D01*
X0289988Y0209460D02*
X0253150Y0209460D01*
X0253150Y0210245D02*
X0259534Y0210245D01*
X0260240Y0209953D02*
X0262010Y0209953D01*
X0263645Y0210630D01*
X0264896Y0211881D01*
X0265573Y0213516D01*
X0265573Y0218734D01*
X0264896Y0220369D01*
X0263645Y0221620D01*
X0262010Y0222297D01*
X0260240Y0222297D01*
X0258605Y0221620D01*
X0257354Y0220369D01*
X0256677Y0218734D01*
X0256677Y0213516D01*
X0257354Y0211881D01*
X0258605Y0210630D01*
X0260240Y0209953D01*
X0258204Y0211031D02*
X0254046Y0211031D01*
X0254832Y0211817D02*
X0257418Y0211817D01*
X0257055Y0212603D02*
X0255195Y0212603D01*
X0255520Y0213389D02*
X0256730Y0213389D01*
X0256677Y0214175D02*
X0255573Y0214175D01*
X0255573Y0214961D02*
X0256677Y0214961D01*
X0256677Y0215747D02*
X0255573Y0215747D01*
X0255573Y0216533D02*
X0256677Y0216533D01*
X0256677Y0217319D02*
X0255573Y0217319D01*
X0255573Y0218105D02*
X0256677Y0218105D01*
X0256742Y0218891D02*
X0255508Y0218891D01*
X0255183Y0219676D02*
X0257067Y0219676D01*
X0257448Y0220462D02*
X0254802Y0220462D01*
X0254016Y0221248D02*
X0258234Y0221248D01*
X0259606Y0222034D02*
X0252644Y0222034D01*
X0249606Y0222034D02*
X0242644Y0222034D01*
X0244016Y0221248D02*
X0248234Y0221248D01*
X0247448Y0220462D02*
X0244802Y0220462D01*
X0245183Y0219676D02*
X0247067Y0219676D01*
X0246742Y0218891D02*
X0245508Y0218891D01*
X0245573Y0218105D02*
X0246677Y0218105D01*
X0246677Y0217319D02*
X0245573Y0217319D01*
X0245573Y0216533D02*
X0246677Y0216533D01*
X0246677Y0215747D02*
X0245573Y0215747D01*
X0245573Y0214961D02*
X0246677Y0214961D01*
X0246677Y0214175D02*
X0245573Y0214175D01*
X0245520Y0213389D02*
X0246730Y0213389D01*
X0247055Y0212603D02*
X0245195Y0212603D01*
X0245054Y0211817D02*
X0244832Y0211817D01*
X0247196Y0211817D02*
X0247418Y0211817D01*
X0253150Y0208674D02*
X0289988Y0208674D01*
X0289988Y0207888D02*
X0253150Y0207888D01*
X0253150Y0207102D02*
X0289988Y0207102D01*
X0289988Y0206316D02*
X0253150Y0206316D01*
X0252769Y0205530D02*
X0289988Y0205530D01*
X0289988Y0204744D02*
X0251983Y0204744D01*
X0251197Y0203958D02*
X0289988Y0203958D01*
X0289988Y0203172D02*
X0250411Y0203172D01*
X0249625Y0202386D02*
X0289988Y0202386D01*
X0289988Y0201600D02*
X0248839Y0201600D01*
X0248053Y0200815D02*
X0289988Y0200815D01*
X0289988Y0200029D02*
X0247267Y0200029D01*
X0246481Y0199243D02*
X0289988Y0199243D01*
X0289988Y0198457D02*
X0245695Y0198457D01*
X0244909Y0197671D02*
X0289988Y0197671D01*
X0289988Y0196885D02*
X0244123Y0196885D01*
X0243338Y0196099D02*
X0289988Y0196099D01*
X0289988Y0195313D02*
X0242552Y0195313D01*
X0241766Y0194527D02*
X0289988Y0194527D01*
X0289988Y0193741D02*
X0240980Y0193741D01*
X0240194Y0192955D02*
X0289988Y0192955D01*
X0289988Y0192169D02*
X0239408Y0192169D01*
X0238622Y0191384D02*
X0289988Y0191384D01*
X0289988Y0190598D02*
X0237836Y0190598D01*
X0237050Y0189812D02*
X0289988Y0189812D01*
X0289988Y0189026D02*
X0236264Y0189026D01*
X0235478Y0188240D02*
X0289988Y0188240D01*
X0289988Y0187454D02*
X0234693Y0187454D01*
X0233907Y0186668D02*
X0289988Y0186668D01*
X0289988Y0185882D02*
X0233121Y0185882D01*
X0208616Y0181167D02*
X0206425Y0181167D01*
X0205731Y0180381D02*
X0207830Y0180381D01*
X0207044Y0179595D02*
X0204281Y0179595D01*
X0202744Y0179595D02*
X0190246Y0179595D01*
X0190917Y0178809D02*
X0206258Y0178809D01*
X0205472Y0178023D02*
X0191588Y0178023D01*
X0189575Y0180381D02*
X0201294Y0180381D01*
X0234409Y0209460D02*
X0163779Y0209460D01*
X0163034Y0210245D02*
X0162993Y0210245D01*
X0166216Y0210245D02*
X0173034Y0210245D01*
X0173740Y0209953D02*
X0172105Y0210630D01*
X0170854Y0211881D01*
X0170177Y0213516D01*
X0170177Y0218734D01*
X0170854Y0220369D01*
X0172105Y0221620D01*
X0173740Y0222297D01*
X0175510Y0222297D01*
X0177145Y0221620D01*
X0178396Y0220369D01*
X0179073Y0218734D01*
X0179073Y0213516D01*
X0178396Y0211881D01*
X0177145Y0210630D01*
X0175510Y0209953D01*
X0173740Y0209953D01*
X0171704Y0211031D02*
X0167546Y0211031D01*
X0168332Y0211817D02*
X0170918Y0211817D01*
X0170555Y0212603D02*
X0168695Y0212603D01*
X0169020Y0213389D02*
X0170230Y0213389D01*
X0170177Y0214175D02*
X0169073Y0214175D01*
X0169073Y0214961D02*
X0170177Y0214961D01*
X0170177Y0215747D02*
X0169073Y0215747D01*
X0169073Y0216533D02*
X0170177Y0216533D01*
X0170177Y0217319D02*
X0169073Y0217319D01*
X0169073Y0218105D02*
X0170177Y0218105D01*
X0170242Y0218891D02*
X0169008Y0218891D01*
X0168683Y0219676D02*
X0170567Y0219676D01*
X0170948Y0220462D02*
X0168302Y0220462D01*
X0167516Y0221248D02*
X0171734Y0221248D01*
X0173106Y0222034D02*
X0166144Y0222034D01*
X0163106Y0222034D02*
X0156144Y0222034D01*
X0157516Y0221248D02*
X0161734Y0221248D01*
X0160948Y0220462D02*
X0158302Y0220462D01*
X0158683Y0219676D02*
X0160567Y0219676D01*
X0160242Y0218891D02*
X0159008Y0218891D01*
X0159073Y0218105D02*
X0160177Y0218105D01*
X0160177Y0217319D02*
X0159073Y0217319D01*
X0159073Y0216533D02*
X0160177Y0216533D01*
X0160177Y0215747D02*
X0159073Y0215747D01*
X0159073Y0214961D02*
X0160177Y0214961D01*
X0160177Y0214175D02*
X0159073Y0214175D01*
X0159849Y0213389D02*
X0160230Y0213389D01*
X0150230Y0213389D02*
X0149849Y0213389D01*
X0150177Y0214175D02*
X0149073Y0214175D01*
X0149073Y0214961D02*
X0150177Y0214961D01*
X0150177Y0215747D02*
X0149073Y0215747D01*
X0149073Y0216533D02*
X0150177Y0216533D01*
X0150177Y0217319D02*
X0149073Y0217319D01*
X0149073Y0218105D02*
X0150177Y0218105D01*
X0150242Y0218891D02*
X0149008Y0218891D01*
X0148683Y0219676D02*
X0150567Y0219676D01*
X0150948Y0220462D02*
X0148302Y0220462D01*
X0147516Y0221248D02*
X0151734Y0221248D01*
X0153106Y0222034D02*
X0146144Y0222034D01*
X0143106Y0222034D02*
X0136144Y0222034D01*
X0137516Y0221248D02*
X0141734Y0221248D01*
X0140948Y0220462D02*
X0138302Y0220462D01*
X0138683Y0219676D02*
X0140567Y0219676D01*
X0140242Y0218891D02*
X0139008Y0218891D01*
X0139073Y0218105D02*
X0140177Y0218105D01*
X0140177Y0217319D02*
X0139073Y0217319D01*
X0139073Y0216533D02*
X0140177Y0216533D01*
X0140177Y0215747D02*
X0139073Y0215747D01*
X0139073Y0214961D02*
X0140177Y0214961D01*
X0140177Y0214175D02*
X0139073Y0214175D01*
X0139849Y0213389D02*
X0140230Y0213389D01*
X0137266Y0210245D02*
X0136216Y0210245D01*
X0138052Y0209460D02*
X0113779Y0209460D01*
X0113034Y0210245D02*
X0112993Y0210245D01*
X0114565Y0208674D02*
X0138838Y0208674D01*
X0139624Y0207888D02*
X0115351Y0207888D01*
X0116216Y0210245D02*
X0123606Y0210245D01*
X0123626Y0210239D02*
X0122987Y0210447D01*
X0122389Y0210752D01*
X0121845Y0211146D01*
X0121370Y0211621D01*
X0120976Y0212165D01*
X0120671Y0212763D01*
X0120463Y0213402D01*
X0120358Y0214065D01*
X0120358Y0215731D01*
X0124231Y0215731D01*
X0124231Y0216519D01*
X0124231Y0222107D01*
X0123626Y0222011D01*
X0122987Y0221803D01*
X0122389Y0221498D01*
X0121845Y0221104D01*
X0121370Y0220629D01*
X0120976Y0220085D01*
X0120671Y0219487D01*
X0120463Y0218848D01*
X0120358Y0218185D01*
X0120358Y0216519D01*
X0124231Y0216519D01*
X0125019Y0216519D01*
X0125019Y0222107D01*
X0125624Y0222011D01*
X0126263Y0221803D01*
X0126861Y0221498D01*
X0127405Y0221104D01*
X0127880Y0220629D01*
X0128274Y0220085D01*
X0128579Y0219487D01*
X0128787Y0218848D01*
X0128892Y0218185D01*
X0128892Y0216519D01*
X0125019Y0216519D01*
X0125019Y0215731D01*
X0128892Y0215731D01*
X0128892Y0214065D01*
X0128787Y0213402D01*
X0128579Y0212763D01*
X0128274Y0212165D01*
X0127880Y0211621D01*
X0127405Y0211146D01*
X0126861Y0210752D01*
X0126263Y0210447D01*
X0125624Y0210239D01*
X0125019Y0210143D01*
X0125019Y0215731D01*
X0124231Y0215731D01*
X0124231Y0210143D01*
X0123626Y0210239D01*
X0124231Y0210245D02*
X0125019Y0210245D01*
X0125643Y0210245D02*
X0133034Y0210245D01*
X0131704Y0211031D02*
X0127246Y0211031D01*
X0128022Y0211817D02*
X0130918Y0211817D01*
X0130555Y0212603D02*
X0128498Y0212603D01*
X0128783Y0213389D02*
X0130230Y0213389D01*
X0130177Y0214175D02*
X0128892Y0214175D01*
X0128892Y0214961D02*
X0130177Y0214961D01*
X0130177Y0215747D02*
X0125019Y0215747D01*
X0125019Y0216533D02*
X0124231Y0216533D01*
X0124231Y0217319D02*
X0125019Y0217319D01*
X0125019Y0218105D02*
X0124231Y0218105D01*
X0124231Y0218891D02*
X0125019Y0218891D01*
X0125019Y0219676D02*
X0124231Y0219676D01*
X0124231Y0220462D02*
X0125019Y0220462D01*
X0125019Y0221248D02*
X0124231Y0221248D01*
X0124231Y0222034D02*
X0125019Y0222034D01*
X0125476Y0222034D02*
X0133106Y0222034D01*
X0131734Y0221248D02*
X0127206Y0221248D01*
X0128000Y0220462D02*
X0130948Y0220462D01*
X0130567Y0219676D02*
X0128483Y0219676D01*
X0128773Y0218891D02*
X0130242Y0218891D01*
X0130177Y0218105D02*
X0128892Y0218105D01*
X0128892Y0217319D02*
X0130177Y0217319D01*
X0130177Y0216533D02*
X0128892Y0216533D01*
X0125019Y0214961D02*
X0124231Y0214961D01*
X0124231Y0215747D02*
X0119073Y0215747D01*
X0119073Y0216533D02*
X0120358Y0216533D01*
X0120358Y0217319D02*
X0119073Y0217319D01*
X0119073Y0218105D02*
X0120358Y0218105D01*
X0120477Y0218891D02*
X0119008Y0218891D01*
X0118683Y0219676D02*
X0120767Y0219676D01*
X0121250Y0220462D02*
X0118302Y0220462D01*
X0117516Y0221248D02*
X0122044Y0221248D01*
X0123774Y0222034D02*
X0116144Y0222034D01*
X0113106Y0222034D02*
X0106144Y0222034D01*
X0107516Y0221248D02*
X0111734Y0221248D01*
X0110948Y0220462D02*
X0108302Y0220462D01*
X0108683Y0219676D02*
X0110567Y0219676D01*
X0110242Y0218891D02*
X0109008Y0218891D01*
X0109073Y0218105D02*
X0110177Y0218105D01*
X0110177Y0217319D02*
X0109073Y0217319D01*
X0109073Y0216533D02*
X0110177Y0216533D01*
X0110177Y0215747D02*
X0109073Y0215747D01*
X0109073Y0214961D02*
X0110177Y0214961D01*
X0110177Y0214175D02*
X0109073Y0214175D01*
X0109849Y0213389D02*
X0110230Y0213389D01*
X0107266Y0210245D02*
X0106216Y0210245D01*
X0103034Y0210245D02*
X0096216Y0210245D01*
X0097546Y0211031D02*
X0101704Y0211031D01*
X0100918Y0211817D02*
X0098332Y0211817D01*
X0098695Y0212603D02*
X0100555Y0212603D01*
X0100230Y0213389D02*
X0099020Y0213389D01*
X0099073Y0214175D02*
X0100177Y0214175D01*
X0100177Y0214961D02*
X0099073Y0214961D01*
X0099073Y0215747D02*
X0100177Y0215747D01*
X0100177Y0216533D02*
X0099073Y0216533D01*
X0099073Y0217319D02*
X0100177Y0217319D01*
X0100177Y0218105D02*
X0099073Y0218105D01*
X0099008Y0218891D02*
X0100242Y0218891D01*
X0100567Y0219676D02*
X0098683Y0219676D01*
X0098302Y0220462D02*
X0100948Y0220462D01*
X0101734Y0221248D02*
X0097516Y0221248D01*
X0096144Y0222034D02*
X0103106Y0222034D01*
X0117546Y0211031D02*
X0122004Y0211031D01*
X0121228Y0211817D02*
X0118332Y0211817D01*
X0118695Y0212603D02*
X0120752Y0212603D01*
X0120467Y0213389D02*
X0119020Y0213389D01*
X0119073Y0214175D02*
X0120358Y0214175D01*
X0120358Y0214961D02*
X0119073Y0214961D01*
X0124231Y0214175D02*
X0125019Y0214175D01*
X0125019Y0213389D02*
X0124231Y0213389D01*
X0124231Y0212603D02*
X0125019Y0212603D01*
X0125019Y0211817D02*
X0124231Y0211817D01*
X0124231Y0211031D02*
X0125019Y0211031D01*
X0139341Y0200029D02*
X0085478Y0200029D01*
X0085687Y0199243D02*
X0138575Y0199243D01*
X0138250Y0198457D02*
X0085687Y0198457D01*
X0085687Y0197671D02*
X0138078Y0197671D01*
X0138078Y0196885D02*
X0085687Y0196885D01*
X0085687Y0195313D02*
X0138749Y0195313D01*
X0138330Y0196099D02*
X0081519Y0196099D01*
X0081519Y0196885D02*
X0080731Y0196885D01*
X0080731Y0197671D02*
X0081519Y0197671D01*
X0081519Y0198457D02*
X0080731Y0198457D01*
X0080731Y0199243D02*
X0081519Y0199243D01*
X0081519Y0200029D02*
X0080731Y0200029D01*
X0074003Y0201600D02*
X0024762Y0201600D01*
X0024762Y0202386D02*
X0072613Y0202386D01*
X0071944Y0203172D02*
X0024762Y0203172D01*
X0024762Y0203958D02*
X0071619Y0203958D01*
X0071516Y0204744D02*
X0024762Y0204744D01*
X0024762Y0205530D02*
X0071516Y0205530D01*
X0071836Y0206316D02*
X0024762Y0206316D01*
X0024762Y0207102D02*
X0072351Y0207102D01*
X0073371Y0207888D02*
X0024762Y0207888D01*
X0024762Y0208674D02*
X0075810Y0208674D01*
X0070840Y0223606D02*
X0284783Y0223606D01*
X0269606Y0222034D02*
X0262644Y0222034D01*
X0264016Y0221248D02*
X0268234Y0221248D01*
X0267448Y0220462D02*
X0264802Y0220462D01*
X0265183Y0219676D02*
X0267067Y0219676D01*
X0266742Y0218891D02*
X0265508Y0218891D01*
X0265573Y0218105D02*
X0266677Y0218105D01*
X0266677Y0217319D02*
X0265573Y0217319D01*
X0265573Y0216533D02*
X0266677Y0216533D01*
X0266677Y0215747D02*
X0265573Y0215747D01*
X0265573Y0214961D02*
X0266677Y0214961D01*
X0266677Y0214175D02*
X0265573Y0214175D01*
X0265520Y0213389D02*
X0266730Y0213389D01*
X0267055Y0212603D02*
X0265195Y0212603D01*
X0264832Y0211817D02*
X0267418Y0211817D01*
X0268204Y0211031D02*
X0264046Y0211031D01*
X0262716Y0210245D02*
X0269534Y0210245D01*
X0239606Y0222034D02*
X0232644Y0222034D01*
X0232010Y0222297D02*
X0233645Y0221620D01*
X0234896Y0220369D01*
X0235573Y0218734D01*
X0235573Y0213516D01*
X0234896Y0211881D01*
X0233645Y0210630D01*
X0232010Y0209953D01*
X0230240Y0209953D01*
X0228605Y0210630D01*
X0227354Y0211881D01*
X0226677Y0213516D01*
X0226677Y0218734D01*
X0227354Y0220369D01*
X0228605Y0221620D01*
X0230240Y0222297D01*
X0232010Y0222297D01*
X0234016Y0221248D02*
X0238234Y0221248D01*
X0237448Y0220462D02*
X0234802Y0220462D01*
X0235183Y0219676D02*
X0237067Y0219676D01*
X0236742Y0218891D02*
X0235508Y0218891D01*
X0235573Y0218105D02*
X0236677Y0218105D01*
X0236677Y0217319D02*
X0235573Y0217319D01*
X0235573Y0216533D02*
X0236677Y0216533D01*
X0236677Y0215747D02*
X0235573Y0215747D01*
X0235573Y0214961D02*
X0236677Y0214961D01*
X0236677Y0214175D02*
X0235573Y0214175D01*
X0235520Y0213389D02*
X0236730Y0213389D01*
X0237055Y0212603D02*
X0235195Y0212603D01*
X0234832Y0211817D02*
X0237418Y0211817D01*
X0238204Y0211031D02*
X0234046Y0211031D01*
X0235194Y0210245D02*
X0232716Y0210245D01*
X0229534Y0210245D02*
X0222716Y0210245D01*
X0222010Y0209953D02*
X0223645Y0210630D01*
X0224896Y0211881D01*
X0225573Y0213516D01*
X0225573Y0218734D01*
X0224896Y0220369D01*
X0223645Y0221620D01*
X0222010Y0222297D01*
X0220240Y0222297D01*
X0218605Y0221620D01*
X0217354Y0220369D01*
X0216677Y0218734D01*
X0216677Y0213516D01*
X0217354Y0211881D01*
X0218605Y0210630D01*
X0220240Y0209953D01*
X0222010Y0209953D01*
X0224046Y0211031D02*
X0228204Y0211031D01*
X0227418Y0211817D02*
X0224832Y0211817D01*
X0225195Y0212603D02*
X0227055Y0212603D01*
X0226730Y0213389D02*
X0225520Y0213389D01*
X0225573Y0214175D02*
X0226677Y0214175D01*
X0226677Y0214961D02*
X0225573Y0214961D01*
X0225573Y0215747D02*
X0226677Y0215747D01*
X0226677Y0216533D02*
X0225573Y0216533D01*
X0225573Y0217319D02*
X0226677Y0217319D01*
X0226677Y0218105D02*
X0225573Y0218105D01*
X0225508Y0218891D02*
X0226742Y0218891D01*
X0227067Y0219676D02*
X0225183Y0219676D01*
X0224802Y0220462D02*
X0227448Y0220462D01*
X0228234Y0221248D02*
X0224016Y0221248D01*
X0222644Y0222034D02*
X0229606Y0222034D01*
X0219606Y0222034D02*
X0212644Y0222034D01*
X0212010Y0222297D02*
X0213645Y0221620D01*
X0214896Y0220369D01*
X0215573Y0218734D01*
X0215573Y0213516D01*
X0214896Y0211881D01*
X0213645Y0210630D01*
X0212010Y0209953D01*
X0210240Y0209953D01*
X0208605Y0210630D01*
X0207354Y0211881D01*
X0206677Y0213516D01*
X0206677Y0218734D01*
X0207354Y0220369D01*
X0208605Y0221620D01*
X0210240Y0222297D01*
X0212010Y0222297D01*
X0214016Y0221248D02*
X0218234Y0221248D01*
X0217448Y0220462D02*
X0214802Y0220462D01*
X0215183Y0219676D02*
X0217067Y0219676D01*
X0216742Y0218891D02*
X0215508Y0218891D01*
X0215573Y0218105D02*
X0216677Y0218105D01*
X0216677Y0217319D02*
X0215573Y0217319D01*
X0215573Y0216533D02*
X0216677Y0216533D01*
X0216677Y0215747D02*
X0215573Y0215747D01*
X0215573Y0214961D02*
X0216677Y0214961D01*
X0216677Y0214175D02*
X0215573Y0214175D01*
X0215520Y0213389D02*
X0216730Y0213389D01*
X0217055Y0212603D02*
X0215195Y0212603D01*
X0214832Y0211817D02*
X0217418Y0211817D01*
X0218204Y0211031D02*
X0214046Y0211031D01*
X0212716Y0210245D02*
X0219534Y0210245D01*
X0209534Y0210245D02*
X0202716Y0210245D01*
X0202010Y0209953D02*
X0203645Y0210630D01*
X0204896Y0211881D01*
X0205573Y0213516D01*
X0205573Y0218734D01*
X0204896Y0220369D01*
X0203645Y0221620D01*
X0202010Y0222297D01*
X0200240Y0222297D01*
X0198605Y0221620D01*
X0197354Y0220369D01*
X0196677Y0218734D01*
X0196677Y0213516D01*
X0197354Y0211881D01*
X0198605Y0210630D01*
X0200240Y0209953D01*
X0202010Y0209953D01*
X0204046Y0211031D02*
X0208204Y0211031D01*
X0207418Y0211817D02*
X0204832Y0211817D01*
X0205195Y0212603D02*
X0207055Y0212603D01*
X0206730Y0213389D02*
X0205520Y0213389D01*
X0205573Y0214175D02*
X0206677Y0214175D01*
X0206677Y0214961D02*
X0205573Y0214961D01*
X0205573Y0215747D02*
X0206677Y0215747D01*
X0206677Y0216533D02*
X0205573Y0216533D01*
X0205573Y0217319D02*
X0206677Y0217319D01*
X0206677Y0218105D02*
X0205573Y0218105D01*
X0205508Y0218891D02*
X0206742Y0218891D01*
X0207067Y0219676D02*
X0205183Y0219676D01*
X0204802Y0220462D02*
X0207448Y0220462D01*
X0208234Y0221248D02*
X0204016Y0221248D01*
X0202644Y0222034D02*
X0209606Y0222034D01*
X0199606Y0222034D02*
X0186144Y0222034D01*
X0185510Y0222297D02*
X0187145Y0221620D01*
X0188396Y0220369D01*
X0189073Y0218734D01*
X0189073Y0213516D01*
X0188396Y0211881D01*
X0187145Y0210630D01*
X0185510Y0209953D01*
X0183740Y0209953D01*
X0182105Y0210630D01*
X0180854Y0211881D01*
X0180177Y0213516D01*
X0180177Y0218734D01*
X0180854Y0220369D01*
X0182105Y0221620D01*
X0183740Y0222297D01*
X0185510Y0222297D01*
X0187516Y0221248D02*
X0198234Y0221248D01*
X0197448Y0220462D02*
X0188302Y0220462D01*
X0188683Y0219676D02*
X0197067Y0219676D01*
X0196742Y0218891D02*
X0189008Y0218891D01*
X0189073Y0218105D02*
X0196677Y0218105D01*
X0196677Y0217319D02*
X0189073Y0217319D01*
X0189073Y0216533D02*
X0196677Y0216533D01*
X0196677Y0215747D02*
X0189073Y0215747D01*
X0189073Y0214961D02*
X0196677Y0214961D01*
X0196677Y0214175D02*
X0189073Y0214175D01*
X0189020Y0213389D02*
X0196730Y0213389D01*
X0197055Y0212603D02*
X0188695Y0212603D01*
X0188332Y0211817D02*
X0197418Y0211817D01*
X0198204Y0211031D02*
X0187546Y0211031D01*
X0186216Y0210245D02*
X0199534Y0210245D01*
X0183034Y0210245D02*
X0176216Y0210245D01*
X0177546Y0211031D02*
X0181704Y0211031D01*
X0180918Y0211817D02*
X0178332Y0211817D01*
X0178695Y0212603D02*
X0180555Y0212603D01*
X0180230Y0213389D02*
X0179020Y0213389D01*
X0179073Y0214175D02*
X0180177Y0214175D01*
X0180177Y0214961D02*
X0179073Y0214961D01*
X0179073Y0215747D02*
X0180177Y0215747D01*
X0180177Y0216533D02*
X0179073Y0216533D01*
X0179073Y0217319D02*
X0180177Y0217319D01*
X0180177Y0218105D02*
X0179073Y0218105D01*
X0179008Y0218891D02*
X0180242Y0218891D01*
X0180567Y0219676D02*
X0178683Y0219676D01*
X0178302Y0220462D02*
X0180948Y0220462D01*
X0181734Y0221248D02*
X0177516Y0221248D01*
X0176144Y0222034D02*
X0183106Y0222034D01*
X0143780Y0192169D02*
X0112796Y0192169D01*
X0111861Y0192955D02*
X0142994Y0192955D01*
X0141933Y0194016D02*
X0140769Y0194016D01*
X0139535Y0194527D01*
X0136639Y0184310D02*
X0112407Y0184310D01*
X0113193Y0183524D02*
X0137425Y0183524D01*
X0132613Y0178023D02*
X0112245Y0178023D01*
X0113030Y0178809D02*
X0131828Y0178809D01*
X0133399Y0177237D02*
X0085798Y0177237D01*
X0085868Y0176451D02*
X0134185Y0176451D01*
X0134971Y0175665D02*
X0085868Y0175665D01*
X0085743Y0174879D02*
X0135757Y0174879D01*
X0136543Y0174093D02*
X0085418Y0174093D01*
X0085016Y0173308D02*
X0137329Y0173308D01*
X0138115Y0172522D02*
X0084230Y0172522D01*
X0083769Y0170164D02*
X0140473Y0170164D01*
X0108828Y0185096D02*
X0085833Y0185096D01*
X0085868Y0185882D02*
X0108262Y0185882D01*
X0107108Y0186668D02*
X0085868Y0186668D01*
X0085709Y0187454D02*
X0106439Y0187454D01*
X0106113Y0188240D02*
X0085383Y0188240D01*
X0084932Y0189026D02*
X0105919Y0189026D01*
X0105919Y0189812D02*
X0084146Y0189812D01*
X0085448Y0192169D02*
X0106954Y0192169D01*
X0107889Y0192955D02*
X0085687Y0192955D01*
X0085507Y0184310D02*
X0107343Y0184310D01*
X0106557Y0183524D02*
X0085182Y0183524D01*
X0084447Y0182739D02*
X0106211Y0182739D01*
X0105919Y0181953D02*
X0083447Y0181953D01*
X0083245Y0180381D02*
X0105952Y0180381D01*
X0105919Y0181167D02*
X0065137Y0181167D01*
X0065137Y0181953D02*
X0078803Y0181953D01*
X0079005Y0180381D02*
X0065137Y0180381D01*
X0065137Y0179595D02*
X0077887Y0179595D01*
X0077103Y0178809D02*
X0065137Y0178809D01*
X0065137Y0178023D02*
X0076777Y0178023D01*
X0084363Y0179595D02*
X0106278Y0179595D01*
X0106720Y0178809D02*
X0085147Y0178809D01*
X0085473Y0178023D02*
X0107505Y0178023D01*
X0037582Y0170164D02*
X0024762Y0170164D01*
X0024762Y0169378D02*
X0037582Y0169378D01*
X0037582Y0168592D02*
X0024762Y0168592D01*
X0024762Y0167806D02*
X0037582Y0167806D01*
X0037582Y0167020D02*
X0024762Y0167020D01*
X0024762Y0166234D02*
X0037582Y0166234D01*
X0037582Y0165448D02*
X0024762Y0165448D01*
X0024762Y0164663D02*
X0037582Y0164663D01*
X0037582Y0163877D02*
X0024762Y0163877D01*
X0024762Y0163091D02*
X0037582Y0163091D01*
X0037582Y0162305D02*
X0024762Y0162305D01*
X0024762Y0161519D02*
X0037582Y0161519D01*
X0037582Y0160733D02*
X0024762Y0160733D01*
X0024762Y0159947D02*
X0037582Y0159947D01*
X0037582Y0159161D02*
X0024762Y0159161D01*
X0024762Y0158375D02*
X0037582Y0158375D01*
X0037582Y0157589D02*
X0024762Y0157589D01*
X0024762Y0156803D02*
X0037582Y0156803D01*
X0037582Y0156017D02*
X0024762Y0156017D01*
X0024762Y0155232D02*
X0037582Y0155232D01*
X0037582Y0154446D02*
X0024762Y0154446D01*
X0024762Y0153660D02*
X0037582Y0153660D01*
X0037582Y0152874D02*
X0024762Y0152874D01*
X0024762Y0152088D02*
X0037582Y0152088D01*
X0037582Y0151302D02*
X0024762Y0151302D01*
X0024762Y0150516D02*
X0037582Y0150516D01*
X0037582Y0149730D02*
X0024762Y0149730D01*
X0024762Y0148944D02*
X0037582Y0148944D01*
X0037582Y0148158D02*
X0024762Y0148158D01*
X0024762Y0147372D02*
X0037582Y0147372D01*
X0037582Y0146587D02*
X0024762Y0146587D01*
X0024762Y0145801D02*
X0037582Y0145801D01*
X0037582Y0145015D02*
X0024762Y0145015D01*
X0024762Y0144229D02*
X0037582Y0144229D01*
X0037582Y0143443D02*
X0024762Y0143443D01*
X0024762Y0142657D02*
X0037582Y0142657D01*
X0037582Y0141871D02*
X0024762Y0141871D01*
X0024762Y0141085D02*
X0037582Y0141085D01*
X0037582Y0140299D02*
X0024762Y0140299D01*
X0024762Y0139513D02*
X0037582Y0139513D01*
X0037582Y0138727D02*
X0024762Y0138727D01*
X0024762Y0137941D02*
X0037582Y0137941D01*
X0037582Y0137156D02*
X0024762Y0137156D01*
X0024762Y0136370D02*
X0037582Y0136370D01*
X0037008Y0135584D02*
X0024762Y0135584D01*
X0024762Y0134798D02*
X0036683Y0134798D01*
X0036357Y0134012D02*
X0024762Y0134012D01*
X0024762Y0133226D02*
X0036350Y0133226D01*
X0036350Y0132440D02*
X0024762Y0132440D01*
X0024762Y0131654D02*
X0036350Y0131654D01*
X0036350Y0130868D02*
X0024762Y0130868D01*
X0024762Y0130082D02*
X0036350Y0130082D01*
X0036350Y0129296D02*
X0024762Y0129296D01*
X0024762Y0128511D02*
X0036350Y0128511D01*
X0036570Y0127725D02*
X0024762Y0127725D01*
X0024762Y0126939D02*
X0036896Y0126939D01*
X0037425Y0126153D02*
X0024762Y0126153D01*
X0024762Y0125367D02*
X0038211Y0125367D01*
X0039811Y0124581D02*
X0024762Y0124581D01*
X0024762Y0123795D02*
X0028215Y0123795D01*
X0026969Y0123009D02*
X0024762Y0123009D01*
X0024762Y0122223D02*
X0026258Y0122223D01*
X0025782Y0121437D02*
X0024762Y0121437D01*
X0024762Y0120651D02*
X0025481Y0120651D01*
X0025323Y0119866D02*
X0024762Y0119866D01*
X0024762Y0119080D02*
X0029796Y0119080D01*
X0029796Y0118915D02*
X0025298Y0118915D01*
X0025417Y0118163D01*
X0025655Y0117431D01*
X0026004Y0116744D01*
X0026457Y0116121D01*
X0027002Y0115576D01*
X0027625Y0115124D01*
X0028311Y0114774D01*
X0029044Y0114536D01*
X0029796Y0114417D01*
X0029796Y0118915D01*
X0029796Y0118294D02*
X0030584Y0118294D01*
X0030584Y0117508D02*
X0029796Y0117508D01*
X0029796Y0116722D02*
X0030584Y0116722D01*
X0030584Y0115936D02*
X0029796Y0115936D01*
X0029796Y0115150D02*
X0030584Y0115150D01*
X0027589Y0115150D02*
X0024762Y0115150D01*
X0024762Y0115936D02*
X0026642Y0115936D01*
X0026021Y0116722D02*
X0024762Y0116722D01*
X0024762Y0117508D02*
X0025630Y0117508D01*
X0025396Y0118294D02*
X0024762Y0118294D01*
X0123987Y0055421D02*
X0133981Y0055421D01*
X0134783Y0054635D02*
X0124756Y0054635D01*
X0125526Y0053849D02*
X0135578Y0053849D01*
X0127065Y0052277D02*
X0183041Y0052277D01*
X0175147Y0054635D02*
X0165597Y0054635D01*
X0165922Y0055421D02*
X0174529Y0055421D01*
X0174203Y0056207D02*
X0166137Y0056207D01*
X0166202Y0056992D02*
X0174045Y0056992D01*
X0174045Y0057778D02*
X0166988Y0057778D01*
X0167774Y0058564D02*
X0174211Y0058564D01*
X0174536Y0059350D02*
X0168560Y0059350D01*
X0169346Y0060136D02*
X0175166Y0060136D01*
X0176224Y0060922D02*
X0170132Y0060922D01*
X0160316Y0053063D02*
X0126295Y0053063D01*
X0121561Y0042060D02*
X0182593Y0042060D01*
X0181807Y0041274D02*
X0122354Y0041274D01*
X0117121Y0034987D02*
X0115863Y0034987D01*
X0115337Y0034201D02*
X0117852Y0034201D01*
X0118962Y0033415D02*
X0114936Y0033415D01*
X0142122Y0020055D02*
X0150128Y0020055D01*
X0150240Y0020008D02*
X0152010Y0020008D01*
X0153645Y0020685D01*
X0154896Y0021937D01*
X0155573Y0023571D01*
X0155573Y0028789D01*
X0154896Y0030424D01*
X0153645Y0031675D01*
X0152010Y0032352D01*
X0150240Y0032352D01*
X0148605Y0031675D01*
X0147354Y0030424D01*
X0146677Y0028789D01*
X0146677Y0023571D01*
X0147354Y0021937D01*
X0148605Y0020685D01*
X0150240Y0020008D01*
X0152122Y0020055D02*
X0160128Y0020055D01*
X0158450Y0020840D02*
X0153800Y0020840D01*
X0154586Y0021626D02*
X0157664Y0021626D01*
X0157157Y0022412D02*
X0155093Y0022412D01*
X0155418Y0023198D02*
X0156832Y0023198D01*
X0156677Y0023984D02*
X0155573Y0023984D01*
X0155573Y0024770D02*
X0156677Y0024770D01*
X0156677Y0025556D02*
X0155573Y0025556D01*
X0155573Y0026342D02*
X0156677Y0026342D01*
X0156677Y0027128D02*
X0155573Y0027128D01*
X0155573Y0027914D02*
X0156677Y0027914D01*
X0156677Y0028700D02*
X0155573Y0028700D01*
X0155284Y0029486D02*
X0156966Y0029486D01*
X0157291Y0030271D02*
X0154959Y0030271D01*
X0154262Y0031057D02*
X0157988Y0031057D01*
X0159012Y0031843D02*
X0153238Y0031843D01*
X0149012Y0031843D02*
X0144043Y0031843D01*
X0144262Y0031057D02*
X0147988Y0031057D01*
X0147291Y0030271D02*
X0144959Y0030271D01*
X0145284Y0029486D02*
X0146966Y0029486D01*
X0146677Y0028700D02*
X0145573Y0028700D01*
X0145573Y0027914D02*
X0146677Y0027914D01*
X0146677Y0027128D02*
X0145573Y0027128D01*
X0145573Y0026342D02*
X0146677Y0026342D01*
X0146677Y0025556D02*
X0145573Y0025556D01*
X0145573Y0024770D02*
X0146677Y0024770D01*
X0146677Y0023984D02*
X0145573Y0023984D01*
X0145418Y0023198D02*
X0146832Y0023198D01*
X0147157Y0022412D02*
X0145093Y0022412D01*
X0144586Y0021626D02*
X0147664Y0021626D01*
X0148450Y0020840D02*
X0143800Y0020840D01*
X0201819Y0041274D02*
X0202606Y0041274D01*
X0202606Y0042060D02*
X0201819Y0042060D01*
X0201819Y0042846D02*
X0202606Y0042846D01*
X0202606Y0043632D02*
X0201819Y0043632D01*
X0201819Y0044418D02*
X0202606Y0044418D01*
X0223818Y0031843D02*
X0228432Y0031843D01*
X0228494Y0031905D02*
X0227187Y0030598D01*
X0226480Y0028891D01*
X0226480Y0023359D01*
X0227187Y0021652D01*
X0228494Y0020345D01*
X0230201Y0019638D01*
X0232049Y0019638D01*
X0233756Y0020345D01*
X0235063Y0021652D01*
X0235770Y0023359D01*
X0235770Y0028891D01*
X0235063Y0030598D01*
X0233756Y0031905D01*
X0232049Y0032612D01*
X0230201Y0032612D01*
X0228494Y0031905D01*
X0227646Y0031057D02*
X0224604Y0031057D01*
X0225198Y0030271D02*
X0227052Y0030271D01*
X0226726Y0029486D02*
X0225524Y0029486D01*
X0225770Y0028700D02*
X0226480Y0028700D01*
X0226480Y0027914D02*
X0225770Y0027914D01*
X0225770Y0027128D02*
X0226480Y0027128D01*
X0226480Y0026342D02*
X0225770Y0026342D01*
X0225770Y0025556D02*
X0226480Y0025556D01*
X0226480Y0024770D02*
X0225770Y0024770D01*
X0225770Y0023984D02*
X0226480Y0023984D01*
X0226547Y0023198D02*
X0225703Y0023198D01*
X0225378Y0022412D02*
X0226872Y0022412D01*
X0227213Y0021626D02*
X0225037Y0021626D01*
X0224251Y0020840D02*
X0227999Y0020840D01*
X0229196Y0020055D02*
X0223054Y0020055D01*
X0233054Y0020055D02*
X0239196Y0020055D01*
X0238494Y0020345D02*
X0240201Y0019638D01*
X0242049Y0019638D01*
X0243756Y0020345D01*
X0245063Y0021652D01*
X0245770Y0023359D01*
X0245770Y0028891D01*
X0245063Y0030598D01*
X0243756Y0031905D01*
X0242049Y0032612D01*
X0240201Y0032612D01*
X0238494Y0031905D01*
X0237187Y0030598D01*
X0236480Y0028891D01*
X0236480Y0023359D01*
X0237187Y0021652D01*
X0238494Y0020345D01*
X0237999Y0020840D02*
X0234251Y0020840D01*
X0235037Y0021626D02*
X0237213Y0021626D01*
X0236872Y0022412D02*
X0235378Y0022412D01*
X0235703Y0023198D02*
X0236547Y0023198D01*
X0236480Y0023984D02*
X0235770Y0023984D01*
X0235770Y0024770D02*
X0236480Y0024770D01*
X0236480Y0025556D02*
X0235770Y0025556D01*
X0235770Y0026342D02*
X0236480Y0026342D01*
X0236480Y0027128D02*
X0235770Y0027128D01*
X0235770Y0027914D02*
X0236480Y0027914D01*
X0236480Y0028700D02*
X0235770Y0028700D01*
X0235524Y0029486D02*
X0236726Y0029486D01*
X0237052Y0030271D02*
X0235198Y0030271D01*
X0234604Y0031057D02*
X0237646Y0031057D01*
X0238432Y0031843D02*
X0233818Y0031843D01*
X0243818Y0031843D02*
X0248432Y0031843D01*
X0248494Y0031905D02*
X0247187Y0030598D01*
X0246480Y0028891D01*
X0246480Y0023359D01*
X0247187Y0021652D01*
X0248494Y0020345D01*
X0250201Y0019638D01*
X0252049Y0019638D01*
X0253756Y0020345D01*
X0255063Y0021652D01*
X0255770Y0023359D01*
X0255770Y0028891D01*
X0255063Y0030598D01*
X0253756Y0031905D01*
X0252049Y0032612D01*
X0250201Y0032612D01*
X0248494Y0031905D01*
X0247646Y0031057D02*
X0244604Y0031057D01*
X0245198Y0030271D02*
X0247052Y0030271D01*
X0246726Y0029486D02*
X0245524Y0029486D01*
X0245770Y0028700D02*
X0246480Y0028700D01*
X0246480Y0027914D02*
X0245770Y0027914D01*
X0245770Y0027128D02*
X0246480Y0027128D01*
X0246480Y0026342D02*
X0245770Y0026342D01*
X0245770Y0025556D02*
X0246480Y0025556D01*
X0246480Y0024770D02*
X0245770Y0024770D01*
X0245770Y0023984D02*
X0246480Y0023984D01*
X0246547Y0023198D02*
X0245703Y0023198D01*
X0245378Y0022412D02*
X0246872Y0022412D01*
X0247213Y0021626D02*
X0245037Y0021626D01*
X0244251Y0020840D02*
X0247999Y0020840D01*
X0249196Y0020055D02*
X0243054Y0020055D01*
X0253054Y0020055D02*
X0259196Y0020055D01*
X0258494Y0020345D02*
X0260201Y0019638D01*
X0262049Y0019638D01*
X0263756Y0020345D01*
X0265063Y0021652D01*
X0265770Y0023359D01*
X0265770Y0028891D01*
X0265063Y0030598D01*
X0263756Y0031905D01*
X0262049Y0032612D01*
X0260201Y0032612D01*
X0258494Y0031905D01*
X0257187Y0030598D01*
X0256480Y0028891D01*
X0256480Y0023359D01*
X0257187Y0021652D01*
X0258494Y0020345D01*
X0257999Y0020840D02*
X0254251Y0020840D01*
X0255037Y0021626D02*
X0257213Y0021626D01*
X0256872Y0022412D02*
X0255378Y0022412D01*
X0255703Y0023198D02*
X0256547Y0023198D01*
X0256480Y0023984D02*
X0255770Y0023984D01*
X0255770Y0024770D02*
X0256480Y0024770D01*
X0256480Y0025556D02*
X0255770Y0025556D01*
X0255770Y0026342D02*
X0256480Y0026342D01*
X0256480Y0027128D02*
X0255770Y0027128D01*
X0255770Y0027914D02*
X0256480Y0027914D01*
X0256480Y0028700D02*
X0255770Y0028700D01*
X0255524Y0029486D02*
X0256726Y0029486D01*
X0257052Y0030271D02*
X0255198Y0030271D01*
X0254604Y0031057D02*
X0257646Y0031057D01*
X0258432Y0031843D02*
X0253818Y0031843D01*
X0263818Y0031843D02*
X0268432Y0031843D01*
X0267646Y0031057D02*
X0264604Y0031057D01*
X0265198Y0030271D02*
X0267052Y0030271D01*
X0266726Y0029486D02*
X0265524Y0029486D01*
X0265770Y0028700D02*
X0266480Y0028700D01*
X0266480Y0027914D02*
X0265770Y0027914D01*
X0265770Y0027128D02*
X0266480Y0027128D01*
X0266480Y0026342D02*
X0265770Y0026342D01*
X0265770Y0025556D02*
X0266480Y0025556D01*
X0266480Y0024770D02*
X0265770Y0024770D01*
X0265770Y0023984D02*
X0266480Y0023984D01*
X0266547Y0023198D02*
X0265703Y0023198D01*
X0265378Y0022412D02*
X0266872Y0022412D01*
X0267213Y0021626D02*
X0265037Y0021626D01*
X0264251Y0020840D02*
X0267999Y0020840D01*
X0269196Y0020055D02*
X0263054Y0020055D01*
X0275037Y0021626D02*
X0279591Y0021626D01*
X0278130Y0022412D02*
X0275378Y0022412D01*
X0275703Y0023198D02*
X0277344Y0023198D01*
X0276878Y0023984D02*
X0275770Y0023984D01*
X0275770Y0024770D02*
X0276552Y0024770D01*
X0276382Y0025556D02*
X0275770Y0025556D01*
X0275770Y0026342D02*
X0276382Y0026342D01*
X0276406Y0027128D02*
X0275770Y0027128D01*
X0275770Y0027914D02*
X0276732Y0027914D01*
X0277057Y0028700D02*
X0275770Y0028700D01*
X0275524Y0029486D02*
X0277777Y0029486D01*
X0278741Y0030271D02*
X0275198Y0030271D01*
X0274604Y0031057D02*
X0280350Y0031057D01*
X0280350Y0031843D02*
X0273818Y0031843D01*
X0263688Y0078212D02*
X0255337Y0078212D01*
X0255337Y0078998D02*
X0263688Y0078998D01*
X0263688Y0079784D02*
X0255337Y0079784D01*
X0255337Y0080570D02*
X0263794Y0080570D01*
X0264238Y0081356D02*
X0255337Y0081356D01*
X0255337Y0082142D02*
X0264238Y0082142D01*
X0264238Y0082928D02*
X0255337Y0082928D01*
X0255337Y0083714D02*
X0263878Y0083714D01*
X0263507Y0084499D02*
X0255337Y0084499D01*
X0255661Y0085285D02*
X0263507Y0085285D01*
X0263507Y0086071D02*
X0256279Y0086071D01*
X0256604Y0086857D02*
X0263507Y0086857D01*
X0263507Y0087643D02*
X0256672Y0087643D01*
X0256641Y0088429D02*
X0263507Y0088429D01*
X0263507Y0089215D02*
X0256316Y0089215D01*
X0255750Y0090001D02*
X0263507Y0090001D01*
X0263507Y0090787D02*
X0254608Y0090787D01*
X0252017Y0090787D02*
X0249450Y0090787D01*
X0250282Y0091573D02*
X0263507Y0091573D01*
X0264177Y0092359D02*
X0251114Y0092359D01*
X0251946Y0093144D02*
X0265869Y0093144D01*
X0263569Y0093930D02*
X0252778Y0093930D01*
X0250875Y0090001D02*
X0248617Y0090001D01*
X0247800Y0089215D02*
X0250309Y0089215D01*
X0244331Y0100218D02*
X0274133Y0100218D01*
X0266850Y0106505D02*
X0260334Y0106505D01*
X0261416Y0107291D02*
X0266850Y0107291D01*
X0249641Y0124581D02*
X0210337Y0124581D01*
X0210337Y0125367D02*
X0249827Y0125367D01*
X0250152Y0126153D02*
X0210337Y0126153D01*
X0210337Y0126939D02*
X0250938Y0126939D01*
D29*
X0243937Y0097062D03*
X0238000Y0078000D03*
X0218000Y0079250D03*
X0214250Y0033000D03*
X0226125Y0033000D03*
X0236125Y0033000D03*
X0245525Y0033400D03*
X0256125Y0033000D03*
X0266125Y0033000D03*
X0276750Y0033000D03*
X0286750Y0033000D03*
X0286750Y0068938D03*
X0286750Y0144563D03*
X0132375Y0147375D03*
X0119875Y0147375D03*
X0071438Y0171125D03*
X0070813Y0150500D03*
X0058312Y0148000D03*
X0036125Y0096125D03*
X0028625Y0091125D03*
X0030500Y0072375D03*
X0037375Y0072375D03*
X0083313Y0083000D03*
X0090812Y0092375D03*
X0102062Y0079250D03*
X0112375Y0022375D03*
D30*
X0176125Y0081750D03*
X0170500Y0085500D03*
X0153313Y0098937D03*
X0185812Y0111125D03*
X0196125Y0100500D03*
X0199875Y0096750D03*
X0205500Y0096125D03*
X0211750Y0090500D03*
X0223937Y0091437D03*
X0208312Y0106125D03*
X0202375Y0106125D03*
X0191750Y0084875D03*
X0198000Y0073000D03*
X0212375Y0067375D03*
X0221125Y0069250D03*
X0218937Y0053312D03*
X0208625Y0052375D03*
X0253312Y0087687D03*
X0265500Y0096750D03*
X0258937Y0109562D03*
X0254250Y0116750D03*
X0253000Y0124250D03*
X0234875Y0112062D03*
X0218625Y0128000D03*
X0235187Y0153938D03*
X0220812Y0163938D03*
X0228625Y0165500D03*
X0228625Y0173625D03*
X0234875Y0184562D03*
X0231125Y0193625D03*
X0236125Y0198625D03*
X0241125Y0203625D03*
X0246125Y0208625D03*
X0218625Y0191437D03*
X0203512Y0182912D03*
X0211125Y0171125D03*
X0205500Y0158625D03*
X0196750Y0154250D03*
X0196750Y0163938D03*
X0175500Y0169250D03*
X0173000Y0180187D03*
X0181750Y0180500D03*
X0168625Y0193937D03*
X0185812Y0195187D03*
X0191625Y0195375D03*
X0141438Y0197375D03*
X0074875Y0204875D03*
X0177375Y0128312D03*
X0260500Y0070500D03*
X0281125Y0158625D03*
X0263313Y0166750D03*
X0266750Y0177687D03*
X0260812Y0182687D03*
D31*
X0028625Y0196750D03*
X0028625Y0145500D03*
D32*
X0034254Y0214939D03*
X0084270Y0028316D03*
X0280583Y0200559D03*
D33*
X0162063Y0056750D03*
D34*
X0137688Y0056750D01*
X0108782Y0085052D01*
X0140500Y0037061D02*
X0140500Y0026180D01*
X0141125Y0026180D01*
X0171125Y0026180D02*
X0170812Y0036748D01*
X0041125Y0131125D02*
X0041125Y0180812D01*
X0046437Y0186125D01*
X0061125Y0186125D01*
X0081125Y0186125D01*
D35*
X0061125Y0186125D02*
X0061125Y0180584D01*
X0061123Y0180551D01*
X0061118Y0180519D01*
X0061110Y0180487D01*
X0061098Y0180457D01*
X0061083Y0180428D01*
X0061065Y0180400D01*
X0061045Y0180375D01*
X0061021Y0180351D01*
X0060996Y0180331D01*
X0060969Y0180313D01*
X0060939Y0180298D01*
X0060909Y0180286D01*
X0060877Y0180278D01*
X0060845Y0180273D01*
X0060812Y0180271D01*
X0108625Y0096863D02*
X0108700Y0096792D01*
X0108771Y0096718D01*
X0108840Y0096642D01*
X0108906Y0096562D01*
X0108968Y0096481D01*
X0109028Y0096397D01*
X0109084Y0096311D01*
X0109137Y0096223D01*
X0109186Y0096132D01*
X0109232Y0096040D01*
X0109274Y0095947D01*
X0109313Y0095851D01*
X0109348Y0095755D01*
X0109380Y0095657D01*
X0109407Y0095558D01*
X0109431Y0095458D01*
X0109451Y0095357D01*
X0109467Y0095255D01*
X0109479Y0095153D01*
X0109487Y0095051D01*
X0109491Y0094948D01*
X0109492Y0094845D01*
X0109488Y0094742D01*
X0109481Y0094640D01*
X0109469Y0094538D01*
X0109454Y0094436D01*
X0109434Y0094335D01*
X0109411Y0094235D01*
X0109384Y0094136D01*
X0109354Y0094037D01*
X0109319Y0093941D01*
X0109281Y0093845D01*
X0109239Y0093751D01*
X0109194Y0093659D01*
X0109145Y0093568D01*
X0109093Y0093480D01*
X0109037Y0093393D01*
X0108978Y0093309D01*
X0108916Y0093227D01*
X0108851Y0093147D01*
X0108783Y0093071D01*
X0162063Y0056750D02*
X0168541Y0063229D01*
X0170499Y0064479D01*
X0191750Y0084875D02*
X0191750Y0086125D01*
X0191125Y0086750D01*
X0191125Y0105500D01*
X0192375Y0106125D01*
X0202375Y0106125D01*
X0223937Y0091437D02*
X0219250Y0084875D01*
X0191750Y0084875D01*
X0223937Y0091437D02*
X0246125Y0091437D01*
X0251750Y0096750D01*
X0265500Y0096750D01*
X0268625Y0096750D01*
X0268625Y0087887D01*
X0268625Y0096750D02*
X0274563Y0096750D01*
X0288313Y0110500D01*
X0288313Y0131750D01*
X0283938Y0136125D01*
X0281625Y0136125D01*
X0030347Y0081750D02*
X0030325Y0081752D01*
X0030303Y0081756D01*
X0030282Y0081764D01*
X0030262Y0081775D01*
X0030244Y0081788D01*
X0030228Y0081804D01*
X0030215Y0081822D01*
X0030204Y0081842D01*
X0030196Y0081863D01*
X0030192Y0081885D01*
X0030190Y0081907D01*
D36*
X0030347Y0081750D02*
X0039479Y0081750D01*
X0050500Y0113625D02*
X0059676Y0113625D01*
X0108782Y0093071D02*
X0108782Y0085052D01*
X0116123Y0041038D02*
X0122687Y0036748D01*
X0116123Y0041038D02*
X0111561Y0034223D01*
X0187116Y0043634D02*
X0188310Y0044828D01*
X0193920Y0044828D01*
D37*
X0173674Y0047698D03*
X0110841Y0067079D03*
X0139875Y0158938D03*
D38*
X0051125Y0132125D02*
X0050500Y0113625D01*
X0050500Y0106750D01*
X0120817Y0037061D01*
X0122687Y0036748D01*
X0140500Y0037061D01*
X0170812Y0036748D01*
X0183044Y0036748D01*
X0187116Y0040820D01*
X0187116Y0043634D01*
X0187116Y0080241D01*
X0191750Y0084875D01*
X0173674Y0047698D02*
X0125846Y0047698D01*
X0111154Y0062702D01*
X0110841Y0067079D01*
X0050500Y0113625D02*
X0050500Y0113625D01*
X0050500Y0113625D01*
X0050500Y0113625D01*
D39*
X0109875Y0181248D02*
X0132252Y0181248D01*
X0144250Y0169250D01*
X0175500Y0169250D01*
X0173000Y0180187D02*
X0143625Y0180187D01*
X0134316Y0189496D01*
X0109875Y0189496D01*
X0113937Y0202062D02*
X0109250Y0206750D01*
X0076750Y0206750D01*
X0074875Y0204875D01*
X0104625Y0216125D02*
X0104875Y0216125D01*
X0104875Y0215500D01*
X0114875Y0205500D01*
X0146750Y0205500D01*
X0153313Y0198937D01*
X0182062Y0198937D01*
X0185812Y0195187D01*
X0185656Y0195344D01*
X0183625Y0190187D02*
X0201125Y0190187D01*
X0202375Y0191437D01*
X0218625Y0191437D01*
X0226750Y0197062D02*
X0193687Y0197062D01*
X0191625Y0195375D01*
X0196237Y0200500D02*
X0194987Y0201750D01*
X0154563Y0201750D01*
X0148000Y0208312D01*
X0142063Y0208312D01*
X0134563Y0215812D01*
X0134625Y0216125D01*
X0134875Y0216125D01*
X0144625Y0216125D02*
X0144875Y0216125D01*
X0144875Y0215500D01*
X0155813Y0204562D01*
X0196575Y0204562D01*
X0197512Y0203625D01*
X0241125Y0203625D01*
X0236437Y0208625D02*
X0235187Y0207375D01*
X0163000Y0207375D01*
X0154875Y0215500D01*
X0154875Y0216125D01*
X0154625Y0216125D01*
X0144783Y0201842D02*
X0158000Y0188625D01*
X0179875Y0188625D01*
X0190812Y0175812D01*
X0206125Y0175812D01*
X0210187Y0179875D01*
X0236750Y0179875D01*
X0238625Y0178000D01*
X0266750Y0178000D01*
X0266750Y0177687D01*
X0263313Y0166750D02*
X0229875Y0166750D01*
X0228625Y0165500D01*
X0228625Y0173625D02*
X0213625Y0173625D01*
X0211125Y0171125D01*
X0205500Y0158625D02*
X0139875Y0158938D01*
X0153938Y0184875D02*
X0141438Y0197375D01*
X0144250Y0202062D02*
X0144304Y0202060D01*
X0144357Y0202054D01*
X0144410Y0202045D01*
X0144462Y0202031D01*
X0144513Y0202014D01*
X0144563Y0201994D01*
X0144611Y0201970D01*
X0144658Y0201942D01*
X0144702Y0201912D01*
X0144744Y0201878D01*
X0144783Y0201841D01*
X0144250Y0202062D02*
X0113937Y0202062D01*
X0153938Y0184875D02*
X0177687Y0184875D01*
X0181125Y0181437D01*
X0181750Y0180500D01*
X0183625Y0190187D02*
X0179875Y0193937D01*
X0168625Y0193937D01*
X0196237Y0200500D02*
X0234250Y0200500D01*
X0236125Y0198625D01*
X0231125Y0193625D02*
X0226750Y0197062D01*
X0231750Y0187375D02*
X0251125Y0206750D01*
X0251125Y0216125D01*
X0246125Y0208625D02*
X0236437Y0208625D01*
X0231750Y0187375D02*
X0207375Y0187375D01*
X0203512Y0182912D01*
X0205500Y0158625D02*
X0281125Y0158625D01*
X0269875Y0149250D02*
X0276750Y0140500D01*
X0276750Y0131000D01*
X0281625Y0126125D01*
X0271625Y0126125D02*
X0269563Y0126125D01*
X0265188Y0130500D01*
X0265188Y0137375D01*
X0258625Y0143938D01*
X0187062Y0143938D01*
X0164875Y0121750D01*
X0164875Y0104250D01*
X0175812Y0087687D01*
X0175812Y0082063D01*
X0176125Y0081750D01*
X0170500Y0085500D02*
X0162375Y0101437D01*
X0162375Y0122687D01*
X0186437Y0146750D01*
X0265188Y0146750D01*
X0271438Y0140500D01*
X0271438Y0136313D01*
X0271625Y0136125D01*
X0262062Y0136438D02*
X0262062Y0125812D01*
X0266125Y0121750D01*
X0266125Y0111625D01*
X0258937Y0109562D02*
X0258625Y0109875D01*
X0251125Y0109875D01*
X0239250Y0098000D01*
X0207375Y0098000D01*
X0205500Y0096125D01*
X0203312Y0100187D02*
X0235187Y0100187D01*
X0251750Y0116750D01*
X0254250Y0116750D01*
X0253000Y0124250D02*
X0231125Y0102375D01*
X0198000Y0102375D01*
X0196125Y0100500D01*
X0199875Y0096750D02*
X0203312Y0100187D01*
X0208312Y0106125D02*
X0208312Y0137688D01*
X0212062Y0141438D01*
X0257062Y0141438D01*
X0262062Y0136438D01*
X0269875Y0126125D02*
X0271625Y0126125D01*
X0269875Y0149250D02*
X0185500Y0149250D01*
X0153313Y0117062D01*
X0153313Y0098937D01*
X0253312Y0087687D02*
X0253312Y0068938D01*
X0282375Y0039875D01*
X0282375Y0027375D01*
X0281125Y0026125D01*
X0280500Y0026125D01*
M02*
