G75*
%MOIN*%
%OFA0B0*%
%FSLAX25Y25*%
%IPPOS*%
%LPD*%
%AMOC8*
5,1,8,0,0,1.08239X$1,22.5*
%
%ADD10C,0.06940*%
%ADD11R,0.04400X0.06300*%
%ADD12C,0.06546*%
%ADD13OC8,0.16548*%
%ADD14C,0.08477*%
%ADD15R,0.07137X0.07137*%
%ADD16C,0.07137*%
%ADD17C,0.05562*%
%ADD18OC8,0.06940*%
%ADD19C,0.07800*%
%ADD20R,0.07800X0.07800*%
%ADD21C,0.06350*%
%ADD22OC8,0.07200*%
%ADD23C,0.07200*%
%ADD24R,0.06300X0.04400*%
%ADD25R,0.07099X0.07887*%
%ADD26R,0.07887X0.07099*%
%ADD27C,0.04762*%
%ADD28C,0.07296*%
%ADD29C,0.17398*%
%ADD30C,0.05800*%
%ADD31C,0.05550*%
D10*
X0221125Y0024283D02*
X0221125Y0027967D01*
X0231125Y0027967D02*
X0231125Y0024283D01*
X0241125Y0024283D02*
X0241125Y0027967D01*
X0251125Y0027967D02*
X0251125Y0024283D01*
X0261125Y0024283D02*
X0261125Y0027967D01*
X0271125Y0027967D02*
X0271125Y0024283D01*
D11*
X0202213Y0044828D03*
X0193920Y0044828D03*
X0111561Y0034223D03*
X0103268Y0034223D03*
X0047771Y0081750D03*
X0039479Y0081750D03*
D12*
X0131125Y0027904D02*
X0131125Y0024456D01*
X0141125Y0024456D02*
X0141125Y0027904D01*
X0151125Y0027904D02*
X0151125Y0024456D01*
X0161125Y0024456D02*
X0161125Y0027904D01*
X0171125Y0027904D02*
X0171125Y0024456D01*
X0181125Y0024456D02*
X0181125Y0027904D01*
X0191125Y0027904D02*
X0191125Y0024456D01*
X0201125Y0024456D02*
X0201125Y0027904D01*
X0201125Y0214401D02*
X0201125Y0217849D01*
X0211125Y0217849D02*
X0211125Y0214401D01*
X0221125Y0214401D02*
X0221125Y0217849D01*
X0231125Y0217849D02*
X0231125Y0214401D01*
X0241125Y0214401D02*
X0241125Y0217849D01*
X0251125Y0217849D02*
X0251125Y0214401D01*
X0261125Y0214401D02*
X0261125Y0217849D01*
X0271125Y0217849D02*
X0271125Y0214401D01*
X0184625Y0214401D02*
X0184625Y0217849D01*
X0174625Y0217849D02*
X0174625Y0214401D01*
X0164625Y0214401D02*
X0164625Y0217849D01*
X0154625Y0217849D02*
X0154625Y0214401D01*
X0144625Y0214401D02*
X0144625Y0217849D01*
X0134625Y0217849D02*
X0134625Y0214401D01*
X0124625Y0214401D02*
X0124625Y0217849D01*
X0114625Y0217849D02*
X0114625Y0214401D01*
X0104625Y0214401D02*
X0104625Y0217849D01*
X0094625Y0217849D02*
X0094625Y0214401D01*
D13*
X0071125Y0050825D03*
X0047525Y0050825D03*
X0059325Y0031125D03*
D14*
X0056325Y0031125D03*
X0062325Y0031125D03*
X0071125Y0047825D03*
X0071125Y0053825D03*
X0047525Y0053825D03*
X0047525Y0047825D03*
D15*
X0081125Y0196125D03*
D16*
X0081125Y0186125D03*
X0081125Y0176125D03*
X0081125Y0166125D03*
X0081125Y0156125D03*
X0081125Y0146125D03*
X0281125Y0026125D03*
D17*
X0178000Y0057376D03*
X0180500Y0113312D03*
X0180500Y0119875D03*
X0217062Y0119875D03*
X0217062Y0113312D03*
X0118625Y0166125D03*
X0111125Y0166125D03*
X0109875Y0181248D03*
X0109875Y0189496D03*
D18*
X0271625Y0136125D03*
X0281625Y0136125D03*
X0281625Y0126125D03*
X0271625Y0126125D03*
X0271625Y0116125D03*
X0281625Y0116125D03*
D19*
X0146184Y0147060D03*
X0092198Y0119309D03*
X0108782Y0085052D03*
X0092198Y0081907D03*
X0146184Y0085052D03*
X0030190Y0119309D03*
D20*
X0030190Y0081907D03*
X0108782Y0147060D03*
D21*
X0089875Y0146125D03*
D22*
X0271625Y0106125D03*
D23*
X0061125Y0129205D02*
X0061125Y0133045D01*
X0051125Y0134045D02*
X0051125Y0130205D01*
X0041125Y0129205D02*
X0041125Y0133045D01*
D24*
X0060812Y0171979D03*
X0060812Y0180271D03*
X0170499Y0072772D03*
X0170499Y0064479D03*
D25*
X0070699Y0113625D03*
X0059676Y0113625D03*
D26*
X0108625Y0107887D03*
X0108625Y0096863D03*
X0268625Y0087887D03*
X0268625Y0076863D03*
D27*
X0286750Y0068938D03*
X0286750Y0033000D03*
X0276750Y0033000D03*
X0266125Y0033000D03*
X0256125Y0033000D03*
X0245525Y0033400D03*
X0236125Y0033000D03*
X0226125Y0033000D03*
X0214250Y0033000D03*
X0218000Y0079250D03*
X0238000Y0078000D03*
X0243937Y0097062D03*
X0286750Y0144563D03*
X0132375Y0147375D03*
X0119875Y0147375D03*
X0071438Y0171125D03*
X0070813Y0150500D03*
X0058312Y0148000D03*
X0036125Y0096125D03*
X0028625Y0091125D03*
X0030500Y0072375D03*
X0037375Y0072375D03*
X0083313Y0083000D03*
X0090812Y0092375D03*
X0102062Y0079250D03*
X0112375Y0022375D03*
D28*
X0028625Y0145500D03*
X0028625Y0196750D03*
D29*
X0034254Y0214939D03*
X0084270Y0028316D03*
X0280583Y0200559D03*
D30*
X0162063Y0056750D03*
D31*
X0173674Y0047698D03*
X0110841Y0067079D03*
X0139875Y0158938D03*
M02*
