%
M48
M72
T01C0.0197
T02C0.0236
T03C0.0315
T04C0.0335
T05C0.0374
T06C0.0394
T07C0.0400
T08C0.0433
T09C0.0512
T10C0.1260
%
T01
X15331Y9894
X17050Y8550
X17613Y8175
X19175Y8488
X19988Y9675
X19613Y10050
X20238Y10613
X20831Y10613
X20550Y9613
X21175Y9050
X22394Y9144
X23488Y11206
X25425Y11675
X25300Y12425
X25894Y10956
X26550Y9675
X25331Y8769
X26050Y7050
X22113Y6925
X21238Y6738
X19800Y7300
X21894Y5331
X20863Y5238
X18581Y11113
X17738Y12831
X19675Y15425
X20550Y15863
X19675Y16394
X21113Y17113
X22081Y16394
X22863Y16550
X22863Y17363
X23488Y18456
X23113Y19363
X23613Y19863
X24113Y20363
X24613Y20863
X21863Y19144
X20351Y18291
X19163Y19538
X18581Y19519
X16863Y19394
X17300Y18019
X18175Y18050
X17550Y16925
X14144Y19738
X7488Y20488
X21863Y12800
X23519Y15394
X26331Y16675
X26675Y17769
X26081Y18269
X28113Y15863
T02
X28675Y14456
X24394Y9706
X23800Y7800
X21800Y7925
X17800Y5738
X21425Y3300
X22613Y3300
X23613Y3300
X24553Y3340
X25613Y3300
X26613Y3300
X27675Y3300
X28675Y3300
X28675Y6894
X21706Y11331
X21706Y11988
X18050Y11988
X18050Y11331
X13238Y14738
X11988Y14738
X11863Y16613
X11113Y16613
X10988Y18125
X10988Y18950
X7144Y17113
X7081Y15050
X5831Y14800
X3613Y9613
X2863Y9113
X3050Y7238
X3738Y7238
X8331Y8300
X9081Y9238
X10206Y7925
X11238Y2238
T03
X16206Y5675
X17367Y4770
X11084Y6708
X8988Y14613
X13988Y15894
T04
X14463Y21613
X15463Y21613
X16463Y21613
X17463Y21613
X18463Y21613
X20113Y21613
X21113Y21613
X22113Y21613
X23113Y21613
X24113Y21613
X25113Y21613
X26113Y21613
X27113Y21613
X13463Y21613
X12463Y21613
X11463Y21613
X10463Y21613
X9463Y21613
X13113Y2618
X14113Y2618
X15113Y2618
X16113Y2618
X17113Y2618
X18113Y2618
X19113Y2618
X20113Y2618
T05
X22113Y2613
X23113Y2613
X24113Y2613
X25113Y2613
X26113Y2613
X27113Y2613
X27163Y11613
X28163Y11613
X28163Y12613
X27163Y12613
X27163Y13613
X28163Y13613
T06
X14618Y14706
X10878Y14706
X8113Y14613
X8113Y15613
X8113Y16613
X8113Y17613
X8113Y18613
X8113Y19613
X9220Y11931
X10878Y8505
X9220Y8191
X14618Y8505
X3019Y8191
X3019Y11931
X28113Y2613
T07
X27163Y10613
X6113Y13113
X5113Y13213
X4113Y13113
T08
X2863Y14550
X2863Y19675
T09
X5633Y3113
X5933Y3113
X6233Y3113
X7113Y4783
X7113Y5083
X7113Y5383
X4753Y5383
X4753Y5083
X4753Y4783
T10
X8427Y2832
X28058Y20056
X3425Y21494
M30
